<svg xmlns="http://www.w3.org/2000/svg" viewBox="0 0 1889 1200">
<path d="M1550 0l309 0c17 0 30 13 30 30l0 1140c0 16-13 30-30 30l-309 0c-17 0-30-14-30-30l0-90-121-121-130 130c-12 12-31 12-43 0l-130-130-130 130c-12 12-31 12-43 0l-130-130-130 130c-12 12-31 12-43 0l-130-130-121 121 0 90c0 16-13 30-30 30l-309 0c-17 0-30-14-30-30l0-1140c0-17 13-30 30-30l309 0c17 0 30 13 30 30l0 90 121 121 130-130c12-12 31-12 43 0l130 130 130-130c12-12 31-12 43 0l130 130 130-130c12-12 31-12 43 0l130 130 121-121 0-90c0-17 13-30 30-30zm30 807c0 16-14 30-30 30-17 0-30-14-30-30l0-414c0-17 13-30 30-30 16 0 30 13 30 30l0 414zm-1211 0c0 16-13 30-30 30-16 0-30-14-30-30l0-414c0-17 14-30 30-30 17 0 30 13 30 30l0 414zm1335-305c27 0 52 11 69 29 18 17 29 42 29 69 0 27-11 51-29 69-17 18-42 29-69 29-27 0-51-11-69-29-17-18-28-42-28-69 0-27 11-52 28-69 18-18 42-29 69-29zm27 71c-7-7-16-11-27-11-10 0-20 4-26 11-7 7-11 16-11 27 0 10 4 20 11 27 6 6 16 11 26 11 11 0 20-5 27-11 7-7 11-17 11-27 0-11-4-20-11-27zm-1546-71c27 0 51 11 69 29 17 17 28 42 28 69 0 27-11 51-28 69-18 18-42 29-69 29-27 0-52-11-69-29-18-18-29-42-29-69 0-27 11-52 29-69 17-18 42-29 69-29zm26 71c-6-7-16-11-26-11-11 0-20 4-27 11-7 7-11 16-11 27 0 10 4 20 11 27 7 6 16 11 27 11 10 0 20-5 26-11 7-7 11-17 11-27 0-11-4-20-11-27zm1618-513l-249 0 0 73c0 7-3 15-9 21l-151 151c-12 11-31 11-42 0l-131-130-130 130c-12 11-31 11-42 0l-130-130-131 130c-11 11-30 11-42 0l-130-130-131 130c-11 11-30 11-42 0l-151-151c-5-6-9-13-9-21l0-73-249 0 0 1080 249 0 0-73c0-7 3-15 9-21l151-151c12-12 31-12 42 0l131 130 130-130c12-12 31-12 42 0l131 130 130-130c11-12 30-12 42 0l130 130 131-130c11-12 30-12 42 0l151 151c5 5 9 13 9 21l0 73 249 0 0-1080z"/>
</svg>
