<svg xmlns="http://www.w3.org/2000/svg" viewBox="0 0 512 512">
<path d="M282.5 42.9c-1.6 1-3.7 2.7-4.6 3.7-.9 1-8.9 17.4-17.8 36.4-8.9 18.9-16.5 34.8-17 35.3-.4.4-18 3.4-38.9 6.7-41.4 6.3-42.3 6.6-45.6 13.4-1.9 4-2 10.2-.3 13.3.7 1.3 13.7 15 28.9 30.6l27.6 28.4-4.1 25.7-4.2 25.7-11-.7c-25.8-1.5-50.7 5.6-69.3 19.9-7.4 5.7-17.9 16.9-23.1 24.6l-4.1 6-3.7-2.4c-4.5-3.1-11.2-3.6-15.8-1.3-2.9 1.6-35.1 27.5-40.6 32.8-5.9 5.6-7.3 11.6-4.2 17.7 2.8 5.6 86.3 108.3 89.8 110.5 3.6 2.1 10.9 2.4 14.7.4 4.9-2.6 42.4-33.6 44.1-36.6 2-3.3 2.4-10.2.8-14.2-.5-1.5-.7-2.9-.2-3.2.4-.3 4.3-1.4 8.7-2.5 19.5-5.1 41.5-6.4 59.4-3.6 5.2.8 13.8 2.2 19 3 12.4 2 32.3 2 42.5 0 26.3-5 56.2-20.2 85.5-43.5 12.4-9.8 38.8-36 48.4-48 16.5-20.7 28.4-41.6 30.7-54 1.1-6 1-7-.9-11.3-1.7-3.8-3-5.2-6.4-6.7-5.5-2.5-8-2.5-16.4.1-13.7 4.2-42.9 21.3-68.4 40-10.1 7.4-9.6 7.3-9.2 3.1.1-2.1-2.6-21.2-6.1-42.7l-6.5-38.9 27-27.6c14.9-15.1 27.9-28.9 28.9-30.5 2.3-3.6 2.5-10.5.4-14.5-3.3-6.4-4.7-6.8-45.6-13.1-20.9-3.2-38.4-6.1-38.8-6.3-.4-.3-8.1-16.3-17.1-35.6-9.1-19.4-17.6-36.3-19-37.7-4.7-4.7-12.2-5.7-17.5-2.4zM307 95.2c11.3 24.1 17.3 35.7 19 37 2 1.4 11 3.1 39.5 7.4 20.4 3.1 37.6 5.7 38.3 6 .8.2-10.1 12.2-26.8 29.2-15.4 15.8-28.4 29.8-28.7 31.1-.3 1.4 2.2 19.7 5.6 40.9 3.5 21.1 6.1 38.5 5.9 38.6-1.4 1.1-13.5-4.7-38.3-18.4-19.5-10.8-30-16-32-16-1.9 0-10.1 3.9-22.9 11l-19.9 11-6.2-2.5c-3.4-1.3-8.8-3.1-12-4-3.2-.8-5.9-1.6-6-1.7-.1-.2 1.8-12.9 4.3-28.3 2.5-15.7 4.3-29.1 3.9-30.6-.4-1.5-12-14.2-28.3-30.8-15.2-15.6-27.2-28.6-26.8-29.1.5-.4 17.5-3.3 37.9-6.3 28.5-4.3 37.5-6 39.5-7.5 2.3-1.8 7.2-11.7 31.3-63 2.7-5.7 5.2-10.1 5.5-9.7.4.3 8.1 16.4 17.2 35.7zm155.5 170c-1.4 4.9-7.6 17-12.7 25-12.2 19.1-37.6 47.1-58.1 64.1-13.7 11.4-32.2 23.7-45.2 30.1-28.2 13.8-48.1 16.6-80.3 10.9-13.7-2.4-18.3-2.7-35.7-2.7-21.8 0-31.2 1.4-49.6 7.3l-8.8 2.9-31.1-38.4c-17-21.1-31-38.6-31-39 0-1.6 7.4-12.6 12.7-18.6 8-9.4 17.2-16.4 27.8-21.4 13.8-6.4 21.3-7.9 39-7.8 21.4.2 30.4 2.1 56.6 12.2 18.5 7.2 37.7 9.5 76.4 9 24.3-.3 27.4-.1 31.2 1.5 2.3 1 4.4 2.5 4.7 3.4 1.9 4.8-11.1 17-25.9 24.3-15.6 7.8-21.7 8.3-60.6 4.9-25.7-2.2-36.8-2-45.9.7-2.7.8-5.4 2.3-6 3.4-1.6 3.1-1.2 7.8 1 10 2.3 2.3 4.9 2.4 15.5.9 6.3-1 12.3-.8 35.3 1.1 29.5 2.4 42.2 2.3 52.7-.4 8.4-2.2 22.7-9.6 31-16.1 48.9-38.3 82.9-61 101-67.6 6.4-2.4 6.8-2.3 6 .3zm-159.1 10 13.1 7.3-9 .3c-8.6.3-32.5-1.3-37.3-2.5-2-.5-.8-1.5 8-6.4 5.6-3.2 10.7-5.8 11.2-5.9.4 0 6.7 3.3 14 7.2zm-175.8 98c22.4 27.6 40.7 50.8 40.8 51.5.1.7-8 7.8-17.8 15.8-17.2 13.9-18.1 14.5-19.7 12.8-3.4-3.5-80.9-99.7-80.9-100.4 0-.9 35.1-29.8 36.2-29.8.4-.1 19 22.5 41.4 50.1z"/>
</svg>
