<svg xmlns="http://www.w3.org/2000/svg" viewBox="0 0 325.9 325.9">
<path d="M297.4 47.8h-24.5v-7.1c0-9.3-7.5-16.8-16.8-16.8H69.7c-9.3 0-16.8 7.5-16.8 16.8v7.1H28.5C12.7 47.8 0 60.5 0 76.2v39.8c0 12.6 8.3 23.2 19.7 27v115.7L9.5 289.6c-1.6 5 1 10.3 6 11.9 1 0.3 2 0.5 3 0.5 4 0 7.7-2.5 9-6.5l10.7-32.4h0.4v-1.3L48.8 230.9c1.6-5-1-10.3-6-11.9 -1.4-0.5-2.8-0.5-4.2-0.4v-74.1h22.9v111.4h202.9V144.5h17.2v69.4c-2.4-1.9-5.7-2.5-8.8-1.5 -5 1.6-7.6 7-6 11.9l21.3 64.6c1.3 4 5 6.5 9 6.5 1 0 2-0.2 3-0.5 5-1.6 7.6-7 6-11.9l-6.6-19.9h1V144.2c14.3-1.5 25.4-13.5 25.4-28.2V76.2C325.9 60.5 313.1 47.8 297.4 47.8zM63.7 40.7c0-3.3 2.7-6 6-6H256.1c3.3 0 6 2.7 6 6v7.1H63.7V40.7zM253.6 144.5v100.6H72.3V144.5 123.9c0-8.1 4.1-19.5 8.9-24.8l8.7-9.6h146l8.7 9.6c4.8 5.3 8.9 16.7 8.9 24.8v20.6H253.6z"/>
<path d="M232.7 106.4H93.2c-3 0-5.4 2.4-5.4 5.4 0 3 2.4 5.4 5.4 5.4h139.5c3 0 5.4-2.4 5.4-5.4C238.1 108.8 235.6 106.4 232.7 106.4z"/>
</svg>
