<svg xmlns="http://www.w3.org/2000/svg" viewBox="0 0 404.666 404.666">
<path d="m136 5.128c2.139-4.486 7.511-6.389 11.997-4.251l3.007 1.434c4.487 2.14 6.39 7.511 4.251 11.997-1.543 3.237-4.769 5.129-8.13 5.129-1.299 0-2.617-0.282-3.867-0.878l-3.007-1.434c-4.488-2.139-6.39-7.51-4.251-11.997zm110.04 82.739l-72.152 34.407c-4.486 2.14-6.389 7.512-4.25 11.998 1.544 3.236 4.769 5.128 8.13 5.128 1.299 0 2.618-0.282 3.868-0.878l72.152-34.407c4.486-2.14 6.389-7.512 4.25-11.998-2.142-4.488-7.515-6.388-11.998-4.25zm-41.247-39.962l41.247 19.669c1.251 0.596 2.569 0.878 3.868 0.878 3.361 0 6.586-1.892 8.13-5.128 2.139-4.486 0.236-9.858-4.25-11.998l-41.247-19.669c-4.49-2.139-9.858-0.236-11.998 4.25-2.139 4.486-0.237 9.858 4.25 11.998zm-79.958 38.843h0.012l79.936-0.101c4.97-6e-3 8.994-4.041 8.988-9.012-6e-3 -4.967-4.034-8.988-9-8.988h-0.012l-79.936 0.101c-4.97 6e-3 -8.994 4.041-8.988 9.012 6e-3 4.966 4.034 8.988 9 8.988zm49.053-53.582l2.652 1.265c1.25 0.596 2.568 0.878 3.867 0.878 3.361 0 6.587-1.892 8.13-5.129 2.139-4.486 0.236-9.857-4.251-11.997l-2.652-1.265c-4.486-2.138-9.857-0.237-11.997 4.251-2.138 4.487-0.236 9.858 4.251 11.997zm-86.324 53.627h0.011l3.333-4e-3c4.971-6e-3 8.995-4.04 8.989-9.011-6e-3 -4.967-4.033-8.989-9-8.989h-0.011l-3.333 4e-3c-4.971 6e-3 -8.995 4.04-8.989 9.011 6e-3 4.967 4.034 8.989 9 8.989zm55.692 50.089l-3.008 1.435c-4.486 2.14-6.389 7.511-4.249 11.997 1.543 3.236 4.768 5.128 8.129 5.128 1.299 0 2.618-0.282 3.868-0.879l3.008-1.435c4.487-2.14 6.389-7.511 4.249-11.997-2.14-4.487-7.513-6.39-11.997-4.249zm199.29 116.21c-4.971 0-9 4.029-9 9v5.203c0 4.971 4.029 9 9 9s9-4.029 9-9v-5.203c0-4.97-4.03-9-9-9zm50.511-92.788v235.36c0 4.971-4.029 9-9 9h-141.22c-4.971 0-9-4.029-9-9v-235.36c0-4.328 3.055-7.942 7.126-8.805 5.591-16.503 18.561-30.016 35.494-38.091l4.246-40.361c0.481-4.581 4.344-8.059 8.95-8.059h47.586c4.606 0 8.469 3.478 8.95 8.059l4.247 40.363c16.934 8.074 29.902 21.586 35.494 38.089 4.072 0.863 7.127 4.477 7.127 8.805zm-97.837-53.201c5.85-1.228 11.957-1.875 18.226-1.875 6.271 0 12.377 0.647 18.229 1.875l-2.537-24.114h-31.382l-2.536 24.114zm-34.576 44.201h105.6c-8.934-16.574-29.666-28.076-52.804-28.076s-43.868 11.503-52.801 28.076zm114.41 18h-23.511v61.39c0 4.971-4.029 9-9 9s-9-4.029-9-9v-31.639c-1.645 2.152-4.238 3.541-7.156 3.541-4.971 0-9-4.029-9-9v-24.292h-65.552v217.36h123.22v-217.36zm-208.4 82.265v45.63h21.466c4.971 0 9 4.029 9 9s-4.029 9-9 9h-30.279c-0.125 2e-3 -0.248 2e-3 -0.373 0h-25.841v45.631h56.493c4.971 0 9 4.029 9 9s-4.029 9-9 9h-167.52c-4.971 0-9-4.029-9-9s4.029-9 9-9h93.031v-45.631h-62.38c-0.125 2e-3 -0.248 2e-3 -0.373 0h-30.278c-4.971 0-9-4.029-9-9s4.029-9 9-9h21.465v-45.63h-21.465c-4.971 0-9-4.029-9-9s4.029-9 9-9h53.736v-45.63h-53.736c-4.971 0-9-4.029-9-9s4.029-9 9-9h82.23c4.971 0 9 4.029 9 9s-4.029 9-9 9h-10.494v45.63h95.789c4.971 0 9 4.029 9 9s-4.029 9-9 9h-21.466zm-18 0h-88.594v45.63h88.594v-45.63z"/>
</svg>
