<svg xmlns="http://www.w3.org/2000/svg" viewBox="0 0 511.999 511.999">
<circle cx="240.97" cy="85.086" r="40.579"/>
<path d="m222.69 376.42c-7.11 11.42-20.724 16.31-33.205 12.618-6.308-1.866-11.622-5.75-15.328-10.812l-28.108 104.15c-3.381 12.527 4.034 25.424 16.562 28.805 12.526 3.38 25.424-4.035 28.805-16.563l32.376-119.96-1.102 1.77z"/>
<path d="m293.64 138.6h-82.163l-100.8-130.97c-6.597-8.567-18.89-10.168-27.458-3.573-8.569 6.595-10.168 18.889-3.572 27.458 114.61 148.9 107.11 139.46 109.27 141.36v48.468l79.621-16.047c9.01-6.249 52.292-36.263 61.942-42.955-6.696-11.181-17.328-23.741-36.836-23.741z"/>
<path d="m382.64 478.8l-90.025-198.56v-16.081l-38.664 62.083h7.926l77.965 171.96c5.361 11.823 19.285 17.053 31.101 11.698 11.818-5.359 17.055-19.283 11.697-31.101z"/>
<path d="m435.48 189.64c-1.875-5.843-6.241-10.189-11.546-12.256l-26.247 18.202c-4.23 2.933-9.183 4.483-14.323 4.483-1.545 0-3.074-0.143-4.57-0.42l-50.418 34.964c5.089 4.454 12.217 6.053 18.877 3.916l75.568-24.26c10.298-3.307 15.964-14.332 12.659-24.629z"/>
<path d="m429.6 142.84c-0.113 0-0.226 4e-3 -0.34 0.014l-67.366 5.526c-2.57 0.211-3.945 3.131-2.478 5.246l4.721 6.807-88.559 61.413-164.14 33.081c-4.048 0.816-7.178 4.036-7.878 8.106s1.173 8.151 4.717 10.272l54.481 32.63c14.886 8.916 23.871 25.11 23.558 42.461l-0.222 12.318c-0.095 5.266 3.337 9.947 8.388 11.441 5.06 1.495 10.482-0.576 13.261-5.039l77.048-123.71 92.436-64.102c1.47 2.052 3.785 3.152 6.139 3.152 1.481 0 2.977-0.436 4.288-1.344l44.304-30.723c3.332-2.308 1.679-7.545-2.359-7.545zm-214.14 184.12c-1.536 5.005-6.838 7.824-11.853 6.288-5.009-1.537-7.824-6.843-6.288-11.851 1.535-5.004 6.837-7.824 11.853-6.288 5.009 1.535 7.824 6.841 6.288 11.851zm7.923-20.364c-3.972 2.755-9.43 1.772-12.19-2.206l-22.814-32.897c-2.758-3.978-1.768-9.436 2.206-12.191 3.975-2.757 9.432-1.769 12.19 2.206l22.814 32.898c2.757 3.975 1.77 9.433-2.206 12.19z"/>
</svg>
