<svg xmlns="http://www.w3.org/2000/svg" viewBox="0 0 1889 1889">
<path d="M1229 117l-383 490 0 1222 383 0 0-1712zm-756-117l343 0c16 0 30 13 30 30l0 480 388-496 0 0 0-1 0 0 0 0 0 0 1-1 0 0 1-1 0 0 0-1 0 0 1 0 0 0 0-1 0 0 1 0 0 0 0 0 0-1 0 0 1 0 0 0 0 0 0-1 0 0 1 0 0 0 0 0 0 0 0-1 1 0 0 0 0 0 0 0 1 0 0-1 0 0 0 0 0 0 1 0 0 0 0-1 0 0 1 0 0 0 0 0 0 0 1 0 0 0 0-1 0 0 1 0 0 0 0 0 1 0 0 0 0 0 0-1 0 0 1 0 0 0 0 0 1 0 0 0 0 0 0 0 1 0 0-1 0 0 0 0 1 0 0 0 0 0 0 0 1 0 0 0 0 0 1 0 0 0 0 0 1-1 0 0 0 0 0 0 1 0 0 0 0 0 1 0 0 0 0 0 1 0 0 0 0 0 0 0 0 0 1 0 0 0 0 0 1 0 600 0c17 0 30 13 30 30l0 1829c0 17-13 30-30 30l-600 0-443 0-343 0-443 0c-17 0-30-13-30-30l0-1262 0 0c0-7 2-13 6-19l442-564 0 0 0-1 0 0 0 0 1 0 0-1 0 0 1-1 0 0 0-1 0 0 1 0 0 0 0-1 0 0 1 0 0 0 0 0 0-1 0 0 1 0 0 0 0 0 0-1 0 0 1 0 0 0 0 0 0 0 1-1 0 0 0 0 0 0 0 0 1 0 0-1 0 0 0 0 1 0 0 0 0 0 0-1 0 0 1 0 0 0 0 0 1 0 0 0 0 0 0-1 0 0 1 0 0 0 0 0 1 0 0 0 0 0 0-1 0 0 1 0 0 0 0 0 1 0 0 0 0 0 0 0 1 0 0-1 0 0 1 0 0 0 0 0 0 0 1 0 0 0 0 0 0 0 1 0 0 0 0 0 1-1 0 0 0 0 0 0 1 0 0 0 0 0 1 0 0 0 0 0 1 0 0 0 0 0 1 0 0 0 0 0 0 0 1 0 0 0zm313 60l-283 0 0 1769 283 0 0-1232 0-537zm1043 0l-540 0 0 1769 540 0 0-1769zm-1386 57l-383 490 0 1222 383 0 0-1712z"/>
</svg>
