<svg xmlns="http://www.w3.org/2000/svg" viewBox="0 0 1889 1889">
<path d="M1388 0l471 0c17 0 30 13 30 30l0 1829c0 17-13 30-30 30l-471 0-443 0-472 0-443 0c-17 0-30-13-30-30l0-1262 0 0c0-7 2-13 6-19l221-282c1-1 1-2 2-3l219-279 0 0 0-1 0 0 0 0 1 0 0-1 0 0 1-1 0 0 0-1 0 0 1 0 0 0 0-1 0 0 1 0 0 0 0 0 0-1 0 0 1 0 0 0 0 0 0-1 0 0 1 0 0 0 0 0 0 0 1-1 0 0 0 0 0 0 0 0 1 0 0-1 0 0 0 0 1 0 0 0 0 0 0-1 0 0 1 0 0 0 0 0 1 0 0 0 0 0 0-1 0 0 1 0 0 0 0 0 1 0 0 0 0 0 0-1 0 0 1 0 0 0 0 0 1 0 0 0 0 0 0 0 1 0 0-1 0 0 1 0 0 0 0 0 0 0 1 0 0 0 0 0 0 0 1 0 0 0 0 0 1-1 0 0 0 0 0 0 1 0 0 0 0 0 1 0 0 0 0 0 1 0 0 0 0 0 1 0 0 0 0 0 0 0 1 0 0 0 472 0c16 0 30 13 30 30l0 480 166-213c1-2 2-3 3-4l218-279 0 0 1-1 0 0 0 0 0 0 0-1 0 0 1-1 0 0 1-1 0 0 0 0 1 0 0-1 0 0 0 0 0 0 0 0 1-1 0 0 0 0 0 0 0 0 1-1 0 0 0 0 0 0 0 0 1 0 0-1 0 0 1 0 0 0 0 0 0 0 0-1 1 0 0 0 0 0 0 0 0 0 1-1 0 0 0 0 1 0 0 0 0 0 0 0 0 0 1-1 0 0 0 0 1 0 0 0 0 0 0 0 1 0 0-1 0 0 0 0 1 0 0 0 0 0 0 0 1 0 0 0 0 0 1-1 0 0 0 0 0 0 0 0 1 0 0 0 0 0 1 0 0 0 0 0 1 0 0 0 0-1 0 0 1 0 0 0 0 0 1 0 0 0 0 0 0 0 1 0 0 0 0 0 1 0 0 0 0 0 1 0 0 0 0 0 1 0zm-195 327l-218 774 0 147 335-1070-117 149zm-218 554l121-429-121 155 0 274zm-696-554l-219 774 0 156 340-1085-121 155zm-219 554l121-429-121 155 0 274zm383-646l-382 1217c0 2 0 3-1 4l0 171 383-1202 0-190zm60 177c2 6 3 13 1 20l-1 2 0 373c2 5 2 12 0 18l0 377c1 4 1 9 0 13l0 614 412 0 0-1232 0-537-412 0 0 352zm-60 210l-382 1197c0 2 0 3-1 4l0 6 50 0 333-1014 0-193zm0 386l-269 821 52 0 217-623 0-198zm0 379l-154 442 53 0 101-233 0-209zm0 359l-36 83 36 0 0-83zm975-947l411 225 0-325-411-225 0 325zm411 293l-411-225 0 325 411 225 0-325zm-471-866l-383 1222 0 170 383-1202 0-190zm0 387l-383 1202 0 14 47 0 336-1022 0-194zm0 386l-273 830 52 0 220-630 1-1 0-199zm0 380l-157 450 53 0 103-239 1-1 0-210zm0 360l-39 90 39 0 0-90zm138-1679l333 182 0-182-333 0zm333 250l-411-225 0 321 411 224 0-320zm0 1175l-411-225 0 324 411 225 0-324zm-87 344l-324-177 0 177 324 0z"/>
</svg>
