<svg xmlns="http://www.w3.org/2000/svg" viewBox="0 0 512 512">
<path d="m501.22 340.58h-223.69l39.947-39.948 118.23-118.22c1.597-1.596 2.494-3.762 2.494-6.02s-0.897-4.424-2.494-6.02l-96.33-96.33c-1.596-1.597-3.762-2.494-6.02-2.494s-4.424 0.897-6.02 2.494l-118.23 118.23-39.948 39.947v-223.69c0-4.702-3.812-8.514-8.514-8.514h-136.23c-4.702 0-8.514 3.812-8.514 8.514v359.78c-8.914 14.759-13.623 31.612-13.623 48.915 0 52.27 42.524 94.794 94.793 94.794 20.26 0 39.465-6.279 55.748-18.164h348.4c4.702 0 8.514-3.812 8.514-8.514v-136.23c-1e-3 -4.702-3.813-8.515-8.515-8.515zm-167.87-248.48l84.289 84.289-81.078 81.077-84.288-84.288 81.077-81.078zm-300.42-75.065h119.2v114.66h-119.2v-114.66zm0 131.69h119.2v100.52l-14.144 14.144h-105.06v-114.66zm0 131.69h88.029l-44.256 44.256c-16.383 3.6-31.508 11.544-43.773 22.811v-67.067zm111.84 198.19c-13.762 10.709-30.256 16.369-47.695 16.369-42.88 0-77.765-34.885-77.765-77.765 0-14.897 4.245-29.388 12.276-41.908 11.526-17.969 30.097-30.536 50.953-34.479h1e-3c4.835-0.915 9.726-1.378 14.536-1.378 17.44 0 33.934 5.66 47.695 16.369 3.476 2.705 6.707 5.677 9.605 8.836l3e-3 3e-3c13.194 14.377 20.461 33.042 20.461 52.557 0 1.533-0.061 3.173-0.192 5.161v2e-3c-1.447 22.088-12.337 42.584-29.878 56.233zm84.562-1.795h-58.589c11.523-14.246 18.766-31.627 20.62-50.059l29.225-29.225 8.745-8.745v88.029zm-20.788-91.324l-17.725 17.725c-2.763-18.607-10.997-36.016-23.888-50.064-3e-3 -3e-3 -7e-3 -8e-3 -0.01-0.011-3.537-3.854-7.472-7.474-11.694-10.76-15.253-11.868-33.26-18.632-52.381-19.768l44.273-44.273 7.508 7.507 69.273 69.272 7.507 7.509-22.863 22.863zm27.398-42.412l-69.273-69.273-7.507-7.507 7.506-7.506 3e-3 -3e-3 54.481-54.481 19.087-19.087 84.288 84.288-19.087 19.087-54.481 54.481-3e-3 3e-3 -7.506 7.506-7.508-7.508zm125.08 133.74h-114.66v-105.06l3.111-3.111 6e-3 -6e-3 11.029-11.029h100.52v119.2zm131.69 0h-114.66v-119.2h114.66v119.2z"/>
<path d="m97.064 358.74c-32.238 0-58.466 26.228-58.466 58.466s26.228 58.466 58.466 58.466 58.466-26.228 58.466-58.466c0-32.239-26.228-58.466-58.466-58.466zm0 99.902c-22.848 0-41.437-18.589-41.437-41.437s18.589-41.437 41.437-41.437 41.437 18.589 41.437 41.437-18.589 41.437-41.437 41.437z"/>
<path d="m97.064 383.72c-4.702 0-8.514 3.812-8.514 8.514s3.812 8.514 8.514 8.514c9.076 0 16.461 7.385 16.461 16.461 0 4.702 3.812 8.514 8.514 8.514s8.514-3.812 8.514-8.514c1e-3 -18.465-15.023-33.489-33.489-33.489z"/>
</svg>
