<svg xmlns="http://www.w3.org/2000/svg" viewBox="0 0 1889 1889">
<path d="M1829 60l-1769 0 0 1769 1769 0 0-1769zm-873 1164l-102 205 102 204c8 15 2 33-13 40-9 4-19 4-27 0l-204-102-205 102c-14 7-32 1-40-13-4-9-4-19 0-27l103-204-103-205c-7-15-1-33 14-40 8-4 18-4 26 0l205 102 204-102c15-7 33-1 40 13 5 9 4 19 0 27zm-162 191l69-137-138 68c-8 4-18 5-27 0l-137-68 69 137c4 8 4 18 0 27l-69 138 137-69c9-4 18-5 27 0l138 69-69-138c-4-8-4-18 0-27zm948-843l-122 245 122 245c8 15 2 33-13 40-9 5-19 5-27 0l-245-122-245 122c-15 8-33 2-40-13-4-9-4-18 0-27l122-245-122-245c-7-14-1-32 13-40 9-4 19-4 27 0l245 123 245-123c15-7 33-1 40 14 5 8 4 18 0 26zm-182 232l89-178-178 89c-9 4-19 4-27 0l-179-89 90 178c4 8 4 18 0 27l-90 178 179-89c8-4 18-5 26 0l179 89-89-178c-4-8-5-18 0-27zm-696-631l-197 324 197 323c9 14 4 33-10 41-10 6-22 6-32 0l-323-197-323 197c-14 9-33 4-41-10-7-10-6-22 0-31l197-323-197-324c-9-14-5-33 9-41 11-6 23-6 32 0l323 197 324-197c14-9 32-4 41 10 6 10 6 22 0 31zm-258 308l143-234-234 142c-9 6-21 7-31 1l-234-143 142 233c6 10 7 22 1 32l-143 234 233-142c10-6 22-7 32-1l234 143-143-233c-6-10-6-22 0-32zm-576-481l1829 0c17 0 30 13 30 30l0 1829c0 17-13 30-30 30l-1829 0c-17 0-30-13-30-30l0-1829c0-17 13-30 30-30z"/>
</svg>
