<svg xmlns="http://www.w3.org/2000/svg" viewBox="0 0 1889 1889">
<path d="M1787 60l-1685 0 298 298 1089 0 298-298zm-1387 1471l-298 298 1685 0-298-298-1089 0zm-340 256l298-298 0-1089-298-298 0 1685zm1471-298l298 298 0-1685-298 298 0 1089zm-60-1071l-1053 0 0 1053 1053 0 0-1053zm-1441-418l1829 0 1 0 1 0 0 0 0 0 1 0c1 0 2 0 3 1l1 0 0 0 0 0 1 0 1 0 1 1 0 0 1 0 0 0 0 0 1 0 0 0 0 1 1 0 0 0 0 0 1 0 0 0 0 1 1 0 0 0 0 0 1 0 0 1 1 0 0 0 0 0 0 1 1 0 0 0 0 0 1 0 0 1 0 0 1 0 0 0 0 1 0 0 1 0 0 0 0 1 1 0 0 0 0 1 0 0 1 0 0 0 0 1 0 0 1 0 0 1 0 0 0 0 0 1 1 0 0 0 0 0 0 1 1 0 0 1 0 0 0 0 0 1 1 0 0 0 0 1 0 0 0 0 0 1 1 0 0 0 0 1 0 0 0 0 0 1 0 0 1 1 0 1 0 1 0 0 0 0 0 1c1 1 1 2 1 3l0 1 0 0 0 0 0 1 0 1 0 1829 0 1 0 1 0 0 0 0 0 1c0 1 0 2-1 3l0 1 0 0 0 0 0 1 0 1-1 1 0 0 0 1 0 0 0 0 0 1 0 0-1 0 0 1 0 0 0 0 0 1 0 0-1 0 0 1 0 0 0 0 0 1-1 0 0 1 0 0 0 0-1 0 0 1 0 0 0 0 0 1-1 0 0 0 0 1 0 0-1 0 0 0 0 1 0 0-1 0 0 1 0 0-1 0 0 0 0 1 0 0-1 0 0 0 0 1-1 0 0 0 0 0-1 0 0 1 0 0 0 0-1 0 0 1-1 0 0 0 0 0-1 0 0 1 0 0-1 0 0 0 0 0-1 0 0 1 0 0-1 0 0 0 0 0-1 0 0 0-1 1-1 0-1 0 0 0 0 0-1 0c-1 1-2 1-3 1l-1 0 0 0 0 0-1 0-1 0-1829 0-1 0-1 0 0 0 0 0-1 0c-1 0-2 0-3-1l-1 0 0 0 0 0-1 0-1 0-1-1 0 0-1 0 0 0 0 0-1 0 0 0 0-1-1 0 0 0 0 0-1 0 0 0 0-1-1 0 0 0 0 0-1 0 0-1-1 0 0 0 0 0 0-1-1 0 0 0 0 0-1 0 0-1 0 0-1 0 0 0 0-1 0 0-1 0 0 0 0-1-1 0 0 0 0-1 0 0-1 0 0 0 0-1 0 0-1 0 0-1 0 0 0 0 0-1-1 0 0 0 0 0 0-1-1 0 0-1 0 0 0 0 0-1-1 0 0 0 0-1 0 0 0 0 0-1-1 0 0 0 0-1 0 0 0 0 0-1 0 0-1-1 0-1 0-1 0 0 0 0 0-1c-1-1-1-2-1-3l0-1 0 0 0 0 0-1 0-1 0-1829 0-1 0-1 0 0 0 0 0-1c0-1 0-2 1-3l0-1 0 0 0 0 0-1 0-1 1-1 0 0 0-1 0 0 0 0 0-1 0 0 1 0 0-1 0 0 0 0 0-1 0 0 1 0 0-1 0 0 0 0 0-1 1 0 0-1 0 0 0 0 1 0 0-1 0 0 0 0 0-1 1 0 0 0 0-1 0 0 1 0 0 0 0-1 0 0 1 0 0-1 0 0 1 0 0 0 0-1 0 0 1 0 0 0 0-1 1 0 0 0 0 0 1 0 0-1 0 0 0 0 1 0 0-1 1 0 0 0 0 0 1 0 0-1 0 0 1 0 0 0 0 0 1 0 0-1 0 0 1 0 0 0 0 0 1 0 0 0 1-1 1 0 1 0 0 0 0 0 1 0c1-1 2-1 3-1l1 0 0 0 0 0 1 0 1 0z"/>
</svg>
