<svg xmlns="http://www.w3.org/2000/svg" viewBox="0 0 492.3 492.3">
<path d="M394.1 208.4c-2.7-3.9-8.5-11.2-9-11.7C286.4 88 261.9 24.7 256.7 7.9 255.3 3.2 251 0 246.1 0 241.3 0 237 3.2 235.6 7.9c-5.2 16.8-29.7 80.2-128.8 189.3 0 0-5.8 7.3-8.5 11.2 -24.7 35.2-35.9 78.4-31.6 121.7 8.3 84.1 75.2 151.9 159.1 161.1 7 0.8 13.9 1.1 20.8 1.1 44.5 0 86.6-16 120.1-46 38.2-34.2 60.1-83.2 60.1-134.5C426.7 274.5 415.4 238.8 394.1 208.4zM353.4 431.6c-34.5 30.9-79.1 45.1-125.6 40 -74.7-8.2-134.3-68.6-141.7-143.5 -3.8-38.6 6.2-77.1 28.2-108.5 2.4-3.4 7.4-9.8 7.4-9.8 77-84.8 110.4-143.7 124.4-174.9 14 31.2 47.3 90.1 124 174.5 0 0 5.3 6.7 7.8 10.2 19 27.1 29 59 29 92.1C407 357.5 387.5 401.1 353.4 431.6z"/>
<path d="M136.5 323.1l-19.6 1.9c5.8 59.4 55 109.2 114.3 115.8l2.2-19.6C183.1 415.7 141.5 373.5 136.5 323.1z"/>
</svg>
