<svg xmlns="http://www.w3.org/2000/svg" viewBox="0 0 512 512">
<path d="m506.82 268.18l-145.98-87.595 18.219-11.584c3.072-1.963 4.928-5.355 4.928-9.003s-1.856-7.04-4.928-9.003l-117.33-74.665c-3.499-2.219-7.957-2.219-11.456 0l-117.33 74.667c-3.073 1.962-4.929 5.354-4.929 9.002s1.856 7.04 4.928 9.003l18.219 11.605-145.96 87.573c-3.2 1.92-5.184 5.376-5.184 9.109-0.021 3.733 1.92 7.211 5.12 9.152l245.33 149.33c1.707 1.045 3.627 1.557 5.547 1.557s3.84-0.512 5.547-1.557l245.33-149.33c3.2-1.963 5.12-5.419 5.12-9.152-0.021-3.734-1.984-7.19-5.184-9.11zm-250.82-170.2l97.472 62.016-97.472 62.016-97.472-62.016 97.472-62.016zm-84.736 95.424l78.997 50.261c1.749 1.109 3.755 1.664 5.739 1.664s3.989-0.555 5.717-1.664l78.997-50.283 14.059 8.448-98.773 62.87-98.795-62.869 14.059-8.427zm-139.97 83.947l105.47-63.253 99.371 63.232-100.18 63.744-104.66-63.723zm224.7 136.81l-99.733-60.715 99.733-63.466 99.733 63.467-99.733 60.714zm120.04-73.066l-100.18-63.765 99.371-63.232 105.47 63.275-104.66 63.722z"/>
</svg>
