<svg xmlns="http://www.w3.org/2000/svg" viewBox="0 0 512 512">
<g>
<path d="m408.74 143.26c-11.363-11.362-23.771-21.299-37.003-29.729l14.438-25.008 16.143 9.32c1.26 0.728 2.635 1.073 3.993 1.073 2.765 0 5.454-1.435 6.936-4.001 2.209-3.826 0.898-8.719-2.928-10.928l-45.883-26.49c-3.827-2.211-8.719-0.899-10.928 2.928-2.209 3.826-0.898 8.719 2.928 10.928l15.883 9.17-14.387 24.919c-28.689-15.393-60.65-24.082-93.927-25.286v-0.966c18.236-3.716 32-19.878 32-39.195 0-22.056-17.944-40-40-40s-40 17.944-40 40c0 19.316 13.764 35.479 32 39.195v0.966c-54.694 1.979-105.83 24.199-144.74 63.104-40.797 40.798-63.265 95.04-63.265 152.74s22.468 111.94 63.265 152.74 95.039 63.265 152.74 63.265 111.94-22.468 152.74-63.265 63.265-95.04 63.265-152.74-22.468-111.94-63.265-152.74zm-176.74-103.26c0-13.233 10.767-24 24-24s24 10.767 24 24c0 10.429-6.689 19.321-16 22.624v-22.624c0-4.418-3.582-8-8-8s-8 3.582-8 8v22.624c-9.311-3.303-16-12.195-16-22.624zm24 456c-110.28 0-200-89.72-200-200s89.72-200 200-200 200 89.72 200 200-89.72 200-200 200z"/>
<path d="m412.77 199.63c-2.317-3.762-7.244-4.935-11.007-2.616-3.762 2.317-4.933 7.245-2.616 11.007 16.258 26.393 24.851 56.816 24.851 87.981 0 92.636-75.364 168-168 168s-168-75.364-168-168 75.364-168 168-168c31.154 0 61.567 8.587 87.953 24.834 3.763 2.315 8.69 1.146 11.006-2.618 2.317-3.762 1.145-8.69-2.618-11.007-28.908-17.8-62.223-27.209-96.341-27.209-101.46 0-184 82.542-184 184s82.542 184 184 184 184-82.542 184-184c0-34.13-9.416-67.455-27.228-96.372z"/>
<path d="m368 170.77c4.631 4.146 9.082 8.596 13.229 13.229 1.58 1.766 3.767 2.665 5.964 2.665 1.899 0 3.806-0.673 5.333-2.039 3.292-2.946 3.572-8.004 0.625-11.296-4.539-5.071-9.411-9.943-14.481-14.48-3.292-2.948-8.35-2.666-11.296 0.626-2.947 3.292-2.667 8.349 0.626 11.295z"/>
<path d="m305.94 152.44c-15.648-5.458-32.449-8.436-49.935-8.436-4.418 0-8 3.582-8 8v144c0 2.122 0.843 4.156 2.343 5.657l101.82 101.82c1.562 1.562 3.609 2.343 5.657 2.343s4.095-0.781 5.657-2.343c28.708-28.709 44.519-66.879 44.519-107.48 0-12.752-1.587-25.139-4.559-36.983-0.059-0.333-0.14-0.661-0.242-0.985-3.191-12.364-7.909-24.12-13.929-35.062-0.219-0.518-0.498-1.014-0.831-1.485-5.697-10.086-12.508-19.463-20.273-27.956-0.236-0.319-0.489-0.629-0.778-0.918-0.157-0.157-0.322-0.3-0.488-0.44-16.381-17.486-36.835-31.107-59.836-39.336-0.368-0.162-0.744-0.295-1.129-0.399zm17.065 25.25l-59 59v-25.372l41.846-41.847c5.933 2.346 11.662 5.096 17.154 8.219zm27.448 20.553l-86.448 86.447v-25.372l72.705-72.705c4.834 3.576 9.428 7.459 13.743 11.63zm21.403 26.596l-87.851 87.851-12.686-12.686 89.979-89.978c3.835 4.688 7.366 9.635 10.558 14.813zm14.76 33.241l-78.611 78.611-12.686-12.687 84.418-84.418c2.723 5.948 5.027 12.126 6.879 18.494zm5.389 37.924c0 1.597-0.036 3.188-0.091 4.776l-59.909 59.91-12.686-12.686 71.313-71.313c0.901 6.311 1.373 12.758 1.373 19.313zm-103.3-132.02l-24.701 24.702v-28.454c8.464 0.494 16.719 1.774 24.701 3.752zm68.96 222.36l-14.347-14.347 45.205-45.205c-5.071 22.015-15.582 42.408-30.858 59.552z"/>
</g>
</svg>
