<svg xmlns="http://www.w3.org/2000/svg" viewBox="0 0 512 512">
<path d="M2.9 55.9L0 58.8v394.4l2.9 2.9 2.9 2.9h500.4l2.9-2.9 2.9-2.9V58.8l-2.9-2.9-2.9-2.9H5.8l-2.9 2.9zM494 256v185H18V71h476v185z"/>
<path d="M130 151.6c-9.3 2.5-16.2 6.4-23.1 13.3-12.5 12.5-17.2 28.5-13.4 44.9 5.3 22.6 24.7 38.2 47.6 38.2 27.1 0 48.9-21.6 48.9-48.5 0-4.5-.7-10.6-1.6-13.6-7.3-25-34.2-40.7-58.4-34.3zm22.3 18.4c14 5.2 22.6 20.6 19.6 35-1.5 7.2-3.2 10.6-8.3 15.8-10 10.5-24.6 12.7-37.8 5.5-17.4-9.5-21.1-33.6-7.5-48.2 9.1-9.5 21.9-12.6 34-8.1z"/>
<path d="M349.8 203.7c-.9.2-21.3 22-45.3 48.4-24.1 26.3-44.1 47.9-44.4 47.9-.3 0-10.2-9.6-22.1-21.4-13.1-13.1-22.5-21.7-24.1-22.1-1.7-.4-3.8-.1-5.5.8-4.1 2.2-151.5 132.2-153.6 135.5-1 1.5-1.8 3.7-1.8 5 0 3.4 5.2 8.2 8.9 8.2 3.6 0-1.3 4.2 86.6-73.3l63-55.6 46.5 46.5c27.9 27.8 47.3 46.4 48.5 46.5 7.5.4 11.1-3.1 10.6-10.5-.1-1.2-9.6-11.6-22.3-24.3L272.6 313l3.5-3.7c2-2.1 20.1-21.9 40.4-44.1 20.2-22.2 37.1-40.2 37.5-40 .5.2 23 20.5 50 45.3 27 24.7 50.5 45.6 52.2 46.3 2.7 1.2 3.7 1.2 6.3-.1 4.2-2 6.2-6.6 4.6-10.5-1-2.5-95.2-90.1-107.4-100-3.7-3-5.9-3.6-9.9-2.5z"/>
</svg>
