<svg xmlns="http://www.w3.org/2000/svg" viewBox="0 0 214.3 214.3">
<path d="M196.9 55.2c-0.1-5.8-0.2-11.2-0.2-16.5 0-4.1-3.4-7.5-7.5-7.5 -32.1 0-56.5-9.2-76.9-29 -2.9-2.8-7.5-2.8-10.5 0 -20.4 19.8-44.8 29-76.8 29 -4.1 0-7.5 3.4-7.5 7.5 0 5.3-0.1 10.8-0.2 16.5 -1 53.8-2.4 127.6 87.3 158.7 0.8 0.3 1.6 0.4 2.5 0.4 0.8 0 1.7-0.1 2.5-0.4C199.4 182.7 198 109 196.9 55.2zM107.1 198.8c-77-28-75.8-89.2-74.8-143.4 0.1-3.2 0.1-6.4 0.2-9.5 30-1.3 54.1-10.4 74.6-28.3 20.6 17.9 44.6 27 74.6 28.3 0 3.1 0.1 6.2 0.2 9.5C183 109.6 184.1 170.8 107.1 198.8z"/>
<path d="M133 81.1l-36.2 36.2 -15.4-15.4c-2.9-2.9-7.7-2.9-10.6 0 -2.9 2.9-2.9 7.7 0 10.6l20.8 20.8c1.5 1.5 3.4 2.2 5.3 2.2 1.9 0 3.8-0.7 5.3-2.2l41.5-41.5c2.9-2.9 2.9-7.7 0-10.6C140.6 78.2 135.9 78.2 133 81.1z"/>
</svg>
