<svg xmlns="http://www.w3.org/2000/svg" viewBox="0 0 122 169">
<path d="M70 117l-45-26c0 0-1 0-1 0l-15-9 11 41 8 5-4-17c-1-1 0-2 0-2l3-7c1-2 3-3 4-2 1 0 2 1 2 1l5 9 1-1c1-2 3-3 4-2 1 0 1 1 2 1l5 9 1-1c0-2 2-3 4-2 1 0 1 1 1 1l9 14c0 0 0 1 1 1l3 12c0 0 0 0 0 0l3 11 9 5-11-41zm-36 21c0 0 0 0 0 0l0 0-1 0 0 0 0 0 0 0 0 0 0 0 0 0 0 0 0 0 0 0 0 0 0 0 0 0 0 0 0 0 0 0 0 0c0 0 0 0-1 0l0 0 0 0 0 0 0 0 0 0 0 0 0 0 0 0 0 0 0 0 0-1 0 0 0 0 0 0 0 0 0 0 0 0-17-9c-1-1-1-1-1-2l-14-50 0 0c0-1 0-2 0-3 1-1 3-2 5-1l18 10 0-68c0-3 1-7 4-10l0 0c3-2 6-4 10-4 1 0 2 0 4 0 1 1 2 1 2 2l70 39c1 1 3 2 5 4l0 0c2 2 4 6 4 10l0 42c0 2-2 3-4 3 0 0-1 0-1 0l-18-10 0 70c0 2 0 3-1 3l-10 5c-1 1-2 1-3 0l-18-10c-1-1-1-1-2-2l-2-11-20-12-8 4 0 0 0 0 0 1 0 0 0 0 0 0 0 0 0 0 0 0 0 0 0 0-1 0 0 0zm1-8l6-3c1-1 3-1 4 0l15 9-1-4-5-8 0 1c-1 1-1 1-2 2-1 1-3 0-4-1l-6-9 0 1c0 1-1 1-2 2-1 1-3 0-4-1l-5-9-1 0 5 20zm64-48l16 9 0-36c0-2-1-4-2-6l0 0c-2-1-4-2-6-2-2 0-4 1-5 2-2 2-3 4-3 6l0 27zm2-40l-61-35c0 0 0 0-1 0-1 0-1 0-2 0-2 0-4 1-5 2-2 1-3 3-3 5l0 72 46 26c1 1 1 1 1 2l13 47 4-3 0-103c0-4 1-8 4-10 1-1 2-2 4-3z"/>
</svg>
