<svg xmlns="http://www.w3.org/2000/svg" viewBox="0 0 458.9 458.9">
<path d="M451.2 95.4l0.3-0.8L238.6 7.9l-36.1 13.7c3.8 4.1 7.3 8.4 10.7 12.9l25.2-9.6 51.2 20.9c15.6-2.5 29.6-1.7 41.6 2.6 14 5.1 24.7 14.3 32.3 27.5l67.5 27.5 -55.4 21.8c-0.4 6.5-2 13.3-5.6 19.3l65.8-26v244.7L237.4 441.5V196.8l92.3-36.4c-8.3-1.1-17.2-3.5-26.4-6.6l-73.8 29.1 -71-28 35-15.9c-2.9-1.2-5.6-3.1-7.6-5.7 -3.1-3.8-4.7-8.6-4.4-13.4 -1.9-2.2-7.4-4.7-13.9-7l-56 23.6 -81.7-32.2 56.4-21.4c-4.4-3.6-8-7.9-10.4-13L8 95.5l-0.7-0.3v0.6L7.2 95.8l0 0.1v278.1L221.5 458.6v0.3h15.9v-0.3l214.3-84.5V95.2L451.2 95.4zM96.5 392.2l-73.4-29V118.6l73.4 29V392.2zM221.5 441.5l-83.2-33.6 0.3-243.8 83 32.7V441.5zM143.4 97.4c19.3 5.2 48.5 13.2 47.5 22.8 -0.7 6.5 4.1 12.4 10.6 13.1l0 0c3.4 0.4 6.6-0.8 9-2.9 0.7 0.6 1.4 1.2 2.2 1.6 5.8 3 13 0.8 16.1-5 0.1-0.2 0.3-0.4 0.5-0.6 2.9 1.7 6.5 2.2 9.9 0.9 1.5-0.5 2.8-1.4 4-2.4 12.2 2.2 29.4 8.9 41.5 13.6 17.6 6.8 34.6 13.3 49 14.8 10.3 1.1 19.3-0.5 26.1-6.4 14.4-12.6 8.7-36.8 6.8-44.7 -5.6-23.6-17.9-39-36.6-45.7 -30.4-11-70.2 4.9-98.8 20.6C216.3 47.7 191.2 9.6 158.4 1.6c-19.3-4.7-38 1.3-55.8 17.8C85.9 35 79.2 48.8 82.4 61.6 87.5 82.3 114.7 89.6 143.4 97.4zM321.9 78.9c10.8 3.9 17.8 13.4 21.5 28.9 4.2 17.6 0.8 21.2 0.7 21.3 -5.5 4.8-35-6.6-50.8-12.7 -17.2-6.6-35.5-13.7-51.2-15.3 -0.3-0.7-0.6-1.4-0.9-2.1C267.2 84.6 300.4 71.2 321.9 78.9zM118.8 36.8c11.7-10.9 22.7-14.8 33.9-12.1 23.1 5.6 44.2 37.6 57.9 64.8 -3.3 2.1-6.2 4.1-8.6 5.7 -12.8-10-33.3-15.6-52.4-20.8 -15.9-4.3-42.4-11.5-44.1-18.5C105.5 55.7 104.4 50.3 118.8 36.8z"/>
</svg>
