<svg xmlns="http://www.w3.org/2000/svg" viewBox="0 0 64 64">
<g>
<path d="M40,52.132l-1.445-0.964c-0.336-0.225-0.773-0.225-1.109,0L35,52.798l-2.445-1.63c-0.336-0.225-0.773-0.225-1.109,0L29,52.798l-2.445-1.63c-0.336-0.225-0.773-0.225-1.109,0L24,52.132V30h-2v24c0,0.269,0.11,0.521,0.295,0.705l-0.002,0.002l9,9C31.488,63.902,31.744,64,32,64s0.512-0.098,0.707-0.293l9-9l-0.002-0.002C41.89,54.521,42,54.269,42,54V35h-2V52.132z M26,53.202l2.445,1.63c0.336,0.225,0.773,0.225,1.109,0L32,53.202l2.445,1.63c0.336,0.225,0.773,0.225,1.109,0L38,53.202l1.43,0.953L35.586,58h-7.172l-3.844-3.844L26,53.202z M32,61.586L30.414,60h3.172L32,61.586z"/>
<path d="m19.093 21.287c-0.118-0.362-0.431-0.626-0.808-0.681l-2.898-0.422-1.297-2.627c-0.336-0.684-1.457-0.684-1.793 0l-1.297 2.628-2.898 0.422c-0.377 0.055-0.689 0.318-0.808 0.681-0.117 0.361-0.02 0.759 0.253 1.024l2.098 2.045-0.495 2.888c-0.064 0.375 0.09 0.754 0.397 0.978 0.31 0.226 0.718 0.254 1.054 0.076l2.593-1.363 2.593 1.363c0.146 0.077 0.307 0.115 0.466 0.115 0.207 0 0.413-0.064 0.588-0.191 0.308-0.224 0.462-0.603 0.397-0.978l-0.495-2.888 2.098-2.045c0.271-0.266 0.369-0.664 0.252-1.025zm-4.123 2.004c-0.235 0.229-0.343 0.561-0.287 0.885l0.241 1.409-1.265-0.665c-0.146-0.077-0.306-0.115-0.466-0.115s-0.319 0.038-0.466 0.115l-1.265 0.665 0.241-1.409c0.056-0.324-0.052-0.655-0.287-0.885l-1.023-0.997 1.414-0.206c0.326-0.047 0.607-0.252 0.753-0.547l0.633-1.281 0.633 1.281c0.146 0.295 0.427 0.5 0.753 0.547l1.414 0.206-1.023 0.997z"/>
<path d="m18.067 8.633l-0.619 3.611c-0.064 0.375 0.09 0.754 0.397 0.979 0.31 0.224 0.717 0.253 1.054 0.075l3.242-1.705 3.242 1.705c0.146 0.077 0.307 0.115 0.466 0.115 0.207 0 0.413-0.064 0.588-0.19 0.308-0.225 0.462-0.604 0.397-0.979l-0.619-3.611 2.624-2.558c0.272-0.266 0.37-0.663 0.253-1.024-0.118-0.362-0.431-0.626-0.808-0.681l-3.624-0.527-1.622-3.285c-0.336-0.684-1.457-0.684-1.793 0l-1.621 3.285-3.626 0.527c-0.377 0.055-0.689 0.318-0.808 0.681-0.117 0.361-0.02 0.759 0.253 1.024l2.624 2.558zm2.365-2.887c0.326-0.047 0.607-0.252 0.753-0.547l0.957-1.939 0.958 1.939c0.146 0.295 0.427 0.5 0.753 0.547l2.14 0.312-1.549 1.51c-0.235 0.229-0.343 0.561-0.287 0.885l0.365 2.133-1.914-1.007c-0.146-0.077-0.306-0.115-0.466-0.115s-0.319 0.038-0.466 0.115l-1.914 1.007 0.365-2.133c0.056-0.324-0.052-0.655-0.287-0.885l-1.549-1.51 2.141-0.312z"/>
<path d="m45.716 15.063l4.124-4.02c0.272-0.266 0.37-0.663 0.253-1.024-0.118-0.362-0.431-0.626-0.808-0.681l-5.698-0.828-2.549-5.163c-0.336-0.684-1.457-0.684-1.793 0l-2.549 5.163-5.698 0.829c-0.377 0.055-0.689 0.318-0.808 0.681-0.117 0.361-0.02 0.759 0.253 1.024l4.124 4.02-0.974 5.676c-0.064 0.375 0.09 0.754 0.397 0.978 0.31 0.225 0.718 0.254 1.054 0.076l5.097-2.68 5.097 2.68c0.146 0.077 0.307 0.115 0.466 0.115 0.207 0 0.413-0.064 0.588-0.191 0.308-0.224 0.462-0.603 0.397-0.978l-0.973-5.677zm-1.773-1.065c-0.235 0.229-0.343 0.561-0.287 0.885l0.72 4.197-3.769-1.981c-0.146-0.077-0.306-0.115-0.466-0.115s-0.319 0.038-0.466 0.115l-3.769 1.981 0.72-4.197c0.056-0.324-0.052-0.655-0.287-0.885l-3.049-2.972 4.213-0.613c0.326-0.047 0.607-0.252 0.753-0.547l1.885-3.817 1.885 3.817c0.146 0.295 0.427 0.5 0.753 0.547l4.213 0.613-3.049 2.972z"/>
<path d="m57.131 26.224l-2.535-0.368-1.135-2.298c-0.336-0.684-1.457-0.684-1.793 0l-1.134 2.298-2.536 0.368c-0.377 0.055-0.689 0.318-0.808 0.68-0.117 0.362-0.02 0.76 0.253 1.025l1.836 1.789-0.434 2.526c-0.064 0.375 0.09 0.754 0.397 0.978 0.175 0.127 0.381 0.191 0.588 0.191 0.159 0 0.319-0.038 0.466-0.115l2.268-1.192 2.268 1.192c0.337 0.178 0.745 0.148 1.054-0.075 0.308-0.225 0.462-0.604 0.397-0.979l-0.433-2.526 1.835-1.789c0.272-0.266 0.37-0.663 0.253-1.025-0.118-0.362-0.43-0.626-0.807-0.68zm-3.053 2.429c-0.235 0.229-0.343 0.561-0.287 0.885l0.179 1.047-0.939-0.494c-0.146-0.077-0.306-0.115-0.466-0.115s-0.319 0.038-0.466 0.115l-0.939 0.494 0.18-1.047c0.056-0.324-0.052-0.655-0.287-0.885l-0.761-0.742 1.051-0.152c0.326-0.047 0.607-0.252 0.753-0.547l0.47-0.952 0.471 0.952c0.146 0.296 0.427 0.5 0.753 0.547l1.051 0.152-0.763 0.742z"/>
<path d="m29 37h2c0-7.168-5.383-13-12-13v2c5.514 0 10 4.935 10 11z"/>
<path d="m35 42h2c0-7.047 3.206-13 7-13v-2c-5.047 0-9 6.589-9 15z"/>
<path d="m27 25h2c0-2.206 1.346-4 3-4v-2c-2.757 0-5 2.691-5 6z"/>
<path d="m20 16c1.654 0 3 1.794 3 4h2c0-3.309-2.243-6-5-6v2z"/>
<path d="m41 24v-2c-4.963 0-9 4.486-9 10h2c0-4.411 3.141-8 7-8z"/>
<rect height="2" width="2" y="44" x="35"/>
<rect height="2" width="2" y="34" x="32"/>
<rect height="2" width="2" y="39" x="29"/>
<rect height="2" width="2" y="43" x="29"/>
<rect height="2" width="2" y="47" x="29"/>
<rect height="2" width="2" y="30" x="12"/>
<rect height="2" width="2" y="16"/>
<rect height="2" width="2" y="12" x="8"/>
<rect height="2" width="2" y="17" x="49"/>
<rect height="2" width="2" y="10" x="60"/>
<rect height="2" width="2" y="5" x="4"/>
<rect height="2" width="2" y="4" x="11"/>
<rect height="2" width="2" y="3" x="48"/>
<rect height="2" width="2" y="11" x="54"/>
<polygon points="4 24 2 24 2 26 0 26 0 28 2 28 2 30 4 30 4 28 6 28 6 26 4 26"/>
<polygon points="61 16 59 16 59 18 57 18 57 20 59 20 59 22 61 22 61 20 63 20 63 18 61 18"/>
<path d="m61 0c-1.654 0-3 1.346-3 3s1.346 3 3 3 3-1.346 3-3-1.346-3-3-3zm0 4c-0.552 0-1-0.448-1-1s0.448-1 1-1 1 0.448 1 1-0.448 1-1 1z"/>
</g>
</svg>
