<svg xmlns="http://www.w3.org/2000/svg" viewBox="0 0 226 226">
<path d="M211 9l-24 0-47 47 23 0 48-47zm-36 0l-24 0-47 47 23 0 48-47zm-37 0l-23 0-48 47 24 0 47-47zm-36 0l-23 0-70 70 0 23 93-93zm-36 0l-24 0-33 33 0 24 57-57zm-36 0l-21 0 0 21 21-21zm-21 106l0 23 47-47 0-24-47 48zm0 36l0 24 47-48 0-23-47 47zm0 36l0 24 47-48 0-23-47 47zm6 30l24 0 47-47-23 0-48 47zm36 0l24 0 47-47-23 0-48 47zm37 0l23 0 48-47-24 0-47 47zm36 0l23 0 70-70 0-23-93 93zm36 0l23 0 34-34 0-23-57 57zm36 0l21 0 0-21-21 21zm21-106l0-23-47 47 0 24 47-48zm0-36l0-24-47 48 0 23 47-47zm0-36l0-24-47 48 0 23 47-47zm-216 186l0 0 0-1 0 0 0 0 0 0 0 0c0 0 0 0 0 0l0 0 0 0 0 0 0 0 0 0 0 0 0 0 0 0 0 0 0 0 0-1-1 0 0 0 0 0 0 0 0 0 0 0 0 0 0 0 0 0 0 0 0 0 0 0 0 0c0-1 0-1 0-1l0 0 0-1 0-217c0-2 2-4 4-4l217 0 1 0 0 0c0 0 0 0 1 0l0 0 0 0 0 0 0 0 0 0 0 0 0 0 0 0 0 0 0 0 0 0 0 0 0 1 1 0 0 0 0 0 0 0 0 0 0 0 0 0 0 0 0 0 0 0 0 0c0 0 0 0 0 0l0 0 0 0 0 0 0 0 1 0 0 0 0 0 0 0 0 0 0 0c0 1 0 1 0 1l0 0 0 0 0 0 0 0 0 0 0 0 0 0 0 0 0 0 0 0 0 0 0 0 0 1 0 0 0 0 1 0 0 0 0 0 0 0 0 0 0 0 0 0 0 0 0 0c0 1 0 1 0 1l0 0 0 0 0 217c0 3-2 5-5 5l-217 0 0 0 0 0c0 0 0 0-1 0l0 0 0 0 0 0 0 0 0 0 0 0 0 0 0 0 0-1 0 0 0 0-1 0 0 0 0 0 0 0 0 0 0 0 0 0 0 0 0 0 0 0 0 0 0 0 0 0c0 0 0 0-1 0l0 0 0 0 0 0 0 0zm160-160l-96 0 0 96 96 0 0-96z"/>
</svg>
