<svg xmlns="http://www.w3.org/2000/svg" viewBox="0 0 512 512">
<path d="m264.55 102.61c-51.572 0-93.528 41.956-93.528 93.528s41.956 93.528 93.528 93.528 93.528-41.956 93.528-93.528-41.956-93.528-93.528-93.528zm0 171.02c-42.731 0-77.495-34.764-77.495-77.495s34.764-77.495 77.495-77.495 77.495 34.764 77.495 77.495-34.764 77.495-77.495 77.495z"/>
<path d="m504.64 388.62l-86.979-86.979c-9.793-9.794-25.729-9.794-35.524 0l-0.376 0.376-21.448-21.448c19.884-22.527 31.969-52.09 31.969-84.428 0-70.433-57.3-127.73-127.73-127.73s-127.73 57.3-127.73 127.73 57.3 127.73 127.73 127.73c32.337 0 61.901-12.085 84.428-31.968l21.448 21.448-0.376 0.376c-9.793 9.794-9.793 25.73 0 35.524l86.979 86.979c4.744 4.744 11.052 7.357 17.762 7.357 6.709 0 13.018-2.613 17.762-7.357l12.089-12.089c4.744-4.744 7.357-11.052 7.357-17.762-1e-3 -6.71-2.614-13.018-7.358-17.762zm-240.09-80.78c-61.592 0-111.7-50.108-111.7-111.7s50.107-111.7 111.7-111.7 111.7 50.108 111.7 111.7-50.107 111.7-111.7 111.7zm228.75 104.97l-12.089 12.089c-1.716 1.716-3.997 2.662-6.424 2.662s-4.708-0.945-6.425-2.662l-86.979-86.979c-3.542-3.542-3.542-9.307 0-12.849l12.089-12.089c1.771-1.771 4.097-2.657 6.425-2.657 2.326 0 4.654 0.886 6.424 2.656l86.979 86.979c1.716 1.716 2.662 3.998 2.662 6.425s-0.945 4.709-2.662 6.425z"/>
<path d="m127.73 119.72h-119.72c-4.427 0-8.017 3.589-8.017 8.017 0 4.427 3.589 8.017 8.017 8.017h119.72c4.427 0 8.017-3.589 8.017-8.017-1e-3 -4.428-3.59-8.017-8.017-8.017z"/>
<path d="m25.119 153.92h-17.102c-4.427 0-8.017 3.589-8.017 8.017s3.589 8.017 8.017 8.017h17.102c4.427 0 8.017-3.589 8.017-8.017s-3.59-8.017-8.017-8.017z"/>
<path d="m119.18 153.92h-59.858c-4.427 0-8.017 3.589-8.017 8.017s3.589 8.017 8.017 8.017h59.858c4.427 0 8.017-3.589 8.017-8.017s-3.59-8.017-8.017-8.017z"/>
<path d="m110.63 188.12h-102.61c-4.427 0-8.017 3.589-8.017 8.017s3.589 8.017 8.017 8.017h102.61c4.427 0 8.017-3.589 8.017-8.017s-3.589-8.017-8.017-8.017z"/>
<path d="m59.324 222.33h-51.307c-4.427 0-8.017 3.589-8.017 8.017s3.589 8.017 8.017 8.017h51.307c4.427 0 8.017-3.589 8.017-8.017s-3.59-8.017-8.017-8.017z"/>
<path d="m119.18 222.33h-25.654c-4.427 0-8.017 3.589-8.017 8.017s3.589 8.017 8.017 8.017h25.653c4.427 0 8.017-3.589 8.017-8.017s-3.589-8.017-8.016-8.017z"/>
<path d="m127.73 256.53h-68.409c-4.427 0-8.017 3.589-8.017 8.017s3.589 8.017 8.017 8.017h68.409c4.427 0 8.017-3.589 8.017-8.017s-3.59-8.017-8.017-8.017z"/>
<path d="m25.119 256.53h-17.102c-4.427 0-8.017 3.589-8.017 8.017s3.589 8.017 8.017 8.017h17.102c4.427 0 8.017-3.589 8.017-8.017s-3.59-8.017-8.017-8.017z"/>
<path d="m309.51 162.78c-4.255-1.215-8.693 1.248-9.911 5.506l-13.93 48.755-13.512-40.537c-1.091-3.274-4.155-5.481-7.605-5.481s-6.514 2.208-7.605 5.481l-13.512 40.537-13.93-48.755c-1.216-4.257-5.656-6.724-9.911-5.506-4.256 1.216-6.722 5.653-5.506 9.911l17.102 59.858c0.983 3.442 4.129 5.814 7.708 5.814h8.551c3.45 0 6.514-2.208 7.605-5.481l9.497-28.491 9.497 28.491c1.091 3.274 4.155 5.481 7.605 5.481h8.551c3.58 0 6.725-2.373 7.708-5.814l17.102-59.858c1.217-4.258-1.248-8.696-5.504-9.911z"/>
</svg>
