<svg xmlns="http://www.w3.org/2000/svg" viewBox="0 0 1889 1889">
<path d="M517 1829l102 0 0-6c0-16 14-30 30-30 17 0 30 14 30 30l0 6 358 0 0-6c0-16 13-30 30-30 16 0 30 14 30 30l0 6 357 0 0-6c0-16 13-30 30-30 16 0 30 14 30 30l0 6 315 0 0-109-4 0c-16 0-30-13-30-30 0-16 14-30 30-30l4 0 0-357-4 0c-16 0-30-13-30-30 0-16 14-30 30-30l4 0 0-357-4 0c-16 0-30-14-30-30 0-17 14-30 30-30l4 0 0-309-107 0c-1 15-14 27-29 27-16 0-29-12-30-27l-358 0c-1 15-14 27-30 27-15 0-28-12-30-27l-357 0c-2 15-14 27-30 27-16 0-28-12-30-27l-311 0 0 100c16 1 29 14 29 30 0 17-13 30-29 30l0 358c16 0 29 13 29 29 0 17-13 30-29 30l0 358c16 0 29 13 29 30 0 16-13 29-29 30l0 317zm1312-109l0-60-4 0c-16 0-30 14-30 30 0 17 14 30 30 30l4 0zm-107-1203l-59 0c1 15 14 27 30 27 15 0 28-12 29-27zm-105 995c-17 0-30-14-30-30 0-17 13-30 30-30l151 0c17 0 30 13 30 30 0 16-13 30-30 30l-151 0zm105 254c0 17-13 30-30 30-16 0-30-13-30-30l0-151c0-17 14-30 30-30 17 0 30 13 30 30l0 151zm-314-46c-16 0-30-13-30-30 0-16 14-30 30-30l152 0c16 0 30 14 30 30 0 17-14 30-30 30l-152 0zm255-523c0-16 13-30 30-30 16 0 30 14 30 30l0 152c0 16-14 30-30 30-17 0-30-14-30-30l0-152zm-255 106c-16 0-30-13-30-30 0-16 14-30 30-30l152 0c16 0 30 14 30 30 0 17-14 30-30 30l-152 0zm106 254c0 17-14 30-30 30-17 0-30-13-30-30l0-151c0-16 13-30 30-30 16 0 30 14 30 30l0 151zm-314-45c-17 0-30-14-30-30 0-17 13-30 30-30l151 0c16 0 30 13 30 30 0 16-14 30-30 30l-151 0zm105 254c0 17-13 30-30 30-16 0-30-13-30-30l0-151c0-17 14-30 30-30 17 0 30 13 30 30l0 151zm-314-46c-17 0-30-13-30-30 0-16 13-30 30-30l151 0c17 0 30 14 30 30 0 17-13 30-30 30l-151 0zm254-523c0-16 14-30 30-30 17 0 30 14 30 30l0 152c0 16-13 30-30 30-16 0-30-14-30-30l0-152zm-254 106c-17 0-30-13-30-30 0-16 13-30 30-30l151 0c17 0 30 14 30 30 0 17-13 30-30 30l-151 0zm106 254c0 17-14 30-30 30-17 0-30-13-30-30l0-151c0-16 13-30 30-30 16 0 30 14 30 30l0 151zm-315-45c-16 0-30-14-30-30 0-17 14-30 30-30l152 0c16 0 30 13 30 30 0 16-14 30-30 30l-152 0zm106 254c0 17-13 30-30 30-17 0-30-13-30-30l0-151c0-17 13-30 30-30 17 0 30 13 30 30l0 151zm-314-46c-17 0-30-13-30-30 0-16 13-30 30-30l151 0c17 0 30 14 30 30 0 17-13 30-30 30l-151 0zm254-523c0-16 13-30 30-30 17 0 30 14 30 30l0 152c0 16-13 30-30 30-17 0-30-14-30-30l0-152zm-254 106c-17 0-30-13-30-30 0-16 13-30 30-30l151 0c17 0 30 14 30 30 0 17-13 30-30 30l-151 0zm105 254c0 17-13 30-30 30-16 0-30-13-30-30l0-151c0-16 14-30 30-30 17 0 30 14 30 30l0 151zm938-463c-17 0-30-13-30-30 0-16 13-30 30-30l151 0c17 0 30 14 30 30 0 17-13 30-30 30l-151 0zm0-417c-17 0-30-13-30-30 0-16 13-30 30-30l151 0c17 0 30 14 30 30 0 17-13 30-30 30l-151 0zm106 255c0 16-14 30-30 30-17 0-30-14-30-30l0-152c0-16 13-30 30-30 16 0 30 14 30 30l0 152zm-315-46c-16 0-30-14-30-30 0-17 14-30 30-30l152 0c16 0 30 13 30 30 0 16-14 30-30 30l-152 0zm106 254c0 17-14 30-30 30-17 0-30-13-30-30l0-151c0-17 13-30 30-30 16 0 30 13 30 30l0 151zm-314-46c-17 0-30-13-30-30 0-16 13-30 30-30l151 0c16 0 30 14 30 30 0 17-14 30-30 30l-151 0zm314-371c0 16-14 30-30 30-17 0-30-14-30-30l0-151c0-17 13-30 30-30 16 0 30 13 30 30l0 151zm-314-46c-17 0-30-13-30-30 0-16 13-30 30-30l151 0c16 0 30 14 30 30 0 17-14 30-30 30l-151 0zm105 255c0 16-13 30-30 30-16 0-30-14-30-30l0-152c0-16 14-30 30-30 17 0 30 14 30 30l0 152zm-314-46c-17 0-30-14-30-30 0-17 13-30 30-30l151 0c17 0 30 13 30 30 0 16-13 30-30 30l-151 0zm106 254c0 17-14 30-30 30-17 0-30-13-30-30l0-151c0-17 13-30 30-30 16 0 30 13 30 30l0 151zm-315-46c-16 0-30-13-30-30 0-16 14-30 30-30l152 0c16 0 30 14 30 30 0 17-14 30-30 30l-152 0zm315-371c0 16-14 30-30 30-17 0-30-14-30-30l0-151c0-17 13-30 30-30 16 0 30 13 30 30l0 151zm-315-46c-16 0-30-13-30-30 0-16 14-30 30-30l152 0c16 0 30 14 30 30 0 17-14 30-30 30l-152 0zm106 255c0 16-13 30-30 30-17 0-30-14-30-30l0-152c0-16 13-30 30-30 17 0 30 14 30 30l0 152zm-314-46c-17 0-30-14-30-30 0-17 13-30 30-30l151 0c17 0 30 13 30 30 0 16-13 30-30 30l-151 0zm105 254c0 17-13 30-30 30-16 0-30-13-30-30l0-151c0-17 14-30 30-30 17 0 30 13 30 30l0 151zm0-417c0 16-13 30-30 30-16 0-30-14-30-30l0-151c0-17 14-30 30-30 17 0 30 13 30 30l0 151zm-619 649l397 0 0-63c-1-3-2-7-2-10 0-4 1-7 2-11l0-57-121 0c-17 0-30-14-30-30 0-17 13-30 30-30l121 0 0-58c-1-3-2-7-2-10 0-4 1-7 2-11l0-57-121 0c-17 0-30-14-30-30 0-17 13-30 30-30l121 0 0-58c-1-3-2-7-2-10 0-4 1-7 2-11l0-57-121 0c-17 0-30-14-30-30 0-17 13-30 30-30l121 0 0-58c-1-3-2-7-2-10 0-4 1-7 2-11l0-57-121 0c-17 0-30-14-30-30 0-17 13-30 30-30l121 0 0-58c-1-3-2-7-2-10 0-4 1-7 2-11l0-17c0-16 14-30 30-30l885 0 0-10-137 0c-17 0-30-14-30-30 0-17 13-30 30-30l137 0 0-41c-10-5-18-15-18-27 0-12 8-23 18-28l0-40-137 0c-17 0-30-14-30-30 0-17 13-30 30-30l137 0 0-41c-10-5-18-15-18-27 0-12 8-23 18-28l0-35-1312 0 0 34c13 3 22 15 22 29 0 13-9 25-22 29l0 39 142 0c16 0 30 13 30 30 0 16-14 30-30 30l-142 0 0 39c13 3 22 15 22 29 0 13-9 25-22 29l0 39 142 0c16 0 30 13 30 30 0 16-14 30-30 30l-142 0 0 39c13 3 22 15 22 29 0 13-9 25-22 28l0 40 142 0c16 0 30 13 30 30 0 16-14 30-30 30l-142 0 0 39c13 3 22 15 22 29 0 13-9 25-22 28l0 40 142 0c16 0 30 13 30 30 0 16-14 30-30 30l-142 0 0 39c13 3 22 15 22 29 0 13-9 25-22 28l0 40 142 0c16 0 30 13 30 30 0 16-14 30-30 30l-142 0 0 39c13 3 22 15 22 29 0 13-9 25-22 28l0 40 142 0c16 0 30 13 30 30 0 16-14 30-30 30l-142 0 0 39c13 3 22 15 22 29 0 13-9 25-22 28l0 45zm397 60l-427 0c-17 0-30-14-30-30l0-1372c0-17 13-30 30-30l1372 0c16 0 30 13 30 30l0 427 427 0c17 0 30 14 30 30l0 1372c0 17-13 30-30 30l-1372 0c-16 0-30-13-30-30l0-427zm628-1279c-17 0-30-14-30-30 0-17 13-30 30-30l165 0c17 0 30 13 30 30 0 16-13 30-30 30l-165 0zm-300 0c-16 0-30-14-30-30 0-17 14-30 30-30l166 0c16 0 30 13 30 30 0 16-14 30-30 30l-166 0zm-300 0c-16 0-30-14-30-30 0-17 14-30 30-30l166 0c17 0 30 13 30 30 0 16-13 30-30 30l-166 0zm-299 0c-17 0-30-14-30-30 0-17 13-30 30-30l165 0c17 0 30 13 30 30 0 16-13 30-30 30l-165 0zm899 196c-17 0-30-14-30-30 0-17 13-30 30-30l165 0c17 0 30 13 30 30 0 16-13 30-30 30l-165 0zm-300 0c-16 0-30-14-30-30 0-17 14-30 30-30l166 0c16 0 30 13 30 30 0 16-14 30-30 30l-166 0zm-300 0c-16 0-30-14-30-30 0-17 14-30 30-30l166 0c17 0 30 13 30 30 0 16-13 30-30 30l-166 0zm-299 0c-17 0-30-14-30-30 0-17 13-30 30-30l165 0c17 0 30 13 30 30 0 16-13 30-30 30l-165 0zm749-98c-17 0-30-14-30-30 0-17 13-30 30-30l165 0c17 0 30 13 30 30 0 16-13 30-30 30l-165 0zm-300 0c-16 0-30-14-30-30 0-17 14-30 30-30l166 0c16 0 30 13 30 30 0 16-14 30-30 30l-166 0zm-299 0c-17 0-30-14-30-30 0-17 13-30 30-30l165 0c17 0 30 13 30 30 0 16-13 30-30 30l-165 0zm-150 294c-17 0-30-14-30-30 0-17 13-30 30-30l165 0c17 0 30 13 30 30 0 16-13 30-30 30l-165 0zm749-98c-17 0-30-14-30-30 0-17 13-30 30-30l165 0c17 0 30 13 30 30 0 16-13 30-30 30l-165 0zm-300 0c-16 0-30-14-30-30 0-17 14-30 30-30l166 0c16 0 30 13 30 30 0 16-14 30-30 30l-166 0zm-299 0c-17 0-30-14-30-30 0-17 13-30 30-30l165 0c17 0 30 13 30 30 0 16-13 30-30 30l-165 0zm-150 294c-17 0-30-14-30-30 0-17 13-30 30-30l165 0c17 0 30 13 30 30 0 16-13 30-30 30l-165 0zm0 196c-17 0-30-14-30-30 0-17 13-30 30-30l165 0c17 0 30 13 30 30 0 16-13 30-30 30l-165 0zm0 196c-17 0-30-14-30-30 0-17 13-30 30-30l165 0c17 0 30 13 30 30 0 16-13 30-30 30l-165 0zm0 196c-17 0-30-14-30-30 0-17 13-30 30-30l165 0c17 0 30 13 30 30 0 16-13 30-30 30l-165 0"/>
</svg>
