<svg xmlns="http://www.w3.org/2000/svg" viewBox="0 0 896.275 896.275">
<path d="m741.37 0l-152.15 184.44c-41.758-23.773-91.697-35.617-142.94-35.617-51.609 0-100.07 12.018-142.03 36.165l-148.91-184.98-0.104 463.28c-0.748 12.105 0 24.436 0 37.271 0 177.25 72.321 329.37 175.79 394.85-58.271-75.131-108.72-156.68-85.348-235.88 133.93-5.393 148.09-6.104 148.09-6.104l47.305 38.557 58.178-38.557c97.408 0.695 143.38 2.713 143.38 2.713 6.035 49.635-2.592 158.49-85.869 240.14 104.16-65.043 177.91-217.7 177.91-395.7 0-12.469-0.547-24.52-0.547-36.295l7.242-464.28zm-360.66 522.43c-13.982 5.6-45.296 24.051-59.844 28.521-14.548 4.486-34.67 7.27-42.504 0-7.834-7.271-33.009-31.322-38.035-36.904-5.035-5.617-8.392-50.365 21.252-48.105 30.191 2.279 111.86 35.791 116.9 37.461 5.034 1.687 16.218 13.425 2.235 19.027zm267.26-8.383c-5.025 5.582-30.207 29.635-38.025 36.904-7.854 7.27-27.957 4.486-42.504 0-14.539-4.471-45.861-22.924-59.844-28.521-14-5.602-2.801-17.34 2.227-19.027 5.035-1.67 86.703-35.182 116.9-37.461 29.65-2.26 26.294 42.488 21.242 48.105z"/>
</svg>
