<?xml version="1.0" standalone="no"?>
<!DOCTYPE svg PUBLIC "-//W3C//DTD SVG 20010904//EN"
 "http://www.w3.org/TR/2001/REC-SVG-20010904/DTD/svg10.dtd">
<svg version="1.0" xmlns="http://www.w3.org/2000/svg"
 width="338.000000pt" height="432.000000pt" viewBox="0 0 338.000000 432.000000"
 preserveAspectRatio="xMidYMid meet">

<g transform="translate(0.000000,432.000000) scale(0.100000,-0.100000)"
fill="#000000" stroke="none">
<path d="M216 4194 c-14 -14 -16 -213 -16 -2044 0 -1831 2 -2030 16 -2044 14
-14 166 -16 1524 -16 1358 0 1510 2 1524 16 14 14 16 213 16 2044 0 1831 -2
2030 -16 2044 -14 14 -166 16 -1524 16 -1358 0 -1510 -2 -1524 -16z m2963
-1546 c-1 -1348 -2 -1459 -17 -1413 -122 387 -183 548 -292 770 -136 276 -228
399 -437 586 l-71 64 -30 230 c-16 127 -28 246 -25 266 3 21 -1 51 -10 70 -8
19 -21 86 -30 149 -19 140 -43 217 -100 311 -51 86 -162 194 -237 231 -283
141 -614 16 -701 -263 -11 -34 -27 -73 -38 -88 -56 -79 -96 -182 -121 -311
-15 -76 -17 -109 -10 -165 5 -38 14 -110 20 -160 13 -103 49 -218 85 -273 23
-35 24 -42 15 -92 -5 -29 -10 -88 -10 -131 0 -69 -2 -79 -18 -79 -34 0 -157
-67 -210 -115 -105 -95 -196 -253 -246 -430 l-25 -90 -149 -145 c-82 -80 -165
-165 -185 -189 l-37 -45 0 1387 0 1387 1440 0 1440 0 -1 -1462z m-1408 1212
c82 -15 155 -56 223 -124 73 -71 116 -144 145 -241 11 -38 39 -213 61 -389 22
-175 47 -361 55 -414 l14 -95 53 -46 c29 -25 86 -77 126 -115 l72 -70 -102
-36 c-142 -51 -194 -73 -289 -120 -44 -23 -84 -39 -87 -35 -3 3 -17 303 -29
665 -26 732 -24 721 -97 806 -87 101 -302 152 -464 110 -29 -7 -52 -10 -52 -6
0 4 15 19 33 32 98 75 213 101 338 78z m-22 -220 c61 -27 116 -85 130 -137 5
-21 14 -162 20 -312 l10 -275 -37 -33 c-20 -18 -62 -45 -92 -60 -46 -23 -68
-28 -130 -27 -90 0 -149 23 -207 81 -65 65 -84 122 -98 296 l-6 77 37 0 c39 0
74 23 74 48 0 30 -32 52 -76 52 l-42 0 -7 105 c-6 80 -4 109 6 121 20 24 98
67 148 81 67 19 206 10 270 -17z m-454 -727 c39 -78 109 -150 175 -179 37 -17
38 -19 42 -72 l3 -55 -70 -47 c-38 -26 -92 -66 -120 -89 -42 -35 -50 -39 -53
-23 -4 25 13 120 29 159 12 30 11 33 -28 76 -73 80 -108 244 -101 474 4 115 9
148 29 198 l23 60 18 -215 c17 -210 18 -217 53 -287z m631 -493 c5 -157 9
-292 9 -300 0 -8 -31 -36 -69 -62 l-70 -48 -96 0 c-161 0 -317 51 -427 139
-29 23 -53 45 -53 50 0 4 14 29 31 55 38 56 140 145 264 228 50 33 94 67 99
75 5 9 6 42 2 74 l-6 59 49 0 c60 0 164 31 211 64 l35 24 6 -37 c4 -20 11
-164 15 -321z m692 -175 c25 -40 29 -36 -67 -60 -207 -52 -451 -187 -608 -337
-222 -213 -323 -422 -378 -780 l-6 -36 -87 40 c-48 22 -88 41 -89 42 -9 9 23
185 47 260 118 366 491 676 1045 867 61 21 112 38 115 39 3 0 15 -16 28 -35z
m-1429 -156 c37 -34 96 -74 144 -98 85 -42 224 -81 290 -81 20 0 37 -3 37 -6
0 -4 -31 -39 -68 -78 -165 -174 -271 -385 -301 -595 -5 -40 -12 -75 -14 -78
-3 -2 -31 2 -63 10 -114 29 -128 29 -165 4 -42 -28 -76 -77 -90 -131 -11 -40
-8 -140 6 -182 6 -19 0 -23 -59 -39 -35 -10 -71 -15 -79 -12 -20 7 -47 91 -47
144 0 48 26 107 59 137 39 35 22 86 -30 86 -34 0 -90 -60 -114 -123 -17 -46
-18 -160 0 -215 11 -33 -10 -27 -53 16 -48 48 -66 109 -60 200 10 141 85 212
224 212 46 0 56 4 70 25 15 23 15 27 0 50 -15 22 -23 25 -80 25 -130 0 -239
-65 -287 -172 -21 -46 -24 -68 -24 -168 0 -128 14 -170 78 -239 42 -45 141
-91 194 -91 81 0 197 29 282 71 45 22 87 37 91 32 23 -23 9 -37 -85 -86 -64
-33 -104 -61 -112 -77 -16 -32 -16 -158 0 -190 8 -15 23 -26 39 -28 40 -5 58
29 58 108 l0 65 93 48 c52 26 98 47 102 47 5 0 26 -17 48 -38 l38 -37 -98 -31
-98 -30 -43 -110 c-46 -116 -46 -145 -3 -157 33 -8 59 22 94 107 l32 79 112
33 113 32 52 -29 c64 -34 113 -38 128 -9 19 35 2 59 -63 91 -100 51 -178 112
-281 221 l-97 102 -46 -12 c-25 -7 -48 -10 -52 -7 -3 4 -6 35 -6 70 0 50 5 70
21 92 27 35 60 34 182 -3 190 -57 386 -173 526 -308 78 -76 108 -90 134 -64
21 21 13 61 -19 94 l-31 32 53 11 c153 30 336 61 364 61 61 0 132 -29 183 -75
51 -46 87 -56 110 -33 65 65 -130 207 -287 208 -25 1 -153 -18 -283 -41 l-236
-43 -56 42 c-64 48 -62 42 -40 190 38 256 138 458 313 633 92 92 228 187 348
245 100 47 275 105 326 107 l40 2 43 -80 c159 -296 351 -872 414 -1238 16 -97
20 -164 20 -358 l0 -239 -1440 0 -1440 0 0 470 c0 461 0 472 21 513 51 100
133 195 309 357 l98 90 53 -11 c63 -13 134 -51 150 -80 6 -11 17 -44 26 -72
21 -72 71 -163 104 -192 33 -27 66 -23 81 10 8 19 3 34 -31 91 -84 139 -100
300 -50 512 22 97 16 122 -31 122 -20 0 -34 -7 -44 -22 -18 -29 -44 -145 -52
-237 -6 -61 -9 -71 -23 -65 -9 4 -42 14 -73 23 -32 8 -58 20 -58 26 0 28 62
191 101 265 46 89 140 193 199 222 l35 17 6 -42 c5 -35 16 -50 68 -98z"/>
<path d="M1556 3349 c-21 -31 -23 -235 -3 -263 15 -21 62 -25 80 -7 7 7 14 50
15 100 l4 87 52 -4 c59 -5 86 12 86 52 0 38 -24 48 -124 54 -89 4 -94 4 -110
-19z"/>
<path d="M2446 1889 c-66 -16 -155 -70 -206 -126 -80 -87 -98 -139 -141 -393
-50 -295 -50 -320 6 -320 41 0 51 29 84 240 38 243 52 299 94 364 55 87 139
134 255 143 63 5 76 9 89 30 14 21 14 25 -1 48 -15 22 -23 25 -79 24 -34 -1
-79 -5 -101 -10z"/>
<path d="M1485 806 c-13 -19 -14 -29 -6 -45 19 -34 340 -291 365 -291 29 0 46
18 46 50 0 22 -29 50 -171 166 -93 76 -181 140 -194 142 -16 2 -29 -4 -40 -22z"/>
</g>
</svg>
