<?xml version="1.0" standalone="no"?>
<!DOCTYPE svg PUBLIC "-//W3C//DTD SVG 20010904//EN"
 "http://www.w3.org/TR/2001/REC-SVG-20010904/DTD/svg10.dtd">
<svg version="1.0" xmlns="http://www.w3.org/2000/svg"
 width="2048.000000pt" height="2048.000000pt" viewBox="0 0 2048.000000 2048.000000"
 preserveAspectRatio="xMidYMid meet">

<g transform="translate(0.000000,2048.000000) scale(0.100000,-0.100000)"
fill="#000000" stroke="none">
<path d="M11705 18435 c-642 -74 -1243 -317 -1735 -703 -111 -87 -157 -129
-275 -244 l-119 -117 -167 -16 c-615 -56 -1118 -210 -1629 -500 -434 -246
-909 -692 -1223 -1150 -153 -223 -370 -621 -447 -820 -13 -33 -27 -65 -31 -71
-16 -21 -78 -191 -100 -274 -47 -183 -22 -430 57 -551 17 -26 16 -31 -65 -275
-45 -137 -86 -258 -91 -269 -14 -33 -76 -207 -88 -250 -61 -206 -57 -380 15
-710 36 -167 37 -321 0 -500 -14 -71 -35 -179 -46 -240 -78 -419 -78 -813 -1
-1220 69 -361 144 -636 249 -902 38 -98 85 -219 105 -269 19 -51 82 -199 139
-330 176 -404 218 -518 292 -790 40 -152 70 -222 127 -308 136 -201 262 -312
459 -405 372 -176 757 -203 1259 -89 115 26 310 81 360 102 11 5 27 -13 57
-61 220 -360 362 -914 363 -1410 l0 -111 -166 -164 c-273 -268 -578 -635 -793
-953 -409 -605 -672 -1189 -865 -1920 -68 -259 -146 -647 -146 -730 0 -104
153 -182 240 -122 59 39 67 61 100 257 72 438 193 872 354 1277 52 133 212
478 233 505 5 7 32 54 58 103 188 350 477 757 755 1065 52 58 115 128 140 155
183 203 567 543 888 784 483 364 1237 767 1839 984 749 271 1278 389 2080 466
104 9 146 31 169 87 31 74 7 153 -58 195 -31 19 -43 20 -168 14 -155 -7 -539
-54 -745 -91 -417 -75 -690 -145 -1105 -284 -317 -105 -423 -145 -680 -257
-631 -275 -1269 -657 -1747 -1045 -39 -32 -73 -58 -76 -58 -2 0 -7 46 -10 103
-19 306 -123 742 -240 1007 -47 105 -116 238 -153 296 -17 25 -17 25 56 49 53
17 206 82 380 161 118 53 527 261 630 319 307 175 618 391 640 445 31 75 3
158 -66 197 -65 37 -101 31 -191 -32 -338 -236 -483 -325 -778 -476 -624 -319
-1251 -550 -1636 -604 -143 -20 -380 -20 -495 0 -117 21 -275 74 -388 132 -74
38 -108 63 -181 137 -116 117 -147 177 -219 421 -30 105 -77 251 -105 325 -50
136 -66 175 -251 620 -210 505 -261 648 -328 920 -81 327 -110 523 -119 815
-7 248 14 463 82 830 59 315 59 418 0 690 -31 142 -37 191 -39 300 0 74 4 147
11 170 23 80 86 281 96 305 6 14 11 27 12 30 26 87 74 233 95 290 16 41 45
129 65 195 74 237 93 275 169 329 71 50 111 71 186 97 310 110 769 87 1235
-62 215 -69 357 -125 560 -224 663 -320 1318 -802 2195 -1611 276 -255 836
-820 1064 -1073 61 -68 179 -197 261 -285 158 -171 210 -231 312 -358 l63 -78
-42 -98 c-78 -182 -139 -265 -253 -349 l-60 -44 -6 28 c-16 72 -61 126 -115
139 -96 24 -194 -57 -194 -160 0 -47 -17 -47 -130 -1 -106 44 -165 47 -210 9
-41 -35 -60 -74 -60 -124 0 -67 24 -104 88 -138 64 -34 194 -77 264 -87 l46
-7 4 -68 3 -67 -95 -32 c-120 -39 -206 -89 -293 -171 -220 -206 -303 -486
-233 -785 20 -89 100 -242 166 -320 71 -84 142 -139 245 -189 286 -140 620
-106 864 87 107 85 219 252 263 391 25 82 36 301 18 377 -27 112 -84 259 -109
279 -3 3 -19 24 -34 48 -82 127 -263 252 -432 297 -59 16 -63 19 -60 44 1 14
3 49 4 76 l1 50 73 27 c177 67 347 225 450 417 l45 83 16 -53 c46 -147 52
-163 79 -185 35 -29 97 -47 134 -38 71 18 284 143 398 233 243 192 371 322
526 531 128 173 307 506 369 685 l35 100 7 -125 c15 -282 77 -1364 93 -1635 3
-49 10 -164 15 -255 5 -91 16 -275 25 -410 28 -453 45 -734 55 -925 5 -104 12
-217 15 -250 3 -33 9 -145 15 -250 6 -104 19 -336 30 -515 11 -179 24 -408 30
-510 6 -102 21 -385 35 -630 29 -518 69 -1259 90 -1645 35 -652 51 -864 71
-910 28 -68 97 -130 187 -168 294 -127 738 -155 1053 -67 323 90 568 331 656
645 20 73 22 102 23 325 0 285 4 301 81 340 41 20 55 22 137 16 285 -18 324
-19 426 -2 178 30 315 88 456 194 175 130 284 275 359 475 43 116 60 227 54
364 -5 102 -12 132 -142 583 -75 261 -148 511 -161 555 -32 106 -149 523 -199
710 -8 28 -53 185 -101 350 -48 165 -100 348 -115 406 -16 58 -98 350 -183
650 -86 299 -170 596 -187 659 -18 63 -73 257 -122 430 -50 173 -109 385 -133
470 -47 170 -195 692 -365 1285 -60 209 -116 405 -124 435 -8 30 -40 143 -71
250 -94 323 -126 454 -180 750 -50 274 -99 473 -187 764 -124 414 -241 714
-433 1111 l-53 110 -7 160 c-15 354 -75 652 -205 1015 -43 121 -156 364 -215
460 -19 31 -40 68 -48 81 -29 54 -174 268 -216 319 -352 424 -679 689 -1126
913 -309 155 -643 260 -980 309 -184 26 -633 34 -810 13z m759 -319 c659 -109
1220 -389 1655 -826 154 -156 246 -260 298 -339 20 -31 44 -65 53 -76 35 -40
193 -308 237 -403 78 -168 139 -332 183 -487 23 -82 48 -169 55 -192 8 -24 11
-43 7 -42 -4 0 -43 46 -87 102 -158 200 -383 406 -520 474 -105 53 -157 65
-253 61 -67 -2 -98 -9 -137 -28 -72 -35 -138 -105 -164 -173 -40 -109 -38
-159 23 -537 30 -190 64 -410 75 -490 25 -173 61 -451 61 -465 0 -5 -33 58
-74 140 -73 150 -213 392 -248 431 -10 11 -18 24 -18 28 0 5 -12 23 -27 41
-16 18 -57 75 -93 126 -75 108 -144 192 -267 326 -48 52 -93 103 -101 114 -26
37 -389 365 -504 455 -132 103 -413 293 -568 383 -134 78 -433 227 -573 286
-401 167 -964 303 -1370 331 -96 7 -97 7 -80 27 24 26 260 203 349 260 78 50
312 183 347 196 12 5 56 25 97 44 225 104 524 191 780 226 80 11 159 22 175
25 78 11 594 -3 689 -18z m-2479 -1061 c403 -18 884 -124 1285 -283 41 -17 99
-40 128 -51 89 -36 351 -165 457 -226 288 -165 543 -346 742 -527 38 -35 100
-91 139 -125 106 -94 355 -367 451 -495 103 -137 213 -293 213 -302 0 -4 17
-33 38 -64 92 -136 278 -503 342 -677 128 -346 219 -700 267 -1045 25 -180 25
-655 0 -830 -79 -550 -227 -970 -473 -1341 -165 -249 -411 -501 -617 -633 -31
-20 -60 -36 -64 -36 -4 0 -19 21 -32 46 -74 139 -257 379 -476 623 -66 74
-140 157 -164 185 -24 28 -98 110 -165 181 -67 72 -167 180 -223 240 -214 233
-905 913 -1113 1095 -52 46 -129 114 -170 151 -334 304 -1036 838 -1358 1034
-260 157 -633 352 -815 424 -491 194 -807 264 -1202 264 -251 0 -403 -21 -565
-80 -85 -30 -245 -113 -297 -153 -37 -28 -53 -35 -53 -24 0 75 262 660 389
867 119 195 252 386 351 506 80 97 218 252 249 280 14 13 53 49 86 80 242 227
468 386 756 532 165 84 186 94 324 147 373 145 744 224 1130 240 185 8 218 7
440 -3z m4236 -1012 c62 -31 98 -61 219 -182 175 -175 330 -380 459 -604 9
-16 34 -56 55 -90 46 -72 197 -369 245 -482 19 -44 51 -118 72 -165 76 -174
180 -483 272 -810 80 -283 101 -370 146 -610 23 -118 46 -240 52 -270 18 -95
88 -354 174 -650 78 -269 104 -360 225 -795 54 -193 78 -276 115 -395 13 -41
54 -183 90 -315 115 -414 170 -610 268 -955 53 -184 126 -443 163 -575 36
-132 89 -314 116 -405 27 -91 83 -289 124 -440 109 -403 131 -478 184 -655 27
-88 74 -252 105 -365 61 -223 126 -451 210 -740 150 -512 247 -866 252 -913 8
-80 -28 -221 -82 -326 -98 -190 -262 -316 -485 -372 -87 -22 -146 -23 -420 -3
-163 12 -290 -33 -395 -140 -103 -106 -137 -204 -133 -386 5 -242 2 -324 -16
-384 -52 -176 -163 -305 -334 -387 -145 -70 -209 -82 -432 -83 -179 0 -205 2
-310 27 -167 39 -234 67 -237 98 -6 58 -89 1475 -148 2519 -19 344 -42 735
-50 870 -8 135 -19 335 -25 445 -11 215 -25 444 -40 675 -6 80 -17 264 -25
410 -37 660 -57 997 -75 1275 -11 165 -24 388 -30 495 -6 107 -19 350 -30 540
-11 190 -24 433 -30 540 -40 746 -57 1040 -65 1135 -3 33 -12 191 -20 350 -15
292 -23 433 -50 820 -44 626 -74 929 -135 1370 -11 77 -33 241 -50 365 -17
124 -42 286 -56 360 -26 144 -32 210 -20 228 14 22 73 12 147 -25z m-2205
-6729 c87 -28 185 -92 232 -151 41 -53 87 -148 102 -212 8 -33 11 -90 8 -148
-5 -85 -9 -102 -47 -177 -69 -141 -184 -228 -347 -264 -303 -65 -593 198 -571
518 9 124 47 215 125 297 43 44 131 107 172 122 19 7 44 17 55 22 63 26 178
24 271 -7z"/>
</g>
</svg>
