<svg xmlns="http://www.w3.org/2000/svg" version="1.0" viewBox="0 0 784 1168"><path d="m406 276-12 5c-7 3-17 13-21 20q-7 12-17 14-19 2-29 12-3 4-6 4c-6 0-23 5-31 9q-15 8-24 20l-11 11q-11 6-13 16-1 9-8 16l-7 11-5 11q-6 9-1 22l2 7-3 9c-5 11-5 18-2 30l2 8-2 10c-3 14-4 22-4 36 0 27 9 59 22 85l11 23q4 11 9 15 19 19 59 8c7-2 7-2 9-1q5 5 11 23l4 10-5 7q-14 20-24 48-5 17-15 38l-9 21v8l1 16 2 7-8 13-24 40 5 2 31-49c2-2 2-2 0-9l-1-18v-10l5-12 9-20 4-9c0-1 10-12 44-46q14-14 39-27l11-5 2 2 10 6q13 6 3 2l-8-2 14 9 6 3-7-3q-17-7 0 3l12 6h-2l-17-7 11 7 7 4-7-3q-14-5-4 1 8 5 3 3l-3-1q-1 2 2 2 4 3 1 2-7 0-2 3 8 3-5 0-13-5-12-1l-2 1v3l-3-3q-2-4-5 4l-2 4 7 5 8 5-2-1-14-7 5 3q8 5 3 3l-1 1 3 1 9 5-10-4-10-4 9 6 10 5-8-3-4-2 8 6 8 5h-6c-9-1-23 1-32 4s-33 14-35 17l-3 5-1 3 4-3 8-5 28-14c10-3 32-4 40-1l5 2 3 12c5 23 10 35 20 48 12 17 15 26 15 48l2 40c1 1 39-11 46-14l4-2v-8l2-12q0-4 2 5v11q0 4 1 2l2-7 1-6 2 5 1 6 9-4 8-5 1-13 3-21 2 17 1 14 1-13c0-13 0-13 2-11l3 11 1 9q2 1 1-9 0-8 1-5 3 1 4 8 1 3 4 0l37-25-2-11v-14c3-6 3-7 2-19-1-11-1-11 1-13q1-3 18 4c8 4 10 5 17 5q8 0 12-3 9-5 18-18l3-5-1-8c-2-14-11-49-18-69-8-25-9-31-13-55-5-30-10-46-20-68a321 321 0 0 1-30-110q-9-51-22-69c-5-7-5-8-6-18q-4-33-17-48l-5-7-3-2q-3-1-3-5-2-9-13-17-7-4-11-10a73 73 0 0 0-53-25l-15-3c-12-2-28-1-37 1m35 4 6 2-12 1q-21 4-35 13-11 8-6 3l8-7 5-4-11 7q-12 8 1-3 3-3 0-1l-15 10q-7 6-1-2 9-13 28-18c7-2 22-2 32-1m34 7 15 6c9 5 19 16 15 16l-8-3q-12-6-10-1l2 6q1 4-4 6l-3 3 11-3-1 2-6 2-4 2 8-1 10 1v1h-2l2 2 8 4 12 9q-1 2 6 8l8 7-10-4q-10-5-19-6c-8-1-9-2-16-6l-14-8-14-8-16-7-20-9q0-3 8-8l5-5-8 4c-8 3-17 5-18 3q-1-4 11-10c15-8 35-9 52-3m-56 24c36 10 69 33 81 57l2 4-12-10-14-11v2l2 2 8 8 5 7-8-8q-7-8-9-8l4 7 4 6-4-5-5-7a76 76 0 0 0-20-17l21 21 4 7-5-5q-8-8-3-2 1 4-21-15c-13-9-23-15-38-20q-18-6 0-2a160 160 0 0 1 38 14c0-2-22-11-35-15h2l11 2q12 4 0-1a163 163 0 0 0-60-7l14-6c6-1 30 0 38 2m-42 9c37 4 55 12 80 36l18 17c12 11 25 26 29 31q5 8 2 9l-22-20c-11-11-25-23-31-27q-48-36-104-36c-14-1-15-1-13-2 2-3 12-7 19-8zm-8 17c5 0 14 2 18 4 11 3 26 9 26 10q0 2 5 6l4 6 2 5 6 10q5 10 18 19 7 5 5 6c-2 1-15 3-23 3l-5 1v6c0 5-1 6-4 11l-4 5-8-5-10-6q-3-2-4 1l-1 9-2 8q-2 4-16-8l-17-12 9 9a261 261 0 0 1 34 33q-8-6-2 1l-6-6a302 302 0 0 0-63-45c-2 1-5 10-5 13q-1 3 6 11 7 11-4 6-8-3-2 2l5 4-1-1-6-3q-4-3 2 5l2 3-9-5-31-16c-21-7-44-5-58 6q-9 6-2-2c5-4 16-9 24-10q3-1-1-1-7 0-19 6-11 5-2-2c5-5 16-10 24-12l2-1-20 5-4 1c-1-1 5-10 8-12q5-4 21-4 14 0 4-1l-13-1-8 1 3-7c3-7 3-7 8-9l12-2q7-1 1-1l-11 1q-5 2-7 1l9-9 10-2 8-1-6-1q-10-2 2-3h4l-4-1q-6-3 5-3h5l-6-1-5-1 11-1q23-2 2-2l-11 1 4-5c6-5 18-11 28-14 18-5 44-6 63-4m155 4 2 2-3-1q-5-3-2-3zm-39 17 2 3-4-2-5-5 2 1zm-2 5 1 2-2-2-2-2zm40 4c2 4 1 6-1 16-2 9-4 20-2 14l3-10 1-8 1 4 2 19 1 15v-12l1-24c1 2 2 24 2 57 1 56 1 57 7 95q2 18 2 34 1 17 1 11c2-11 1-34-1-52-4-23-5-36-3-47l2-8q1 0 2 10l4 40c4 18 5 35 5 76 1 44 1 46 9 76l17 67q-2-21-9-49l-7-28q-6-21-6-43l-1-15 1 9 2 9v-10c0-9 2-19 2-14a719 719 0 0 0 16 89 629 629 0 0 1 12 81q-3 1 0 1c2-1 2-1 3 8v11l2 13 1 20c0 8-1 9-3 11q-5 5-17 5-4 1-3-3v-3l-1 3c0 3 0 3-11 3l-11 1-3-55v-5h3c6 0 28-5 27-6l-5 1c-5 1-19 4-22 3q-3 1-4-5l-7-99c-4-43-6-60-7-93-2-49-3-66-7-96a477 477 0 0 1-4-113l3-7zm27 29c11 18 14 29 17 61a429 429 0 0 0 9 78q-4-16-2 0v-2l-2-7-1-5v4l-9-35a287 287 0 0 0 13 58l7 25c10 44 16 73 20 105 4 35 5 47 2 47l-2-5-2-6 1 7-1 7q-2 0-2-4l-8-31v11l1 11-2-6-15-68c-3-15-4-27-5-53a958 958 0 0 0-16-142l-8-51v-8zm-211 22 24 18-18-13-15-9c0-1 6 2 9 5m147 5q1 1 0 0l-2-2zm-142 3q1 1 0 0l-3-2h1zm135 4 2 2zl-3-3h1zm-201 0c16 5 31 13 57 31 23 16 33 26 53 49l34 36c18 18 17 17 11 23q-4 5 0 7 1 3 5 0l14-4q1 1-2 3-3 4 0 2l3-3h3l1 3c0 3-18 19-22 19l1-1q4-3 1-7-4-2-7 1-1 6 3 7 1 1-2 1-9-1-9-9l-1-4c-1 0-2 7-1 10s1 4-4 13q-12 24-35 39c-22 14-73 31-93 31q-19-1-30-12l-7-12-11-23c-11-21-14-32-19-59-3-19-3-34 1-54l4-16 4-2c5 0 12 2 13 4q1 4-3 3-3-1-1 3l2 3 5 1q3 1 5-2 2-2 3 1 1 5-6 5-9-1-11-9l-1-5v5q1 15 18 11l3-1v-8q-1-13-10-24-7-9-1-1l2 5-5-1q-10-3-16-1l-4 2-1-4q-3-9 4-27c8-19 13-25 23-28 6-2 22-3 29-1m84 2q1 1 0 0l-2-2zm-14 3 4 3v11l-1 12-4-2q-4-3-5-8-3-18 0-19zm132 1-3-1-2-1-1-1q1-2 4 1zm-113 0q1 1 0 0l-2-2zm4 3q1 1 0 0l-2-2zm116 1q1 1 0 0l-2-2zm10 21 6 7-3-3-7-7zm-8 1 3 2zl-3-2q0-2 3 2m-20 2-5-3h2zm1 3-2-1-2-2 2 1zm16 10-9-6-1-1q-2 0-1-1c0-1 11 6 11 8m-77 26-16-16-6-6zm63-26q1 2 0 0l-2-2zm-13 2-2-1-3-2zm14 3q0 2-5-3l-2-2 3 2zm-71 19 13 14-15-15-14-16zm75-16q3 3-1 1l-2-2q0-2 3 1m-9 1q1 2 0 0l-2-2zm-228 4 9 8-6-1-12-2-7-1 3-3q5-3 13-1m155 8 1 2-2-2-2-2zm7 8 3 4-4-4-4-4zm8 8 3 3zl-3-4zm112 47c0 20 2 47 3 59l1 24c0 2-1 2-11 2a281 281 0 0 0-72 9q-4 0 1-6 7-6 7-16-1-10-10-15c-3-1-3-1-3-8v-7l7-5 13-10q7-5 10-6c6-1 16-7 22-13a94 94 0 0 0 30-44zm49-33zl1-2zm37 68v-6c2-1 9 27 15 49l20 84 2 9q2 1 3-2l4-2q3 1 7 29c6 33 6 35 1 40q-3 7-8-5-4-10 0 2c2 7 2 7 1 9-4 5-14 8-20 4-3-1-4-2-4-13l-4-56 4 19-4-36-5-43 6 27c5 32 6 33 10 33q4 1 3-6c0-8-2-17-8-38l-19-76 2 5-1-4-5-18-8-29zm-7 2 2 17-5-26q-2-11 3 9m-166-7q-1 3-3 0l1-2zm-1 18q-1 1-1-2t1-2zm-4 16c4 5 1 14-5 14q-6 0 1 5t14-1l4-8-1-7v-2l2 4q3 10-7 17-5 3-12-1c-9-4-11-16-3-23q4-3 7 2m-17 7-2 2h-1zm0 4-5 3q-9 5 1-1zm0 4-8 5q-14 6 1-3 10-6 7-2m15 13h7q2-1 2 2l-19 8c-31 11-44 18-64 34l-11 9-3-9-7-15-3-5 7 1c18 1 46-7 65-17q11-7-3 0-18 8-38 13-25 4-1-1l23-8c10-4 29-14 29-15l-13 6-28 11 4-2c7-3 37-18 37-20l-15 7-10 5 12-7 13-8 6 4zm79-2-12 2-19 3c20-2 47-3 50-1q2 1 2 7v6h-5l-12 1-47 8c-23 6-58 20-76 30-22 12-28 18-57 47l-12 12-1-6c0-5 1-7 8-20l13-21c10-13 30-29 46-38l70-24a226 226 0 0 1 52-6m-87 50h-1q-3 0-1-1zm5 2h-2v-1zm-7 2 3 1h-6l-2-1-3-1q-3-1 0-1zm-4 3 3 2c-3 0-12-5-10-5zm3-1zl-3-1v-1zm6 2h-2l-1-1zm188 28 9 58q0 9-3 5l-4-17-3-14 2 13 2 14q0 2-6 2-7 0-6-2l-6-50q-3-5 5-9 9-6 10 0m-178 3h-1q-3 0-1-1zm12 56-1 7-1 2c-1-4 0-12 1-12zm6 0c1 1-2 19-3 20-2 1-2-8-1-14q2-10 4-6m7 3-1 8-3 11-1 4c-2-1-1-16 2-23zm6 3q1 1-1 14l-3 14c-2 1-3-6-3-10l5-19zm7 4q2 0-1 13l-3 15-1 2-1-2q-2-4 2-24 1-7 4-4m7 4c1 1 1 2-2 20l-2 11h-1q-5 0 1-26 1-8 4-5m7 4c2 2 2 3-1 15-3 19-3 18-5 17l-1-8 5-25zm9 9-6 30c-3-1-3-4-1-19l3-15h2q3 1 2 4m5 1c2 2 2 2 0 18l-4 16h-2c-1-2-1-5 1-18l3-17zm9 11-8 29a302 302 0 0 1 4-34q-1-3 2 0zm5 5-2 17c-4 22-6 13-2-10q2-13 3-12 2 0 1 5m7 1-5 34-2-1c-1 0-1-3 2-22q2-16 5-11m5 5a181 181 0 0 1-4 34h-2v-15c3-21 3-22 6-19m6 10-4 31q-3 1-2-8l4-28q2-3 2 5m5 19-2 18-2-1c-2-1-1-20 2-34q-1-4 2-2zm6-5-1 20c0 11 0 11-2 9-2-1-2-2-2-16 1-19 2-23 4-22zm-46 10q-2 8-5 11l-2 1 8-16zm4 5q-2 10-5 13-4 4 1-8l4-10zm5 5c-1 7-3 16-5 16q-2 1 2-11l2-10 1-2zm6 14q-3 15-4 5c0-5 2-17 4-22zM545 643"/><path d="m538 650 9 122a773 773 0 0 0-9-122M588 787q0 2 1 1v-3q-1-1-1 2M589 809q0 4 1 1v-4q-1-1-1 3M567 831zv-2zM304 498l-6 3q-2 3 3 0 9-4 19 0c3 1 13 10 11 10l-7-2q-17-7-26 3-7 6 1 2c5-3 18-4 22 0q6 4 1 5-4-1-2 2 3 5 9 6l4-2 2-1q-1 4-8 4-5-1 1 1 3 1 7-2l4-2-4 3q-6 6-11 1t-6-10l-1-2q-2 2 1 9t12 7h2l-8 1q-6 0-2 1 7 2 16-3 6-4 9-2h10l-3-2q-5-2-9-10c-7-9-11-13-20-17q-12-6-21-3M243 514l4 2 6-3h-9l-3-1zM286 571q2 8 0 14l-4 3q-2 2-8-2c-7-3-9-4-14-1q-5 4-11-2-4-3-2 0c1 3 8 8 13 9l13 1q15 1 16-8c1-3-1-12-4-15zM246 611l-2 5c1 2 9 7 16 11 8 4 37 7 40 4v-2l-15-9c-14-8-15-8-22-9l-12-2q-4 0-5 2m28 13 3 1-5 1q-9 0-11-4c0-2 8-1 13 2M251 637q2 7 9 9 15 7 29-3 8-6 0-2l-14 1q-17 1-23-6l-3-3zM614 626zv-2zM661 786l1 8-1-14zM395 755l7 3-3-2zM343 773q-4 6 0 1l2-4zM312 788c-2 5-6 22-5 23l2-7 4-13q3-12-1-3M315 791l-3 11 6-17zM318 791l-2 5zl2-5zM361 791q-6 5-2 3l6-5zM350 805l-8 9zl9-9zM363 801q0 3 3 5l4 3 17 7q6 4 2-1-7-5-15-8-9-1-10-7-1-3-1 1M379 804q8 3 19 12 5 3-1-3-10-9-18-10l-4-1zM303 807l-1 6-2 5q0 3 1 1l4-16zM325 811l-9 8-5 4-1 2q8-6-3 7l-6 8 12-13zm-9 9-2 2q-1 1 0 0zM330 810l-9 10-12 14-12 16zM330 815l-18 21-14 18 4-4 10-11 17-22h2q-1-2 2-4l1-3zM317 814l-2 4zl3-4zM331 825l-11 14q-7 10-6 5l-7 9q-6 9 2-2 9-10 1 2-15 23 8-9zM377 875l2 2 9 7q14 11 4 1c-7-6-15-11-15-10M376 879l9 8 19 15a127 127 0 0 0-28-23M379 887l13 11q20 18 10 8zM319 888l-2 3c-1 2 3 37 4 38l17 4 1-18v-17l-6-6q-7-7-9-6zM383 910c22 22 27 26 28 26l-23-23q-35-32-5-3M384 917l22 20zM384 924q17 18 15 13l-27-27zM370 921c0 2 11 17 12 17v-1l-6-8zM377 922l13 16q4 2-6-9z"/></svg>