<svg xmlns="http://www.w3.org/2000/svg" viewBox="0 0 1920 2240"><path d="m1239 297 3 1a275 275 0 0 1 158 89l7 7a264 264 0 0 1 44 68c17 36 27 75 38 113l12 45 1 2 13 45v3l2 6 15 51v3l68 240 57 203 49 173 34 120 8 25 21 75 1 2q9 28 2 57l-1 3q-10 33-40 50a105 105 0 0 1-95 2l-3-1-9-5v4c3 27 0 51-17 73a124 124 0 0 1-98 44l-3-1q-18 1-36-4l-2-1q-24-5-38-26-6-16-6-33l-9-180-4-94-1-21-1-9v-2l-14-272-4-88-1-17v-7l-2-29v-2l-3-54v-4l-1-8-1 2a307 307 0 0 1-49 101 403 403 0 0 1-46 55q-10 13-9 29v8q1 56 33 103l1 2a120 120 0 0 0 40 39l10 5c11 7 17 13 21 26q6 19-4 37-11 17-31 21l-18 3-25 5h-3a659 659 0 0 0-132 36l-18 7-52 23-42 20-5 3-3 1-12 7q-37 20-72 45l-2 1-21 16-10 9-30 26-6 5-14 13-2 3-17 19q-12 12-22 27l-1 2a300 300 0 0 0-40 65q-27 56-31 116l-1 4v12l-1 3q0 6-5 10h-11q-5-4-5-10a321 321 0 0 1 40-154q16-30 36-57 10-12 13-29l1-11 1-2q14-69 60-121l2-2 2-2 1-2 5-5q4-8 1-18v-3c-5-29-14-56-39-74q-8-7-20-5l-8 2q-34 9-69 7h-3a109 109 0 0 1-77-35l-2-3q-12-15-16-34l-5-12v-3l-15-36-1-2-14-33a638 638 0 0 1-48-166c-5-38 2-78 12-114q8-26 1-52l-3-11-1-2q-3-16-3-32v-4q0-28 11-55l7-17q5-13 3-25c-9-49 14-108 42-148a338 338 0 0 1 33-42l1-2 2-2 3-1 1-2 7-8 4-3 1-2 6-5 14-12 3-2q53-41 117-59 13-3 23-11l4-2 1-3 5-3 3-2 3-3 3-2 24-14 7-4q27-14 56-23 18-5 31-17a269 269 0 0 1 52-36c52-30 115-35 173-25m-152 37-3 1q-26 12-45 31h3a422 422 0 0 1 183 44l2 1q30 16 57 37l2 2 2 2 4 1 1 2 5 5a237 237 0 0 1 34 32l19 21 5 7a395 395 0 0 1 53 86 451 451 0 0 1 42 141l2 9 26 154 11 65 7 40 13 67 11 64 1 3 10 55 1 3v4l1 3 43 221 31 161 1 2 2 14c4 19 8 33 25 45q29 18 63 12a77 77 0 0 0 41-24c9-9 14-25 15-38v-3c1-17-5-33-10-49l-17-58-30-106-1-4-25-90-1-4-28-97-26-90v-3l-32-110-1-3-27-98-1-2-10-38-1-3-75-267c-17-61-34-124-77-172l-6-7q-15-18-33-32l-3-2c-42-34-98-54-152-57h-3q-57-2-109 22m-95 60-2 1q-41 10-76 35v1h21c85-6 175 18 248 62l2 1q27 17 50 35l2 1 23 21 16 15 21 22 2 3a438 438 0 0 1 102 255v3l4 76 5 116v3l3 44v3l1 38a5039 5039 0 0 0 13 242v2l6 114v3l4 90v3l1 12v3l5 96 1 11 1 28v4l1 5q-1 10 6 17c16 14 40 17 60 16q19 0 37-7l2-1q15-6 28-16l2-2q20-15 24-41 2-18-2-36l-1-4-8-48-2-9-15-75-12-60-38-195-19-104-34-186q-13-67-23-133c-20-130-20-130-64-253l-1-2a387 387 0 0 0-128-149l-9-7-22-14-2-1c-69-38-156-58-233-38M743 522l-3 3q-17 14-31 30l-7 7-14 18-1 2q-41 54-47 121l3-3 2-1 5-5q18-17 42-23l2-1a148 148 0 0 1 49-5q22-1 44 3h2a394 394 0 0 1 104 35l2 1 38 20a524 524 0 0 1 103 77l12 11 9 8 17 17 50 52 12 14 22 24 23 28 9 10 32 40 31 41 2 2 5 8q2 4 5 4 1-31-4-63l-1-4a405 405 0 0 0-88-179l-2-3-6-8-18-22c-43-50-43-50-41-79q2-22 18-36 22-14 46-11l13 4 3 1q19 10 34 24l7 6q18 15 34 31l1 2 16 16 6 7a348 348 0 0 1 33 42l1 2q36 55 53 118 3-4 3-8l1-3c16-82-7-164-48-235l-1-2-15-23-2-3-44-53h-2v-2l-3-3-12-11-21-19-29-21-2-1q-45-31-96-49l-3-1q-26-9-53-15l-3-1-37-5c-90-11-190 8-260 69m387 165q-8 14-5 30c3 13 14 25 23 35l9 11q6 9 13 15l24 33 5 6 23 34 1 2a472 472 0 0 1 35 67l1 2q14 33 20 68l1 3a319 319 0 0 1 5 80l5-4a105 105 0 0 0 19-23c34-44 34-44 49-95l-2-9v-3l-2-8-1-3q-12-68-51-126l-2-2-23-31-36-39-2-3h-2v-2l-3-3-11-9c-29-28-29-28-65-39q-18 0-28 13m-473 27q-9 12-13 25l-2 4-19 60h3q29 0 53 14l2 1q20 13 31 33l1 3q19 41 10 87v3q-11 50-32 98c-5 13-5 13-5 28q8 12 23 17l5 2q9 5 22 4 16 0 30 5c8 3 8 3 16 3q6-2 9-9 1-11-5-20l2-3h8q6 6 6 14 2 13-6 22-9 9-21 8-14-3-26-7l-8-1-4 6q-7 4-15 2l-14-5-3-2c-15-6-28-12-36-26l-1-2c-5-10-2-23 1-33l13-33 5-14c13-33 13-33 18-68l-2 1q-14 5-29 0-11-6-17-18-4-12 2-25l5-8q-16-1-30 12-4 6-5 13l-4 22-1 4-3 13q-13 51-7 103v3a491 491 0 0 0 40 136l21 49q12 24 19 51c5 16 5 16 14 30h2l1 2c6 11 22 18 34 22q20 6 41 6h2q19 0 38-3l2-1q74-14 142-48l2-1a545 545 0 0 0 75-46l3-2q45-37 70-90l1-2q11-23 17-48l3-4q5-2 9-1l10 9q7 9 18 11h2v-12q1-7 4-12 4-2 10-2 3 2 5 6l1 8v8q9-3 14-9l2-2q13-14 20-32l1-3c2-5 2-5 1-11q-6-11-15-20l-25-33-9-12-23-27-35-41-17-19-8-8-2-3-34-36-6-6-5-5-3-3-20-19-14-13-8-7-9-7-8-7-25-19a460 460 0 0 0-68-44c-42-25-95-42-144-46h-2c-37-3-74 4-101 30m-37 111c-7 13 3 39 7 52q3 1 5-2l10-5 3-1q20-6 38 1l19 11v-7l-1-2-1-2-2-3q-4-13-14-22h-2l-1-2q-3-4-7-6l-2-2c-12-8-38-20-52-10m54 66q-4 8-3 17 3 7 11 10t15-1q6-3 9-7-8-15-23-23-5 0-9 4m577 196-2 4-2 2-1 3c-10 17-23 35-42 41l-3 1-1 8v17l4 1q23 8 34 29l1 2q8 18 3 38-3 9-10 18l-2 3a58 58 0 0 1-40 17q-22 0-38-16l-2-2q-13-15-13-34-1-23 15-41 13-10 28-14v-23l-7-2q-10-3-20-10-4 3-5 8l-1 3-1 3a260 260 0 0 1-92 123l-47 30q-57 32-121 51l7 7c21 20 30 46 35 73l1 3v3l3 4 1-1 10-9 3-2q18-15 38-27l2-1 11-7 3-2 18-10 2-1q82-43 170-68l2-1q63-18 129-22-1-5-5-8l-13-15-2-3q-10-13-18-28l-1-2q-16-29-21-62l-1-3-1-23v-14q2-21-7-41zm-55 240-3 1-17 5-3 1a745 745 0 0 0-185 84l-3 2a334 334 0 0 0-79 71q-24 30-37 66l-1 2q-5 10-5 21l-1 4 9-7 1-1 29-27 15-14 25-19 7-5a791 791 0 0 1 102-64q93-48 194-75l4-1 69-15h2l16-2q17-1 28-13 5-9 3-19-3-10-12-15c-40-19-117 8-158 20"/><path d="M1002 873q3 2 2 6v3q-4 3-9 3l-7-4q-15-13-32-21l-2-1c-36-18-78-25-117-13l-21 11c-8 4-8 4-11 4l-5-3v-8c13-15 35-21 53-24l3-1c51-9 108 14 146 48m-56 33 13 11 2 1q6 5 9 13l-1 5q-4 4-8 3-8-3-14-10v-2h-4l-1 2q-4 15-18 22-12 5-26 1l-12-7v-2h-2l-3-4-2-2q-5-12-3-24l7-13q-21-1-37 12l-8 9q-2 4-6 5l-6-1q-4-4-2-10c6-13 22-23 35-28 30-9 62 1 87 19m-50 0q-5 7-5 17 2 8 9 14 7 4 16 1 7-3 11-11 2-5 1-11-6-6-13-9l-2-1q-9-7-17 0m-182 245 8 5q7 2 16 0 18-4 35 6l10 6c20 12 41 23 64 23q5 1 7 5 1 4-2 8c-13 10-40 7-56 7h-3q-44-1-88-14l-3-1q-11-3-18-12-3-7-1-15 5-12 17-18 7-3 14 0m-15 18-1 10 20 8q42 11 85 10l-10-7-16-9c-15-10-15-10-33-12l-5 2q-9 3-19 0l-9-6q-7-1-12 4m3 41 6 3 4 8q5 11 16 16l11 4 2 1q29 6 54-9 6-2 11-1l5 3q1 5-2 8-7 7-18 10l-2 1q-34 11-67-3-19-9-26-28l1-10z"/></svg>