<svg xmlns="http://www.w3.org/2000/svg" version="1.0" viewBox="0 0 714 714"><path d="m369 36-12 5c-7 3-17 13-21 20q-8 14-20 14-14 2-26 12-3 4-6 4c-6 0-23 5-32 10q-15 7-23 19l-11 11q-11 6-13 17-1 7-9 16l-6 10-5 11q-6 10-1 22l2 7-3 9c-5 11-5 18-2 30l2 8-2 10c-7 31-5 58 6 93 4 13 7 19 15 32l8 18q4 12 9 16 19 19 60 7h9l12 26 2 7-5 7q-14 19-24 48-5 17-15 38l-9 21v8l1 16 2 7-8 13-24 40 5 2 31-49c2-2 2-2 0-9l-1-18v-10l5-12 9-20 4-9a622 622 0 0 1 62-60c12-8 30-18 33-18l9 3q10 6-2 1l-5-2 9 5q14 8 3 3l-8-2 14 9 6 3-7-3q-17-7 0 3l12 6h-1l-18-7 11 7 7 3-9-3-6-2q-1 1 8 7h-1l-3-1 2 2q4 2 1 2-7-1-2 3 8 3-5-1t-12-1l-2 2v2q1 2 0 0l-3-2q-2-4-5 4l-2 4 8 4 7 6h-1l-7-5q-9-5-8-3l5 3q8 5 3 3l-1 1 3 1 10 5-11-4-10-4 9 6 10 5-9-4q-10-4 5 5l9 5h-7c-9-1-23 1-32 4s-30 13-34 16l-3 4-1 4 12-7c7-5 19-11 27-14 10-3 32-4 40-1l5 2 3 12c5 23 10 34 20 48 12 17 15 26 15 48l3 40c1 1 38-11 45-14l4-2v-8l2-12q1-3 2 5v11q0 4 1 2l2-5 1-6q1-4 2 3l1 6 7-3c12-6 11-5 11-13l3-27c1 2 2 5 2 17l1 14 1-13c0-13 0-13 2-11l3 11 1 9q2 1 1-9 0-8 2-5l3 6 1 3 40-27-1-8q-3-14-1-16 4-4 2-19c-1-11-1-11 1-13q2-3 18 4c12 5 18 6 26 3q11-4 21-19l3-5-1-8c-2-14-11-49-17-69-9-25-10-31-14-55-5-30-10-46-20-68a288 288 0 0 1-26-87c-13-66-16-78-27-94-4-5-4-6-5-16q-3-33-17-48l-5-7-3-2q-3-1-3-5-2-9-12-16l-9-7a79 79 0 0 0-23-20q-15-8-29-9l-19-2c-12-3-28-2-37 0m35 4 6 2-12 1q-21 4-35 13l-6 3 8-7 5-4-11 6q-12 9 1-2 3-3 0-1l-15 10q-6 7-1-2 9-13 28-18c7-2 22-2 32-1m34 7q17 5 26 15 12 11-3 5l-8-4q-4-1-3 2l2 6q1 4-4 6l-3 3q9-3 11-2l-1 1-6 2-4 2 8-1 10 1v1h-2l2 2 8 4 12 9 6 8 8 7-10-5q-10-5-19-5c-8-2-9-2-16-7l-14-8-14-7-16-8q-19-7-20-9l8-8 5-4-8 3c-8 4-17 6-18 4q-1-4 11-10c15-8 35-9 52-3m-56 24c36 10 69 33 81 57l2 4-9-8c-9-8-20-16-17-12l1 2 1 1 8 8 6 6-9-7q-7-8-9-8l4 7 4 5-4-4-5-7c-2-4-23-21-23-19l4 4q9 6 20 20l4 5-5-5q-8-7-3-1 1 4-21-15c-13-9-23-15-38-20q-18-6 0-2a161 161 0 0 1 37 12c-4-3-16-8-26-11l-9-3 20 5c0-2-17-6-30-8q-15-3-25-2h-11l14-6c6-2 29 0 37 2m-31 11q33 4 52 19a412 412 0 0 1 67 72c0 3-4-1-23-20-27-26-43-38-64-48-24-10-56-17-77-16l-9 1 3-3q14-11 51-5m-17 15 21 5 22 10 3 5 14 22q4 9 17 18 7 5 5 6c-2 1-15 3-23 3l-5 1v6c0 5-1 6-4 11l-4 5-8-5-10-6q-3-2-4 1l-1 9-2 8q-2 4-16-8l-17-12 12 11 32 32q-9-8-3 0l-6-6a302 302 0 0 0-63-45c-2 1-5 10-5 13q-1 3 6 11 7 11-4 6-8-3-1 2 9 7-1 1-6-5 0 4l2 3-10-5c-25-15-39-20-56-20q-18 0-32 10-9 6-2-2c5-4 16-9 24-10q3-1-1-1-7 0-19 6l-6 2c0-3 17-13 27-16q6 0 3-1l-20 5-4 1c-1-1 5-10 8-12q5-4 21-4 14 0 4-1l-13-1-8 1 3-7c3-7 3-7 8-8l12-3q7-1 1-1l-11 1-7 2c-1-1 6-8 9-10l11-2 8-1h-6q-7-2-5-3l5-1h5l-4-1q-6-2 5-3h5l-6-1-5-1 11-1q23-2 2-2l-11 1 4-4c6-6 19-12 28-15 19-5 46-6 65-3m153 4 2 2-3-2q-5-2-2-2zm-41 16 4 4-3-2-4-3-1-2zm0 6 1 2-2-2-2-2zm40 4c2 4 1 6-1 16-2 9-4 20-2 15l3-11 1-8 1 4 2 19 1 15v-12l1-24c1 2 2 24 2 57 1 56 1 57 7 95q3 18 2 34 0 17 1 11c2-11 1-34-2-52q-5-32-2-47l2-8 1 10 5 40c4 18 5 35 5 76 1 44 1 46 9 76l17 67q-1-21-9-49l-8-28q-5-21-5-43l-1-15 1 9 2 9v-10c0-9 2-19 2-14 1 22 7 55 14 84a582 582 0 0 1 13 86q-2 1 1 1 2-3 3 8v11l1 13 2 20c-1 8-1 9-3 12q-6 4-17 4-4 1-3-3v-2l-1 2c0 3 0 3-11 3l-12 1-2-55q-1-6 3-5c6 0 28-5 27-6l-5 1c-5 1-19 4-23 3q-3 1-3-5c-1-16-5-77-9-114l-5-78q-3-69-7-96a479 479 0 0 1-4-113l3-7q2 0 2 3m27 29c11 18 14 29 16 61a437 437 0 0 0 10 78q-4-16-2 0v-2l-2-7-1-5q-1-2-1 1v1l-3-14-5-19 13 58v-3l7 31c13 53 19 87 24 137q0 19-4 7l-2-5 1 6-1 7q-2 0-2-4l-7-31v23l-2-7c-17-72-18-81-20-120a1128 1128 0 0 0-20-169l-5-31q-1-6 6 7m-211 23 24 17-18-12-15-10c0-1 6 2 9 5m147 4q2 1 0 0l-2-2zm-142 3q2 1 0 0l-3-2h1zm-66 5a266 266 0 0 1 110 79l34 36c18 18 17 16 11 24q-2 3-1 5-1 4 13-1 12-5 5 1-3 3 0 2l3-3h3l1 3c0 3-18 19-22 19l1-1q4-3 1-7-4-2-7 1-2 6 3 7 1 1-2 1-9-1-9-9l-1-4c-2 0-2 7-1 10q2 2-3 11-8 17-19 27-20 20-62 34c-38 13-54 14-69 6q-11-5-16-19l-11-23c-8-16-11-23-14-37a159 159 0 0 1-1-92l5-2c5 0 12 2 13 4q1 4-3 3-3-1-1 3l2 3 5 1q3 1 5-2 2-2 3 1 1 6-6 5-8-1-11-9l-1-5v5l1 6q5 8 17 5l3-1v-8q-1-13-10-24-6-9-2-1l3 5-6-1q-9-3-16-1l-3 2-1-4q-3-9 4-27c8-19 13-25 23-28 6-2 22-3 29-1m85 1 1 2-2-2-2-2zm-15 3 4 3v11l-1 12-4-2q-4-3-5-8-3-18 0-19zm132 1-2-1-3-1-1-1c1-1 6 2 6 3m-109 3q2 1 0 0l-2-2zm116 1q2 1 0 0l-2-2zm-116 2-2-1q-2-1 0 0zm4 0q2 1 0 0l-2-2zm109 16q2 1 0 0l-2-2zm16 6q9 9 1 3l-5-6zm-31-1-1 1q-1-2-1 1 1 2 0 0l-1-2zm4 5h-1v-1q1-2 1 1m-64 36-16-17-6-6zm77-28-2-1q-10-5-4-3zm10 0q1 1 0 0l-2-2zm-37 3-2-1q-3 0-3-2zm14-1q1 1 0 0l-2-2zm-2 3 1 2-2-2-1-2zm-69 21 13 14-15-16-14-15zm68-15-2-1-5-4zm6-2q1 1 0 0l-2-2zm-236 5c2 1 10 8 9 9l-6-2-12-2-7-1 3-3q5-4 13-1m155 8 1 2-2-2-2-2zm7 8 3 4-4-4-4-4zm6 7q2 1 0 0l-2-2zm113 48 5 83c0 2-1 2-11 2q-35-2-72 9-4 0 1-6 7-6 7-16-1-10-10-15l-3-1v-15l6-3 13-10q7-6 13-8a84 84 0 0 0 50-57zm50-33zl1-2zm37 68v-6c2-1 9 27 15 49l20 84 2 10 3-2 4-2q3 1 7 28c6 33 6 35 1 40q-3 7-8-5-4-10 0 2c2 7 2 7 1 9-4 6-14 8-20 5-3-2-4-3-4-13l-3-26-4-33-1-18 4 20 4 19-4-32c-7-50-7-64 0-25 6 37 7 39 11 39q3 1 3-7c0-8-2-17-8-37l-19-69-5-18-4-15q-2-10 4 8l5 17 2 6v-5l-6-17-8-31zm-8-2 3 21-3-11q-6-32 0-10m-165-3q-1 4-3 0l1-2zm-1 18q-1 1-1-2t1-2zm-4 16c4 5 1 14-5 14q-5 1 1 5 7 5 14-1l4-8-1-7v-2c2 1 3 8 3 11q-3 9-11 11-9 0-15-7c-4-6-2-15 3-18q5-2 7 2m-17 8-2 1h-1zm0 3-5 4q-9 4 1-2zm0 4-8 5q-13 6 1-3 10-6 7-2m2 2c0 3 8 10 12 11l7 1q4-2 3 1 0 2-20 9c-31 11-49 20-68 37l-6 5-3-9-7-14-2-5h7q22 1 50-11l19-9-8 3q-18 8-37 13-26 5-2-1 23-6 42-17 18-10-2 0l-29 11 7-3 32-17q6-5-13 5l-10 5zm92 10-12 1-19 3c20-2 47-3 50-1l2 13-43 5c-32 6-72 20-97 34-22 13-28 18-57 47l-12 12-1-6c0-5 1-7 8-20l13-21c10-13 30-29 46-38 10-4 53-19 70-23a226 226 0 0 1 52-6m-87 49h-1q-3-1-1-1zm5 2h-2v-1zm-7 2 3 1h-6l-2-1-3-1q-3-1 0-1zm-1 2 1 1-3-1v-1zm6 2h-2l-1-1zm188 29 9 57q0 9-3 5l-4-17q-5-27-1-1l2 14q0 2-6 2-7 0-6-2l-3-25-3-25q-3-5 5-9 9-6 10 0m-178 2h-1q-3-1-1-1zm12 56-1 8q-1 6-1 1c-1-4 0-12 1-12zm6 0c1 1-3 19-3 20-2 1-2-8-1-14q2-10 4-6m7 3-1 8-3 11-1 4c-2-1-1-16 1-23zm6 3q1 1-2 14l-2 14c-2 1-3-6-3-10l5-19zm7 4q2 0-1 13l-3 15-1 3-1-3q-2-4 2-24 1-7 4-4m7 4a163 163 0 0 1-4 31q-3 0-3-5c0-7 4-27 5-27zm7 5c2 1 2 2-1 14-3 19-3 18-5 17l-1-8 5-25zm9 8-3 17-3 13q-2 1-3-5l5-29h2q3 1 2 4m5 2c2 1 2 1-1 17l-3 16h-2c-1-2-1-5 1-18l3-17zm8 10-7 29a302 302 0 0 1 3-34q1-3 3 0 2 2 1 5m7 6-7 29c-1-1 0-12 2-24 2-13 2-12 4-11zm5 0c1 2-3 33-4 34h-2c-1-1-1-5 2-24l3-11zm6 6a241 241 0 0 1-4 34h-2l-1-8c1-12 4-28 5-28zm6 10-4 30q-3 0-3-7l4-29q3-3 3 6m4 18-1 18-2-1c-2 0-1-20 2-34q0-4 2-2zm7 6-1 19-3-1-1-16 2-18q-1-6 2-4zm-46-1q-2 8-5 11l-2 1 8-16zm4 5q-2 10-5 13-3 2-1-2l3-8 2-7q3-7 1 4m5 5c-1 7-3 16-5 16q-2 1 2-11l2-10 1-3zm6 14q-3 15-4 5c0-5 2-17 4-22z"/><path d="m435 111 1 1 1-1-2-1zM508 402l2 5-3-17zM501 410l8 115-1-56zM551 547q0 2 1 1v-3q-1-1-1 2M552 568q0 3 1 2v-4q-1-1-1 2M530 591zv-2zM267 258l-6 3q-1 3 3 0 9-4 19 0c3 1 13 10 11 10l-7-2q-17-7-26 3-7 6 1 2c5-3 18-3 22 0q6 5 1 5-4 0-2 2 3 5 9 6l4-2 2-1q-1 4-8 4-5-1 1 2l7-2 4-3-4 3q-6 6-11 1-5-4-6-10l-1-2q-2 2 1 9t12 7h2l-8 1q-6 0-2 1 7 2 16-3 6-4 9-2h10l-3-2q-4-3-9-10c-7-9-11-13-20-17q-12-6-21-3M206 274l4 2 6-3h-9l-3-1zM249 331q2 8 0 14l-4 3q-2 2-8-2c-7-3-9-4-14-1q-5 4-11-2-4-3-2 0 4 6 13 9l13 1q15 0 16-8c1-3-1-12-4-15zM209 370q-3 4-1 7l15 10c5 2 28 6 34 6q10-2 6-4l-15-9c-14-8-15-8-22-9zm28 14 4 1-6 1q-9 0-11-4c0-2 8-1 13 2M214 397q3 8 12 10 10 3 18 0c5-2 13-7 12-8l-4 2-14 1q-17 2-23-6l-3-3zM577 386zv-2zM624 546l1 8-1-14zM358 515l7 3-3-2zM306 533q-4 6 0 1l2-4zM276 547c-2 3-7 23-7 24l3-7 4-13q3-11 0-4M278 551l-3 11 6-17zM281 551l-2 5zl2-5zM323 553q-5 5 1 0l2-3zM313 565l-8 9zl8-9zM326 561q0 3 3 5l4 3 17 7q6 4 2-1-7-5-15-8-9-1-10-7-1-3-1 1M341 564q7 2 16 9 9 8 2 0-8-9-17-10l-4-1zM266 569q-4 13-2 11l4-17zM288 571l-9 8-5 4-1 2q7-6-3 7l-6 8 12-13zm-9 9-2 2q-1 2 0 0zM291 572l-19 22a509 509 0 0 0 19-21M293 574l-7 10-11 12-14 18 4-4 27-33h1l1-1 1-1 1-1 1-2v-2zM280 574l-2 4zl3-4zM294 585l-11 14q-7 10-6 5l-7 9q-6 9 2-2 9-10 1 2-15 23 8-9zM340 635l2 2 9 7q14 11 4 1c-7-6-15-11-15-10M339 639l9 8 19 15a127 127 0 0 0-28-23M339 644l11 10 18 15c5 4-8-9-18-17zM282 648c-3 3-3 6-1 24l3 18 4 1 9 1 5 1v-35l-6-6q-6-7-9-6zM344 654l27 24c0-1-9-10-19-18zM346 670c22 22 27 26 28 26 0-1-3-5-22-22q-36-33-6-4M347 677l22 20zM347 684q17 18 15 13l-27-27zM334 683c2 5 10 15 11 15v-1l-6-8q-8-12-5-6M340 682l13 16q4 2-6-9z"/></svg>