<svg xmlns="http://www.w3.org/2000/svg" version="1.0" viewBox="0 0 2048 2048"><path d="M1171 205a345 345 0 0 0-201 94l-12 12-17 1c-62 6-112 22-163 51a401 401 0 0 0-170 204c-2 2-8 19-10 27-5 18-2 43 6 55 1 3 1 3-7 28l-18 52c-6 20-5 38 2 71q5 24 0 50l-5 24q-12 61 0 122a486 486 0 0 0 35 117l14 33c18 40 22 51 29 79a105 105 0 0 0 59 71c37 18 76 20 126 9l36-10q2-2 6 6c22 36 36 91 36 141v11l-17 16a599 599 0 0 0-180 360c0 11 15 19 24 13 6-4 7-6 10-26a621 621 0 0 1 64-188 583 583 0 0 1 179-201 784 784 0 0 1 392-145q14-1 17-9 4-12-6-19c-3-2-5-2-17-2a794 794 0 0 0-253 64 790 790 0 0 0-182 110l-1-10a343 343 0 0 0-40-131q-3-2 6-5a1479 1479 0 0 0 101-48c31-17 62-39 64-44q4-13-7-20-7-5-19 3a603 603 0 0 1-241 108c-14 2-38 2-50 0-11-2-27-7-38-13-8-4-11-6-18-13-12-12-15-18-22-43a508 508 0 0 0-36-94c-21-51-26-65-33-92a342 342 0 0 1-3-165c5-31 5-41 0-69a124 124 0 0 1-3-47 758 758 0 0 1 27-82c7-23 9-27 16-32q10-7 19-10c31-11 77-9 124 6 21 7 35 13 56 22 66 32 131 81 219 162a2329 2329 0 0 1 164 171l6 8-4 10c-8 18-14 26-25 35l-6 4-1-3q-3-11-12-14c-9-2-19 6-19 16q2 7-13 1-15-7-21-1-6 5-6 12-1 9 9 14c6 3 19 7 26 8l5 1v7l1 7-10 3q-17 6-29 17a79 79 0 0 0-7 111q10 11 25 18c28 14 62 11 86-8 11-9 22-25 26-39 3-9 4-30 2-38a91 91 0 0 0-14-33c-8-12-27-25-43-29q-8-2-6-5v-12l7-3q29-12 45-42l5-8 1 5c5 15 6 16 8 19q7 4 14 3a251 251 0 0 0 92-76c13-17 31-51 37-69l4-10v13l21 348 1 25 3 51 3 51 4 63 9 165c3 65 5 86 7 91q4 10 18 16c30 13 74 16 106 7s56-33 65-64c2-8 2-11 3-33 0-28 0-30 8-34 4-2 5-2 13-2 29 2 33 2 43 1q26-4 45-20a99 99 0 0 0 42-84c-1-10-1-13-14-58l-58-202-49-174-14-47-55-197c-10-32-13-45-18-75a683 683 0 0 0-62-187l-6-11v-16a324 324 0 0 0-42-148l-5-8-22-32a329 329 0 0 0-291-124m75 31a297 297 0 0 1 249 237l-8-10c-16-20-39-41-52-48-11-5-16-6-26-6q-9 0-13 3-12 5-17 17c-4 11-4 16 2 54l14 96-7-14a357 357 0 0 0-66-96l-10-11c-2-4-39-37-50-46a662 662 0 0 0-114-67c-40-16-97-30-137-33-10 0-10 0-8-2a445 445 0 0 1 79-50 295 295 0 0 1 164-24M999 343a420 420 0 0 1 187 56 428 428 0 0 1 158 151 456 456 0 0 1 61 172c2 18 2 66 0 83-8 55-23 97-48 134a236 236 0 0 1-68 67l-3-5a388 388 0 0 0-64-80l-16-18-23-24c-21-24-90-92-111-110l-17-15c-33-30-104-84-136-103-26-16-63-36-81-43-49-19-81-26-120-26-26 0-41 2-57 8l-30 15q-5 5-5 2a479 479 0 0 1 74-137l25-28 8-8a309 309 0 0 1 109-68 348 348 0 0 1 157-23m423 101c6 3 10 6 22 18q27 26 46 60l5 9a579 579 0 0 1 59 146c8 28 10 37 15 61l5 27 18 65 43 151a14371 14371 0 0 0 96 339l46 165a72 72 0 0 1-57 70c-9 2-15 2-42 0q-24-1-39 14c-11 11-14 21-14 39 1 24 0 32-1 38q-9 27-34 39c-14 7-21 8-43 8-18 0-20 0-31-2q-24-6-24-10l-28-492-11-177-3-54-3-54a6659 6659 0 0 0-27-368l-5-36-8-59q4-3 15 3m-220 673q14 4 23 15c4 5 9 15 10 21l1 15c-1 8-1 10-5 17q-10 22-35 27c-30 6-59-20-57-52q1-17 13-30a66 66 0 0 1 23-14q11-4 27 1"/></svg>