<svg xmlns="http://www.w3.org/2000/svg" viewBox="0 0 1024 1024"><path d="M449.8 188.6c-5.4 2.9-6.2 6.2-5.9 24.4.2 17.7.7 19.4 5.7 22.6 2 1.4 4.8 1.7 15 1.5l12.5-.2-.3 13.7-.3 13.7-12.1 2.2c-23.9 4.4-46.2 11.9-68.4 23-11.6 5.8-25.5 13.8-28.3 16.3-1.7 1.5-2.1 1.3-5.7-2.8-2.4-2.8-3.7-5.1-3.3-6 1.4-3.4 1.4-8.9 0-11.7-1.8-3.4-16.2-20.4-18.3-21.6-2.6-1.5-9.3-1-12.1.9-6.8 4.3-36.2 29.8-36.7 31.8-.3 1.1-.6 3.8-.6 5.8 0 3.3 1 4.9 9.2 13.8 9.4 10.2 13.5 12.8 18.1 11.6 1.8-.4 3.2.5 6.6 4.5l4.3 5-4.3 3.7c-6.7 5.8-22.8 25.7-32.9 40.8-36.1 54-50.3 121.1-39.4 186.4 16.2 97.1 90.2 179.6 185.8 207 23.4 6.8 39.5 9.1 66.1 9.7 39.9.9 70.4-4.3 104.3-17.8 35.3-14.1 62.5-32.2 90.7-60.4 17-16.9 26.3-28.6 37.8-47.8 34.6-57.4 45.8-123.9 31.7-189.2-10.1-46.3-33-89.6-65-122.9l-9.8-10.1 3.7-4.6c3.4-4.3 3.8-4.6 7.7-4.1 5.6.6 7.8-.8 17.8-11.5 8.9-9.6 10.2-12.1 9.2-17.7-.7-3.9-3.4-6.5-24.4-23.9-13.6-11.1-14.5-11.7-18.8-11.7-2.5 0-5.3.4-6.3.9-2 1.1-16.2 17.5-17.9 20.8-1.4 2.6-1.6 10.5-.3 11.8.6.6-.7 2.8-3.3 5.7l-4.2 4.6-7.6-4.9c-25.2-16.2-55.8-28.3-88.3-34.8l-14-2.8-.3-13.7-.3-13.6H560c12.9 0 13 0 16.2-2.9l3.3-2.9.3-17.4c.4-19.6-.3-22.2-6.4-25.2-3.1-1.4-9.7-1.6-62.2-1.6-50 .1-59.1.3-61.4 1.6m119.1 9.8c.8.9 1.1 5.7.9 14.7l-.3 13.4-56.9.3c-35.9.1-57.3-.1-58-.8-1.2-1.2-.8-26.1.6-27.7 1.6-2 112.1-1.9 113.7.1M536.8 250l.3 12.5H487V237l24.8.2 24.7.3zm-10.2 23c36 2.8 66.5 11.1 96.8 26.2C692 333.4 742.1 397 758.5 470.4c10.1 45.6 7.4 92.4-8.1 136.8-4.4 12.7-16.4 37.4-23.7 49-13.6 21.4-32.5 42.9-52.2 59.5-37.8 31.8-90 53.7-139 58.3-95.5 8.9-188.3-37.3-239.1-119.3-28.1-45.1-41.3-101.2-36-152.1 3.7-34.6 10.2-58.4 24.1-87.1 23.6-48.6 66.4-91.9 115-116.3 10.4-5.2 29.7-12.9 39-15.5 17.8-5.1 20.2-5.6 32.5-7.7 21.4-3.7 36.5-4.5 55.6-3m-184.7 8c3.9 4.5 7.1 8.8 7.1 9.8 0 2.2-29.2 26.2-31.9 26.2-1.7 0-14.9-13.3-15.9-15.9-.1-.5 4.1-4.4 9.4-8.7s12.8-10.5 16.6-13.7c3.8-3.1 7-5.7 7.2-5.7.3 0 3.6 3.6 7.5 8m363.7 5.2c8.7 7.3 15.9 13.9 16.2 14.6.5 1.8-13.7 16.2-16.1 16.2-1 0-4-1.9-6.6-4.3-2.6-2.3-9.1-7.6-14.4-11.7-7.5-5.9-9.6-8-9.6-10-.1-1.7 2.1-5.1 6.6-10.3 3.7-4.2 7-7.7 7.4-7.7s7.9 6 16.5 13.2m-351.7 22.9c2.9 3.5 3.2 4.3 1.9 5-.9.5-5.6 4.2-10.5 8.3l-8.9 7.3-3.4-4-3.4-4.1 3.9-3c2.1-1.7 6.6-5.4 9.9-8.3 3.4-2.9 6.3-5.2 6.6-5.2s2 1.8 3.9 4m329.2 4 10 8.2-3.3 3.6c-1.8 2-3.4 3.8-3.5 4s-3-2.1-6.5-5.1-8-6.7-10.1-8.2l-3.7-2.8 3.2-3.8c1.8-2.1 3.4-3.9 3.6-3.9.1-.1 4.7 3.6 10.3 8"/><path d="M484.5 295.1c-56 7.6-106.1 33.5-142.8 73.7-24.8 27.2-41.5 56.4-51.8 90.7-7.5 25.2-10.9 55.3-8.9 80.5 5 64 35.8 122.8 84.7 161.7 45.9 36.6 97.7 54.1 153.8 52 33.3-1.3 61.8-8.2 91-22.2 26.4-12.6 45-25.8 66-46.9 28.9-29 46.7-58.9 57.9-97.3 10.6-36.6 11.7-77.5 3.1-113.8-16.6-70.5-64.9-129.1-131-159.2-18.7-8.6-36.2-13.9-58-17.9-10.7-1.9-53-2.8-64-1.3m49.3 10c65.7 7.1 124.4 42.7 161.8 97.9 27.8 41.2 41.1 92.9 36.3 141.6-4.8 49.5-26.8 96.8-61.6 132.1-35.4 35.9-82.4 59.1-132.3 65.3-10.7 1.3-40.8 1.3-52.1 0-53.7-6.2-107.8-35.2-142.7-76.5-26.9-32-42.6-66.1-49.9-108.5-2.5-14.8-2.5-50 .1-65.5 12-72.4 55.5-131.4 121.2-164.5 21.7-10.9 49.2-19.1 73.9-21.8 11.4-1.3 33.9-1.4 45.3-.1"/><path d="M508.2 322.2c-1.7 1.7-1.7 22.9 0 24.6 1.9 1.9 6.6 1.5 7.8-.7 1.4-2.8 1.3-22.4-.2-23.9-.7-.7-2.4-1.2-3.8-1.2s-3.1.5-3.8 1.2m-99 26.4c-3.2 2.2-2.8 4.5 2.4 13.2 6.6 10.9 9.7 12.8 13 7.7 1.5-2.3 1.4-2.7-2.3-9.6-3.8-7.1-8.3-12.9-10-12.9-.5 0-1.9.7-3.1 1.6m199.2.1c-3.3 3.7-10.4 15.9-10.4 17.9 0 2.6 3.3 5.7 5.7 5.2 1.9-.3 11.9-14.7 12.9-18.6.7-2.7-2-6.2-4.8-6.2-1 0-2.5.8-3.4 1.7m-100.3 40.6c-.8 1-1.2 17.7-1.3 56.2l-.3 54.8-3.4 1.2c-5.1 1.7-11.1 7.3-13.4 12.4-7.1 16 4.4 34.1 21.6 34.1 5.8 0 11.8-1.8 14.7-4.5 1.7-1.5.3-2.6 77.7 58.8 13.3 10.6 25.3 19.3 26.6 19.5 3 .4 5.7-2.1 5.7-5.3 0-1.7-1.7-3.7-6.2-7.1-6.1-4.6-12.5-9.7-61.3-48.5-12.1-9.6-24.8-19.6-28.2-22.3-5.5-4.3-6.1-5.1-5.2-6.9 1.7-3.1 1.4-12.7-.6-17.5-2-4.9-9.4-11.9-13.9-13l-3.1-.8v-54.6c0-44.7-.2-54.8-1.4-56.1-1.6-2-6.4-2.2-8-.4m11.8 123.4c8.7 6.4 7.2 19.2-2.8 23.7-12.7 5.8-24.6-9.9-15.9-20.9 4.4-5.6 13.1-6.9 18.7-2.8m-184.3-92.1c-3.1 3-1.9 5.2 5.2 9.8 13 8.3 16.3 9.1 18.1 4.3 1.3-3.4-.2-5.1-9.1-10.6-8.7-5.4-11.7-6.1-14.2-3.5m337.4 3.7c-6.8 4.2-8.6 5.8-8.8 7.9-.2 1.9.4 3.1 2.2 4.3 2.3 1.5 2.7 1.5 6.8-.6 2.4-1.2 6.9-3.9 10.1-6.1 6.2-4.2 7.6-7.7 3.8-9.8-3.3-1.7-5.3-1.1-14.1 4.3m-363.8 94.9c-.7.7-1.2 2.4-1.2 3.8 0 4.4 1.5 5 13.7 5 10.1 0 11.3-.2 12.3-1.9 1.6-3 1.2-5.9-.9-7.1-2.8-1.4-22.4-1.3-23.9.2m380.3.8c-1.5 1.6-1.7 2.6-.9 4.8l.9 2.7h12c11.9 0 11.9 0 13.4-2.7 1.4-2.4 1.4-2.8-.3-4.7s-3.1-2.1-12.6-2.1-10.9.2-12.5 2m-345.3 93.3c-9.4 5.3-11.7 8.1-9.5 11.5 2.2 3.5 4.6 3.1 14.1-2.5 10.5-6.2 12.1-8.2 9.7-11.9-.8-1.3-2.3-2.4-3.3-2.4-.9 0-5.9 2.4-11 5.3m321.3-3.3c-3.2 3.5-1.3 6.3 8.1 11.9 11.1 6.6 15.4 6.6 15.4 0 0-2.3-1.3-3.4-9.4-8.3-5.2-3.1-10.1-5.6-10.9-5.6s-2.2.9-3.2 2m-247.8 66.2c-3.4 3.1-10.7 15.6-10.7 18.3 0 2.8 1.9 4.5 5.1 4.5 2.3 0 3.4-1.2 7.9-8.8 5.5-9 6.3-12.7 3.3-15-2.3-1.6-2.8-1.6-5.6 1m181.9-.6c-2.6 2.6-1.9 5.6 3.7 14.4 5 8 5.5 8.5 8.7 8.5 2.8 0 3.6-.5 4.4-2.6.7-2.1 0-3.9-4.8-11.6-6.4-10.5-8.7-12.1-12-8.7m-91.4 24.6c-1.7 1.7-1.7 22.9 0 24.6 1.9 1.9 6.6 1.5 7.8-.7 1.4-2.8 1.3-22.4-.2-23.9-.7-.7-2.4-1.2-3.8-1.2s-3.1.5-3.8 1.2"/></svg>