<svg xmlns="http://www.w3.org/2000/svg" viewBox="0 0 1024 1024"><path d="m235.9 184.9-2.9 2.9v649.3l2.5 2.5 2.4 2.4 267.3-.2 267.3-.3 4.6-2.7c5.8-3.4 10.2-8.4 12.3-13.9 1.5-4.1 1.6-28.7 1.4-313.9l-.3-309.5-2.9-5.3c-1.7-2.9-4.8-6.6-7-8.3-8.7-6.3 11.5-5.9-277.9-5.9H238.8zM609 227.2c0 20.5.3 49.1.7 63.5l.6 26.3h-14.6c-9.9 0-20.2-.8-32.4-2.5-9.8-1.3-21.5-2.5-26-2.7-7.1-.3-8.5 0-11.2 2l-3 2.2-91.8.1c-50.5.1-114 .1-141 0L241 316V190h368zm34.8 26.4-.3 63.6-13.2.2-13.3.1v-24.6c0-13.5-.3-42.2-.7-63.7l-.6-39.2H644zm130.4-60.1c2.3 1.7 5.3 4.9 6.5 7l2.3 4V316l-22.2.2-22.3.3-3.4-2.5c-3.1-2.2-4.3-2.5-11.5-2.3-4.5.1-14.4 1.2-22.1 2.4-9.1 1.4-20.4 2.4-32.2 2.6l-18.3.5V189.9l59.4.3 59.4.3zM565.5 322.1c22.2 3.1 37.9 5.6 40.8 6.5 1.5.5 1.7 2.1 1.7 15 0 7.9-.1 14.4-.3 14.4-.1 0-6.5.9-14.2 1.9-29.4 4.1-59.7 6.6-62.6 5.1-2.6-1.4-3.9-6.8-4.6-19-.6-12.1.8-23.3 3.4-26.2 2.1-2.3 4.2-2.2 35.8 2.3m165.9-1.9c2.6 4 3.9 19 2.7 31.3-1.4 14.1-2.1 14.8-13 14-21.8-1.6-52.8-5-64.8-7l-3.2-.6-.3-14.5c-.3-13.8-.2-14.5 1.7-14.9 6-1.3 21.4-3.8 40-6.4 34.9-5 34.9-5 36.9-1.9m-216.3 3.7 5.7.1-1 4.2c-.5 2.4-.8 9.4-.6 15.5l.3 11.3H241v-31l76.8-.2c70-.3 183.6-.2 197.3.1m263.7-.1 4.2.2v31h-41.7l.4-8.8c.3-4.8.1-11.7-.4-15.5-.5-3.7-.8-6.8-.7-7 .3-.2 31.4-.2 38.2.1m-134.4 3.1c1.5 1.7 1.7 3.8 1.4 16.6-.4 18.2.3 17.5-15.5 17.5-15.6 0-15.3.4-15.3-18.4 0-11.8.3-14.7 1.6-16 1.2-1.3 4-1.6 13.8-1.6 10.8 0 12.5.2 14 1.9m-122.4 38c.6 1.6 2.3 4 3.7 5.3 2.4 2.2 3.1 2.3 14.6 2 6.7-.1 16.3-.8 21.2-1.6 5-.8 9.1-1.3 9.2-1.2s-4.4 3.2-10 6.9c-16.5 10.7-22.6 15.5-23.3 18.2-.5 2.1.4 3.6 5.2 8.7 3.2 3.5 7.3 8.4 9.2 11 2.4 3.4 4.1 4.8 5.8 4.8 1.5 0 8.4-4.5 18.6-12.3 25.4-19.1 32-23.8 32.5-23.3.4.4.6 273 .4 409.8L609 834H241V362h279.8zm261 225.3c-.1 243 .1 232.6-4.7 238-1 1.1-3.6 2.9-5.8 3.9-3.7 1.7-7.9 1.9-62.7 1.9H651V381.9l6.8 4.8c8.5 6 34.6 25.8 39 29.5 4.8 4.1 8.5 3.8 11.6-1 1.3-2 4.9-6.4 8-9.7 6.8-7.1 7.9-8.9 7.1-11.4-.6-2-11-9.9-25-19.1-7.8-5.1-7.9-5.2-4-4.6 6.8 1.1 32 2.4 35.1 1.8 4.3-.8 7-2.9 8.9-6.8l1.6-3.4H783zM614.5 365.8l2.2 1.8-8.1 6.1c-4.4 3.3-16.2 12-26.1 19.3s-19.3 14.5-20.8 15.9l-2.8 2.6-2.2-3c-1.2-1.7-4.3-5.3-6.9-8.1l-4.8-5.1 20.1-13.4 20.1-13.4 11.6-2.1c14.8-2.7 14.9-2.7 17.7-.6m48.4.7c4.6.8 9.2 1.5 10.3 1.5s11.1 6.2 22.3 13.7l20.3 13.8-5.1 5.5c-2.9 3-5.9 6.6-6.8 8l-1.6 2.5-7.4-5.8c-4.1-3.2-13.9-10.5-21.9-16.4-22.2-16.3-29-21.5-29-22.2 0-.3 1-1.1 2.3-1.8 2.3-1.2 3.1-1.1 16.6 1.2m-23.4 5.8 4.5 4.4V834h-27l-.2-227.7-.3-227.8 5-5.3c4.4-4.7 5.3-5.2 9.2-5.2 3.7 0 4.9.6 8.8 4.3"/></svg>