<svg xmlns="http://www.w3.org/2000/svg" viewBox="0 0 1024 1024"><path d="M506.4 237c-9 2.1-15.7 10.3-15.8 19.4-.1 2.8.2 6.7.6 8.6l.8 3.5-16.7 15.5c-9.2 8.5-20.8 19.3-25.8 24s-16.9 15.7-26.5 24.5c-40.6 37.3-89 82.8-89 83.7 0 .5-7.6.8-17.7.8-17.1-.2-17.8-.1-19.5 2s-1.8 10.6-1.8 166.4c0 163.9 0 164.2 2 166.4l2.1 2.2h212.7c117 0 213.2-.4 213.8-.8 3.3-2.2 3.3-4.1 3.3-168.3 0-142.6-.2-163.7-1.5-165.6-1.4-2.2-1.9-2.3-18.6-2.3h-17.1l-14.1-13.3c-7.7-7.2-19.9-18.6-27.1-25.2-7.1-6.6-17-15.8-22-20.5-4.9-4.7-28.7-26.7-52.8-49l-43.8-40.5.8-4c1.1-5.4.7-12.9-.7-15.5-2.8-5.3-8.3-10-13.3-11.5-5.5-1.6-7.5-1.7-12.3-.5m12.1 6.3c13.8 6.8 12.2 25.4-2.5 29.8-8.5 2.6-17.8-3.1-20.1-12.2-1.1-4.1-1-5 1-9.2 4.3-8.9 13.4-12.5 21.6-8.4m-21 30.7c.4.6 2.5 2 4.7 3.1 6 3.1 15.9 2.4 21.7-1.4l4.2-2.8 3.7 3.2c3.3 2.9 30.2 27.7 50.7 46.9 4.4 4.1 22.6 21 40.5 37.5s36.1 33.4 40.5 37.5 10.6 9.9 13.8 12.8c3.1 2.9 5.7 5.5 5.7 5.7 0 .3-76.9.5-171 .5-94 0-171-.2-171-.4s8.4-8.2 18.7-17.7c10.4-9.6 22.9-21.2 27.8-25.9 5-4.7 14.9-13.9 22.1-20.5 7.1-6.6 24.4-22.6 38.4-35.6 42.3-39.2 47.5-43.9 48.2-43.9.4 0 1 .5 1.3 1m216.9 150.8c-1.8 1.5-5.7 4.8-8.7 7.4l-5.6 4.8H323.4l-8.7-7.5-8.8-7.5h205.8l205.8.1zm-403.9 8.1 9 7.8v288.5l-9.2 8.6-9.3 8.5V587.2c0-87.5-.3-159.7-.6-160.6-1.1-2.9 1-1.6 10.1 6.3m412.3 233.2-.3 79.9-9.2-8.6-9.3-8.6.1-144.1V440.5l9.2-7.7 9.2-7.8.3 80.6c.1 44.3.1 116.5 0 160.5m-24.6-83.4c.1 76.9.2 140.9.2 142.3l.1 2.5-186.3.3-186.2.2V588.6c0-76.6-.3-140.8-.6-142.5l-.6-3.1H698zm10.4 158 8.9 7.8-102.7.3c-56.4.1-149 .1-205.6 0l-103-.3 9.1-7.7 9.2-7.8h375.3z"/><path d="m348.5 465.5-2.5 2.4v114.4c0 114.3 0 114.4 2.1 117.1l2 2.6h161.5c160.1 0 161.4 0 163.4-2 1.4-1.4 2-3.4 2-6.7.1-7.1.1-96.6.1-165.5l-.1-60.7-2.2-2.1c-2.2-2-2.5-2-163-2H350.9zm322.3 3.7c.9.9 1.2 27.6 1.2 114V696l-2.2.5c-1.3.3-73.2.4-159.8.3l-157.5-.3-.3-113c-.1-62.2 0-113.6.3-114.3.6-1.7 316.5-1.8 318.3 0"/><path d="M591.2 493.4c-13.8 4.5-21 16.8-18.8 31.9 1.5 9.7 10.5 18.5 21.3 20.7 18.4 3.9 36-13.3 32.2-31.2-1.5-6.8-3.1-9.9-7.4-14.3-7.2-7.1-18.3-10-27.3-7.1m16.3 6.5c5.3 2.4 11.1 9 12.5 14.3 2.3 8.5-1.3 17.8-8.8 22.8-13.4 8.9-31.2 1.2-33.7-14.5-2-12.1 9-24.5 21.5-24.5 2.5 0 6.3.9 8.5 1.9m-190.2 95.6c-29.9 30-54.3 54.9-54.3 55.4 0 .4.6 1.6 1.4 2.7 1.4 1.8 4.7-1.4 55.3-52.4 29.6-29.8 54.3-54.2 55-54.2.9 0 71.7 69.5 100.5 98.6.9.9 3.8-1.4 3.8-3 0-.7-8-9.1-17.7-18.7s-26.7-26.4-37.7-37.4C485 547.9 477.5 541 474.4 541c-2.5 0-10.6 7.7-57.1 54.5m134.4-17.9c-12.8 12.3-14.2 14.5-10.1 16.1 1.1.4 5-2.8 13.3-11.1 6.4-6.4 12.1-11.6 12.7-11.6.7 0 18.9 17.5 40.5 38.8 21.7 21.4 41.3 40.6 43.7 42.7 4.1 3.6 4.4 3.7 6 2.1 1.6-1.7-.6-4.1-42.7-45.7-39.5-39-44.8-43.9-47.5-43.9-2.6.1-5.2 2.2-15.9 12.6"/></svg>