<svg xmlns="http://www.w3.org/2000/svg" viewBox="0 0 400 400"><g fill-rule="evenodd"><path fill="currentColor" d="M192.155 86.198c-.313.238-.646 1.422-.6 2.132.012.188-.051.342-.14.342s-.222.242-.295.537-.434 1.182-.802 1.971c-.368.788-.67 1.513-.67 1.611s-.086.178-.191.178-.245.213-.311.474c-.065.26-.287.625-.492.811s-.373.4-.373.476c0 .219-2.545 2.797-3.515 3.561-1.225.964-3.225 2.103-3.644 2.074-.067-.004-.175.07-.241.164s-1.063.471-2.217.838c-1.986.63-2.109.7-2.312 1.317-.229.693.134 1.595.654 1.628.132.008.372.046.533.083s.732.159 1.27.269c3.224.663 8.925 4.899 10.217 7.592.167.349.376.635.463.635s.159.093.159.207.254.752.564 1.416c.485 1.038.764 1.686.901 2.088.018.053.134.341.258.64s.246.812.271 1.142c.144 1.892 2.414 1.793 2.799-.122.172-.852.17-.844.336-1.27.063-.161.266-.776.451-1.367.186-.591.42-1.128.521-1.194a.48.48 0 0 0 .202-.293c.042-.398.435-1.247.576-1.247.084 0 .153-.102.153-.226 0-.625 3.304-4.267 4.541-5.006.295-.177.537-.39.537-.475s.096-.153.214-.153.49-.198.827-.439c.804-.575 2.117-1.196 2.426-1.146.134.022.244-.039.244-.135 0-.147 1.818-.736 2.747-.889 2.234-.369 1.863-2.533-.501-2.922-.322-.053-.938-.253-1.367-.444s-.845-.332-.923-.313c-.077.019-.586-.228-1.131-.55-.545-.321-1.036-.584-1.091-.584-.637 0-4.765-3.659-5.454-4.834-.205-.349-.441-.634-.525-.634s-.154-.132-.154-.293-.075-.293-.167-.293c-.207 0-1.59-2.732-1.59-3.14a.83.83 0 0 0-.169-.483c-.171-.188-.493-1.376-.711-2.624-.216-1.234-1.373-1.799-2.278-1.11m1.58 7.228c.33.678.601 1.296.601 1.373s.089.246.199.375c.761.903.973 1.195.973 1.343 0 .496 5.458 5.241 6.027 5.241.123 0 .223.088.223.195s.154.198.342.202c.188.003.512.135.721.293s.538.286.732.286c.841 0 .161.54-1.454 1.154-.932.354-3.131 1.929-4.456 3.191-1.928 1.836-2.742 2.98-4.033 5.665-.508 1.057-.837 1.409-.837.898 0-.332-.944-2.271-1.175-2.414-.109-.067-.155-.192-.102-.278s-.077-.313-.29-.505-.386-.435-.386-.541c0-.105-.197-.387-.439-.626a9 9 0 0 1-.742-.843c-.442-.599-1.445-1.631-2.077-2.139-.303-.243-.804-.652-1.113-.908-.48-.396-2.951-1.751-3.246-1.779-.638-.062-1.183-.875-.586-.875.215 0 .391-.088.391-.195s.093-.195.206-.195c.366 0 1.942-.786 1.942-.969 0-.097.186-.236.412-.308.412-.13 1.005-.581 1.854-1.409.248-.241.548-.439.667-.439.118 0 .161-.088.095-.196-.067-.107-.027-.195.089-.195.222 0 1.961-1.736 1.961-1.958 0-.071.222-.385.494-.697.402-.463 1.504-2.433 1.573-2.814a4 4 0 0 1 .148-.439c.071-.188.172-.479.225-.647.149-.471.406-.191 1.061 1.153m75.408 10.344c-.933.373-1.658 1.024-5.567 4.994-2.472 2.511-14.361 14.448-26.422 26.526-12.636 12.656-21.871 22.052-21.796 22.175.08.128.041.156-.098.071-.403-.25-130.333 129.821-130.995 131.136-2.065 4.107-.602 6.384 10.885 16.946 2.112 1.941 4.441 2.323 6.619 1.085.881-.501 21.677-21.211 98.133-97.728 6.016-6.021 11.377-11.372 11.914-11.893.538-.521 1.918-1.901 3.067-3.067a1377 1377 0 0 1 6.494-6.506c2.422-2.412 4.404-4.455 4.404-4.541 0-.085.132-.155.293-.155s.293-.07.293-.154 2.734-2.875 6.074-6.201l6.299-6.272 11.897-11.914c6.419-6.43 11.762-11.778 11.872-11.885 1.319-1.284 23.06-23.244 23.39-23.627 1.086-1.258 1.527-4.866.764-6.25-.12-.218-.237-.504-.259-.636-.071-.424-.692-1.087-4.457-4.753-7.059-6.877-7.211-7.019-7.483-7.019-.09 0-.507-.176-.929-.391-1.056-.538-2.964-.513-4.392.059m3.53 2.535c.385.134.832.374.993.534.162.159.637.603 1.058.985.42.382 1.097 1.067 1.503 1.521a29 29 0 0 0 1.791 1.779c.578.524 1 1.004.937 1.067s-.024.114.086.114c.319 0 4.277 3.981 4.831 4.86.928 1.468.617 3.199-.841 4.686-.442.452-.804.905-.804 1.008a.184.184 0 0 1-.179.188c-.098 0-1.438 1.283-2.978 2.852-3.468 3.532-3.177 3.24-3.609 3.622-.2.176-5.852 5.83-12.561 12.564l-12.198 12.243-1.514-1.529c-.834-.841-4.068-4.073-7.188-7.181-5.46-5.44-5.943-5.97-5.446-5.97.24 0 3.485-3.318 3.485-3.564 0-.081.095-.146.211-.146s.554-.374.974-.831c1.414-1.535 2.157-2.294 2.245-2.294.165 0 2.039-1.993 2.039-2.169 0-.096.066-.176.146-.177.081 0 .47-.33.865-.732 2.845-2.894 3.536-3.563 3.681-3.563.09 0 .22-.176.288-.391s.25-.39.404-.39.28-.071.28-.157c0-.144.87-1.063 2.334-2.464.328-.313.596-.637.596-.719s.175-.205.39-.274c.215-.068.391-.217.391-.332 0-.235.754-.937 1.006-.937.091 0 .166-.132.166-.293s.09-.293.201-.293.484-.317.83-.704c1.753-1.962 12.317-12.43 12.875-12.757.754-.443 1.729-.499 2.712-.156m-103.018 29.842c-.283.223-.517.552-.519.732-.006.383-.646 2.349-.94 2.888-.112.203-.406.802-.654 1.331-.875 1.861-5.715 5.972-7.032 5.972-.182 0-.38.081-.441.179s-.461.237-.89.31c-2.372.4-2.31 2.243.098 2.92 1.345.379 4.004 1.632 4.004 1.888 0 .095.131.172.292.172s.401.176.535.391.327.39.43.39c.917 0 4.082 4.991 4.582 7.227.475 2.127 2.267 1.996 2.738-.201.274-1.28 1.484-3.828 2.269-4.78 1.077-1.304 1.817-2.05 2.034-2.05.113 0 .206-.086.206-.19 0-.233 2.323-1.763 2.676-1.763.14 0 .254-.075.254-.165s.637-.368 1.416-.616c2.367-.753 2.448-.795 2.692-1.384.374-.902-.113-1.445-1.729-1.926-.733-.219-1.723-.616-2.198-.882-.476-.267-1.183-.659-1.573-.873-1.569-.859-4.169-3.727-4.795-5.287a17 17 0 0 0-.649-1.38c-.206-.382-.436-1.081-.512-1.553-.245-1.538-1.281-2.147-2.294-1.35m1.531 6.187c.32.618.689 1.235.821 1.372s.574.664.982 1.171.94 1.083 1.182 1.28c.242.196.557.474.7.617.392.391 2.391 1.642 2.988 1.869.59.225.481.391-.515.781-1.651.646-5.274 3.812-5.274 4.608 0 .146-.067.265-.15.265s-.447.541-.811 1.202c-.626 1.139-1.187 1.288-1.187.314 0-1.099-3.922-5.184-5.917-6.163-1.588-.78-1.589-.66.009-1.444 1.782-.875 4.352-3.42 5.531-5.479 1.035-1.807.923-1.78 1.641-.393m66.363 2.686c.188.176.342.387.342.469s.219.266.488.409c.268.144.488.331.488.416s.418.548.928 1.028 2.291 2.219 3.957 3.865 3.248 3.172 3.515 3.393c.268.22.73.665 1.026.989l.54.59-72.61 72.654c-39.935 39.96-73.329 73.33-74.209 74.157l-1.599 1.502h-1.157c-1.551 0-1.588-.028-7.332-5.678-6.258-6.154-6.8-7.298-4.622-9.751.418-.471 64.237-64.373 67.589-67.676.109-.108 8.851-8.853 19.426-19.434s19.339-19.337 19.476-19.458c.136-.121 1.535-1.527 3.107-3.125s3.023-3.047 3.223-3.22 1.132-1.119 2.072-2.1 1.741-1.784 1.779-1.784c.039 0 1.027-.972 2.197-2.16a284 284 0 0 1 3.371-3.369c.684-.665 2.09-2.075 3.125-3.133s2.093-2.113 2.35-2.344.741-.718 1.075-1.083c.333-.364.994-1.023 1.469-1.464 1.602-1.49 4.507-4.484 4.507-4.646 0-.088.08-.161.178-.161.16 0 8.459-8.294 10.982-10.977l1.047-1.114 1.465 1.442c.806.793 1.619 1.587 1.807 1.763m58.308 3.369c-.164.188-.354.85-.423 1.471-.07.621-.206 1.281-.303 1.465s-.37.95-.607 1.702-.515 1.473-.619 1.603-.474.832-.824 1.562-.782 1.448-.96 1.596c-.178.147-.324.346-.324.441 0 .181-.49.779-1.953 2.387-.709.778-2.562 2.44-3.832 3.437-1.512 1.188-6.029 3.199-7.699 3.428-2.386.329-2.822 2.545-.579 2.939 1.638.288 2.963.694 4.078 1.249.658.328 1.701.85 2.319 1.16 4.349 2.18 7.956 6.403 10.614 12.425.262.594.763 2.663.763 3.152 0 .957 1.699 1.53 2.409.812.222-.225.516-1.522.843-3.719.06-.402.18-.687.268-.633.087.054.304-.341.482-.878.179-.536.408-1.027.51-1.09s.483-.701.847-1.418c1.038-2.045 3.137-4.629 4.811-5.923.368-.284.862-.7 1.097-.924.57-.542 2.726-1.929 3.254-2.093.231-.072.64-.281.909-.466.562-.387 3.077-1.275 4.441-1.568 1.484-.32 1.809-.555 1.809-1.31 0-.842-.78-1.614-1.64-1.626-.334-.005-.958-.141-1.388-.303a39 39 0 0 0-1.717-.587c-.515-.162-1.376-.553-1.913-.87s-1.061-.576-1.164-.576a.19.19 0 0 1-.186-.195.2.2 0 0 0-.205-.195c-.892 0-5.476-4.129-6.831-6.153-.359-.537-.703-1.02-.764-1.074-.792-.7-3.333-7.187-3.333-8.51 0-.906-1.577-1.423-2.19-.718m1.519 7.519c.186.564.391 1.07.456 1.123.064.054.235.308.38.564l.65 1.156c.344.613 1.262 1.925 1.529 2.187.055.053.346.428.648.833.67.899 2.156 2.487 2.328 2.487.068 0 .416.267.771.593 1.108 1.016 3.309 2.448 5.093 3.315 1.662.806 2.049 1.363.95 1.366-.438.002-2.717 1.191-4.182 2.184-2.677 1.812-7.798 7.78-8.261 9.627-.068.271-.193.493-.276.493s-.215.328-.29.73c-.146.779-.688.482-.688-.377 0-.194-.077-.353-.172-.353s-.222-.154-.282-.342c-1.33-4.142-8.358-10.774-12.778-12.057-.695-.202-.524-.457.684-1.022.617-.288 1.167-.573 1.22-.632.054-.059.493-.321.977-.581 3.833-2.068 7.612-6.102 9.674-10.329 1.128-2.309 1.127-2.309 1.569-.965"/><path fill="currentColor" d="M0 200v200h400V0H0zM194.165 86.328c.198.269.38.781.405 1.138s.115.692.199.744.153.259.153.461c0 .201.101.613.225.916.236.576.321.844.421 1.333.034.162.166.399.293.527.128.128.233.335.233.46s.173.448.384.716c.211.269.328.544.26.613s-.019.123.109.123.317.22.419.489c.102.268.324.488.495.488s.255.087.189.193c-.15.243.501 1.16.829 1.168.135.003.244.107.244.231 0 .36 1.775 1.935 2.022 1.794.124-.071.164-.061.091.02-.19.211.669 1.047.964.939.134-.05.244-.003.244.104s.285.34.635.518c.349.179.998.527 1.442.775s1.213.571 1.709.718c.496.146.901.323.901.393s.443.187.983.258c2.268.301 2.456 2.865.227 3.108-.344.038-.684.127-.755.198s-.334.13-.585.13-.615.159-.81.354c-.194.195-.465.317-.601.271-.462-.154-2.737 1.143-2.625 1.496.088.279.072.282-.127.027-.173-.221-.253-.233-.328-.049-.054.135-.204.245-.332.245s-.361.175-.515.39-.36.391-.455.391c-.431 0-1.307.947-.96 1.037.244.064.21.096-.119.112-.674.033-2.525 2.058-2.399 2.625.02.089-.04.114-.132.057-.16-.098-1.6 2.279-1.6 2.64 0 .093-.068.169-.152.169s-.173.237-.197.527c-.023.289-.109.575-.189.634-.081.06-.177.373-.215.695-.037.322-.169.65-.292.729s-.147.145-.054.147c.094.001.061.135-.072.296-.134.161-.193.293-.132.293.208 0-.316 1.229-.679 1.592-.67.669-2.314.105-2.314-.795 0-.38-.634-2.316-1.06-3.239-.375-.812-.872-2.029-.899-2.2-.012-.079-.148-.214-.301-.3-.154-.085-.279-.282-.279-.437 0-.281-.255-.645-1.172-1.679a80 80 0 0 1-1.063-1.227c-.316-.372-.645-.633-.732-.579s-.158-.039-.158-.207a.3.3 0 0 0-.293-.304c-.162 0-.293-.118-.293-.262 0-.253-.923-.818-1.221-.749-.081.019-.147-.098-.147-.259s-.066-.275-.146-.254c-.267.07-1.025-.257-1.025-.443 0-.1-.085-.182-.187-.182-.103 0-.634-.263-1.181-.586-.546-.322-1.214-.586-1.485-.586-.27 0-.446-.073-.39-.162s-.422-.259-1.059-.378c-1.172-.218-2.31-.655-2.16-.829.045-.053-.013-.272-.128-.489-.511-.954.692-2.048 2.253-2.048.221 0 .523-.121.672-.269.148-.148.55-.331.894-.406.373-.082.573-.222.496-.347s-.038-.153.098-.07c.296.184 1.043-.055.9-.287-.061-.098.025-.126.192-.063.197.076.303.006.303-.197 0-.173.093-.314.207-.314s.151.11.083.244-.007.105.135-.066.375-.271.516-.223c.141.047.304-.093.361-.311.057-.219.216-.355.352-.303.137.053.386-.041.553-.209s.404-.304.525-.304c.122 0 .167-.088.1-.195-.066-.108-.017-.195.109-.195.313 0 1.769-1.476 1.612-1.633-.069-.069.026-.125.211-.125.186 0 .283-.088.217-.196-.067-.107.01-.195.17-.195.161 0 .348-.177.417-.393.069-.22.219-.335.339-.261.136.084.17.018.093-.183-.079-.206.007-.355.248-.432.203-.064.469-.42.591-.791.123-.371.297-.674.387-.674s.223-.264.294-.586.215-.586.32-.586.137-.088.07-.195c-.066-.108-.022-.196.098-.196s.164-.088.098-.195c-.067-.107-.044-.195.05-.195s.33-.506.524-1.123c.194-.618.426-1.171.517-1.228.09-.058.2-.576.243-1.152.125-1.659 1.802-2.397 2.694-1.185m-1.662 6.914c-.174.366-.315.73-.315.809 0 .22-1.591 2.706-1.837 2.87-.118.079-.132.145-.03.146.101.002.021.122-.177.267-.229.167-.302.357-.2.521.115.187.07.224-.166.134-.212-.082-.325-.026-.325.162 0 .157-.084.287-.186.287s-.484.307-.85.683c-.365.376-.72.684-.788.684-.134 0-.743.469-1.33 1.025-.199.188-.449.342-.557.342-.107 0-.195.129-.195.287 0 .174-.115.243-.293.174-.161-.062-.293-.015-.293.104s-.087.216-.194.216c-.508 0-1.757.702-1.667.936.054.141.012.203-.094.137-.107-.066-.193-.024-.193.092 0 .171.499.465 1.171.691.597.2 1.138.504 1.351.76.143.173.381.314.529.314s.445.176.659.39.391.337.391.27c0-.066.28.154.623.489s.694.609.781.609.159.077.159.17c0 .145.59.831 2.052 2.385.16.17.291.412.291.537s.088.228.196.228c.107 0 .195.132.195.293s.078.293.174.293.232.23.303.511.184.455.253.386.223.162.342.514c.126.372.329.615.484.58.207-.046.217.002.044.21-.168.202-.167.325.004.496.236.237.931-.565.934-1.077 0-.13.199-.544.44-.92.242-.376.701-1.105 1.02-1.62.654-1.055.867-1.341 1.248-1.677.147-.13.541-.491.878-.804 1.41-1.314 2.908-2.463 3.357-2.576.264-.066.48-.19.48-.276 0-.085.483-.355 1.074-.6s1.074-.507 1.074-.582c0-.208-.921-.768-1.262-.768-.165 0-.3-.086-.3-.191 0-.104-.282-.335-.625-.513s-.743-.441-.886-.584c-.144-.144-.522-.415-.84-.603s-.579-.411-.579-.495-.122-.153-.272-.153-.323-.132-.384-.293a.48.48 0 0 0-.412-.293c-.164 0-.277-.11-.25-.244.027-.135-.061-.223-.196-.196-.134.027-.244-.033-.244-.132 0-.1-.316-.517-.703-.928-.388-.41-.831-.991-.985-1.29-.162-.312-.374-.486-.499-.409-.131.081-.162.045-.077-.091.076-.124.041-.226-.079-.226-.121 0-.17-.079-.111-.175s-.029-.227-.196-.291c-.167-.065-.254-.198-.192-.298.061-.1-.021-.314-.183-.476s-.295-.353-.295-.425c0-.271-.637-1.46-.781-1.46-.083 0-.293.299-.466.664m81.081 10.308c.349.135.635.315.635.399s.093.153.207.153.145-.1.07-.221c-.083-.135-.031-.183.135-.122.149.054.248.201.22.326-.029.126.323.399.781.607s.725.379.594.382c-.279.005 1.426 1.762 1.709 1.762.104 0 .193.11.196.244.009.352.933.974 1.201.809q.224-.138.108.169c-.08.208.196.604.845 1.212.531.496.965.986.965 1.089 0 .104.076.188.17.188.093 0 .658.492 1.256 1.094.672.678 1.174 1.039 1.32.95.149-.093.201-.047.144.125-.105.317 1.215 1.562 1.482 1.398.099-.062.124-.021.055.091-.068.111.053.428.27.704s.494.792.615 1.146c.122.354.284.688.362.742s.178 1.064.222 2.246.042 1.973-.004 1.758c-.06-.281-.158-.143-.348.488-.329 1.093-.333 1.232-.026 1.048.177-.106.173-.059-.015.172-.142.176-.367.278-.5.226-.133-.051-.361.13-.506.401-.146.272-.47.629-.721.793s-.456.429-.456.587c0 .159-.076.267-.168.24-.264-.077-5.886 5.668-5.886 6.014 0 .169-.075.262-.166.205-.226-.139-1.397.852-1.397 1.182 0 .146-.089.265-.199.265-.305 0-1.574 1.379-1.452 1.578.06.096-.02.126-.177.066-.177-.068-.334.044-.413.295-.071.222-.255.405-.409.405a.287.287 0 0 0-.28.293c0 .161-.065.274-.146.251-.283-.08-1.819 1.485-1.718 1.75.056.146.014.211-.093.144-.25-.154-1.949 1.533-1.949 1.935 0 .169-.113.259-.256.203-.342-.131-.995.606-.807.91.087.141.065.188-.053.114-.313-.193-2.1 1.516-1.909 1.825.114.184.072.224-.145.141-.41-.157-1.176.67-1.014 1.095.069.178.034.323-.076.323-.109 0-.244-.11-.298-.244s-.105-.041-.114.207c-.008.25-.103.397-.212.329-.255-.157-.78.368-.78.78 0 .175-.078.27-.173.211-.258-.159-.664.419-.499.71.113.2.09.203-.113.016-.308-.286-.759.193-.774.823-.007.303-.048.329-.182.118-.14-.22-.223-.192-.435.146-.144.231-.357.42-.475.42s-.325.21-.462.466c-.138.257-.46.563-.717.68s-.467.346-.467.51c0 .163-.089.297-.198.297-.291 0-1.754 1.424-1.755 1.709 0 .134-.069.244-.154.244-.394 0-1.589 1.374-1.468 1.688q.124.327-.095.193c-.121-.075-.399-.025-.619.112-.4.251-.524.638-.252.791.081.045.033.053-.105.019-.34-.084-1.018.356-1.018.662a.253.253 0 0 1-.258.246c-.378 0-1.109.915-1.109 1.389 0 .293-.088.377-.307.292-.321-.122-.865.286-.865.649a.213.213 0 0 1-.215.209c-.33 0-1.587 1.333-1.456 1.544a.227.227 0 0 1-.084.309c-.109.068-.198.027-.198-.091s-.286.113-.635.513c-.349.399-.616.787-.593.863.022.075-.11.125-.293.11-.226-.017-.314.094-.271.343.044.253-.024.335-.215.261-.361-.138-.947.544-.799.93.135.353-.242.404-.387.052-.061-.148-.154-.071-.235.195-.073.242-.209.44-.301.44-.266 0-4.187 4.109-4.127 4.326.029.107-.034.141-.141.075-.234-.145-1.698 1.436-1.606 1.735.036.116-.002.144-.084.062-.17-.17-1.25.795-1.25 1.116 0 .116-.197.297-.436.403-.24.106-.534.39-.653.631s-.262.392-.319.335-1.192 1.003-2.522 2.355a512 512 0 0 1-4.112 4.131c-.932.92-1.672 1.772-1.644 1.894s.012.149-.036.061c-.047-.088-.294.034-.547.273-.254.238-.406.53-.339.649.068.118.051.15-.037.071-.203-.184-.716.228-.572.459.059.096-.03.174-.198.174-.167 0-.304.088-.304.195s-.141.195-.314.195c-.204 0-.273.107-.198.303.064.167.039.255-.056.197-.095-.059-.223.024-.285.185a.48.48 0 0 1-.411.292c-.164 0-.299.072-.299.161s-.615.783-1.367 1.542c-.752.76-1.367 1.348-1.367 1.308s-.352.309-.781.775-.782.962-.782 1.102-.054.201-.121.134c-.151-.151-.66.342-.66.639 0 .122-.094.163-.208.092-.115-.07-.257.055-.316.28-.058.224-.172.367-.253.317-.08-.049-.408.193-.728.54-.32.346-.904.917-1.297 1.269s-.713.766-.713.921c0 .171-.116.238-.293.17-.162-.062-.293-.031-.293.067 0 .099-1.005 1.181-2.233 2.405s-2.181 2.309-2.118 2.411.02.127-.096.055c-.115-.071-.383.091-.595.361-.212.269-.483.49-.602.49s-.223.198-.231.439c-.009.242-.061.326-.117.188-.072-.179-.242-.111-.588.235-.267.267-.43.577-.361.689.075.121.003.156-.178.086-.167-.064-.303-.029-.303.077 0 .107-1.194 1.369-2.652 2.805-4.493 4.422-5.457 5.458-5.397 5.8.05.283.029.287-.161.032-.179-.24-.238-.245-.325-.026-.058.146-.272.407-.473.58-.202.173-.367.427-.367.564s-.066.236-.147.219c-.248-.053-.83.258-.83.442 0 .096-.176.35-.39.565s-.391.335-.391.267-.198.127-.439.434c-.242.307-.412.68-.378.827.034.148-.028.214-.138.146-.24-.148-1.02.477-.879.705.054.088-.023.16-.172.16-.148 0-.954.703-1.791 1.563-.836.859-1.561 1.562-1.61 1.562-.124 0-.648.535-.648.66 0 .057-.293.393-.651.747s-.706.798-.775.986c-.068.188-.242.342-.385.342-.296 0-2.414 2.165-2.339 2.391.027.081-.02.126-.104.099-.258-.082-3.163 2.827-3.034 3.037.067.109.035.143-.071.078-.235-.146-1.885 1.492-1.695 1.682.074.074.006.135-.151.135-.284 0-1.709 1.331-1.724 1.611-.005.08-.061.137-.126.126-.255-.045-1.811 1.66-1.698 1.859.066.117.046.145-.044.062-.216-.196-1.482 1.032-1.325 1.285.066.107.028.138-.084.069-.242-.15-1.451 1.027-1.303 1.267.057.091-.02.166-.171.166-.313 0-1.632 1.382-1.551 1.625.029.089-.03.11-.131.048-.102-.063-.358.106-.57.376-.212.269-.449.49-.527.49-.228 0-1.261 1.246-1.264 1.525-.002.141-.081.208-.177.149s-.281.024-.414.183c-.133.16-.165.293-.071.294s-.048.113-.314.248c-.267.135-.582.441-.701.68s-.275.376-.346.305-.129.023-.129.208c0 .186-.072.293-.16.238-.203-.126-.928.693-.845.955.033.107-.007.127-.091.044-.207-.207-2.431 2.021-2.281 2.285.066.115.047.144-.042.063-.224-.203-.898.441-.744.71.068.12.049.15-.043.067-.256-.234-2.424 2.001-2.287 2.358q.115.301-.123.152c-.302-.186-.843.25-.675.544.07.122.052.154-.04.071-.256-.234-2.421 1.999-2.302 2.375.072.227.05.247-.077.071-.167-.232-1.3.683-1.246 1.007.01.064-.033.108-.097.097-.181-.029-1.238 1.033-1.193 1.199.021.082-.035.149-.126.149-.314.001-1.285 1.076-1.164 1.289.067.118.046.145-.046.061-.222-.202-5.573 5.143-5.419 5.414.065.114.044.141-.046.058-.223-.202-1.478 1.034-1.324 1.304.067.117.049.148-.039.068-.206-.187-.677.202-.606.501.029.127.015.158-.033.069-.048-.088-.294.035-.548.273s-.406.53-.338.649c.067.119.049.149-.04.068-.223-.203-1.09.639-.937.909.068.118.05.149-.039.068-.217-.197-.901.439-.744.692.067.11.035.145-.072.079s-.494.197-.86.585-.534.631-.373.541c.254-.143.257-.12.021.171-.149.184-.318.289-.375.232-.146-.146-.818.497-.818.783 0 .132-.153.36-.341.507-.316.248-.321.238-.061-.122.155-.215-.39.262-1.211 1.059-.821.798-1.446 1.525-1.39 1.617.057.091-.01.141-.147.112-.137-.03-.254.056-.259.19s-.084.235-.175.224c-.349-.044-1.853 1.633-1.737 1.935.083.217.028.268-.197.182-.319-.123-.874.335-.593.489.085.047.053.061-.072.032-.275-.064-.935.628-.713.748.087.047.059.063-.062.036-.219-.05-1.691 1.332-1.591 1.493.029.047.016.064-.029.037-.186-.113-.777.607-.663.807.068.12.052.153-.036.074-.206-.188-.677.201-.606.5.029.127.015.158-.033.07-.048-.089-.294.034-.548.272s-.406.522-.339.63c.067.109.036.145-.068.08-.183-.113-6.7 6.255-6.705 6.551-.001.081-.044.125-.096.098-.193-.1-4.178 4.033-4.065 4.216.065.104.033.137-.071.073s-2.457 2.153-5.229 4.926-4.964 5.084-4.871 5.133c.094.05.07.067-.051.039-.323-.074-8.69 8.317-8.538 8.562.072.116.036.15-.081.078-.115-.071-.459.081-.764.338-1.046.88-1.96 1.129-3.902 1.062-.984-.034-1.754-.117-1.712-.186s-.176-.228-.484-.356c-.309-.127-1.463-1.104-2.565-2.171-1.236-1.196-2.161-1.94-2.415-1.942-.339-.002-.36-.037-.119-.195.245-.16.221-.212-.144-.312-.241-.066-.398-.183-.351-.259.125-.203-5.302-5.542-5.505-5.417-.094.058-.298.025-.454-.074-.212-.134-.219-.18-.028-.182.14-.002.2-.092.133-.201-.068-.11-.218-.14-.335-.068-.122.075-.156.041-.081-.081.072-.117-.083-.528-.345-.914-1.17-1.723-1.124-5.395.085-6.851.122-.148.157-.383.077-.522s-.07-.184.023-.1c.221.203 4.791-4.361 4.637-4.631-.065-.115-.044-.142.047-.059.202.183 1.45-.989 1.379-1.297-.028-.121-.01-.145.039-.052s.997-.736 2.106-1.842c1.109-1.105 1.964-2.104 1.898-2.219-.065-.115-.046-.143.044-.062.217.197.901-.438.744-.691-.074-.121-.025-.139.124-.048.183.114.212.034.115-.311-.1-.351-.083-.393.068-.173.246.358 1.658-.89 1.493-1.32-.055-.144-.024-.214.069-.156.258.159 2.797-2.4 2.637-2.658-.085-.138-.049-.167.097-.077.293.181 2.031-1.593 1.849-1.888-.071-.115-.042-.155.065-.089.227.14 2.795-2.231 2.795-2.581 0-.131.103-.173.229-.095.155.095.187.033.1-.194-.081-.212-.052-.288.079-.207.283.175 1.191-.708 1.065-1.037-.055-.145-.018-.212.083-.15.205.127 1.89-1.621 1.814-1.881-.027-.091.061-.143.195-.116s.22-.068.19-.21c-.029-.144.041-.2.16-.127.236.146.794-.496.644-.74-.053-.085.021-.13.163-.1s.237-.056.21-.19c-.027-.135.068-.245.21-.245.335 0 1.153-.867.98-1.04-.073-.072.02-.131.205-.131.205 0 .283-.089.198-.226-.08-.129-.054-.173.059-.103.108.067.43-.139.715-.458.284-.319.614-.581.732-.581s.162-.136.098-.303-.041-.256.051-.2c.092.057.316-.061.498-.262s.259-.405.172-.452-.056-.062.068-.033c.303.07.887-.594.702-.799-.081-.089-.048-.105.074-.036.264.151 1.285-.815 1.129-1.068-.06-.097.007-.153.149-.123.143.03.237-.056.21-.19-.027-.135.061-.223.195-.196.135.027.223-.061.196-.195s.085-.244.248-.244c.164 0 .394-.213.512-.472s.389-.517.602-.573.329-.194.259-.307c-.078-.125-.009-.161.175-.09.213.082.303-.002.303-.284 0-.22.102-.462.226-.539q.229-.143.06.135c-.14.233-.116.234.163.008.181-.146.271-.366.202-.488-.07-.122-.054-.156.035-.075.203.185.906-.431.76-.667-.059-.095.002-.149.135-.12.134.03.346-.143.472-.385.125-.241.273-.394.327-.339.165.165 1.166-.871 1.039-1.076-.07-.114.018-.14.217-.064q.339.131.193-.1c-.077-.125-.07-.228.017-.229.242 0 2.408-2.023 2.406-2.247-.001-.109.178-.309.397-.446s.337-.347.262-.468c-.074-.12-.055-.169.044-.108.346.214.994-.429.662-.657-.222-.152-.181-.169.172-.069.315.089.421.062.33-.085a.45.45 0 0 1 0-.432c.096-.156.173-.152.275.013.091.146.264-.025.473-.467.182-.384.376-.697.431-.697s.037.109-.04.244c-.078.134.09.033.373-.224.282-.257.466-.545.407-.64-.058-.094-.033-.149.055-.121.255.079 1.04-.682 1.043-1.012.003-.246.033-.251.174-.028.177.279.747-.453.641-.822-.025-.088.038-.109.141-.045s.409-.105.68-.376c.27-.271.393-.492.273-.492-.221 0-.038-.279.204-.31.45-.058.821-.366.73-.604-.059-.154-.021-.225.086-.159.106.066.193-.015.193-.179q0-.298.327-.173c.259.099.297.048.185-.244-.078-.203-.077-.305.002-.226.182.181 1.46-1.038 1.323-1.261-.056-.09.013-.167.154-.171.645-.015 1.066-.581.657-.884-.208-.155-.279-.281-.158-.281s.279.093.35.208c.084.136.255.094.495-.124.202-.182.319-.41.259-.506-.059-.095.009-.15.151-.12.143.029.238-.053.213-.184-.026-.132.075-.19.229-.131.263.101.829-.628.737-.95-.022-.08.095-.146.262-.146.45 0 1.715-1.299 1.541-1.582q-.143-.233.091-.09c.301.186.995-.424.995-.874 0-.351.453-.843.621-.674.054.053.257-.079.452-.295.256-.283.281-.392.092-.392-.167 0-.125-.101.114-.275.207-.152.434-.241.503-.197.177.109 4.772-4.581 4.712-4.81-.027-.102.024-.164.114-.137.261.078 1.817-1.41 1.69-1.616-.067-.108.027-.132.222-.057.261.1.307.053.207-.208-.072-.188-.049-.288.051-.226.251.156 1.124-.755 1.021-1.065-.05-.149.006-.196.138-.115.122.076.274.001.338-.167.065-.167.183-.263.264-.213s.309-.209.506-.575c.197-.367.415-.631.484-.589.242.15.971-.517.971-.887 0-.269.091-.339.327-.248.258.099.297.048.185-.245-.078-.203-.078-.305 0-.227.182.182 1.05-.625 1.05-.976 0-.145.154-.319.342-.385.505-.178 1.221-.872 1.221-1.183 0-.148.078-.222.173-.163.213.132 5.024-4.727 4.949-4.998-.03-.106.04-.135.155-.064.196.121 1.353-1.003 1.36-1.321.002-.08.135-.146.296-.146s.293-.147.293-.326.05-.276.11-.215c.11.11.443-.21 2.778-2.662.675-.709 1.318-1.289 1.429-1.289.116 0 .149-.188.078-.44-.08-.286-.062-.352.051-.189.127.182.805-.39 2.503-2.114 3.097-3.143 3.274-3.312 3.471-3.312.093 0 .117-.137.053-.303-.068-.176-.035-.253.079-.182.206.127 1.869-1.459 1.795-1.712-.023-.081.049-.147.161-.147.272 0 3.899-3.618 3.899-3.889 0-.117.078-.191.173-.164.288.082 4.924-4.742 4.781-4.973-.079-.129-.042-.158.095-.074.127.079.278.006.343-.164.065-.167.183-.264.263-.214.223.138.925-.76.826-1.056-.053-.162.001-.208.141-.122.223.138 3.534-3.082 3.534-3.436 0-.091.066-.144.146-.117.259.086 1.045-.836.905-1.063-.082-.132-.047-.163.089-.08.243.151 1.255-.742 1.061-.936-.065-.065-.012-.118.118-.118.292 0 1.294-.909 1.294-1.174 0-.106.085-.215.19-.242.34-.088 1.374-1.203 1.307-1.41-.035-.111-.003-.14.073-.064.16.16.676-.306.676-.612 0-.115.11-.187.244-.16.135.027.222-.061.196-.196-.027-.134.061-.222.195-.195s.222-.061.195-.195c-.027-.135.048-.244.166-.244.28 0 1.543-1.264 1.543-1.543 0-.119.076-.193.17-.166.182.052 2.955-2.769 2.955-3.006 0-.078.171-.196.381-.263a.86.86 0 0 0 .5-.497c.066-.207.18-.359.254-.337.258.076 2.478-2.254 2.417-2.536-.038-.174.026-.231.163-.146.131.081.542-.191.983-.65.479-.498.671-.825.52-.885-.13-.053-.034-.104.214-.112s.402-.094.344-.189.076-.221.301-.28c.224-.058.35-.2.279-.315s.005-.208.169-.208c.176 0 .256-.113.194-.274-.068-.177.02-.263.25-.244.196.016.333-.08.307-.215-.027-.134.061-.222.195-.195s.222-.061.195-.195c-.027-.135.061-.222.196-.196.134.027.222-.061.195-.195s.017-.224.097-.2c.267.08 1.32-1.056 1.257-1.355-.036-.17.044-.257.191-.208.337.112 1.751-1.208 1.592-1.486-.068-.12-.058-.159.022-.087.209.187.897-.453.755-.703-.066-.115-.047-.143.043-.062.203.185.906-.43.76-.666-.059-.096.009-.15.151-.121.142.03.237-.056.21-.19s.061-.222.195-.195c.135.027.215-.083.179-.244-.036-.162 0-.229.079-.15.202.202 2.651-2.231 2.539-2.522-.053-.137.019-.196.168-.139.314.121 1.134-.863.958-1.149-.075-.121-.03-.143.112-.055.299.184 1.03-.451.861-.748-.068-.12-.052-.152.038-.071.21.191.877-.413.877-.796 0-.162.058-.237.128-.166.198.197.666-.274.522-.525-.07-.123-.061-.164.019-.092.232.208 1.545-1.135 1.377-1.408-.095-.153-.051-.206.122-.148.299.1.762-.279.762-.623 0-.121.102-.157.228-.079q.231.144.1-.194c-.081-.211-.052-.288.077-.208.246.152 2.064-1.644 1.971-1.947-.036-.116.003-.143.086-.06.185.185 2.053-1.616 1.912-1.844-.055-.089.017-.162.16-.162.369 0 .973-.756.812-1.016-.083-.135-.044-.161.105-.069.28.173 3.142-2.559 3.142-2.998 0-.154.059-.221.131-.149.194.195.846-.464.846-.855 0-.199.136-.327.33-.312.182.015.444-.192.583-.461.139-.268.254-.401.256-.295.001.107.235-.056.518-.362.421-.454.466-.591.244-.749-.205-.146-.181-.164.099-.072.422.137 1.154-.416.962-.726-.067-.11-.038-.148.065-.084.215.133 4.415-4.024 4.266-4.223-.053-.071-.037-.084.036-.029.204.154 1.237-.915 1.1-1.137-.067-.108-.032-.141.076-.074.25.155 1.116-.749.96-1.001-.064-.104.037-.176.224-.161s.317-.083.291-.218c-.027-.134.061-.222.195-.195s.22-.067.19-.21c-.029-.142.032-.205.137-.141.204.127.656-.554.483-.727-.057-.057.056-.09.251-.074.201.016.332-.083.301-.23-.029-.142.025-.21.121-.151.171.107.771-.429.798-.713.008-.081.044-.125.081-.098.152.11.702-.497.6-.661-.061-.098.006-.154.148-.125.143.03.239-.051.214-.178-.025-.128.136-.29.356-.36.232-.073.358-.239.299-.392-.07-.184 0-.228.23-.141.291.109.299.083.06-.21-.237-.292-.231-.319.044-.213.328.126.984-.365.772-.577-.067-.067.023-.121.198-.121.218 0 .28-.104.195-.325s-.05-.279.11-.181c.146.091.784-.409 1.704-1.335.808-.814 1.355-1.488 1.215-1.499s-.035-.084.233-.164c.269-.079.466-.246.44-.371s.017-.205.097-.178c.081.027.191-.039.244-.146.054-.108.399-.459.766-.782 1.385-1.215 1.982-1.871 1.869-2.053-.065-.105.018-.137.187-.072.3.115.439-.208.157-.365-.081-.045-.045-.059.079-.03.263.061.849-.532.849-.858 0-.128.139-.169.327-.097.247.095.296.046.201-.202-.069-.179-.036-.327.073-.327.277 0 1.266-1.021 1.197-1.237-.031-.098.079-.126.244-.062.166.063.301.029.301-.076 0-.106.699-.866 1.552-1.69s1.499-1.592 1.434-1.706c-.065-.115-.047-.144.04-.065.222.2 2.628-2.189 2.511-2.494-.057-.149.046-.236.26-.218.196.016.334-.081.307-.215-.027-.135.017-.222.098-.196.08.027.344-.148.585-.39.242-.242.374-.442.293-.446-.08-.003.01-.096.2-.207s.295-.283.234-.382c-.063-.102.037-.124.225-.052.258.099.308.053.212-.198-.081-.209-.028-.326.148-.326.15 0 .329-.177.398-.392.091-.288.25-.37.599-.306.267.048.475-.008.475-.129 0-.118.059-.156.131-.084s.317.008.545-.141c.848-.556 3.035-.599 4.353-.086m-3.232 2.835c-.354.145-.591.349-.527.453.068.11-.023.135-.22.059-.261-.1-.308-.053-.208.208.072.186.05.288-.049.227-.207-.128-5.09 4.622-5.09 4.95 0 .12-.066.219-.147.22-.207.002-2.783 2.471-2.783 2.668-.001.089-.258.334-.573.545s-.528.452-.476.537-.041.154-.209.154a.3.3 0 0 0-.304.293.294.294 0 0 1-.293.293.294.294 0 0 0-.293.293c0 .161-.087.293-.193.293-.228 0-.979.615-.979.802 0 .194-1.582 1.737-1.781 1.737-.095 0-.172.117-.172.26s-.22.378-.489.521c-.268.144-.488.379-.488.522s-.091.26-.203.26c-.255 0-1.75 1.556-1.75 1.822 0 .108-.049.147-.109.086-.099-.098-1.107.774-1.016.879.076.089-.929 1.045-1.043.992-.064-.03-.233.162-.375.427-.141.264-.384.481-.538.481-.169 0-.236.117-.17.291.062.16.049.272-.028.249-.211-.062-1.213.651-1.213.864 0 .236-.501.745-.734.745-.097 0-.294.219-.438.488-.144.268-.378.488-.521.488s-.26.132-.26.293-.094.293-.21.293c-.27 0-.767.497-.767.767 0 .116-.132.21-.293.21s-.293.081-.293.18c0 .21-1.512 1.773-1.716 1.773-.077.001-.315.264-.53.586s-.5.585-.635.585c-.134 0-.244.081-.244.18 0 .208-1.467 1.774-1.662 1.774-.208 0-.863.854-.87 1.134-.004.141-.079.211-.167.157-.238-.147-.85.644-.694.897.082.134.044.161-.103.07-.233-.144-.996.551-.996.908 0 .098-.103.114-.229.036q-.23-.143-.103.184c.081.212.025.325-.162.325a.29.29 0 0 0-.287.293c0 .161.093.293.207.293s.145-.1.07-.221c-.081-.131-.032-.186.12-.135.14.047.269.269.286.493.027.378.983 1.405 1.319 1.419.08.003.146.098.146.211 0 .266 1.988 2.252 2.19 2.188.085-.027.154.051.154.173 0 .345.978 1.167 1.215 1.02.132-.081.156-.039.064.11-.177.287.587 1.069.872.892.106-.065.193.003.193.153 0 .339 1.94 2.321 2.147 2.193.084-.051.272.054.418.235q.268.33.025.183c-.166-.1-.204-.047-.121.169.066.173.245.266.398.207.153-.058.232-.032.176.06-.057.091.312.566.819 1.057.508.49 1.463 1.449 2.124 2.132 1.147 1.186 1.212 1.223 1.457.845.141-.218.236-.468.21-.557s.031-.114.125-.056c.093.058.447-.207.786-.59.338-.383.615-.639.615-.569s.218-.109.485-.396.429-.614.36-.724c-.068-.111-.037-.148.068-.082.256.157 1.489-.98 1.334-1.23-.067-.108.06-.196.281-.196.364 0 .497-.206.42-.649-.015-.089.06-.107.166-.041.107.065.306-.06.443-.279.136-.219.319-.398.405-.398.216 0 3.46-3.284 3.46-3.502 0-.097-.11-.221-.244-.275-.176-.071-.179-.103-.011-.114a.44.44 0 0 1 .362.194c.132.215 2.737-2.327 2.666-2.602-.021-.081.038-.146.131-.146.148 0 2.64-2.423 4.751-4.621.397-.413 1.912-1.924 3.368-3.359 2.027-1.997 2.631-2.706 2.579-3.027-.038-.231-.031-.309.015-.175.151.441.55.114 3.144-2.572.718-.744 1.517-1.535 1.774-1.758s.741-.708 1.074-1.076a53 53 0 0 1 1.425-1.492c.451-.452.766-.876.7-.942-.065-.065-.017-.119.108-.119.487 0 1.619-1.339 1.994-2.358.493-1.343.361-2.095-.594-3.377-.428-.575-2.929-3.047-2.929-2.895 0 .071-.234-.199-.52-.601-.285-.401-.631-.73-.767-.73s-.276-.117-.31-.26c-.035-.143-.547-.687-1.138-1.209-.59-.523-1.03-.961-.976-.975s-.072-.195-.279-.402-.392-.333-.411-.279-.289-.21-.6-.586-.641-.716-.734-.756-.347-.278-.566-.53-.473-.412-.565-.356-.165-.017-.165-.163c0-.592-2.106-1.002-3.086-.599m-98.989 29.394c-.045.074.038.206.185.293s.317.47.376.85c.16 1.022 1.572 4.285 1.855 4.287.135.001.23.068.213.148-.061.291.272.826.447.717.099-.061.156-.024.126.082-.086.312 1.416 2.005 1.65 1.86.119-.073.157-.041.087.073-.19.307 2.673 2.392 2.93 2.135.054-.054.246.049.427.228s.855.488 1.497.688c1.809.561 2.004.66 2.346 1.181.626.955-.148 1.93-1.806 2.274-.832.172-1.036.286-.944.524.097.254.067.263-.187.052-.253-.211-.35-.191-.584.118-.218.287-.283.305-.29.078-.006-.173-.068-.213-.153-.097-.079.107-.47.346-.87.531-.715.33-1.085.604-1.986 1.47-.252.242-.535.442-.63.444-.926.023-3.634 4.516-4.157 6.898-.403 1.833-2.521 2.198-2.831.488-.207-1.141-.462-1.848-1.193-3.313-.926-1.855-1.435-2.556-1.725-2.377-.11.068-.128.016-.042-.122.176-.286-.586-1.07-.87-.894-.106.065-.141-.011-.08-.171.069-.179-.097-.424-.438-.645a9 9 0 0 1-.88-.649c-.773-.684-.961-.795-1.148-.679-.109.067-.174.005-.144-.137s-.078-.259-.239-.259a.72.72 0 0 1-.492-.252c-.11-.14-.396-.268-.635-.286-.24-.018-.436-.102-.436-.187 0-.084-.133-.153-.295-.153-.163 0-.449-.08-.635-.177-.187-.098-.735-.283-1.218-.413-2.034-.544-1.531-2.788.666-2.969.278-.023.506-.111.506-.195s.127-.153.283-.153c.454 0 1.276-.432 1.165-.612-.056-.09.049-.107.234-.036.194.075.286.05.219-.059-.064-.104.049-.201.251-.216.67-.05 3.989-2.684 3.79-3.007-.062-.099-.009-.157.116-.127s.33-.113.454-.315c.124-.203.405-.569.623-.814.706-.789 2.044-3.983 2.044-4.877 0-.563 1.153-1.433 1.85-1.396.357.018.613.094.568.168m-1.588 6.8c-.349.534-.634 1.06-.634 1.169a.197.197 0 0 1-.196.197c-.107 0-.195.125-.195.277s-.11.321-.244.376c-.184.074-.172.153.049.317.259.193.259.212-.005.162-.328-.063-1.414.705-1.241.877.059.06-.073.204-.293.322-.256.138-.361.336-.291.553.083.259.064.276-.08.074-.196-.274-1.215.198-1.215.563 0 .085-.396.347-.879.581-.484.234-.879.542-.879.685a.46.46 0 0 1-.244.375c-.135.064-.05.08.188.036s.414.007.391.113.243.349.59.54c.348.191.762.455.92.586.157.131.392.172.52.093q.228-.138.09.089c-.146.235.812 1.143 1.106 1.047.082-.027.128.061.101.196-.027.134.061.222.195.195.135-.027.226.017.203.098-.022.08.264.567.635 1.081.372.514.992 1.453 1.379 2.086l.702 1.151.372-.703c.204-.386.458-.864.564-1.06s.26-.358.342-.358.149-.094.149-.208c0-.115.219-.496.487-.848.268-.351.422-.711.342-.799s-.049-.106.069-.039c.254.145 1.083-.74.893-.953-.072-.08-.034-.09.085-.023.118.068.539-.165.935-.517.395-.352 1.195-.889 1.777-1.193 1.301-.681 1.287-.776-.279-1.845a22 22 0 0 1-2.393-1.963c-.624-.607-1.135-1.036-1.135-.954s-.139.097-.309.031c-.224-.086-.245-.159-.076-.263.165-.102.036-.435-.441-1.143-.37-.55-.745-.935-.834-.855s-.098.038-.022-.094c.143-.25-.18-1.032-.424-1.026-.077.002-.425.44-.775.974m64.258-.282c-.134.146-.244.356-.244.468s-.11.205-.244.206-.596.413-1.025.914a19 19 0 0 1-1.456 1.511c-.914.814-1.767 1.731-1.767 1.9 0 .076-.176.194-.391.263-.215.068-.39.24-.39.382s-.138.312-.306.377c-.168.064-.262.187-.209.272s-.168.272-.491.415-.638.392-.7.554c-.062.161-.67.841-1.352 1.509s-1.239 1.322-1.239 1.452c0 .131-.075.191-.166.135-.157-.097-.569.242-1.18.97-.231.275-.231.351 0 .513.191.134.107.154-.282.069-.306-.067-.505-.043-.446.053.059.095-.109.289-.374.431s-.482.313-.482.381-.395.531-.879 1.028c-.483.498-.879 1.013-.879 1.146 0 .132-.054.187-.121.12-.066-.066-.234-.015-.374.114-1.541 1.43-2.046 1.934-2.055 2.05-.006.076-.53.574-1.164 1.106s-1.113 1.008-1.066 1.056c.048.047-.192.293-.534.545-.341.252-.557.458-.48.458.125 0-1.483 1.604-3.477 3.467-.374.349-.631.635-.573.635s-.025.132-.186.293c-.162.161-.343.293-.403.293-.168 0-.895.655-.895.807 0 .218-1.725 1.927-1.946 1.927-.111 0-.208.11-.215.244-.007.135-.405.571-.884.97-.48.399-.892.795-.916.879-.023.084-.115.129-.204.1-.089-.03-.101.146-.027.39.105.347.082.395-.105.217-.279-.264-1.463.792-1.259 1.123.064.103 0 .164-.142.135-.143-.03-.238.053-.212.183.026.137-.077.19-.245.126-.183-.07-.29.005-.29.202 0 .173-.132.314-.293.314s-.293.087-.293.192c0 .167-1.19 1.357-2.979 2.979-.295.268-.537.587-.537.709s-.094.222-.209.222c-.255 0-.767.49-.767.734 0 .097-.22.294-.489.437-.268.144-.488.428-.488.631s-.088.314-.197.247c-.108-.066-.249.016-.313.184-.065.168-.225.306-.357.306s-.356.219-.5.488c-.144.268-.319.488-.39.488-.212 0-10.743 10.528-10.743 10.741 0 .108-.076.197-.169.197s-.577.407-1.075.904c-.497.498-.904.981-.904 1.075a.17.17 0 0 1-.172.169c-.251 0-4.036 3.747-3.979 3.939.027.089-.061.163-.195.163-.291 0-1.83 1.762-1.753 2.007.03.094-.03.118-.133.055-.249-.154-4.233 3.802-4.159 4.131.032.142-.012.246-.098.232-.393-.066-.656.038-.546.215.066.108-.017.196-.184.196-.168 0-.306.066-.308.146-.006.293-1.118 1.402-1.268 1.265-.084-.078-.105.056-.045.298.062.253.029.391-.078.325-.256-.159-.779.307-.624.557.07.114.032.145-.087.072-.116-.072-.336.046-.487.262s-.318.349-.371.296-.214.124-.357.392c-.144.269-.339.488-.433.488-.095 0-.489.308-.876.684s-.625.685-.528.686-.033.112-.29.244c-.256.133-.457.304-.447.381.026.18-1.119 1.326-1.325 1.326-.087 0-.293.197-.458.439-.453.661-1.237 1.514-1.393 1.514-.188 0-.695.521-.698.718-.001.088-.316.364-.7.612-.434.282-.657.557-.59.73.059.153.044.269-.033.258-.436-.065-.629.074-.643.465-.008.242-.055.344-.103.228s-.525.227-1.059.761c-.826.826-.935 1.019-.727 1.285.21.269.201.28-.058.079-.356-.278-1.488.76-1.412 1.295.026.184 0 .209-.065.063-.06-.135-.194-.244-.299-.244s-.136.088-.07.195.04.195-.059.195c-.318 0-1.63 1.358-1.506 1.559.07.112-.008.145-.183.078-.196-.075-.303-.006-.303.198 0 .172-.083.314-.185.314-.17 0-3.102 2.869-3.043 2.979.014.026-.177.243-.424.481-.247.237-.449.408-.449.379s-.484.408-1.075.971c-.59.563-1.074 1.158-1.074 1.323s-.11.264-.244.22-.552.301-.928.768c-.376.466-.841.893-1.033.949-.24.069-.325.243-.273.556.043.251.038.338-.009.194-.065-.193-.208-.148-.552.175-.255.24-.41.525-.343.634s.03.14-.083.07-.257.01-.322.177c-.064.168-.205.25-.313.183s-.197.016-.197.183c0 .168-.074.305-.164.305-.285 0-2.565 2.388-2.453 2.57.059.095.019.149-.089.12-.22-.06-2.372 1.952-2.372 2.217 0 .094-.11.173-.244.176s-.464.302-.732.665c-.269.363-.73.822-1.025 1.02s-.537.512-.537.696c-.001.218-.104.296-.294.223-.188-.072-.293.004-.293.213 0 .179-.077.278-.172.219-.095-.058-.313.178-.484.526-.171.347-.314.557-.316.465s-.334.123-.737.477-.704.767-.67.919c.034.151-.019.225-.117.164-.099-.06-.368.106-.598.371s-.505.482-.609.482c-.105 0-.135.146-.066.325q.127.328-.105.183c-.209-.129-.813.282-.813.552 0 .062-.176.288-.391.503-.215.214-.392.324-.393.244s-.353.231-.781.692-.779.922-.779 1.025-.07.165-.154.138c-.237-.075-2.226 1.981-2.105 2.177.058.094-.047.16-.233.145-.187-.015-.318.083-.291.217s-.08.244-.238.244c-.29 0-.811.746-.727 1.04.026.089-.046.104-.158.034-.265-.163-1.679 1.247-1.602 1.597.032.146-.012.253-.098.239-.488-.082-.662.048-.546.411.071.224.035.39-.085.39-.115 0-.208-.099-.208-.221s-.196.031-.435.341-.569.671-.733.802c-.163.131-.209.247-.102.258s.046.079-.137.152c-.596.238-4.859 4.54-4.721 4.764.077.123.044.16-.077.085-.115-.071-.392.103-.616.387s-.406.455-.406.381-.576.442-1.281 1.146c-.761.761-1.224 1.372-1.141 1.506.083.135.053.172-.075.093-.117-.072-.304.024-.415.214s-.204.273-.207.185c-.009-.238-1.178.973-1.178 1.22 0 .116-.078.211-.173.211s-.776.625-1.514 1.389a71 71 0 0 1-1.872 1.883c-.292.271-.476.583-.409.692s.031.141-.081.072c-.253-.157-.688.335-.49.554.079.088.028.092-.115.01-.264-.153-.962.607-.857.932.029.088-.022.115-.114.058-.237-.146-3.207 2.892-3.023 3.094.083.092.058.114-.058.048-.27-.153-3.269 2.855-3.067 3.077.083.092.052.11-.07.041-.269-.154-.713.328-.509.552.08.088.048.105-.071.037-.118-.067-.41.085-.649.339-.238.253-.361.5-.272.548.088.047.064.065-.054.038-.409-.092-7.726 7.424-7.585 7.791.093.242.049.303-.16.223-.386-.148-.841 1.478-.478 1.709.176.112.171.15-.021.152-.141.002-.202.09-.136.197s.158.393.203.635c.122.649.516 1.321.706 1.203.091-.056.166.015.166.159 0 .326 2.608 2.936 2.794 2.795.075-.057.09-.043.034.031-.142.188 1.274 1.604 1.542 1.542.121-.027.146-.01.056.038-.22.118 1.049 1.411 1.386 1.411.146 0 .211.088.145.195-.111.179.156.282.552.214.088-.016.115.046.058.137-.056.091.048.295.23.453.183.159.59.614.905 1.013.424.536.62.661.751.479.127-.175.148-.151.073.082-.109.344 1.159 1.601 1.441 1.427.081-.05.199.04.26.2.084.218.438.292 1.399.292.934 0 1.249-.063 1.146-.229-.092-.148-.038-.189.153-.115a.72.72 0 0 0 .569-.062c.237-.149.236-.175-.001-.177-.152-.002-.211-.069-.13-.15a.54.54 0 0 1 .321-.146c.439 0 3.141-2.695 2.885-2.878-.201-.144-.189-.164.054-.087.345.109 3.469-2.877 3.173-3.034-.092-.049-.071-.068.047-.041.305.068 12.549-12.268 12.475-12.568-.037-.148-.019-.16.044-.029.163.339 2.587-2.151 2.466-2.532-.074-.236-.054-.252.083-.062.147.205.227.199.417-.03.184-.222.181-.307-.017-.394q-.258-.113.041-.069c.373.053 2.168-1.621 2.01-1.876-.065-.105-.033-.139.069-.075.103.063 1.004-.704 2.002-1.706.998-1.001 1.74-1.86 1.649-1.908-.09-.049-.061-.064.066-.034.28.066.696-.397.517-.576-.071-.071 0-.128.157-.128.388 0 1.779-1.448 1.59-1.655-.083-.091-.052-.11.068-.041.269.153.913-.521.71-.744-.081-.089-.05-.107.069-.039.238.136 1.116-.694.958-.905-.055-.073-.039-.086.035-.029.248.188 2.185-1.892 2.061-2.214-.082-.214-.027-.267.189-.184.363.139 1.406-.864 1.182-1.137-.082-.099-.067-.115.032-.033.227.186 1.089-.603 1.089-.996 0-.16.061-.23.136-.155.174.174 3.575-3.199 3.575-3.546 0-.143.07-.216.157-.162.227.14 2.412-2.125 2.236-2.319-.081-.089-.052-.108.064-.041.232.132 3.067-2.652 2.912-2.86-.053-.07-.037-.084.035-.03.213.161.828-.504.721-.78-.053-.14-.003-.313.111-.384.115-.071.209-.016.209.122 0 .137 1.533-1.281 3.406-3.151 1.874-1.871 3.354-3.486 3.29-3.59s-.024-.131.088-.062c.247.153.716-.367.559-.621-.062-.1.036-.169.217-.155s.51-.255.73-.6c.221-.345.511-.631.645-.635.135-.004.245-.188.245-.41 0-.231.087-.348.205-.275.273.169 9.4-8.909 9.278-9.228-.052-.135-.032-.237.045-.225.433.064.603-.058.49-.353-.093-.241-.045-.296.183-.208.369.141 1.689-1.196 1.561-1.581-.049-.145.037-.228.2-.192.156.034 1.11-.765 2.12-1.776s1.712-1.767 1.561-1.679q-.275.161-.135-.066a.51.51 0 0 1 .386-.225c.3 0 2.074-1.869 2.074-2.185 0-.123.059-.166.131-.094.198.199.846-.468.846-.871 0-.25.095-.317.325-.229q.327.127.184-.104c-.078-.126-.058-.228.044-.228.279 0 3.068-2.721 3.011-2.938-.026-.103.03-.165.126-.139.185.052 1.192-1.02 1.193-1.269 0-.081.132-.147.293-.147a.293.293 0 0 0 .293-.293c0-.161.094-.292.21-.292.252 0 1.743-1.518 1.743-1.774 0-.099.068-.18.151-.18.252 0 2.388-2.066 2.388-2.31 0-.126.075-.229.168-.229.292 0 2.849-2.624 2.854-2.929.003-.162.115-.271.249-.245.309.062 2.437-2.065 2.296-2.293-.058-.094-.015-.225.094-.292.109-.068.198-.025.198.095s.09.163.199.096c.109-.068.148-.205.086-.305s.015-.181.171-.181c.308 0 .598-.508.557-.977-.018-.212.006-.222.087-.037.141.32.853-.259.853-.693 0-.154.102-.245.226-.204.328.109 2.617-2.356 2.549-2.745-.042-.241-.012-.26.114-.073.213.313 1.903-1.195 1.703-1.519-.071-.114-.046-.183.055-.154.27.079 2.41-1.993 2.278-2.206-.061-.1.069-.181.29-.181.228 0 .403-.128.403-.293 0-.162.068-.293.152-.293.282 0 2.191-1.942 2.191-2.228 0-.157.198-.314.44-.351.241-.037.417-.175.39-.307s.067-.239.208-.239c.284 0 1.232-1.177 1.152-1.431-.028-.088.034-.108.138-.044.203.125 3.141-2.718 3.141-3.041 0-.107.084-.143.186-.08s.319-.129.481-.428c.161-.298.298-.457.302-.353.009.232 2.937-2.805 2.937-3.046 0-.094.089-.171.197-.171.344 0 3.329-3.147 3.193-3.366-.081-.132-.037-.153.119-.056.162.1.485-.104.925-.584.465-.508.603-.782.444-.88-.151-.094-.163-.186-.032-.267.109-.068.229-.036.265.069.095.28 1.527-1.129 1.545-1.52q.017-.32.116-.08c.108.269 2.603-2.112 2.603-2.484 0-.114.077-.185.17-.158.345.099 3.346-3.121 3.349-3.594.002-.347.046-.391.178-.182.185.292 3.53-2.817 3.53-3.281 0-.12.066-.201.146-.178.194.053 2.979-2.728 2.979-2.974 0-.106.09-.192.201-.192.353 0 2.142-1.876 2.158-2.264.009-.226.056-.272.118-.116.08.199.183.183.468-.075.201-.182.319-.407.261-.5s-.018-.17.088-.17c.425 0 1.431-1.222 1.163-1.414-.191-.137-.169-.156.084-.075.188.06.342.025.342-.079s.112-.189.249-.189c.33 0 1.026-.814.959-1.12-.029-.133.065-.197.208-.142.264.102 1.258-1.043 1.164-1.341-.028-.088.043-.103.157-.032.349.215 2.848-2.441 2.518-2.676-.214-.152-.195-.169.082-.079.433.14 1.479-.823 1.341-1.234-.064-.193.009-.236.247-.145s.368.014.44-.262c.056-.215.174-.391.262-.391.295 0 2.121-2.019 2.001-2.213-.065-.105-.021-.131.098-.058.271.168 1.038-.465.878-.724-.065-.105-.026-.134.086-.065.271.168.709-.38.577-.723-.058-.15-.366-.388-.685-.53-.338-.15-.539-.362-.482-.511.054-.14.003-.254-.113-.254s-.779-.58-1.474-1.289c-.695-.708-1.355-1.231-1.468-1.162-.128.08-.157.001-.076-.21.101-.261.054-.308-.207-.208-.186.071-.292.057-.238-.032.154-.248-2.218-2.597-2.467-2.443-.138.085-.175.023-.101-.168.132-.345-.739-1.209-1.035-1.026-.103.063-.187-.022-.187-.189 0-.168-.088-.305-.195-.305s-.196-.126-.196-.28c0-.153-.175-.335-.39-.403-.215-.069-.391-.26-.391-.425 0-.182-.111-.258-.283-.192q-.284.109-.174-.175c.066-.171-.01-.283-.192-.283-.166 0-.357-.175-.425-.39s-.241-.391-.383-.391-.312-.137-.376-.305-.208-.249-.319-.181c-.111.069-.179.052-.151-.036.074-.238-.669-1.037-.857-.921-.088.054-.16-.018-.16-.162 0-.264-.803-1.059-.969-.959-.05.03-.137-.075-.195-.233-.089-.241-.145-.245-.35-.023m63.521 5.783c.502.229.557.356.79 1.822.181 1.143 1.199 4.362 1.451 4.59.059.054.237.362.395.684.157.322.59 1.069.96 1.66.371.591.784 1.284.919 1.539.429.814 2.261 2.761 2.474 2.629.113-.07.148-.035.079.077-.233.376.413.721.781.418.292-.242.303-.228.108.138-.208.392 1.476 2.276 1.848 2.067.064-.036.171.012.236.107.211.304 1.389 1.065 1.392.9.002-.088.068-.064.147.054.213.32 1.944 1.241 2.078 1.106.064-.064.116-.022.116.094 0 .224 1.594.832 2.183.832.196 0 .356.075.356.167s.691.316 1.536.499c1.655.358 1.98.66 1.98 1.849 0 .67-.378.89-2.36 1.372-1.477.359-1.722.454-4.455 1.715-1.432.661-3.064 1.661-3.439 2.106-.108.127-.562.496-1.009.819-1.499 1.081-4.311 4.363-4.071 4.751.069.112-.008.145-.183.078-.171-.066-.303-.014-.303.119 0 .13-.493 1.105-1.094 2.167-.711 1.255-1.1 2.171-1.113 2.615-.011.378-.083.58-.162.452-.089-.143-.189-.01-.262.344-.064.317-.202.846-.306 1.176a4.8 4.8 0 0 0-.188 1.213c0 1.381-1.731 1.961-2.686.9-.242-.269-.439-.697-.439-.951 0-.728-.437-2.505-.72-2.929-.141-.212-.257-.503-.257-.647 0-.235-2.28-4.492-2.534-4.729-.057-.054-.473-.581-.924-1.172-1.853-2.426-5.556-5.456-7.404-6.059-.418-.136-.803-.308-.857-.381-.188-.257-1.416-.779-1.586-.674-.094.058-.172.027-.172-.07 0-.271-.821-.583-2.179-.83-2.102-.381-2.508-.626-2.508-1.517 0-1.015.485-1.539 1.572-1.7 1.411-.209 4.485-1.3 4.347-1.542-.067-.119-.054-.154.03-.078.189.171 2.84-1.145 2.84-1.409 0-.106.141-.193.314-.193.172 0 .557-.198.855-.44.299-.241.812-.654 1.14-.916.329-.262.545-.57.48-.683-.064-.114-.044-.141.046-.059.213.194 1.07-.614 1.074-1.012.002-.211.049-.236.149-.079.095.149.485-.182 1.12-.949.536-.647 1.106-1.33 1.267-1.515.458-.528.734-.988 1.417-2.355.349-.698.728-1.37.844-1.493.285-.304 1.566-4.257 1.727-5.327.203-1.355 1.023-1.868 2.16-1.35m-.864 6.998c-.018.262-.969 2.231-1.839 3.809-.657 1.189-3.165 4.413-3.317 4.262-.07-.071-.128-.033-.128.083 0 .117.11.256.244.311.135.054.047.105-.195.113s-.439.085-.439.169-.242.296-.537.471a9 9 0 0 0-1.124.84c-.322.286-.919.748-1.327 1.025-.556.378-.678.55-.488.686.181.13.152.149-.101.067-.343-.111-1.769.532-2.18.982-.11.121-.574.379-1.03.574-.457.196-.831.466-.831.601 0 .305 1.737 1.096 2.1.957.145-.056.216-.023.157.072-.135.218 1.224 1.038 1.469.887.1-.061.181.007.181.152s.436.518.97.83c.533.311 1.016.687 1.072.834.057.148.205.206.33.128.133-.082.175-.055.101.064-.069.113.089.345.351.517s.811.675 1.219 1.117c1.617 1.753 2.184 2.43 2.819 3.362.283.416.554.682.603.592s.062-.057.03.076c-.032.132.332.9.809 1.707s.923 1.688.99 1.957c.166.659.412.617.569-.096.071-.323.203-.586.293-.586s.222-.264.293-.586c.071-.323.21-.586.308-.586.099 0 .18-.09.18-.201 0-.596 4.02-5.769 5.176-6.66.107-.083.547-.444.977-.802a20 20 0 0 1 1.498-1.127c.395-.261.667-.566.604-.677-.063-.11-.042-.136.046-.056.089.08.696-.152 1.35-.516.654-.365 1.563-.774 2.019-.909 1.077-.32 1.057-.372-.391-1.051a27 27 0 0 1-2.144-1.137c-.513-.314-1.027-.501-1.156-.421-.158.098-.193.041-.108-.181.074-.192.028-.328-.113-.332-.131-.004-.716-.395-1.301-.868-.584-.473-1.132-.816-1.218-.763s-.104-.04-.04-.207.03-.303-.076-.303-.555-.352-.998-.781-.959-.789-1.147-.797c-.192-.009-.237-.058-.104-.112.282-.114.019-.657-.662-1.37a7 7 0 0 1-.775-1.036c-.192-.326-.467-.592-.612-.592s-.21-.084-.146-.188c.139-.225-.796-1.765-1.072-1.765-.106 0-.193-.171-.193-.381 0-.795-.419-1.411-.702-1.031-.23.309-.249.301-.221-.101.017-.251.159-.441.33-.443.193-.002.224-.054.085-.146a1.06 1.06 0 0 1-.326-.437c-.099-.26-.114-.26-.132 0m-48.252 1.074c0 .161-.143.293-.317.293-.26 0-.273-.053-.074-.293.134-.161.276-.293.317-.293s.074.132.074.293"/><path fill="currentColor" d="M135.352 273.535c-.475.484-.819.879-.765.879s.485-.395.96-.879c.474-.483.819-.879.765-.879s-.486.396-.96.879m-35.071 2.49-.574.635.635-.573c.349-.316.635-.602.635-.635 0-.151-.162-.018-.696.573m30.273 2.344-.574.635.635-.574c.349-.315.635-.601.635-.635 0-.15-.161-.018-.696.574m-6.25 6.25-.574.635.635-.574c.592-.534.725-.696.574-.696-.034 0-.319.286-.635.635m-34.861 2.246-.673.733.732-.673c.682-.627.822-.792.673-.792-.033 0-.362.329-.732.732m24.125 8.496-1.166 1.221 1.221-1.166c.671-.641 1.221-1.19 1.221-1.22 0-.145-.193.031-1.276 1.165m-26.068-.964c0 .034.286.319.635.635l.635.573-.574-.634c-.535-.592-.696-.725-.696-.574m1.758 1.758c0 .033.285.319.635.635l.634.573-.573-.634c-.535-.592-.696-.725-.696-.574"/><path fill="currentColor" d="M271.338 103.26c.188.049.495.049.683 0s.035-.09-.341-.09-.53.041-.342.09m8.63 21.594-.573.634.634-.573c.592-.535.725-.696.574-.696-.034 0-.319.285-.635.635m-38.567 6.152-1.264 1.318 1.318-1.264c.725-.695 1.318-1.288 1.318-1.318 0-.144-.198.039-1.372 1.264m-4.008 4.004-.772.83.83-.772c.772-.718.92-.888.772-.888-.032 0-.405.373-.83.83m-70.791 16.418c0 .034.285.32.634.635l.635.574-.574-.635c-.534-.592-.695-.725-.695-.574m37.393 49.597-.772.83.83-.772c.772-.718.92-.888.772-.888-.032 0-.406.374-.83.83m-25.099 25.098-.673.732.732-.673c.682-.626.822-.791.673-.791-.032 0-.362.329-.732.732m-18.55 18.555-1.264 1.318 1.318-1.264c1.225-1.174 1.408-1.373 1.264-1.373-.03 0-.623.594-1.318 1.319m-20.708 24.609-.673.733.732-.674c.682-.626.822-.791.673-.791-.032 0-.362.329-.732.732m-4.683.781-1.264 1.319 1.319-1.264c1.224-1.174 1.407-1.373 1.264-1.373-.03 0-.624.593-1.319 1.318m2.539 1.368-1.264 1.318 1.319-1.264c1.224-1.174 1.407-1.373 1.264-1.373-.03 0-.624.593-1.319 1.319m-8.789 4.882-1.264 1.319 1.319-1.264c1.224-1.174 1.407-1.373 1.264-1.373-.03 0-.624.593-1.319 1.318m-40.134 7.52-2.536 2.588 2.588-2.536c1.423-1.395 2.588-2.56 2.588-2.588 0-.141-.284.132-2.64 2.536m33.199-.586-.969 1.025 1.025-.969c.564-.533 1.026-.994 1.026-1.025 0-.146-.181.016-1.082.969m-30.754 2.002c-.475.483-.819.879-.765.879s.486-.396.96-.879.819-.879.765-.879-.486.396-.96.879m27.734.976c-.8.806-1.411 1.465-1.357 1.465.053 0 .752-.659 1.552-1.465.801-.805 1.411-1.464 1.358-1.464-.054 0-.753.659-1.553 1.464m-30.579 1.905-.573.635.634-.574c.592-.535.725-.696.574-.696-.034 0-.319.286-.635.635m27.644 1.074-1.264 1.318 1.318-1.264c1.225-1.173 1.408-1.372 1.264-1.372-.03 0-.623.593-1.318 1.318m-2.338 2.295c-.475.483-.819.879-.765.879s.485-.396.96-.879c.474-.483.819-.879.765-.879s-.486.396-.96.879m-30.025.098c0 .483.038.681.084.439a2.8 2.8 0 0 0 0-.879c-.046-.242-.084-.044-.084.44m26.314 3.613c-.801.806-1.411 1.465-1.358 1.465.054 0 .753-.659 1.553-1.465s1.411-1.465 1.357-1.465c-.053 0-.752.659-1.552 1.465m-2.539 2.539c-.475.483-.819.879-.765.879s.485-.396.96-.879c.474-.483.819-.879.765-.879s-.486.396-.96.879m-15.634.732c.479.511.897.928.928.928.147 0-.008-.175-.871-.985l-.927-.87zm12.303 2.637-.673.732.732-.673c.682-.626.822-.791.673-.791-.032 0-.362.329-.732.732m-8.388 1.282c0 .033.285.319.635.635l.634.573-.573-.634c-.535-.592-.696-.725-.696-.574m-.594 3.113c.479.51.896.927.927.927.147 0-.008-.175-.87-.984l-.928-.871z"/><path fill="currentColor" d="M190.859 89.395c-.289.941-.149 1.081.157.156.128-.391.196-.748.149-.794-.046-.047-.184.24-.306.638m71.104 20.615c.028.14-.117.226-.342.201-.215-.024-.28.006-.145.065s.186.211.113.336.056.062.287-.14.372-.444.315-.537c-.154-.249-.284-.206-.228.075m-3.466 3.468c.067.108-.016.249-.184.314-.168.064-.305.209-.305.322 0 .112.176.045.39-.149.428-.387.508-.684.184-.684-.114 0-.152.089-.085.197m26.073.026c0 .052.249.333.554.625.395.379.553.445.553.232 0-.164-.045-.254-.099-.199s-.304-.093-.554-.327c-.249-.235-.454-.384-.454-.331m-26.953.917c0 .125-.137.227-.304.227-.171 0-.247.094-.173.214.091.146.231.117.44-.093.169-.168.246-.367.172-.441s-.135-.033-.135.093m28.658 7.897c-.175.457.15.596.47.201.147-.181.164-.267.039-.192s-.263.03-.306-.099c-.05-.15-.123-.118-.203.09m-49.358 17.086c-.002.135-.135.244-.296.244s-.293.088-.293.196c0 .22.142.228.628.035.242-.096.283-.214.149-.426q-.185-.291-.188-.049m26.013 6.534c-.129.128-.224.414-.212.634.022.393.025.393.119.01.052-.215.185-.5.294-.635.253-.311.107-.318-.201-.009m-99.711 2.851c-.31.343-.314.394-.034.501.172.066.263.04.203-.057s-.008-.21.117-.251c.124-.042.188-.188.142-.325-.059-.178-.182-.14-.428.132m82.567.37c.029.194.117.338.196.32q.445-.1.034-.439c-.229-.19-.272-.168-.23.119m1.652 1.869c.21.267.331.294.542.118.149-.124.214-.278.143-.344s-.17-.005-.22.134c-.073.206-.148.206-.412 0-.289-.226-.295-.216-.053.092m49.295 5.027c-.016.215.006.39.05.39.043 0 .172-.175.287-.39.16-.299.149-.391-.049-.391-.142 0-.271.176-.288.391m-43.781.06c-.014.223-.112.302-.266.216-.194-.11-.195-.085-.004.121.3.323.508.143.385-.333-.088-.341-.093-.341-.115-.004m-3.907 3.726c-.486.501-.578.698-.38.813.143.083.193.077.111-.014-.083-.091.132-.457.478-.813.345-.356.583-.647.53-.647-.054 0-.387.297-.739.661m52.086 2.298c.206.264.206.342 0 .424-.16.065-.128.107.09.117.188.008.342-.062.342-.156s-.154-.292-.342-.44c-.306-.239-.315-.233-.09.055m-63.826 5.238c0 .104-.132.138-.293.076-.161-.061-.293-.068-.293-.014 0 .256.584.279.791.03.165-.2.169-.281.014-.281-.121 0-.219.085-.219.189m45.723 1.642c-.175.211-.143.29.146.366.286.075.348.013.275-.269-.115-.438-.135-.442-.421-.097m-81.523 1.574c-.209.209-.336.224-.502.059-.155-.156-.222-.158-.222-.009 0 .398.548.427.891.047.394-.435.253-.517-.167-.097m36.66.159c-.369.436-.369.437.019.123.214-.174.522-.365.683-.424.249-.091.246-.11-.018-.123-.172-.009-.479.182-.684.424m50.687 1.781c.529.574.633.63.494.266-.053-.137-.292-.368-.531-.514-.416-.254-.414-.242.037.248m-60.162 7.698-.467.531.516-.454c.384-.338.542-.388.619-.195q.103.256.119.025c.031-.468-.33-.425-.787.093m-1.542 1.507c-.168.203-.175.293-.023.293.12 0 .219-.081.219-.181s.154-.221.342-.27c.288-.075.292-.093.023-.112-.174-.012-.427.109-.561.27m-8.791 4.69c-.302.321-.507.415-.595.272-.087-.141-.178-.149-.256-.023-.297.48.472.346.965-.168.301-.314.502-.571.447-.571s-.307.22-.561.49m-15.093 14.939c-.056.215-.086.391-.066.391s.186-.176.37-.391c.256-.299.272-.39.066-.39-.147 0-.314.175-.37.39m-9.905 9.799c0 .126-.153.41-.341.632-.328.385-.327.391.01.129.465-.361.804-.989.534-.989-.112 0-.203.102-.203.228m-32.421 4.166c-.365.376-.596.684-.513.684.152 0 .309-.15.982-.934.581-.677.266-.509-.469.25m-5.291 1.192c-.143.173-.461.39-.707.484s-.448.322-.448.507c0 .249.205.137.781-.425.43-.42.782-.789.782-.821 0-.139-.167-.035-.408.255m-3.972 3.723c-.055.144-.026.261.065.261s.263-.117.381-.261c.164-.196.147-.26-.065-.26a.44.44 0 0 0-.381.26m34.696 2.36c-.468.457-.475.479-.052.15.833-.65.873-.687.735-.687-.074 0-.381.242-.683.537m-5.902 1.606c0 .104-.132.138-.293.076-.161-.061-.293-.068-.293-.014 0 .256.584.279.791.03.165-.2.169-.282.014-.282-.121 0-.219.086-.219.19m-32.906.392c-.192.212-.439.33-.549.263-.119-.074-.139-.026-.051.117.126.204 1.084-.416 1.084-.703 0-.144-.155-.042-.484.323m36.006.725c-.148.182-.166.27-.041.195s.267-.026.315.109c.051.142.16.172.261.072.101-.101.071-.21-.072-.261-.135-.048-.196-.168-.135-.266.188-.305-.046-.197-.328.151m-41.86 4.668c-.267.194-.295.275-.096.272.394-.004.847-.317.642-.443-.093-.058-.339.019-.546.171m30.665 6.514c-.189.209-.298.494-.241.635.078.197.105.192.117-.022.009-.153.161-.439.339-.635s.279-.357.225-.357c-.053 0-.252.171-.44.379m-38.579 1.861c-.249.265-.542.427-.65.36-.117-.072-.137-.023-.048.12.125.203 1.278-.611 1.278-.901 0-.144-.155-.032-.58.421m-1.178.994c0 .18-.092.248-.225.165-.143-.088-.173-.053-.081.096.111.179.211.181.419.008.15-.125.225-.305.166-.4-.162-.263-.279-.208-.279.131m-.685.871c-.068.109-.199.151-.291.094-.093-.057-.224-.015-.291.095-.195.314.412.23.681-.095.134-.161.194-.293.133-.293-.06 0-.165.089-.232.199m-2.424 2.218c-.013.302-.066.323-.309.122-.202-.168-.293-.175-.293-.024 0 .121.11.221.244.222q.245.003-.048.193c-.162.104-.194.19-.073.192.323.004.711-.53.595-.82-.06-.149-.107-.103-.116.115m36.688.267c-.345.39-.363.443-.067.195.224-.187.451-.297.505-.243s.098-.033.098-.195c0-.375.018-.384-.536.243m-38.783 1.658c-.202.328.133.422.433.122.267-.266.265-.297-.013-.297-.171 0-.36.079-.42.175m4.307.199c-.372.439-.372.439.034.097.224-.188.465-.283.537-.211s.131.028.131-.098c0-.357-.296-.268-.702.212m28.226 4.393c-.377.427-.388.465-.054.184.323-.272.442-.294.517-.097.054.141.088.059.076-.183-.026-.536.028-.545-.539.096m-38.952 2.202c-.067.109-.204.148-.304.086s-.182.038-.182.223c0 .309.029.308.39-.019.215-.195.391-.384.391-.421 0-.139-.177-.06-.295.131m-1.166.98c.104.168-.583.814-.72.677-.053-.053-.098.037-.098.202 0 .203.21.097.651-.331.757-.733.731-.685.367-.685-.156 0-.246.062-.2.137m-1.967 1.93c.093.151.001.276-.25.342-.218.057-.449.239-.512.405q-.291.76.558-.125c.391-.408.473-.604.298-.712q-.241-.148-.094.09m-1.981 2.051c.021.116-.078.188-.221.158s-.2.041-.127.159c.089.143.254.103.503-.123.445-.403.446-.406.089-.406-.155 0-.265.096-.244.212m-1.136 1.289c-.067.109-.226.139-.353.066-.127-.072-.165-.059-.084.03.185.205-.399.869-.702.799-.124-.029-.155-.014-.068.033s.01.251-.172.452-.421.31-.531.242c-.119-.074-.139-.025-.048.122.123.198 2.253-1.586 2.253-1.887 0-.129-.181-.041-.295.143m3.324.776-.559.584.506-.239c.279-.131.468-.301.421-.376s.071-.229.261-.34c.19-.11.253-.204.138-.207s-.459.257-.767.578m-1.477 1.516-.673.732.732-.673c.682-.626.823-.792.673-.792-.032 0-.362.33-.732.733m-4.605.434c-.285.319-.607.525-.715.458-.109-.067-.14-.028-.068.088.071.116-.025.251-.214.301-.261.068-.271.095-.042.112.166.013.645-.329 1.065-.758.419-.43.701-.782.627-.782-.075 0-.369.262-.653.581m-2.367 2.203c.027.134-.083.214-.244.179s-.228 0-.148.079c.079.08.038.285-.092.456s.003.098.295-.163c.547-.488.677-.796.336-.796-.108 0-.174.11-.147.245m3.652.679c-.37.4-.49.576-.267.39.224-.186.443-.316.488-.289s.06.013.033-.032.096-.243.274-.44c.178-.196.284-.357.234-.357s-.392.327-.762.728m-4.824.492c.027.135-.046.227-.162.207-.117-.021-.212.089-.212.245 0 .233.062.226.353-.037.195-.176.307-.396.249-.49-.153-.248-.284-.205-.228.075m-1.416.904c0 .121.103.219.23.219.126 0 .016.242-.244.538-.455.516-.448.515.161-.037.349-.316.635-.616.635-.667s-.058-.036-.129.035c-.071.07-.246.03-.391-.089-.192-.16-.262-.16-.262.001m-4.787 5.496c-.067.109-.226.139-.353.066-.127-.072-.166-.06-.086.028s.038.3-.092.471.003.098.295-.163c.292-.26.531-.502.531-.537 0-.135-.178-.054-.295.135m1.782 2.318c-.529.542-.672.802-.498.909.148.091.194.071.118-.053-.157-.253.335-.688.554-.49.088.08.101.042.029-.084-.073-.127.098-.408.385-.634.284-.224.435-.407.335-.407s-.516.342-.923.759m-1.983 2.023c-.533.563-.655.738-.272.387.383-.35.734-.613.781-.584s.063.015.035-.03.097-.242.275-.439c.743-.821.073-.276-.819.666m14.559 18.019c-.801.806-1.412 1.465-1.358 1.465s.753-.659 1.553-1.465 1.411-1.465 1.357-1.465c-.053 0-.752.659-1.552 1.465m-31.929 3.606c-.073.117-.059.2.029.184.376-.065.533.037.291.19-.21.133-.202.187.043.281.462.178.548-.163.135-.537-.247-.223-.41-.262-.498-.118m26.531 1.829-.559.62.585-.513c.323-.282.696-.472.831-.423.134.049.244.048.244-.004 0-.378-.638-.193-1.101.32m-1.353 1.352-.574.635.635-.574c.349-.315.635-.601.635-.634 0-.151-.161-.018-.696.573m-15.581 1.937c.705.722 1.122 1.023.68.49-.156-.189-.152-.32.016-.488.176-.176.175-.23-.005-.23-.129 0-.234.087-.234.194 0 .106-.172.046-.381-.133s-.345-.383-.302-.454c.044-.07-.052-.128-.213-.128-.183 0-.019.28.439.749m12.562 1.091-1.656 1.709 1.709-1.656c1.587-1.538 1.798-1.762 1.656-1.762-.03 0-.799.769-1.709 1.709m-5.069.921c-.249.266-.522.44-.606.388s-.209-.006-.276.103c-.276.447.453.157.974-.387.309-.322.517-.586.462-.586s-.304.217-.554.482m-2.883 1.416c.297.045.736.044.976-.003.24-.046-.002-.083-.54-.081-.537.001-.733.039-.436.084m4.667.902c-.428.441-.534.651-.331.651.165 0 .254-.046.199-.101s.137-.348.427-.651c.291-.303.485-.55.432-.55s-.38.292-.727.651"/></g></svg>