<svg xmlns="http://www.w3.org/2000/svg" viewBox="0 0 1024 1024"><path d="M410.2 255.2c-1.6 1.6-1.8 484.3-.2 485.3.6.4 46.6.6 102.2.5 78.2 0 101.4-.4 102-1.3 1.2-1.9 1-481.5-.2-483.8-1-1.9-3.2-1.9-101.8-1.9-77.1 0-101.1.3-102 1.2M609 497.5V735H415V260h194zM229.6 324.6c-1.4 1.4-1.6 18.2-1.6 169.8 0 129.5.3 168.5 1.2 169.4 1.7 1.7 157.9 1.7 159.6 0s1.7-337.9 0-339.6c-.9-.9-19.9-1.2-79.4-1.2-69.8 0-78.4.2-79.8 1.6M384 494v165H234V329h150zm250.6-169.4c-1.4 1.4-1.6 18.1-1.6 169 0 113.6.3 168.2 1 169.5 1 1.9 3 1.9 79.8 1.9 60 0 79.1-.3 80-1.2 1.7-1.7 1.7-337.9 0-339.6-.9-.9-19.9-1.2-79.4-1.2-69.8 0-78.4.2-79.8 1.6M789 494v165H639V329h150z"/></svg>