<svg xmlns="http://www.w3.org/2000/svg" viewBox="0 0 338 432"><path d="M21.6 12.6C20.2 14 20 33.9 20 217s.2 203 1.6 204.4S38.2 423 174 423s151-.2 152.4-1.6S328 400.1 328 217s-.2-203-1.6-204.4S309.8 11 174 11s-151 .2-152.4 1.6m296.3 154.6c-.1 134.8-.2 145.9-1.7 141.3-12.2-38.7-18.3-54.8-29.2-77-13.6-27.6-22.8-39.9-43.7-58.6l-7.1-6.4-3-23c-1.6-12.7-2.8-24.6-2.5-26.6.3-2.1-.1-5.1-1-7-.8-1.9-2.1-8.6-3-14.9-1.9-14-4.3-21.7-10-31.1-5.1-8.6-16.2-19.4-23.7-23.1-28.3-14.1-61.4-1.6-70.1 26.3-1.1 3.4-2.7 7.3-3.8 8.8-5.6 7.9-9.6 18.2-12.1 31.1-1.5 7.6-1.7 10.9-1 16.5.5 3.8 1.4 11 2 16 1.3 10.3 4.9 21.8 8.5 27.3 2.3 3.5 2.4 4.2 1.5 9.2-.5 2.9-1 8.8-1 13.1 0 6.9-.2 7.9-1.8 7.9-3.4 0-15.7 6.7-21 11.5-10.5 9.5-19.6 25.3-24.6 43l-2.5 9L52.2 275c-8.2 8-16.5 16.5-18.5 18.9l-3.7 4.5V21h288zM177.1 46c8.2 1.5 15.5 5.6 22.3 12.4 7.3 7.1 11.6 14.4 14.5 24.1 1.1 3.8 3.9 21.3 6.1 38.9 2.2 17.5 4.7 36.1 5.5 41.4l1.4 9.5 5.3 4.6c2.9 2.5 8.6 7.7 12.6 11.5l7.2 7-10.2 3.6c-14.2 5.1-19.4 7.3-28.9 12-4.4 2.3-8.4 3.9-8.7 3.5-.3-.3-1.7-30.3-2.9-66.5-2.6-73.2-2.4-72.1-9.7-80.6-8.7-10.1-30.2-15.2-46.4-11-2.9.7-5.2 1-5.2.6s1.5-1.9 3.3-3.2c9.8-7.5 21.3-10.1 33.8-7.8m-2.2 22c6.1 2.7 11.6 8.5 13 13.7.5 2.1 1.4 16.2 2 31.2l1 27.5-3.7 3.3c-2 1.8-6.2 4.5-9.2 6-4.6 2.3-6.8 2.8-13 2.7-9 0-14.9-2.3-20.7-8.1-6.5-6.5-8.4-12.2-9.8-29.6l-.6-7.7h3.7c3.9 0 7.4-2.3 7.4-4.8 0-3-3.2-5.2-7.6-5.2h-4.2l-.7-10.5c-.6-8-.4-10.9.6-12.1 2-2.4 9.8-6.7 14.8-8.1 6.7-1.9 20.6-1 27 1.7m-45.4 72.7c3.9 7.8 10.9 15 17.5 17.9 3.7 1.7 3.8 1.9 4.2 7.2l.3 5.5-7 4.7c-3.8 2.6-9.2 6.6-12 8.9-4.2 3.5-5 3.9-5.3 2.3-.4-2.5 1.3-12 2.9-15.9 1.2-3 1.1-3.3-2.8-7.6-7.3-8-10.8-24.4-10.1-47.4.4-11.5.9-14.8 2.9-19.8l2.3-6 1.8 21.5c1.7 21 1.8 21.7 5.3 28.7m63.1 49.3c.5 15.7.9 29.2.9 30s-3.1 3.6-6.9 6.2l-7 4.8H170c-16.1 0-31.7-5.1-42.7-13.9-2.9-2.3-5.3-4.5-5.3-5 0-.4 1.4-2.9 3.1-5.5 3.8-5.6 14-14.5 26.4-22.8 5-3.3 9.4-6.7 9.9-7.5.5-.9.6-4.2.2-7.4l-.6-5.9h4.9c6 0 16.4-3.1 21.1-6.4l3.5-2.4.6 3.7c.4 2 1.1 16.4 1.5 32.1m69.2 17.5c2.5 4 2.9 3.6-6.7 6-20.7 5.2-45.1 18.7-60.8 33.7-22.2 21.3-32.3 42.2-37.8 78l-.6 3.6-8.7-4c-4.8-2.2-8.8-4.1-8.9-4.2-.9-.9 2.3-18.5 4.7-26 11.8-36.6 49.1-67.6 104.5-86.7 6.1-2.1 11.2-3.8 11.5-3.9.3 0 1.5 1.6 2.8 3.5m-142.9 15.6c3.7 3.4 9.6 7.4 14.4 9.8 8.5 4.2 22.4 8.1 29 8.1 2 0 3.7.3 3.7.6 0 .4-3.1 3.9-6.8 7.8-16.5 17.4-27.1 38.5-30.1 59.5-.5 4-1.2 7.5-1.4 7.8-.3.2-3.1-.2-6.3-1-11.4-2.9-12.8-2.9-16.5-.4-4.2 2.8-7.6 7.7-9 13.1-1.1 4-.8 14 .6 18.2.6 1.9 0 2.3-5.9 3.9-3.5 1-7.1 1.5-7.9 1.2-2-.7-4.7-9.1-4.7-14.4 0-4.8 2.6-10.7 5.9-13.7 3.9-3.5 2.2-8.6-3-8.6-3.4 0-9 6-11.4 12.3-1.7 4.6-1.8 16 0 21.5 1.1 3.3-1 2.7-5.3-1.6-4.8-4.8-6.6-10.9-6-20 1-14.1 8.5-21.2 22.4-21.2 4.6 0 5.6-.4 7-2.5 1.5-2.3 1.5-2.7 0-5-1.5-2.2-2.3-2.5-8-2.5-13 0-23.9 6.5-28.7 17.2-2.1 4.6-2.4 6.8-2.4 16.8 0 12.8 1.4 17 7.8 23.9 4.2 4.5 14.1 9.1 19.4 9.1 8.1 0 19.7-2.9 28.2-7.1 4.5-2.2 8.7-3.7 9.1-3.2 2.3 2.3.9 3.7-8.5 8.6-6.4 3.3-10.4 6.1-11.2 7.7-1.6 3.2-1.6 15.8 0 19 .8 1.5 2.3 2.6 3.9 2.8 4 .5 5.8-2.9 5.8-10.8v-6.5l9.3-4.8c5.2-2.6 9.8-4.7 10.2-4.7.5 0 2.6 1.7 4.8 3.8l3.8 3.7-9.8 3.1-9.8 3-4.3 11c-4.6 11.6-4.6 14.5-.3 15.7 3.3.8 5.9-2.2 9.4-10.7l3.2-7.9 11.2-3.3 11.3-3.2 5.2 2.9c6.4 3.4 11.3 3.8 12.8.9 1.9-3.5.2-5.9-6.3-9.1-10-5.1-17.8-11.2-28.1-22.1l-9.7-10.2-4.6 1.2c-2.5.7-4.8 1-5.2.7-.3-.4-.6-3.5-.6-7 0-5 .5-7 2.1-9.2 2.7-3.5 6-3.4 18.2.3 19 5.7 38.6 17.3 52.6 30.8 7.8 7.6 10.8 9 13.4 6.4 2.1-2.1 1.3-6.1-1.9-9.4l-3.1-3.2 5.3-1.1c15.3-3 33.6-6.1 36.4-6.1 6.1 0 13.2 2.9 18.3 7.5s8.7 5.6 11 3.3c6.5-6.5-13-20.7-28.7-20.8-2.5-.1-15.3 1.8-28.3 4.1l-23.6 4.3-5.6-4.2c-6.4-4.8-6.2-4.2-4-19 3.8-25.6 13.8-45.8 31.3-63.3 9.2-9.2 22.8-18.7 34.8-24.5 10-4.7 27.5-10.5 32.6-10.7l4-.2 4.3 8c15.9 29.6 35.1 87.2 41.4 123.8 1.6 9.7 2 16.4 2 35.8V413H30v-47c0-46.1 0-47.2 2.1-51.3 5.1-10 13.3-19.5 30.9-35.7l9.8-9 5.3 1.1c6.3 1.3 13.4 5.1 15 8 .6 1.1 1.7 4.4 2.6 7.2 2.1 7.2 7.1 16.3 10.4 19.2 3.3 2.7 6.6 2.3 8.1-1 .8-1.9.3-3.4-3.1-9.1-8.4-13.9-10-30-5-51.2 2.2-9.7 1.6-12.2-3.1-12.2-2 0-3.4.7-4.4 2.2-1.8 2.9-4.4 14.5-5.2 23.7-.6 6.1-.9 7.1-2.3 6.5-.9-.4-4.2-1.4-7.3-2.3-3.2-.8-5.8-2-5.8-2.6 0-2.8 6.2-19.1 10.1-26.5 4.6-8.9 14-19.3 19.9-22.2l3.5-1.7.6 4.2c.5 3.5 1.6 5 6.8 9.8"/><path d="M155.6 97.1c-2.1 3.1-2.3 23.5-.3 26.3 1.5 2.1 6.2 2.5 8 .7.7-.7 1.4-5 1.5-10l.4-8.7 5.2.4c5.9.5 8.6-1.2 8.6-5.2 0-3.8-2.4-4.8-12.4-5.4-8.9-.4-9.4-.4-11 1.9m89 146c-6.6 1.6-15.5 7-20.6 12.6-8 8.7-9.8 13.9-14.1 39.3-5 29.5-5 32 .6 32 4.1 0 5.1-2.9 8.4-24 3.8-24.3 5.2-29.9 9.4-36.4 5.5-8.7 13.9-13.4 25.5-14.3 6.3-.5 7.6-.9 8.9-3 1.4-2.1 1.4-2.5-.1-4.8-1.5-2.2-2.3-2.5-7.9-2.4-3.4.1-7.9.5-10.1 1m-96.1 108.3c-1.3 1.9-1.4 2.9-.6 4.5 1.9 3.4 34 29.1 36.5 29.1 2.9 0 4.6-1.8 4.6-5 0-2.2-2.9-5-17.1-16.6-9.3-7.6-18.1-14-19.4-14.2-1.6-.2-2.9.4-4 2.2"/></svg>