<svg xmlns="http://www.w3.org/2000/svg" viewBox="0 0 487 487"><path d="M301.2 75.5h-.7s-83.3-87.7-156-21c-42.5 38.8-38.3 108 5.5 172.1 16.6-13 42.4-28.7 71.6-28.7q32 .1 57.6 23.6c24.3 22.2 34 54.5 27.4 91q-2.8 14.7-8.7 29.3l2.7 1.1.7 2.4c165-66.7 228.7-224.4 156-291-72.7-66.7-156 21-156 21"/><path d="m144.4 457.6.5-.8c70.3-28.3 116.9-76.4 135.4-122.7 15.3-38.1 11.4-75-14.1-98.4a65 65 0 0 0-44.7-18.5c-24 0-46.1 13.6-60.3 25a144 144 0 0 0-16.3 15h-.5s-35.3-40-76.6-40c-14.5 0-29.9 5-44.6 18.5-56.6 51.8-7.1 170 121.2 221.8"/></svg>