<svg xmlns="http://www.w3.org/2000/svg" viewBox="0 0 1889 1889"><path d="M1787 60H102l298 298h1089zM400 1531l-298 298h1685l-298-298zM60 1787l298-298V400L60 102zm1471-298 298 298V102l-298 298zm-60-1071H418v1053h1053zM30 0h1832c1 0 2 0 3 1h3l1 1h2v1h2v1h2v1h1v1h2v1h1v1h1v1h1v1h1v1h1v2h1v1h1v2h1v2h1v2l1 1v3c1 1 1 2 1 3v1835c0 1 0 2-1 3v3l-1 1v2h-1v2h-1v2h-1v1h-1v2h-1v1h-1v1h-1v1h-1v1h-1v1h-2v1h-1v1h-2v1h-2v1h-2l-1 1h-3c-1 1-2 1-3 1H27c-1 0-2 0-3-1h-3l-1-1h-2v-1h-2v-1h-2v-1h-1v-1h-2v-1h-1v-1H9v-1H8v-1H7v-1H6v-2H5v-1H4v-2H3v-2H2v-2l-1-1v-3c-1-1-1-2-1-3V27c0-1 0-2 1-3v-3l1-1v-2h1v-2h1v-2h1v-1h1v-2h1v-1h1V9h1V8h1V7h1V6h2V5h1V4h2V3h2V2h2l1-1h3c1-1 2-1 3-1z"/></svg>