<svg xmlns="http://www.w3.org/2000/svg" viewBox="0 0 764.8 764.8"><path d="M223.5 70.3a8.4 8.4 0 0 0-14.2-4l-1 .8c-2.7-.4-9.1-8.1-13-12.7-9.4-11-21-24.8-37-24.8q-1.7 0-3.3.2c-20.3 2-29.1 13.4-33 22.6-11.3 27.5 7.6 70.7 12.2 79.2h-.1c26.3 48.8 106.3 93.9 109.7 95.8a8 8 0 0 0 9.1-.6 8 8 0 0 0 3.2-8.6zm-74.6 53.3-.4-.7c-4.2-7.4-19.8-46.7-10.1-65.7Q143 48 157 46.5h1.4c8.1 0 16.6 10 24 18.8 8.4 9.9 16.4 19.2 26.8 18.6l26.2 118.7c-24.5-15.6-69.3-47.1-86.5-79m462.5-91.4C593.8 30 581 45 571 56.8c-3.9 4.7-10.5 12.4-12.9 12.8l-1-.9a8 8 0 0 0-8.4-2.2 8 8 0 0 0-5.9 6.3l-32.6 147.8a8 8 0 0 0 3.2 8.5 8 8 0 0 0 9.1.6c3.4-1.9 83.4-46.9 109.7-95.7h-.1c4.7-8.7 23.5-51.2 12.2-79-3.7-9.3-12.5-20.8-32.8-22.8m6.3 93-.5.8c-17 31.8-62 63.4-86.4 79L557 86.4h.8c10.2 0 17.9-9.1 26-18.7 7.5-8.9 16-18.9 24-18.9l1.7.2q13.6 1.3 18.4 10.7c9.6 19-6 58.1-10.2 65.5"/><path d="m652.8 12.4-.4-.2A57 57 0 0 0 616.5.8c-18.2 0-35.8 6.4-45.5 10.6a8 8 0 0 0-3.1-2C551.9 3 513 0 449 0c-99 0-227.3 7.6-248.6 9A63 63 0 0 0 164.9.1c-9 0-16.7 1-20.5 1.6l-1.7.2-1.8.3Q86.3 16.9 77.8 56.9c-8 38.6 20.4 79.4 28.7 89.2 16.9 34.7 91.6 83 151.7 117.6l1.5.9c9.5 15 33.5 42.6 55.5 67.5l9.7 11.1c39 52.5-.9 101.4-1 101.6l-1 1a16 16 0 0 0-4.9 11.7c.3 5.3 3.4 9 6.2 11.6-25.1 41.2-52.6 46-53.8 46.1a8 8 0 0 0-7 6.5l-1.6 8.7h-24.2a32 32 0 0 0-23.7 9.3c-5.9 6-9 14.7-8.7 24.2.2 7.4 0 173.2 0 174.3q-.2 11.6 6.4 18.4 7.5 7.8 23.4 8l92.8.1h199.4a32 32 0 0 0 23.7-9.4c5.9-6 9-14.6 8.7-24.2-.2-5.5-.1-165 0-174.3.1-11.8-4.9-26-29.8-26.4H503c-.7-4.2-2.2-8.7-6.2-11.4l-.7-.4c-34.6-19.2-49-40-54.1-49.7a16 16 0 0 0 3.2-5 20 20 0 0 0-1.4-16l-1-1.4c-30.3-34.5-29.7-73 1.8-111.5l.5-.6c12.4-6 30.2-27.3 58.3-69.6l2-3c13.1-9.7 57.6-36.3 81.8-50.8l19.1-11.6a140 140 0 0 0 56.1-59.4l.4-.8c17-22.7 24-57.3 24-57.7 5.8-29.5-6.3-54-34-69m-110 544.3c0 1.4-.3 168 0 175a16 16 0 0 1-4 11.9 16 16 0 0 1-11.6 4.2h-292c-5.7-.1-9.8-1.1-11.5-3q-1.7-1.6-1.6-6.3c0-1.2.2-167.6 0-175a16 16 0 0 1 4-12q4-4.2 11.5-4.3H268l1.8.2h225.6l2-.2h32.1c13.4.3 13.3 4.7 13.2 9.5M670.4 78.3c0 .3-7 32-21.3 51.2l-.3.5q-.5.5-1.2 2.1a123 123 0 0 1-50.7 53.3c-1.4 1-9.7 5.9-18.3 11.1-27 16.2-72.1 43.2-84.5 52.8l-1.8 1.8-3 4.4c-36 54.2-48.4 62.8-52 64a8 8 0 0 0-4.6 3.5l-1.1 1.3C395 369 394.3 416 429.4 456.5l.2 1-.6.2a8.4 8.4 0 0 0-5.7 10.2c2.6 9.3 18.2 38 59.6 62.4H279c12.1-3.8 39.8-16.8 63.2-58.7a8 8 0 0 0-.7-9.2q-2-2.4-4.2-4.3l-1.6-1.4c10-10.6 45.4-66.2 2.5-123.7l-10.4-12c-15-17.1-46.3-52.7-54.8-67a9 9 0 0 0-2.9-2.8l-3.5-2c-81.5-47-134.5-87.5-145.3-111.2a9 9 0 0 0-2-2.8c-4.6-4.7-33.2-45.1-24.4-77.5q7.6-27.5 49.7-39l2-.3c3.7-.5 10.5-1.4 18.3-1.4 12.4 0 22 2.5 27.7 7q2.5 2 5.8 2c1.4-.1 143.3-9.2 250.7-9.2 69 0 97.9 3.7 109.6 7.2l1.2 2.4a8 8 0 0 0 5 4.1 8 8 0 0 0 6.5-.6c.2-.1 22.8-12.2 45.1-12.2q15.8 0 25.8 8 1 .8 2.5 1.5c21 11.4 30 29 25.7 51.1"/><path d="M309.2 244.6a8.4 8.4 0 0 0-12.9 10.9l48.6 57.8c.3.3 28.4 32 29.5 60a8.4 8.4 0 0 0 8.4 8.2h.3a8.4 8.4 0 0 0 8-8.8c-1.2-34.1-32.3-69.1-33.5-70.4zM286 564.8h-21.6c-3.8-.6-9.2.2-14 4q-10.5 8.7-9.6 32.3c1.3 31 0 98.7 0 99.4 0 4.7 3.6 8.5 8.3 8.6h.1a8.4 8.4 0 0 0 8.4-8.3c.1-2.8 1.4-69 0-100.4-.5-14 2.7-17.8 3.4-18.4q.4-.5.9-.6c.7.3.8.2 1.8.2H286a8.4 8.4 0 1 0 0-16.8"/></svg>