<svg xmlns="http://www.w3.org/2000/svg" viewBox="0 0 1024 1024"><path d="M502.6 200c-54.7 41.9-140.8 75.8-216.4 85.1-8.1 1-10.6 1.7-12.2 3.4-2 2.2-2.1 3.7-2.6 75.4-.6 97.9.7 116.6 11.2 158.5 24.6 98.2 85.7 178.7 190.4 250.8 28.9 19.9 36.5 24.8 38.8 24.8 2.6 0 7.5-3.1 31.2-19.4 58.8-40.5 102.4-80 133.1-120.6 31.6-41.7 53.8-88 65.9-137.5 4.1-16.7 4.9-21.3 7.5-40.7 2.9-22.4 3.5-40.7 3.5-114.1v-73.9l-2.7-2.7c-2.5-2.4-4.1-2.9-16.8-4.5-71.7-9-155.8-42.6-213.4-84.9-3.5-2.6-7.4-4.7-8.7-4.7-1.2 0-5.2 2.3-8.8 5m23.4 12.7c36.1 25.5 89 50.3 138.5 64.8 22 6.5 56.2 13.7 72.5 15.3l7.5.7.3 76.5c.4 88.1-.3 101-6.4 132.5-12 60.9-40.1 118.3-82.7 168.7-12.2 14.5-40.5 42.3-57.2 56.2-18.2 15.1-43.6 34-66.4 49.5-10.7 7.3-19.8 13.3-20.2 13.4-.7.2-37-24.7-53.4-36.7-37.3-27.3-75.8-63.4-99.8-93.6-30.2-38-53.4-83.4-66.6-130.8-11.9-42.4-13.3-60.1-12.9-161.7l.3-74 8-.7c14.5-1.3 46.7-8.1 72-15.3 25-7 60.6-21 86.5-34 21.3-10.6 49-27.7 60.3-37.1l5.2-4.3 3 2.3c1.6 1.3 6.8 5 11.5 8.3"/><path d="M491.3 240C436 273.1 377.8 295.8 317 308c-8.5 1.8-16.1 3.7-16.8 4.3-1.1.9-1.3 15.1-.9 78.6.3 73.1.5 78.4 2.5 91.1 2.8 18.1 3.7 22.5 7.2 36 21.5 82.2 69.1 149.8 148.4 210.6 24.3 18.6 51.6 37.4 54.4 37.4 3.5 0 49.4-32.2 67.6-47.4 53-44.3 85.7-83.8 110.5-133.3 18.5-37.2 30.1-77.6 34.2-119.8 1.5-16 1.8-150.9.3-152.9-.6-.8-5.8-2.3-12.5-3.6-34.7-6.5-71.5-17.7-108.9-33.1-22-9-61.3-29.5-82.6-43-3.3-2.2-7.1-3.9-8.5-3.9-1.3 0-10.6 5-20.6 11m32.2 3.5c54.9 33.3 118.8 58.9 177.2 71 6.7 1.4 13.3 2.5 14.7 2.5h2.6v64.4c0 79.9-1 94.3-8.7 127.6-18.8 81.6-66.3 150.8-146.4 213-12.3 9.6-20.1 15.1-37.2 26.8l-13.9 9.4-13.1-8.8c-112-75.5-172.2-159.5-188.6-263.4-3.7-23.5-4.2-36.9-3.9-103.9l.3-64.4 14-2.7c35.8-7.1 76.8-20.4 116.5-38 19.5-8.6 52.5-26.3 68-36.5 5.6-3.7 6.8-4.1 8.5-3.1 1.1.7 5.6 3.4 10 6.1"/></svg>