<svg xmlns="http://www.w3.org/2000/svg" viewBox="0 0 1024 1024"><path d="M251.6 228.6c-1.4 1.4-1.6 21.5-1.6 206.4 0 112.7.3 205.5.6 206.4.6 1.4 8 1.6 74 1.6 64.7 0 73.5-.2 74-1.5.4-.8.1-2.2-.6-3-1.1-1.3-10.6-1.5-71.6-1.5H256v-50l19.1-.2c16.4-.3 19.3-.5 20.2-1.9.6-.9.7-2.4.4-3.3-.6-1.4-3-1.6-20.2-1.6H256l.2-26.3.3-26.2 19.5-.5c17.7-.5 19.5-.7 19.8-2.3.8-4.3-.9-4.6-20.6-4.4l-18.7.2-.3-26.2-.2-26.3 19.7-.2c19.5-.3 19.8-.3 20.1-2.5.6-4-2.6-4.6-21.7-4.2l-17.6.4-.3-27.3-.2-27.2h19.5c17.2 0 19.6-.2 20.2-1.6.3-.9.2-2.4-.4-3.3-.9-1.4-3.8-1.6-20.2-1.9L256 400v-53h19.5c17.2 0 19.6-.2 20.2-1.6.3-.9.2-2.4-.4-3.3-.9-1.4-3.8-1.6-20.2-1.9L256 340l.2-26.3.3-26.2 18.3-.1c10-.1 18.9-.4 19.7-.8 1.7-.6 2-4.2.4-5.2-.6-.3-9.6-.6-20-.5l-18.9.2V233h358v48l-20.2.2-20.3.3v5l20 .6c11 .3 20.1.6 20.3.7.1.1.2 11.9.2 26.2v26h-18.8c-14.8 0-19.2.3-20.8 1.4-1.5 1.2-1.7 1.8-.8 3.3 1 1.6 3.1 1.8 20.7 2.1l19.5.2.4 7.5.3 7.5h-102c-56.1 0-102.6.4-103.3.8-1 .7-1.2 42.9-1.2 215.1 0 117.8.2 214.7.5 215.2.4.5 70.6.9 182 .9 164.4 0 181.3-.1 181.9-1.6.3-.9.6-97.3.6-214.4 0-192.2-.2-213-1.6-214.4s-9.7-1.6-76.5-1.6H620v-66.3c0-50.2-.3-66.6-1.2-67.5s-43-1.2-183.4-1.2c-164.4 0-182.4.2-183.8 1.6m512.2 140 2.2.6V788H414V368h173.8c95.5 0 174.7.3 176 .6"/><path d="M450.3 394.2c-.4.7-.8 11.6-.8 24.1 0 19.1.3 22.9 1.5 23.7 1.9 1.2 2.1 1.2 4 0 1.2-.8 1.6-4.8 1.8-23.5.4-23.6.1-25.5-3.9-25.5-1 0-2.1.6-2.6 1.2m96.9-.4c-.9.7-1.2 6.2-1 24.3l.3 23.4 2.4.3c1.3.2 2.8-.2 3.2-1 1.4-2.2 1.1-45.2-.3-46.6s-2.8-1.5-4.6-.4m95.2.5c-.2.7-.3 11.6-.2 24.2l.3 23h5l.8-22c.5-14.6.5-22.7-.2-24.2-1.1-2.5-4.8-3.1-5.7-1m95.1-.1c-.3.7-.4 11.7-.3 24.3l.3 23h5v-48l-2.3-.3c-1.2-.2-2.4.3-2.7 1m-256.2 20.4c-.3.9-.2 2.4.4 3.3.9 1.4 3.4 1.6 19.9 1.3 10.4-.1 19.3-.7 19.7-1.1.5-.5.6-1.8.2-3-.6-2-1.2-2.1-20.1-2.1-17.1 0-19.5.2-20.1 1.6m96 0c-.3.9-.2 2.4.3 3.2.8 1.3 4.1 1.5 19.8 1.5 11.5 0 19.1-.4 19.8-1.1.5-.5.7-1.9.3-3.1-.6-2-1.2-2.1-20.1-2.1-17.1 0-19.5.2-20.1 1.6m95 0c-.3.9-.2 2.4.4 3.3.9 1.4 3.4 1.5 19.9 1.3 10.4-.2 19.3-.7 19.7-1.2.5-.4.7-1.6.5-2.6-.3-1.8-1.7-1.9-20.1-2.2-17.6-.2-19.8-.1-20.4 1.4m-174.1 30.6c-.9.9-1.2 7.3-1.2 24.4 0 24.8.3 26.4 5 24.9 2-.6 2-1.1 1.8-25.3-.3-23.9-.4-24.7-2.3-25-1.1-.1-2.6.3-3.3 1m96 0c-.9.9-1.2 7.3-1.2 24.4 0 19.9.2 23.3 1.6 24.5 1.1.9 2 1 3.2.2 1.5-.9 1.7-3.7 1.7-25.4 0-23.7-.1-24.4-2-24.7-1.1-.1-2.6.3-3.3 1m95.5-.5c-.4.3-.7 11.5-.7 24.9 0 20.6.2 24.3 1.5 24.8 3.7 1.4 4.2-.1 4.8-15.6 1-21.3.9-30.6-.3-32.9-1-1.9-4-2.6-5.3-1.2M434 468.5c-.7.8-1 2.2-.6 3 .5 1.3 3.3 1.5 19.8 1.3l19.3-.3v-5l-18.6-.3c-15.6-.2-18.8 0-19.9 1.3m95.4 0c-.4.8-.4 2.2 0 3 .4 1.3 3.6 1.5 19.5 1.5 11.7 0 19.2-.4 19.6-1 .3-.6.3-1.9 0-3-.6-1.9-1.5-2-19.6-2-15.9 0-19.1.2-19.5 1.5m95.7-.1c-.6.7-.9 2.1-.5 3 .5 1.4 3 1.6 19.9 1.6s19.4-.2 19.9-1.6c1.5-3.9-.8-4.4-19.9-4.4-14.3 0-18.5.3-19.4 1.4m95.1.3c-2.1 4-.8 4.3 18.8 4.3 15.4 0 19-.3 20-1.5s1-1.8 0-3-4.5-1.5-19.6-1.5c-16.4 0-18.4.2-19.2 1.7m-270.1 33.2c-1.6 2.9-1.5 46.3.1 47.9 1.5 1.5 4.5 1.5 5.4 0 1.1-1.7 1.6-40.6.6-45.3-.9-4.6-4.3-6.1-6.1-2.6m96.3-.7c-1.4 2.2-1.8 45.2-.5 47.6 1.4 2.7 4.7 2.8 6.1.3 1.5-2.9 1.4-46.3-.2-47.9-1.5-1.5-4.5-1.5-5.4 0m95.8 0c-.9.9-1.2 7.3-1.2 24.4 0 24.8.3 26.4 5 24.9 2-.6 2-1.1 1.8-25.3-.3-23.9-.4-24.7-2.3-25-1.1-.1-2.6.3-3.3 1m95.3 0c-.3.7-.4 12.1-.3 25.3l.3 24h5v-50l-2.3-.3c-1.2-.2-2.4.3-2.7 1m-255.2 21.5c-.7.2-1.3 1.5-1.3 2.9 0 3.3 1.6 3.5 21.9 3.2 14.9-.3 17.5-.5 18.4-2 .8-1.2.7-2.1-.2-3.2-1.1-1.4-4.1-1.6-19.5-1.5-9.9 0-18.7.3-19.3.6m94.8 1.2c-.7 1.3-.7 2.3.2 3.5 1.1 1.4 3.4 1.6 20.1 1.4 16.3-.3 19-.5 19.9-2 .8-1.2.7-2.1-.2-3.2-1.1-1.4-4.2-1.6-20.2-1.6-17.3 0-18.9.1-19.8 1.9m96.1-.7c-1.9 1.9-1.4 4.7 1.1 5.3 1.2.3 10 .4 19.6.3 14.7-.3 17.5-.5 18.4-1.9.6-.9.7-2.4.4-3.3-.6-1.4-3-1.6-19.5-1.6-13.3 0-19.2.4-20 1.2m-175 32c-.9.9-1.2 7.2-1.2 23.9 0 24 .3 25.6 4.7 24.7 1.7-.3 1.8-2 1.8-24.8 0-23.8-.1-24.5-2-24.8-1.1-.1-2.6.3-3.3 1m95.3 0c-.3.7-.4 11.9-.3 24.8l.3 23.5h6v-49l-2.8-.3c-1.6-.2-2.9.2-3.2 1m95.9.1c-.2.7-.3 11.8-.2 24.7l.3 23.5h5l.8-23.3c.9-24.5.7-26.2-3.5-26.2-1 0-2.1.6-2.4 1.3m-256 23.2c-.4.8-.4 2.2 0 3 .5 1.3 3.3 1.5 19.8 1.3l19.3-.3v-5l-19.3-.3c-16.5-.2-19.3 0-19.8 1.3m96 0c-.4.8-.4 2.2 0 3 .4 1.3 3.6 1.5 19.5 1.5 11.7 0 19.2-.4 19.6-1 .3-.6.3-1.9 0-3-.6-1.9-1.5-2-19.6-2-15.9 0-19.1.2-19.5 1.5m95.7-.1c-.6.7-.8 2.1-.5 3 .6 1.5 2.8 1.6 19.8 1.4l19.1-.3v-5l-18.6-.3c-15-.2-18.8 0-19.8 1.2m94.6.5c-1 3.9.2 4.2 19.9 3.9l18.9-.3v-5l-19.1-.3c-18.1-.2-19.2-.1-19.7 1.7m-269.5 31.3c-.9.9-1.2 7.6-1.2 23.9 0 19.4.2 23 1.6 24.3 1.7 1.8 2.4 1.9 4.2.8 1.8-1.2 3-44.8 1.3-48-1.3-2.4-4-2.9-5.9-1m96 0c-.9.9-1.2 7.6-1.2 23.9 0 19.4.2 23 1.6 24.3 1.8 1.8 2.3 1.9 4.4.6 1.2-.8 1.6-4.8 1.8-24 .3-23.9 0-26-3.7-26-.9 0-2.2.5-2.9 1.2m96 0c-.9.9-1.2 7.3-1.2 24.5 0 21.6.1 23.3 1.9 24.2 1.3.7 2.3.7 3.5-.2 1.5-1.1 1.6-3.8 1.4-25.2-.3-23.2-.4-24-2.3-24.3-1.1-.1-2.6.3-3.3 1m95.5-.6c-.4.4-.7 11.6-.7 25 0 20.6.2 24.3 1.5 24.8.8.3 2.2.3 3 0 1.3-.5 1.5-4 1.3-25.3-.3-23.9-.4-24.6-2.3-24.9-1.2-.2-2.4 0-2.8.4M482 632.5c-.6.8-1 2.2-.8 3.2.3 1.7 1.8 1.8 19.7 1.8 17 0 19.5-.2 20.4-1.7.8-1.2.7-2.1-.2-3.2-1.9-2.3-37.2-2.4-39.1-.1m97.3-.8c-2.6.5-3.8 3-2.2 4.9 1.5 1.9 37.9 2 39.7.2 1.6-1.6 1.5-2.3-.4-4.3-1.4-1.3-4.1-1.5-18.3-1.4-9.1.2-17.6.4-18.8.6m93.7.8c-.6.8-1 2.2-.8 3.2.3 1.7 1.9 1.8 20.3 1.8s20-.1 20.3-1.8c.8-4.3-1-4.7-20.3-4.7-14.7 0-18.5.3-19.5 1.5m-174.2 31.6c-1.6.9-1.8 3.1-1.8 23.9 0 19.8.2 23.1 1.6 24.5.9.9 2.3 1.4 3.1 1.1s1.7-.6 1.9-.6.4-11 .4-24.4c0-21.3-.2-24.5-1.6-25-1.9-.7-1.5-.8-3.6.5m95.4.1c-.9.9-1.2 7.7-1.2 24.4 0 19.9.2 23.3 1.6 24.5 1.1.9 2 1 3.2.2 1.5-.9 1.7-3.8 2-24.3.2-23.2-.1-26-3.2-26-.7 0-1.7.5-2.4 1.2m96.1-.5c-1 .3-1.3 6.3-1.3 24.8 0 20.7.2 24.4 1.5 24.9 3.5 1.3 4.2-.3 4.8-11.7 1.2-20.8.9-35.4-.9-37.1-1.6-1.7-2.1-1.8-4.1-.9M434 687.5c-.7.8-1 2.1-.7 2.9.5 1.1 4.3 1.5 18.9 1.8 10.1.2 18.9.2 19.6 0 .8-.3 1.2-1.6 1-3.1l-.3-2.6-18.6-.3c-15.6-.2-18.8 0-19.9 1.3m95.7-.9c-.4.4-.7 1.7-.7 3 0 2.2.1 2.2 18.8 2.6 11 .2 19.2 0 20-.6.7-.5 1.2-1.9 1-3-.3-2-.9-2.1-19.4-2.4-10.4-.1-19.3.1-19.7.4m95.4 1.2c-2 3.7-.2 4.1 19.3 4.2 19.6.2 22.2-.3 20-3.8-1-1.5-3.4-1.7-19.7-2-17.2-.2-18.7-.1-19.6 1.6m95.6-1.1c-.4.3-.7 1.7-.7 3v2.3h19.4c17 0 19.5-.2 20-1.6 1.5-3.9-.8-4.4-19.9-4.4-10 0-18.5.3-18.8.7m-270.6 32.7c-.8.9-1.1 8.2-.9 24.1.3 20.4.5 22.9 2.1 23.9 1.2.8 2.2.8 3.5 0 1.5-1 1.7-3.4 2-23.3.1-14.1-.1-22.9-.8-24.1-1.2-2.3-4.2-2.6-5.9-.6m95.9.6c-.7 1.2-.9 10-.8 24.1.3 19.9.5 22.3 2.1 23.3 1.2.8 2.2.8 3.5 0 1.5-1 1.7-3.4 2-23 .1-12 0-22.9-.3-24.2-.7-2.8-5-3-6.5-.2m95.5.2c-.3 1.3-.4 12.4-.3 24.8l.3 22.5h6v-49l-2.7-.3c-2.2-.3-2.9.2-3.3 2m96-1c-.3.7-.4 11.9-.3 24.8l.3 23.5h5v-49l-2.3-.3c-1.2-.2-2.4.3-2.7 1m-255.2 22.5c-.7.2-1.3 1.5-1.3 2.9 0 3.3 1.6 3.5 21.9 3.2 14.9-.3 17.5-.5 18.4-2 .8-1.2.7-2.1-.2-3.2-1.1-1.4-4.1-1.6-19.5-1.5-9.9 0-18.7.3-19.3.6m94.9.5c-1.8 1.8-1.5 3.6.7 4.8 2.4 1.2 36 1.4 37.9.1.8-.4 1.2-1.9 1-3.2l-.3-2.4-19-.3c-14-.2-19.4.1-20.3 1m95.1.4c-.3.9-.2 2.4.4 3.3.9 1.4 3.6 1.6 19.8 1.6 16.4 0 18.9-.2 19.8-1.7.8-1.2.7-2.1-.2-3.2-1.1-1.4-4.2-1.6-20.3-1.6-16.5 0-18.9.2-19.5 1.6M282.4 253.5c-.4.8-.4 2.2 0 3 .5 1.3 4.2 1.5 27.3 1.3l26.8-.3v-5l-26.8-.3c-23.1-.2-26.8 0-27.3 1.3m83 0c-.4.8-.4 2.2 0 3 .5 1.3 4.2 1.5 27.8 1.3l27.3-.3v-5l-27.3-.3c-23.6-.2-27.3 0-27.8 1.3m83.2 0c-.3.8-.3 2.2 0 3 .5 1.3 4.3 1.5 27.8 1.3l27.1-.3v-5l-27.1-.3c-23.5-.2-27.3 0-27.8 1.3m83.8 0c-.4.8-.4 2.2 0 3 .5 1.3 4.2 1.5 27.3 1.3l26.8-.3v-5l-26.8-.3c-23.1-.2-26.8 0-27.3 1.3m-208 29c-.4.8-.4 2.2 0 3 .5 1.3 4.2 1.5 27.8 1.3l27.3-.3v-5l-27.3-.3c-23.6-.2-27.3 0-27.8 1.3m83.1.5c-.3 1.1-.3 2.4 0 3 .4.6 10.3 1 26.9 1 22.2 0 26.6-.2 27.6-1.5 1-1.2 1-1.8 0-3-1-1.3-5.4-1.5-27.6-1.5-25.3 0-26.3.1-26.9 2m82.9-.5c-.4.8-.4 2.2 0 3 .5 1.3 4.2 1.5 27.8 1.3l27.3-.3v-5l-27.3-.3c-23.6-.2-27.3 0-27.8 1.3m-206.8 29.8c-1.3 1-1.6 2-1.2 3.5l.7 2.2 26.7-.2 26.7-.3.3-2.4c.2-1.3-.2-2.8-1-3.2-.7-.5-12.4-.9-25.9-.9-18.8 0-24.9.3-26.3 1.3m82.4.2c-.6.8-.9 2.3-.5 3.5.6 2 1.1 2 27.8 1.8l27.2-.3.3-2.4c.2-1.3-.2-2.8-1-3.2-.7-.5-12.8-.9-26.9-.9-21.2 0-25.9.3-26.9 1.5m82.9.1c-.9 1.1-1 2-.2 3.2.9 1.5 3.9 1.7 27.9 1.7h26.9l.3-2.4c.2-1.3-.2-2.8-1-3.2-.7-.5-12.8-.9-26.9-.9-22.2 0-25.8.2-27 1.6m84.7-.3c-1 .7-1.6 2.2-1.4 3.3.3 1.8 1.4 1.9 27.3 1.9 25.2 0 27-.1 27.3-1.8.9-4.4-.6-4.7-26.7-4.7-18.9 0-25.1.3-26.5 1.3m-209 29.3c-1.2 1.2-1.3 2-.6 3.5 1 1.8 2.4 1.9 27.4 1.9 22.8 0 26.5-.2 27.7-1.6.9-1.1 1-2 .2-3.2-.9-1.5-4-1.7-27.1-2-22.7-.2-26.2 0-27.6 1.4m83.8-.2c-1.5 1.2-1.7 1.8-.8 3.3 1 1.7 3.3 1.8 27.2 2.1 25 .2 26.2.1 27.2-1.7.7-1.5.6-2.3-.6-3.5-2.2-2.3-50-2.4-53-.2m82.8-.2c-1.9 1.9-1.4 4.7 1.1 5.3 1.2.3 13.4.4 27.1.3 21.9-.3 25-.5 25.9-2 .8-1.2.7-2.1-.2-3.2-1.2-1.4-4.8-1.6-27-1.6-18.7 0-26 .3-26.9 1.2m-208.5 30.5c-1.4 1.3-.6 4.3 1.3 5.3 1.2.7 10.7.9 26.6.8 21.4-.3 24.8-.5 25.7-1.9.6-.9.7-2.4.4-3.3-.6-1.4-3.5-1.6-27-1.6-14.5 0-26.7.3-27 .7m83.5.5c-1.9 1.9-1.4 3.8 1.4 4.8 1.4.6 8.8 1 16.4 1 12.3 0 14-.2 14.9-1.8.6-1.1.6-2.4 0-3.5-.9-1.5-2.9-1.7-16.2-1.7-10.6 0-15.7.4-16.5 1.2m-41.6 29.4c-1.2 1.2-1.3 2-.6 3.5 1 1.8 2.4 1.9 28 1.9 26.2 0 26.9-.1 27.5-2 1.5-4.7 0-5-27.6-5-22.1 0-26 .2-27.3 1.6m-37.1 30.3c-4.5.5-5 .8-5 3.1v2.5h54V435c0-2.4-.3-2.5-8.5-3.2-10.3-.7-33.6-.7-40.5.1m78 1.1c-.3.6-.3 1.9 0 3 .6 1.9 1.5 2 17 2 9.9 0 16.6-.4 17-1 .3-.6.3-1.9 0-3-.6-1.9-1.5-2-17-2-9.9 0-16.6.4-17 1m-38.6 29c-1.7.4-2.4 1.3-2.4 3v2.5l26.6.3c23.4.2 26.8 0 28-1.4.9-1.1 1-2 .2-3.2-.9-1.5-3.8-1.7-25.5-1.7-13.5 0-25.6.2-26.9.5m-44.5 30.5c-1.5 3.7.2 4.5 9.8 4.6 5.1 0 16.1.3 24.5.5 16.9.4 20.6-.3 20.1-3.9l-.3-2.2-26.8-.3c-23.1-.2-26.8 0-27.3 1.3m83.8-.6c-.8.5-1.2 1.7-1 2.7.3 1.8 1.6 1.9 16.7 2.2 17.2.3 19-.2 17-4-.9-1.6-2.5-1.8-16.2-1.8-8.4 0-15.8.4-16.5.9m-39.2 29c-1.8.5-2.5 1.4-2.5 3.1v2.5l27.2.3 27.2.2.7-2.2c1.4-4.4-1.1-4.8-26.5-4.7-13 .1-24.7.4-26.1.8m-44.1 31.7c-.9 1.1-1 2-.2 3.2.9 1.5 3.9 1.7 25.4 2 13.4.1 25.4 0 26.7-.3 2.6-.6 3.1-4.9.6-5.9-.9-.3-12.7-.6-26.4-.6-21.4 0-24.9.2-26.1 1.6m83 0c-.9 1.1-1 2-.2 3.2.9 1.5 3.3 1.7 16.5 2 12.6.2 15.7 0 16.7-1.2.9-1.1 1-2 .1-3.5-1-2-1.9-2.1-16.4-2.1-12.8 0-15.6.3-16.7 1.6m-41.2 28.1c-1.3 1.2-.7 5.1.9 5.7.9.3 12.7.6 26.4.6 21.3 0 25.1-.2 26.4-1.6 1.9-1.9 2-2.6.4-4.2-.9-.9-8.3-1.2-27.3-1.2-14.4 0-26.5.3-26.8.7m-41.4 30c-1.8.7-1.6 5 .3 5.7.9.3 12.5.6 25.9.6s25-.3 25.9-.6 1.6-1.6 1.6-2.9-.7-2.6-1.6-2.9c-1.9-.7-50.3-.7-52.1.1m82.6.9c-.9 1.1-1 2-.2 3.2.9 1.5 3.3 1.7 16.5 2 12.6.2 15.7 0 16.7-1.2.9-1.1 1-2 .1-3.5-1-2-1.9-2.1-16.4-2.1-12.8 0-15.6.3-16.7 1.6"/></svg>