<svg xmlns="http://www.w3.org/2000/svg" viewBox="0 0 512 512"><path d="M501.2 340.6H277.5l40-40 118.2-118.2a8.5 8.5 0 0 0 0-12L339.4 74a8.5 8.5 0 0 0-12 0L209 192.3l-40 40V8.4a8.5 8.5 0 0 0-8.5-8.5H24.4A8.5 8.5 0 0 0 16 8.5v359.8a95 95 0 0 0-13.6 49 94.9 94.9 0 0 0 150.5 76.6h348.4a8.5 8.5 0 0 0 8.5-8.6V349.1a8.5 8.5 0 0 0-8.5-8.5zM333.4 92l84.2 84.3-81 81-84.3-84.2zM32.9 17h119.2v114.6H33zm0 131.6h119.2v100.5L138 263.4H33zm0 131.7h88l-44.2 44.3a95 95 0 0 0-43.8 22.8zm111.9 198.2a77.9 77.9 0 0 1-125.5-61.4 78 78 0 0 1 12.3-41.9 78 78 0 0 1 51-34.5 78 78 0 0 1 14.5-1.4 77 77 0 0 1 47.7 16.4 78 78 0 0 1 9.6 8.8 78 78 0 0 1 20.4 52.6l-.2 5.2a78 78 0 0 1-29.8 56.2m84.5-1.8h-58.6a95 95 0 0 0 20.7-50l29.2-29.3 8.7-8.7zm-20.8-91.3-17.7 17.7a95 95 0 0 0-23.9-50 96 96 0 0 0-11.7-10.8 94 94 0 0 0-52.4-19.8l44.3-44.3 7.5 7.5 69.3 69.3 7.5 7.5zM236 343l-69.2-69.3-7.5-7.5 7.5-7.5 54.5-54.5 19-19 84.3 84.2-19 19-54.5 54.6-7.6 7.5zm125 133.8H246.4v-105l3-3.2 11.1-11H361zm131.7 0H378.1V357.6h114.6z"/><path d="M97 358.7a58.5 58.5 0 1 0 .2 117.1 58.5 58.5 0 0 0-.1-117m0 99.8a41.5 41.5 0 1 1 0-83 41.5 41.5 0 0 1 0 83"/><path d="M97 383.7a8.5 8.5 0 0 0 0 17c9.1 0 16.5 7.4 16.5 16.5a8.5 8.5 0 0 0 17 0c0-18.5-15-33.5-33.4-33.5"/></svg>