<svg xmlns="http://www.w3.org/2000/svg" viewBox="0 0 1024 1024"><path d="m157.8 232-2.3 1.8-.3 229.1C155 691.1 155 692 157 694s3.1 2 228.9 2c151.6 0 227.2-.3 227.6-1 .3-.6.3-1.9 0-3-.6-2-1.8-2-223.8-2H166.5l9.5-9.5 9.5-9.5h205.1c181.1 0 205.3-.2 206.4-1.5 1-1.2 1-1.8 0-3-1.1-1.3-25.1-1.5-205.1-1.5H188V262h527v54.4c0 50.6.1 54.4 1.7 55 4.2 1.6 4.3-.1 4.3-57.4v-54.5l9.3-9.3c5.1-5 9.6-9.2 10-9.2s.8 28 .9 62.2c.3 60 .4 62.3 2.2 62.6 1 .2 2.2-.2 2.7-1 .5-.7.9-30.1.9-65.3 0-61.6-.1-64.1-2-66.5l-1.9-2.5-291.5-.2c-283.2-.2-291.6-.2-293.8 1.7m568.7 14-10 10H185.9l-9.4-9.1c-5.2-5.1-9.5-9.6-9.5-10 0-.5 128.1-.9 284.7-.9h284.8zM182 463.6v203.1l-10.1 9.7c-5.5 5.3-10.2 9.6-10.5 9.6-.2 0-.4-100.5-.4-223.2V239.5l10.5 10.5 10.5 10.5z"/><path d="M227.4 297.9c-7 4.3-6.4-10.5-6.4 165.4 0 174.6-.4 162.6 6.2 166 3.1 1.7 13.6 1.8 178.3 1.5l175-.3v-5l-175.3-.5c-172.1-.5-175.4-.5-176.8-2.4-1.2-1.7-1.4-25-1.4-159.3 0-156 0-157.3 2-159.3s3.3-2 222-2 220 0 222 2c1.9 1.9 2 3.3 2 43.9 0 36 .2 42 1.5 43.1 1.2 1 1.8 1 3 0 1.4-1.1 1.5-6.7 1.3-44.6l-.3-43.4-3.3-3.2-3.2-3.3-221.8-.3c-216.9-.2-221.8-.2-224.8 1.7"/><path d="M553.8 340.9c-5.7 1.2-14.6 7.1-18.7 12.6-5.4 7.1-7.4 12.7-7.4 21 0 20.9 20.9 38.4 41.1 34.5 21.2-4 34.2-23.5 28.8-43.3-5-18.3-23.4-28.7-43.8-24.8m20.9 7.1c6.2 2.8 13.9 10.4 16 15.8 3.8 10 1.6 21.4-5.6 29.4-6.3 7-12.5 9.8-22 9.8-8.3 0-12.8-1.7-19.4-7-6-5.1-8.9-11-9.5-19.5-.4-6.4-.1-8 2.2-13.1 3.9-8.6 8.2-12.6 17.1-16.1 4.9-1.9 16.4-1.5 21.2.7m155.7 34.3c-7.7 5.3-19.2 12.1-27.4 16.2-27.3 13.7-66.3 25.9-97.5 30.4-10.9 1.6-14.4 2.5-16 4.1-2 2-2 2.9-2 74.8 0 71 .1 73 2.2 84.7 6.6 35.1 17.6 61.5 37.7 90 18.9 26.8 45.5 51.4 74.6 68.7 13.3 8 33.1 17.8 35.8 17.8 3.3 0 26.7-11.7 39.7-19.8 17-10.6 31.8-22.4 46-36.7 29.1-29.1 48.8-62.8 59.1-101.2 6-22.7 6.4-28.1 6.4-106.2l.1-69.4-2.2-2.3c-1.4-1.5-3.9-2.5-6.8-2.9-49.8-6.8-98.4-24-133.1-47.2-3.6-2.4-7.7-4.3-9.1-4.3-1.5 0-4.9 1.5-7.5 3.3m19.8 9.8c24.4 15.4 54.9 28 86.8 36 10.7 2.6 42.3 8.9 45.1 8.9.5 0 .9 28.4.9 69.2 0 53.8-.4 71.6-1.4 79.8-4.9 36.5-20.8 73-44.9 103-21.7 27.1-49.5 49.4-82.8 66.5l-15.6 7.9-8.4-3.8c-11.7-5.3-35.5-19.6-47.2-28.4-19.3-14.6-40.9-37.3-54-57-6.8-10.2-17-30-22-42.7-4.7-11.7-10.5-34.3-12.3-47.5-1-8.1-1.4-25.8-1.4-78.2 0-76.6-.9-69 8.5-70.2 32-4.3 75.4-17.3 101-30.3 10.8-5.5 25.6-14 30-17.2 2.2-1.6 4.6-3 5.2-3 .7-.1 6.3 3.1 12.5 7"/><path d="M733 406.1c-15.1 9.4-50.6 24.7-73.9 31.8-11.6 3.6-43.1 11.1-46.4 11.1-.8 0-2.1.8-3 1.8-1.5 1.7-1.7 7.3-1.7 60.3 0 33 .5 62.3 1 67.4 5 43.5 25.2 85 58.4 119.3 13.1 13.6 34.9 29.9 54.1 40.6 15.8 8.8 16.5 8.8 26.2 3.5 11.2-6.1 24.1-13.7 29.3-17.2 21.1-14.4 45.1-38.7 59-59.6 10.7-16.1 21.2-39.8 26-58.5 6.1-23.7 6.1-24.8 6.7-91.6.4-58.6.4-61.7-1.4-63.7-1.4-1.5-5.2-2.7-16.1-4.7-20.7-4-46.7-11.8-67.2-20.2-10.2-4.2-34.8-16.4-39.2-19.5-4.2-3-7.8-3.3-11.8-.8m11.8 7.8c26.1 15.2 65.3 29.9 99.7 37.5 6.6 1.5 13.4 3 15 3.4l3 .8.3 53.4c.3 56-.3 68.6-4 86-10.7 50.7-43.1 96.9-89 127.2-15.6 10.3-30.5 18-33.2 17.2-2.3-.7-17.1-8.7-25.1-13.6-8.6-5.2-24.6-17.8-34-26.7-27.1-25.9-44-52.4-55.3-87.1-7.3-22.5-8.2-32.9-8.2-100.1 0-43.4.3-55.9 1.3-56.6.6-.6 6.2-2 12.2-3.2 33.5-6.7 79.7-23.7 104-38.4 3.3-2 6.1-3.6 6.3-3.7.2 0 3.4 1.7 7 3.9m-350.5-5.6c-1.2.7-12 10.9-24 22.8-12 11.8-45 43.9-73.3 71.3-63.1 61-65.3 63.2-64.8 64.8.9 2.5 3.9 1.9 7.6-1.3 2-1.8 18.1-17.2 35.7-34.3 17.6-17.2 45.7-44.4 62.4-60.6s37-35.9 45-43.7c11.8-11.5 15.1-14.2 17.5-14.3 2.4 0 5.9 3 22 18.8 16.6 16.4 51 49.9 55.7 54.2.8.8 13.3 13.1 27.7 27.2 14.4 14.2 26.8 25.8 27.6 25.8.9 0 2-.8 2.5-1.8.8-1.6-2.9-5.7-25.5-27.7-14.6-14.1-26.4-26.1-26.2-26.6s6.7-6.9 14.6-14.4c10.8-10.2 14.9-13.5 16.9-13.5 2.5 0 16.2 12.4 49.5 44.8 10 9.7 12 11.3 13.3 10.2 2.2-1.8 1.8-3.8-1.3-6.8-14.3-13.7-26.1-25.1-39.3-37.9-22.1-21.4-21.4-21.3-43.2-.8l-15.2 14.3-5-4.6c-2.7-2.5-18.9-18.1-36-34.7-17-16.6-32-30.7-33.2-31.3-2.8-1.5-8.2-1.5-11 .1"/></svg>