<svg xmlns="http://www.w3.org/2000/svg" viewBox="0 0 804 804"><path d="M246 420c0 36 12 56 27 67s36 13 53 13c0 0 1 1 1 2-1-4-4-11-7-19-3-6-7-14-9-22-13-6-39-21-56-43-11-16-17-35-20-53-4-17-5-33-5-42-1-14 6-33 10-42-1-5-4-13-6-21-3-10-4-29 3-47 6-12 15-24 30-31 29-14 38-4 50 8 5 4 11 10 25 9 27-1 32-20 32-20 3-8 11-13 20-11 3 1 5 3 7 5 7 7 15 13 25 15 9 2 20 1 31-3 7-3 16 0 19 7 13 22 21 37 26 54 4 18 5 37 1 66-2 21-3 39-4 57-2 39-3 74-20 117 5-1 10-2 13-4 7-3 12-8 17-15 4-7 7-15 8-25 4-22 0-47-7-64-4-8-1-17 7-21h1c23-10 39-31 47-57 5-16 7-33 6-50 0-18-4-35-10-50-11-26-29-47-55-56-3-1-6-2-8-4-6-7-13-13-21-19-33-26-77-39-120-39a178 178 0 0 0-141 70c-1 2-4 4-6 5-20 9-36 25-46 45-7 15-11 32-12 49-1 16 2 33 9 48 8 18 22 34 43 45 6 3 9 9 9 15 0 7 1 37 24 47 5 2 9 8 9 14M772 32H32v603c1-1 2-2 3-4 19-22 39-37 52-44 1-2 1-3 2-4 13-28 33-50 59-60 7-3 15-5 23-5 14-40 36-60 46-67-1-7-2-14-2-21-26-17-32-47-34-63-23-14-39-33-49-56-9-19-12-41-11-62 0-21 6-42 15-61 13-25 32-46 58-58q9-13.5 21-24c40-37 91-55 142-55 50-1 100 15 139 45 8 6 16 12 23 19 34 13 58 40 71 73a179 179 0 0 1 5 121c-9 30-26 55-51 70 6 21 8 46 5 69-2 11-6 21-11 31 11 17 27 42 38 77 1 5 3 10 4 15l63 22c8 0 27-1 43 0 15 1 38 8 62 33 8 8 16 19 24 32zM32 697v75h49l1-10c-10-27-14-58-14-88 1-12 2-24 4-36-4 4-9 9-13 14-10 12-20 27-27 45m81 75h74c-12-35-22-72-27-108-5-39-6-77 1-112h-1c-18 7-32 23-43 44-10 23-16 50-17 79-1 27 3 55 13 79 0 2 1 5 1 7zm107 0h89c-19-29-41-68-58-109-23-56-37-118-20-169 0-1 1-3 2-4-2-2-3-5-5-8-9 9-21 25-30 53 0 2-1 3-2 5-1 5-2 11-4 17-6 33-6 67-1 103 6 37 16 76 29 112m127 0h23c19-41 39-88 56-134 15-41 28-82 37-119-14 16-37 24-61 26-22 2-47-1-63-9-4-1-7-3-9-4h-4c-21 0-46-3-68-17-9 41 3 90 22 136 20 48 47 92 67 121m58 0h126c5-12 10-25 14-38 5-16 8-32 11-49 6-48 0-88-10-120-9-26-20-46-29-61-4 3-7 5-11 7l-10 3c-8 42-23 88-40 135-16 42-34 84-51 123m160 0h29c9-17 19-32 28-44 14-17 27-28 39-32 8-3 17 1 20 9 3 9-1 18-9 21-7 2-15 10-25 21-6 8-11 16-17 25h142v-35l-3-12c-1-5-3-9-5-13-13-31-26-51-39-64-17-18-32-23-42-24-18-1-40 1-40 1-3 0-6 0-9-1l-47-17c4 24 4 52 0 82-3 19-7 37-12 55-3 9-6 19-10 28M16 0h772c9 0 16 7 16 16v772c0 9-7 16-16 16H16c-9 0-16-7-16-16V16C0 7 7 0 16 0m343 510c11 4 26 5 41 4 16-2 31-7 39-15 1-2 2-3 2-4v-1h1c22-48 24-84 26-127 1-18 2-37 4-59v-4l-35 4-5 9 2 7c8 26 22 71 7 88-18 19-29 16-53 10-2-1-5-1-11-3-8-2-13-10-11-19 2-8 10-14 19-12 2 1 6 2 11 3 11 3 16 5 21 0 3-4-7-38-13-57-2-7-3-12-4-15-1-4-1-9 1-12l12-22c3-4 7-7 13-8l48-4c0-7-1-13-3-19-3-11-8-21-16-36-12 3-25 3-36 1-9-3-18-6-26-11-9 10-24 22-50 23-27 1-38-10-48-19-3-3-6-6-15-2-7 4-11 9-13 15-4 10-4 21-3 26 4 13 8 29 8 29 1 3 0 7-1 10 0 0-10 20-10 32 1 7 2 21 5 37 3 14 7 29 15 40 16 23 49 36 49 36 4 2 7 6 8 10 3 9 7 18 11 26 5 13 10 24 10 34zm10-227c8 1 14 10 12 18-1 9-10 14-18 13l-37-7c-3 1-8 4-12 10-5 6-15 7-22 1-7-5-8-15-2-22 10-12 22-18 26-20 3-2 7-2 11-1z"/></svg>