<svg xmlns="http://www.w3.org/2000/svg" viewBox="0 0 460.9 460.9"><path d="m460.8 405.2-50.2-221a6 6 0 0 0-5.9-4.7H361L409.8 80a15 15 0 0 0-6.8-20l-20.4-10a15 15 0 0 0-20 6.8l-60.2 122.7H67.7a6 6 0 0 0-5.8 4.7l-21.1 93a33 33 0 0 1-22-13 33 33 0 0 1-5.5-29.2l25-87.3a33.5 33.5 0 0 1 32-24.1h157A45 45 0 0 0 270.2 93l2.4-7.1a6 6 0 1 0-11.3-4l-2.5 7.2a33 33 0 0 1-31.5 22.5h-157c-20 0-38 13.5-43.5 32.8l-25 87.3a45 45 0 0 0 7.4 39.8A45 45 0 0 0 38 288.9L11.7 405.1a6 6 0 0 0 5.8 7.4H455a6 6 0 0 0 5.9-7.4M97 317.5H43.8l14.8-65H108zm30-105h159.2l-30.4 61.8a26 26 0 0 0-1.3 20 26 26 0 0 0 7.8 11.5l-4.9 10a6 6 0 0 0 10.8 5.3l4.8-9.7q3 .8 6.4.8a26 26 0 0 0 8.5-1.4q10.3-3.6 15.1-13.3l41.8-85h33.8l28.9 158H100zM373.5 62a3 3 0 0 1 3.9-1.3l20.4 10a3 3 0 0 1 1.3 4L292.3 292.1a14 14 0 0 1-8.2 7.2 14 14 0 0 1-11-.7 14 14 0 0 1-6.5-19.1zm-301 129.5h224l-4.4 9H122a6 6 0 0 0-6 5l-6 35H61.4zM25 400.5l16.2-71h53.7l-7.9 46a6 6 0 0 0 6 7h321.7a6 6 0 0 0 5.9-7.1l-31.1-170a6 6 0 0 0-6-5h-32.8l4.4-9h44.8l47.5 209z"/></svg>