<svg xmlns="http://www.w3.org/2000/svg" viewBox="0 0 896.3 896.3"><path d="M741.4 0 589.2 184.4a290 290 0 0 0-143-35.6c-51.5 0-100 12-142 36.2L155.4 0v463.3c-.8 12 0 24.4 0 37.3 0 177.2 72.3 329.3 175.7 394.8-58.2-75.1-108.7-156.7-85.3-235.9l148-6 47.4 38.5 58.2-38.6c97.4.7 143.3 2.7 143.3 2.7 6 49.7-2.6 158.5-85.8 240.2 104.1-65 177.9-217.7 177.9-395.7 0-12.5-.6-24.5-.6-36.3zM380.7 522.4c-14 5.6-45.3 24-59.8 28.6-14.6 4.4-34.7 7.2-42.5 0-7.9-7.3-33-31.4-38-37s-8.5-50.3 21.2-48c30.2 2.2 111.8 35.7 116.9 37.4 5 1.7 16.2 13.4 2.2 19M648 514c-5 5.6-30.2 29.7-38 37-8 7.2-28 4.4-42.6 0-14.5-4.5-45.8-23-59.8-28.6s-2.8-17.3 2.2-19 86.7-35.2 117-37.5c29.6-2.2 26.2 42.5 21.2 48.1"/></svg>