<svg xmlns="http://www.w3.org/2000/svg" viewBox="0 0 37.5 37.5"><path d="M9.1 0 6.5 4.5h5.2zM22 0l-2.6 4.5h5.1zm2.5 5.2h-5.1L22 9.7zm-12.8 0H6.5l2.6 4.5zm6.4 0H13l2.5 4.5zM15 10l-2.6-4.4L9.7 10zm6.4 0-2.6-4.4-2.5 4.4zm-5.1.8 2.5 4.4 2.6-4.4zm-3.9 4.4 2.6-4.4H9.7zm3.2-4L13 15.5h5zm0 9.6 2.6-4.5H13zm-.6.4-2.6-4.5-2.6 4.5zm3.8-4.5-2.5 4.5h5.1zm2.6 5.2h-5.1l2.5 4.5zm-9 4.5 2.6-4.5H9.7zm-3.2-4.1-2.6 4.4h5.2zm6.4 0L13 26.7h5zm3.9 4.4h5.1L22 22.3zM22 32l2.5-4.4h-5.1zm-9-4.4 2.5 4.4 2.6-4.4zm-6.5 0L9.1 32l2.6-4.4zm3.2 4.8H15l-2.6-4.5zm6.5 0h5.1l-2.6-4.5zm2.6 5.2 2.5-4.5h-5.1zm-6.5 0L15 33H9.7zm16.1-26.4-2.6 4.5H31zm0 9.7 2.6-4.5h-5.2zm-3.2 5.6 2.6-4.5h-5.2z"/></svg>