<svg xmlns="http://www.w3.org/2000/svg" viewBox="0 0 1536 1536"><g transform="translate(256 0)"><path d="M484.3 302.9c-35.8 6.5-65.5 25.6-81.4 52.1-2.1 3.6-6 12-8.7 18.6-2.7 6.8-7.4 16.1-10.8 21.5-7.4 11.4-8.6 13.7-11.5 21.9-2 5.8-2.3 9.1-2.9 31.5l-.7 25-3.6 11c-6.3 19.2-6.7 28.7-2 45.9 2.1 7.8 2.1 22.7-.1 32.6-2.4 10.8-3.1 22.5-1.7 30.6.7 3.8 3.7 14.3 6.8 23.4 5.4 16 5.5 16.7 5 24.6-.3 4.4-1.9 13.4-3.6 20.1-1.7 6.6-3.6 16.5-4.2 21.9-.6 5.5-1.1 9.9-1.2 10-16.6 9.5-43.9 33.3-58.8 51.4-14.1 16.9-24.5 37.5-37.8 74.7-14.4 40.5-24.6 58.3-42.8 75-25.8 23.6-39 39.4-45.8 54.7-5.9 13.3-7.8 22.1-7.9 36.6-.1 15.7 1.4 22.8 7.5 35.8 9.2 19.9 23.7 34.1 46.4 45.4 17.1 8.6 34.7 13.1 55.6 14.4l11.7.7-3.9 8.2c-4.9 10.4-6.2 16.5-5.7 26.9.3 7.1.7 9 3.3 13.2 1.9 3 5 6.1 8 8.1 2.8 1.7 6 4.2 7.3 5.5 7.7 7.7 14.3 16 15.7 19.6 4.4 10.9 16.6 14.4 24.9 7.2 3.5-3.1 5.6-7.3 8-16 1-3.7 3.1-7.4 6.3-11.3 7.8-9.4 8.1-9.5 26.2-9.5 13.7 0 16.8-.3 25.5-2.6 5.5-1.4 12.7-3.9 16.2-5.5l6.2-2.9 5.8 2.8c10.9 5.1 19.2 7.3 27.9 7.3 7 .1 8.9-.3 15.3-3.3 6.7-3.1 7.7-3.3 10.5-2.1 13.4 5.2 18.5 6.5 26.2 6.5 6.6 0 9-.4 13.6-2.6 5.6-2.6 5.7-2.6 12.2-1 6 1.4 6.8 1.4 11.3-.3 2.7-.9 6-1.7 7.4-1.7s16.5.3 33.5.7c65.8 1.6 127.8-5.4 159.7-18 41-16.3 59.1-47.5 48.8-84.3-9.4-33.9-38.8-58.7-79.5-67.3-9.3-2-34.3-1.7-44.5.5-16.3 3.5-35.2 11.7-52.8 23-4 2.5-7.2 4.2-7.2 3.8 0-3.1 6.8-27.4 10.6-37.9 18.1-50.2 53.1-86.6 94.4-98.2 9.7-2.7 12.1-5.7 8.4-10.9-2.1-3.1-6.6-2.9-17.5.8-37.6 12.6-67.8 41.3-88.9 84.5-9.5 19.4-18 47.8-20.5 68.6-.4 3.1-1 6.1-1.3 6.6-.7 1.1-30.9 8.8-56.6 14.4-14.3 3.2-15.1 3.2-24 2.1-10.4-1.3-18.2-4.1-27.8-10-20.4-12.6-47.7-22.8-91.1-34.1-8.7-2.3-19.1-4.7-23.3-5.3l-7.4-1.2-7-13.7c-11.7-22.9-18.9-42.6-22.7-61.4-2.8-13.9-2.5-46.7.6-63.8 2.4-13.9 8.4-35.4 13.2-47.6 4.2-10.7 14.1-31.1 15-31.1.4 0 1.1 1 1.4 2.2 1.3 3.8 17.5 19.6 25.4 24.7 27.4 17.5 62 26.6 109.3 28.7l14.7.6-10.2 11.7c-28.8 32.8-49.9 64.3-70 104.6-11.2 22.5-15.9 33.8-15.5 37.2.7 6.2 9.5 6.6 12 .6 10.5-24.7 26.7-55.6 40.5-77.6C530.5 801.3 609.4 737 678 720c12.2-3 32.3-3.8 42.2-1.6 13.7 3.1 28.9 11.9 40 23.3 4.3 4.4 17.1 22.4 16.4 23-.2.2-3.4-.8-7.1-2.2-15-5.7-25.8-7.6-45-8.2-15.6-.5-19.9-.3-31.5 1.7-48.5 7.9-95.7 29.5-141 64.4-25.9 20-53 46.4-53 51.7 0 2.6 3.5 5.9 6.3 5.9 1.5 0 7.1-4.8 18-15.4 49.4-48.3 100.7-78.2 156.7-91.5 19.6-4.6 48.3-5.6 65.7-2.2 10.8 2.1 24.7 6.8 33.4 11.1 5 2.6 6 3.6 9.2 9.8 3.7 6.9 10.9 27.7 18.6 53.2 13.8 46.2 29.2 115.4 35.5 160.4 2.6 18.3 3.1 19.6 8.8 19.6 1.8 0 3.3-.8 4.3-2.4 1.5-2.2 1.5-3.8-.5-18.6-8-61.9-32.3-160.2-52.5-212-8.9-23-16.8-37.2-28.8-51.8-6-7.4-13.3-13.6-32.6-27.8-24.2-17.8-42.1-39-56-66.4-9.9-19.5-13-29.6-15.6-52-.9-7.4-3.1-22.3-5-33-5.1-29.7-9-55-14.5-94.4-2.8-19.8-6.4-41.6-8.1-48.4-7.4-30.1-20.5-55.7-38.3-74.9-16.9-18.1-37.5-30-63.9-36.9-14-3.6-40-4.3-55.4-1.5m46.3 12.6c51.7 10.6 84.9 46.3 99.5 107 1 4.4 4.8 28.2 8.5 53 3.6 24.7 7.6 51.3 8.9 59s3.8 21.9 5.4 31.5c3.8 22.1 4.6 37.3 3.2 57-2.3 31.3-8.7 61.6-19.2 91l-3 8.5-10.7 5.7c-5.9 3.2-13.1 7.1-16 8.8l-5.2 3.1-1-2.6c-1.7-4.4-1.1-10.5 1.6-18.4 3.2-9.3 2.8-15.9-1.5-25.9-4.5-10.5-4.6-11.7-1-22.8 4.9-15.4 4-20.8-6.6-40.4-4-7.2-3.8-4-1.9-33.5.5-9 .3-11.5-2.6-24-5.3-23.7-6-44.7-3.1-92.5 1-15.3-.1-37.8-2.5-52-3.4-20.3-12.4-41.3-23.5-54.8-7.7-9.3-15.2-15.2-26.4-20.7-10.8-5.3-20.2-7.9-35.3-9.5-11.9-1.3-14.2-2.4-14.2-6.5 0-7.1 8.9-22 13.7-22.8 5.1-.9 24.8.2 32.9 1.8m-53.6 3.1c0 .3-2.5 5.5-5.6 11.6-6.4 12.4-5.9 12-21.3 16.3-12.3 3.4-23.9 8.9-32.4 15.3l-6.8 5.2 2.7-5.1c6.8-12.5 20.9-25.5 36.5-33.8 11.8-6.3 26.9-11.7 26.9-9.5m17.6 36.5c17.6 2.4 24.1 4.1 33 8.5 13.9 6.9 24.6 17.8 32.2 33 7.8 15.7 11.4 30.2 13.4 54.1 1 11.9.9 18.6-.5 42-1 15.3-1.7 30.7-1.7 34.1 0 17.6-21 40.3-50.4 54.3-11.3 5.4-27.1 9.9-34.5 9.9-6.7 0-15.5-2.5-23.5-6.8-8.2-4.3-24.9-20.1-31.3-29.7-15.2-22.5-22.6-49.6-24-87.8l-.6-17.7h3.6c2.4 0 5.4-1.1 8.9-3.4 6.8-4.3 11.6-5.8 18.6-5.9 8 0 13.6 3.3 17.2 10.2 3.4 6.7 3 24.9-1.1 45-3.3 16.2-2.1 21.4 6.2 26 4.9 2.8 10.4 2.5 21.3-1.1 7.7-2.6 9.6-4.9 7-8.7-2-2.7-4.2-2.7-13.7.5-7.3 2.4-7.9 2.5-10.2 1-3.2-2.1-3.2-5.7-.3-21.4 1.5-8.2 2.2-15.7 2.2-25.3l.1-13.6-3.5-6.8c-3.8-7.4-9.7-12.5-16.8-14.5-9.5-2.6-22.7-.1-33.4 6.4-3.4 2.1-6 3.1-6.4 2.5-.3-.6-.6-7.4-.6-15.2-.1-24.5 4.7-38.2 17.3-50.1 8.3-7.8 17.2-12.3 33-16.5 7.1-1.9 12.9-4.1 15.4-5.9 4-2.8 4-2.8 6.6-.9 1.8 1.3 6.8 2.4 16.5 3.8m-100.9 73.5c.5 54.7 3.4 79.6 11.9 103.6 8.6 24.1 26.5 47.2 46.9 60.5 3.9 2.5 7.2 4.7 7.4 4.9 1 .9 5.1 31.1 5.1 37.8 0 3.3-.4 3.8-7.6 8.3-27.6 17.3-53.2 39.8-73.3 64.1-3.2 3.9-4.7 5-5.5 4.2-.7-.7-1.1-6.8-1.1-17.3 0-15.6.1-16.8 3.9-31.2 3.3-12.7 3.9-16.5 3.9-25-.1-10.5-.3-11.5-8.4-34-4.3-12.2-4.9-23.4-2-39.9 2.7-15.5 2.6-23.7-.5-39.3-3.2-15.9-2.9-21.2 2.6-38.6 4.9-15.9 6-24.2 5-39.1-1.3-18.1.5-26.9 7.9-38.9 2-3.1 3.6-5.7 3.6-5.7s.1 11.5.2 25.6m184.8 156.2c1 5.7 1.1 9 .2 15-.6 4.2-1.1 12-1.2 17.3v9.6l6.3 12.4c7.3 14.4 7.7 17.9 3.7 29.1-3.7 10.1-3.4 16.9 1 26.9 4.1 9.4 4.4 13.7 1.4 22.9-2.5 7.7-2.8 17.3-.6 24.3l1.5 4.7-13.1 9.9c-7.3 5.4-19.7 15.6-27.7 22.6l-14.5 12.8-22.5-.6c-23.9-.7-35.9-2-55.8-6.2-27.6-5.8-50.5-16.8-64.7-31-6.4-6.4-12.1-17-11.1-20.8.7-2.6 11.4-17 18.5-24.7l5-5.5v4c.1 2.2-1.3 7.8-2.9 12.5-4.3 12.3-3.8 15 2.6 15 2.5 0 3.8-.7 5.4-3 4.8-6.7 7.9-20.6 8-34.8 0-6.9.2-7.5 3.3-10.4 10.8-10.1 42-32.8 45.2-32.8.9 0 1.5.9 1.5 2.2 0 5.3 6.2 7.6 10.1 3.7 2.3-2.3 2.3-5.2-.7-31.4-.8-7.2-1.8-15.9-2.1-19.5l-.6-6.5 9.9.3c16.3.5 34.5-5.2 53.9-16.9 11-6.6 23.3-16.7 29.1-23.8l4.9-6 2.3 10.7c1.3 5.9 2.9 14 3.7 18m94.1 63.3c9.3 18.6 21.6 36.2 34.4 49.5l5.9 6.1-12.7.6c-12.9.7-25.2 3.1-41.5 8.2-4.3 1.4-8 2.5-8.2 2.5s.7-3.5 2.1-7.8c6.4-20.6 10.6-38.9 13.5-59.5.7-4.8 1.4-8.7 1.6-8.7.1 0 2.3 4.1 4.9 9.1m-306.2 69.1c.9 4.6 1.6 9.2 1.6 10.2 0 1.1-3.1 7.6-6.9 14.5-14.6 26.6-25.3 56.7-30.7 86.6-2.2 12.3-3 42.7-1.4 55.2 2.6 21 9.4 42.2 21.3 66.3 3.9 8 7.3 14.8 7.5 15.2.2.5-.6.8-1.8.8s-4.7-2-7.8-4.4c-23.8-18.2-56.1-27.2-84.8-23.6-17.1 2.1-29.6 7.2-41.1 16.6-3.5 2.9-4.3 4.2-4.3 6.8 0 6.9 6.8 8.1 12.8 2.3 4-3.9 14.1-9 22.4-11.3 7.6-2.2 30-3 39.5-1.4 14.8 2.3 33.3 9.6 41.7 16.3l2.9 2.4-7.9 4.3c-5.6 3-10.3 6.7-16.4 12.9-9.2 9.3-12.9 15.5-15.6 26.1-4.2 16.6 1.8 37.4 13 45.1 2 1.3 3.6 2.6 3.6 2.9s-1.8 1.8-4 3.3c-4.3 3-13.9 4.7-27.6 4.7-14.8 0-38.1-5.8-52.6-13.1-27.6-13.9-45-37.9-46.5-64.4-1.5-25.7 9-48.3 33.1-71.5 26.8-25.8 30.3-29.6 36.9-39.6 7.7-11.6 15.1-27.5 23.7-50.6 10.3-27.7 14.1-36.9 19.2-47.3 10.9-21.9 25.5-39.7 48.8-59.6 6.9-5.9 17.9-13.9 19-13.9.4 0 1.5 3.7 2.4 8.2m360.7 257.1c35.2 9.1 59.6 33.8 64 64.7 3.2 22.2-7.1 41.7-28.2 53.7-13.1 7.5-36.7 14.3-64.9 18.7-26.6 4.2-87.1 7.4-116.1 6.2l-17.6-.8-.6-4.8c-.7-5.7-2.5-9.6-6.8-14.4l-3-3.5 5.3.5c9.8.9 16.8-5.3 16.8-14.8 0-6.3-2.2-10.4-10.8-20.3-6.6-7.7-11.2-12-25.1-23.5-4.5-3.8-6-5.5-5-6 1.2-.6 8.4-2.3 31.4-7.1 2.8-.6 16.3-3.8 30-7.1 35.6-8.5 43.2-9.8 64-10.4 16.2-.6 19-.4 28 1.6 18.3 4.1 20.5 3.8 20.5-2.5 0-4.2-.8-4.8-10.6-7.8-17.9-5.6-39.8-6-65.9-1.1-2.6.5-2.3.1 2.4-3.2 6.9-4.7 23.3-12.5 33.3-15.8 18.4-6.2 40.6-7 58.9-2.3m-350.8 5.2c20.9 3.1 64.7 15.9 86.3 25.1 18 7.7 51.7 26.8 66.3 37.7 10.5 7.7 28.2 24.8 32.5 31.4 1.6 2.3 2.6 5.1 2.4 6.5-.2 1.9-.9 2.3-3.6 2.1-4.7-.2-11.8-3.9-30-15.7-15.2-9.9-27.5-18.7-42.7-31-7.6-6.1-11-6.9-14-3.6-2.9 3.2-.8 6 11.2 14.3 19.9 13.8 33.3 26.1 55.7 51.1 10.4 11.7 12.5 15.6 10.1 19.2-3.2 4.9-7.5 3.2-22.3-8.9-12.5-10.2-35.4-27.5-53.9-40.5-12.5-8.9-18-12.2-20.1-12.2-3.7 0-5.4 2-5 5.7.2 2.2 1.9 3.9 8.2 8.3 9.6 6.6 57.7 42.6 62.5 46.7 4.2 3.6 3.7 5.9-1.3 6.9-11.1 2-35.9-10.2-69.6-34.4-9.4-6.7-13.8-9.2-15.9-9.2-3.5 0-5.6 2.9-4.7 6.3.6 2.5 19.9 17.2 34.5 26.4 5.2 3.3 9.6 6.4 9.8 7 1 2.9-12.1 3.5-20.9.9-7.8-2.3-20.6-9.1-34.8-18.7-6.9-4.6-16.4-10.8-21.2-13.7-12.6-7.6-22.5-15.9-32.9-27.7-5-5.7-10.3-10.8-11.8-11.5-2.1-.8-4.9-.6-13.1 1-5.8 1.1-11.8 2-13.5 2-5.1 0-9-3.3-12.6-10.6-3-6-3.3-7.5-3.3-15.8 0-13 2.4-18.6 12.3-28.7 5.9-6 9.5-8.7 15.2-11.4 13.4-6.3 23.3-7.6 40.2-5m-18.4 92.3c12.3 12.6 18 17.1 35 27.6 14.4 8.9 23.1 14.8 23.1 15.7 0 1-8.2 3.8-16 5.5-5.3 1.1-11.7 1.4-22 1.2-12.7-.3-14.9-.1-18 1.6-5.5 3-9.7 6.7-14.4 12.6-5.5 6.9-7.9 12-9.5 19.3-1.5 7.1-4.1 9.1-6.7 5.2-1.3-2-1.6-4.3-1.2-11.4.5-10.5 2.4-14.9 12.9-29.1 5.5-7.5 6.9-10.1 6.7-12.5-.3-3.3-3.7-5.6-6.8-4.8-1.9.5-14.7 17.3-19.3 25.3-1.4 2.5-3.1 6.5-3.8 9s-1.5 4.9-1.9 5.3c-1.6 1.8-4-6.3-4-13.1 0-9.8 3.9-16.7 18.9-33.6 6.6-7.5 7.6-10.9 4.1-14.1-3.2-2.9-6.3-1.2-14.5 8.3-13.6 15.6-20.5 27.7-20.5 36 0 2.1-.2 2.3-1.6 1.1-7-5.8-5.4-23 3.4-36.5 4.2-6.4 13.3-15.4 19.8-19.8 6-3.9 19.4-9.6 22.8-9.6 2.5 0 4.8 1.9 13.5 10.8"/><path d="M505.3 430.4c-11.6 2.9-19.7 9.2-17.4 13.5 1.6 3 5 2.7 12.4-1.1 5.1-2.6 7.6-3.2 14.7-3.6 8.7-.4 11.2.2 27 6.3 5.5 2.2 9.6 1.5 11.2-2 1.4-3.2-.3-7.5-3-7.5-1.1 0-6.1-1.4-11.2-3-11.1-3.7-25.3-4.8-33.7-2.6M431.2 446c-4.9 1-13.3 5.4-15.9 8.2-1.3 1.5-1.5 2.3-.7 3.6 1.6 2.5 4 2.6 9.4.3 6.2-2.7 7-2.6 7 .4 0 6.8 9.8 10 14.5 4.9 1.4-1.5 2.5-3.1 2.5-3.6 0-.4 1-.6 2.3-.3 1.5.4 2.8.1 3.6-.9 1.1-1.3 1-2.1-.6-4.8-3.6-6.2-13.2-9.5-22.1-7.8"/><path d="M509 445.9c-8.1 2.6-14.4 7.6-13.8 10.8.5 2.5 4 2.8 8.5.5 7-3.6 8.3-3.7 8.3-.7 0 3.7 1.6 6.2 5 8 4.9 2.5 7.9 1.9 12.2-2.6 3.7-3.8 4-4 8.3-3.3 4.7.7 7.5-.5 7.5-3.3 0-.8-3.8-3.2-8.7-5.6-7.8-3.7-9.7-4.2-16.8-4.4-4.4-.1-9.1.1-10.5.6m-7.4 84.7c-4.2 2.3-20 5.4-27.6 5.4-3.5 0-10.3-1-15.2-2.1-9.6-2.4-11.8-1.9-11.8 2.8 0 2.8 5.3 5.5 15 7.4 16.5 3.2 48-3.6 48-10.4 0-4.6-3.3-5.8-8.4-3.1m-36.4 23.6c-3.7 3.7 1.5 7.2 10.9 7.2 7.9-.1 12.2-2.2 11.7-5.7-.3-2.1-.9-2.2-10.8-2.5-7.3-.2-10.9.1-11.8 1"/></g></svg>