<svg xmlns="http://www.w3.org/2000/svg" viewBox="0 0 512 512"><path d="m506.8 268.2-146-87.6 18.3-11.6c3-2 4.9-5.4 4.9-9s-1.9-7-5-9L261.8 76.3a11 11 0 0 0-11.4 0L132.9 151c-3 2-4.9 5.4-4.9 9s1.9 7 5 9l18.2 11.6-146 87.6a11 11 0 0 0-5.2 9 11 11 0 0 0 5.1 9.2l245.4 149.4a11 11 0 0 0 5.5 1.5 11 11 0 0 0 5.6-1.5l245.3-149.4a11 11 0 0 0 5.1-9.1 11 11 0 0 0-5.2-9.1M256 98l97.5 62-97.5 62-97.5-62zm-84.7 95.4 79 50.3a11 11 0 0 0 11.4 0l79-50.3 14 8.4-98.7 62.9-98.8-62.9zm-140 84L136.8 214l99.3 63.2L136 341.1zM256 414.2l-99.7-60.8L256 290l99.7 63.4zM376 341l-100-63.7 99.3-63.2 105.5 63.3z"/></svg>