<svg xmlns="http://www.w3.org/2000/svg" viewBox="0 0 122 169"><path d="M70 117 25 91h-1L9 82l11 41 8 5-4-17c-1-1 0-2 0-2l3-7c1-2 3-3 4-2 1 0 2 1 2 1l5 9 1-1c1-2 3-3 4-2 1 0 1 1 2 1l5 9 1-1c0-2 2-3 4-2 1 0 1 1 1 1l9 14s0 1 1 1l3 12 3 11 9 5zm-36 21h-2v-1l-17-9c-1-1-1-1-1-2L0 76v-3c1-1 3-2 5-1l18 10V14c0-3 1-7 4-10 3-2 6-4 10-4h4c1 1 2 1 2 2l70 39c1 1 3 2 5 4s4 6 4 10v42c0 2-2 3-4 3h-1L99 90v70c0 2 0 3-1 3l-10 5c-1 1-2 1-3 0l-18-10-2-2-2-11-20-12-8 4v1zm1-8 6-3c1-1 3-1 4 0l15 9-1-4-5-8v1l-2 2c-1 1-3 0-4-1l-6-9v1c0 1-1 1-2 2s-3 0-4-1l-5-9h-1zm64-48 16 9V55c0-2-1-4-2-6-2-1-4-2-6-2s-4 1-5 2q-3 3-3 6zm2-40L40 7h-3c-2 0-4 1-5 2-2 1-3 3-3 5v72l46 26c1 1 1 1 1 2l13 47 4-3V55c0-4 1-8 4-10 1-1 2-2 4-3"/></svg>