<svg xmlns="http://www.w3.org/2000/svg" viewBox="0 0 2240 2240"><g transform="translate(160 0)"><path d="M1140.5.7c-26.6 1.8-56.2 8.3-77 16.8-16.6 6.7-27.2 12.5-44 23.8-13.1 8.8-36.2 30.5-47.5 44.7-3.7 4.7-8.2 9.5-9.9 10.8-1.8 1.3-9.1 3.8-17.8 6.1-25.9 6.8-29.6 7.8-40.8 11.9-27.7 9.9-48.1 20.2-69.5 35.2-5 3.6-13.2 10.3-23.2 19.2-4.8 4.3-9.6 7.8-10.7 7.8-2.1 0-26.5 4.7-41.1 8-12.3 2.7-54.2 15.6-63.5 19.5-33.4 14.1-66 31.3-88.2 46.5-11 7.5-24.7 17.6-27.5 20.2-1.7 1.6-3.2 2.8-3.5 2.8-.8 0-9.5 7.3-21.3 17.9-27.3 24.4-56.8 57.5-75.7 85.1-1 1.4-2 2.7-2.4 3-1.5 1.2-17.1 25.9-25.3 40-11 19-25.4 46.9-31.3 61-11.4 27-14.2 37.8-14.3 54.6 0 12.6 1.4 18.7 6.6 28.1l3.4 6.1-4.6 8.9c-2.5 4.8-5.6 11.3-6.9 14.3-2.5 6-8.9 20.7-11 25.5-.7 1.6-2.3 5.7-3.5 9s-2.5 6.9-3 8c-.4 1.1-1.5 4-2.5 6.5s-2.1 5.4-2.5 6.5c-2 4.8-6 19.8-8 29.5-1.5 7.2-2.3 15.8-2.7 27.5-.5 17.2 0 22.2 4.2 46 3 16.9 4.4 28 4.5 34.7 0 7.6-3.8 31.4-7.5 46.3-13.6 55.2-17.2 80.3-18.2 124-1.1 49.5 3.8 94.1 16.3 149 3.5 15.6 9.4 38.1 11.8 45 .8 2.2 2.6 8 4.1 13 3.5 11.7 13.7 42.2 16.8 50.5 8.3 22.1 14.1 36.4 19.7 48.4 3.9 8.6 5.1 11.5 15.7 39.1 4.6 12.1 11.5 32.3 15.2 45 13.4 45 17.4 54.6 29.4 71.5 9.4 13.2 17.4 21 30.2 29.5 30.2 20.1 71.9 31.5 120 32.8 28.6.8 69.7-3.9 103.5-11.8l10.5-2.4 3.8 4.2c5.3 5.8 15.4 21.3 21.5 32.7 10.7 20.1 22.4 54.5 27.6 81.2l1.4 6.7-3.7 3.4c-17.8 16.9-43.5 50.9-59.3 78.7-5.3 9.2-18 34.2-21.4 42.2-7.6 17.4-17.9 48.5-23 69.1-4.3 17.4-4 16.5-6.2 27.2-2.7 12.8-2.6 12.7-11.6 26.5-7.4 11.3-14.2 22.6-22.1 36.4-10.7 19-29.4 58.5-35.8 76.1-6 16.1-14.6 43.2-17.6 55.5-1.2 4.7-2.8 11-3.6 14-.7 3-2.7 13.8-4.4 24-6 36.2-6.4 41.8-6.5 81l-.2 36.5-5.4 11c-3 6-5.8 11.2-6.1 11.5-.6.6-12.9 25.7-12.9 26.4 0 .2-1.6 3.9-3.5 8-5.9 12.7-4.2 19.8 4.9 21.3 3.3.5 4.1.2 7.2-2.8 1.9-1.8 3.4-3.7 3.4-4.2 0-1.6 20.4-43.6 27.3-56.2 1.9-3.3 5.3-9.6 7.7-14s5.4-9.8 6.7-12 2.8-5.2 3.4-6.7c.6-1.6 1.5-2.8 2-2.8s.9-.5.9-1.2c0-1.3 3.7-7.2 16.9-27.3 4.7-7.1 8.8-13.4 9-14 1-2.5 23.1-33.8 25.1-35.5.3-.3 1.7-2.1 3-4s2.7-3.7 3-4 1.9-2.3 3.5-4.5c4.9-6.7 20.3-25.2 24.5-29.4 1.4-1.4 3.9-4.4 5.5-6.6 3.6-5 45.6-47 50.9-51 5.6-4.2 10.6-8.5 14.2-12 1.7-1.6 3.8-3.5 4.7-4 .8-.6 6.8-5.1 13.4-10 11.6-8.9 24.8-17.9 38.8-26.5 6.8-4.3 27.5-16 28-16 .2 0 5.9-2.7 12.7-5.9 30.8-14.7 70.1-26.9 98.8-30.5 1.9-.3 7.3-1.1 12-1.8 13.6-2.1 62.4-1.8 77.5.5 36 5.5 51.5 9.6 87.1 22.6 11.9 4.3 41.1 18.9 56.3 28.1 7.3 4.4 13.7 8 14.1 8 .5 0 1 .4 1.2.8.2.5 4.6 3.8 9.8 7.3 31.1 21.1 62.7 48.6 93.5 81.4 1.1 1.2 4.5 5 7.5 8.5s6.9 7.8 8.5 9.5c1.7 1.8 6.4 7.4 10.5 12.5s9 11 10.8 13c1.7 2.1 3.2 4.1 3.2 4.5s2.2 3.3 4.8 6.4c2.7 3.1 8.6 11 13.2 17.6s8.7 12.2 9 12.5c.7.7 2.9 4.2 3.7 6 .4.8.9 1.7 1.3 2 .6.5 7.4 10.8 15.5 23.5 1.8 2.7 6 9.7 9.4 15.5 3.5 5.8 6.8 11.4 7.4 12.5 5 8.4 9 15.4 16.5 29.5 3.8 7 10.9 21.3 21.6 43.2 3.8 7.9 7.8 14.6 9.3 15.8 5.7 4.5 13.3 1.2 14.7-6.5.7-3.7-1.3-8.5-18.8-43.5-10.4-20.7-14.1-27.6-22.1-41.5-3-5.3-5.5-10-5.5-10.5 0-.6-.4-1-.9-1s-1.3-1-1.7-2.3c-.4-1.2-.9-2.4-1.3-2.7-.3-.3-1.7-2.5-3-5-1.4-2.5-3.1-5.1-3.8-5.8s-1.3-1.8-1.3-2.3-.5-1.5-1-2.2c-.6-.7-7.5-10.9-15.3-22.7-15.6-23.6-20.3-30.2-25.7-37-2-2.5-5.2-6.8-7-9.5-1.9-2.8-3.9-5.5-4.5-6.1-.5-.6-2.1-2.6-3.5-4.4s-2.9-3.8-3.5-4.4c-.5-.6-2.8-3.4-4.9-6.1-2.2-2.8-6-7.3-8.5-10-2.6-2.8-7.1-7.9-10.1-11.5-5.4-6.5-41.1-42.5-50.5-51-2.8-2.5-7.9-7-11.5-10s-7.9-6.8-9.7-8.4-4.5-3.8-6.1-5c-1.6-1.1-6.3-4.6-10.3-7.7-10.8-8.1-35.7-24.6-48.4-32.1-27.6-16.2-69-34-94.5-40.7-41.5-10.9-81.9-15-119.5-12.2-39 2.9-81.4 13.1-117.2 28.1-8.5 3.6-35 16.5-39.3 19.1-.8.5-5.3 3.1-10 5.8-13.1 7.5-20.7 12.2-31 19.5-5.2 3.7-10.6 7.5-11.9 8.4s-3.8 2.9-5.5 4.3-6 4.7-9.6 7.4c-14.3 10.8-31.3 26-50.4 45-18.4 18.3-28.2 28.8-39.5 42.4-2 2.4-6.3 7.7-9.6 11.6-7.8 9.4-14.4 17.9-18.3 23.5-7.2 10.3-18.1 25.6-19.2 26.7-1.4 1.6-18.6 27.7-22.1 33.5-6.5 10.8-8.5 13.8-9.1 13.8-1.3 0-.9-19.4.7-37.5 2.4-27.9 7-55.6 12.8-77.5 10.9-41.3 29.6-87.5 49.4-122.2 4.1-7.3 8.5-15.1 9.8-17.3 4.3-7.8 7.1-12.2 19.4-30.5 14.6-21.6 19.3-27.9 39-52 11.1-13.5 14-16.8 32-35.8 20.7-21.8 42.6-41.5 78.5-70.7 12-9.7 40.3-29.4 69.6-48.4 8.6-5.5 30.5-18.7 38.5-23.1 4.4-2.4 10-5.4 12.5-6.8 28.4-15.7 50-26.6 74.5-37.7 2.8-1.2 13.6-6.1 24-10.9 10.5-4.7 19.4-8.6 19.9-8.6.4 0 2.2-.6 3.9-1.4 1.8-.8 9.5-4 17.2-7.2 41.7-17 96.1-35.5 144-49 8.8-2.4 17.4-4.9 19-5.4 1.7-.6 7.7-2.1 13.5-3.4 5.8-1.4 18.2-4.3 27.5-6.5 14.7-3.5 33.2-7.4 45.5-9.6 59-10.6 84.8-13.5 132.1-15.1l19.5-.7 1.2 21.4c.7 11.8 1.7 33.1 2.2 47.4.6 14.3 1.4 34.1 2 44 .5 9.9 1.2 24.7 1.5 33 .3 8.2.8 18.1 1.1 22 .3 3.8 1.1 22.1 1.9 40.5s2.1 47.9 2.9 65.5c.9 17.6 2 42.3 2.6 55 .6 12.6 1.5 31.1 2 41 1.2 23.5 2.7 56.6 4 89 .6 14.3 1.5 34.1 2 44 2.6 50 3.1 59 4 71.5.5 7.4 1.4 24.1 2 37 1.5 34.7 1.9 39.4 4.1 45.7 5.9 17.1 18.2 25.7 44.9 31 11.7 2.4 39.8 2.3 53.5-.1 12.7-2.2 30-6.4 34.2-8.2 1.7-.8 3.6-1.4 4.2-1.4s2.7-.7 4.8-1.6 4.7-2 5.8-2.5c1.1-.4 4.5-1.8 7.5-3s7.4-3.5 9.8-5.1c2.4-1.5 4.5-2.8 4.8-2.8.7 0 6.2-4 12.4-8.9 11.1-8.9 18.8-18.2 23.6-28.6 2.7-5.7 2.8-6.9 3.1-23 .5-20.3 1.1-22.1 10.9-31.9 4.9-4.9 8.8-7.7 14.8-10.6 12.5-6 18.1-7 45.1-8 30.8-1.2 42.8-3.4 57.8-10.9 4.5-2.3 10.8-6.3 14-9.1 21.3-18.3 28.6-39 24.6-70-3.4-26.3-9.8-70-13.9-95-.6-3.6-2.8-17.5-5-31-9.1-56.7-12.2-76.3-14.5-90-4.4-26.6-8.5-50.4-11-63.5-2.7-14.6-7-38-11.5-62-5.9-32.1-13.3-69.6-20.4-103.5-1.9-9.1-4.8-23-6.5-31-1.6-8-3.2-15.6-3.5-17-.4-2.3-2.1-10-9.2-43-1.4-6.3-2.9-13.5-3.4-16-1.2-6-10.9-48.3-15.9-69.5-2.2-9.4-5.9-24.9-8.1-34.5-5.3-23-11.1-46.6-17.8-73-6.9-27.4-6.9-27.4-8.6-34.5-1.6-7.1-9-35.2-11.5-44.5-1-3.6-2.8-10.1-4-14.5-7.6-28.3-20.1-73.5-23.4-84.5-2.8-9.1-6.9-23.6-11.2-39-1.5-5.2-3.5-12-4.5-15-2.7-8.3-11.3-35.5-17-54-2.8-9.1-11-34.1-18.1-55.5-30.5-91.7-28.2-82.8-32.4-127.5-4.5-47.3-8.7-82.8-12.5-104-1.2-6.3-2.5-14.2-3.1-17.4-.5-3.3-1.2-6.3-1.4-6.7-.3-.4-1.6-6.5-3.1-13.5-2.6-13.4-7.5-33.6-9.9-41.4-13.7-45.3-18.5-59.9-24.7-75.9-3.3-8.6-6.6-17.2-7.4-19.2-.7-2-2.5-6.2-3.9-9.5-1.5-3.2-3.3-7.3-4-8.9-.8-1.7-3.6-8-6.4-14.2l-5-11.2-1.1-24.8c-1.6-36.3-5.1-62.8-11.1-84.8-5.2-18.7-10.8-34.9-16.1-46.5-1.6-3.6-3.7-8.1-4.6-10-4.8-10.5-23.7-39.8-34.8-54-16-20.6-45.9-52.2-70.9-75.1-5.9-5.4-24.9-21-29.1-23.9-1.2-.8-7.1-4.9-13-9.1-16.8-11.9-43.1-26-60.9-32.9-3.3-1.2-6.9-2.6-8-3.1-3.2-1.3-20.2-6.6-30-9.3-13.3-3.7-41.7-9-66.8-12.7-22.3-3.2-58.2-4.6-79.2-3.2m58.5 20.7c36.9 3.5 73.3 10.7 104 20.8 14.5 4.7 45.9 19.8 60.5 29 24.3 15.3 48.6 35.2 75 61.3 11.9 11.8 31.9 34 39.5 44 1.4 1.8 5.2 6.8 8.6 11.1 23.5 30.4 38.8 61.7 48.8 99.4 2.1 8.1 3.2 13.3 6.2 31.2 1 5.9 3.4 28.5 3.3 31.3v3l-1.9-2.5c-1.1-1.4-5.9-7.9-10.8-14.5-10.8-14.5-22.9-27.5-32.6-34.9-7.2-5.5-22.6-13.8-28.1-15.2-1.7-.4-3.4-1-4-1.3-2.3-1.6-11.7-3.2-24-4l-13-1-8-8.8c-30.8-34.1-67.9-66.4-99-86.3-3.8-2.5-7.6-5.1-8.4-5.8-.7-.7-2.9-2.2-5-3.3-2-1.1-8.8-5.1-15.1-8.9-15.3-9.1-43.4-23.2-61.3-30.6-3.4-1.4-7.5-3.2-9.2-3.9-12.3-5.6-35.1-13.4-52-18-5.5-1.5-10.9-3.1-12-3.6-1.1-.4-6.5-1.8-12-3-5.5-1.1-12.9-2.7-16.5-3.5-12.7-2.8-36.2-6.3-56-8.5-13.1-1.4-63.3-1.8-75.7-.6-6.2.6-8.3.5-8.3-.3 0-1.8 21.2-22.6 31-30.4 28.4-22.6 65.4-37.5 104-41.9 16.3-1.9 53.3-2 72-.3M1066.5 114c34.5 2.9 68.6 8.7 88.8 14.9 3.4 1.1 9.6 2.9 13.7 4.1 20.1 5.9 32.9 10.3 53 18.6 13.8 5.7 41.1 18.8 51 24.4 47.2 26.9 78.6 50.5 112 83.9 30.1 30.1 47.8 53.4 57.6 75.8 1.4 3.2 3 6.7 3.5 7.8 2.5 5.4 7.2 21.1 9.3 31.5 3.1 14.4 6.1 49 4.4 49-.5 0-.8-.4-.8-.8 0-1.3-17.8-27.6-26.5-39.2-29-38.6-53.6-65.1-92-98.9-16.2-14.3-66-49.9-78.5-56.1-2.5-1.3-5.7-3.1-7.1-4.1-7-4.9-47.8-25.4-60.4-30.4-3.8-1.5-8.3-3.3-10-4.1-9.1-4.1-14.1-5.5-17.2-4.9-6.2 1.1-9.1 8.2-5.9 14.3 1.2 2.2 4.8 4.1 20.7 10.6 64 26.1 129.3 70.1 178.9 120.4 42.3 42.9 75 87.4 96 130.4l6.1 12.6 1 19.9c.5 10.9 1.3 28.1 1.9 38.3.5 10.2 1 20.5 1 23v4.5l-2.3-5.5c-3.9-9.2-17.9-35.7-26.8-50.5-4.6-7.7-8.6-14.4-8.8-14.9s-1.7-2.8-3.3-5c-1.6-2.3-6.5-9.4-10.9-15.9s-8.6-12.6-9.4-13.5c-.7-.9-4.2-5.5-7.7-10.2s-7.2-9.6-8.3-10.9c-5-6-7.3-8.9-9.9-12.4-2.8-3.8-16.2-19.1-26.5-30.2-12.6-13.5-37.5-37.4-50.1-48.1-9.8-8.3-38.6-31.5-43-34.7-1.4-1-7.2-5.2-13-9.3-20.5-14.8-27.9-19.6-55.1-35.3-24.9-14.4-44.8-24.5-65.9-33.7-7.4-3.2-13.7-6.1-14-6.4-.5-.7-17.4-7.4-27.5-11-3.3-1.2-10.7-3.9-16.5-6-10.6-3.9-29.7-9.8-47-14.5-30.1-8.3-71.7-15.7-101-18-4.1-.3-9.3-.8-11.5-1.1-6.2-.7-59.7-.6-65.4.2-5.5.7-6.4-.1-2.8-2.7 12.3-8.9 23.7-16 34.9-21.7 15.9-8 17.4-8.6 35.3-14.6 24.7-8.3 35.3-11.2 52.2-14.6 30.1-5.9 70.3-7.9 103.8-5m-150.2 79c37.8 4.4 46 5.6 67.2 9.7 22.4 4.3 59.1 14.8 83 23.8 8.3 3 17.5 6.4 20.5 7.5 15.5 5.3 61.7 27.3 87 41.3 15.8 8.8 42.2 25.1 54 33.5 22.5 15.8 51.9 38.5 56 43.2.8.9 5.3 4.8 10 8.7 8 6.6 33.6 31.6 46 44.9 36.4 38.9 66 80.2 93.2 129.9 3.6 6.6 7.8 14.7 9.3 18s4 8.7 5.5 12c3.7 7.8 11 25.2 11 26 0 .4.7 2.1 1.5 3.8 5 11 9.5 26.8 9.5 33.9 0 2.9.5 10.2 1 16.2 1.2 12.8 4.3 70.7 6.5 120.1.9 18.7 2 41.5 2.5 50.7 1 17 .7 27.2-1.1 38.8-1.1 6.8-4.4 20.1-5.8 23.5-2.9 6.7-5.1 13-5.1 14.1 0 .8-.3 1.4-.7 1.4-.5 0-.9-2.8-1-6.3-.4-10.7-5.1-38.4-9.7-57.5-5.7-23.1-18.5-63.2-24.2-76-1.3-2.9-2.4-5.5-2.4-5.8 0-.8-8.8-19.8-18.1-38.9-14.6-30.1-32.9-59.9-57.3-93.3-7.8-10.6-15-20.5-16.1-22-11.4-15.7-41.8-49.4-63.6-70.7-27.3-26.5-32.9-31.5-55.2-49.3-12.5-10-28.3-21.3-30.3-21.8-3.4-.9-9 2.3-10.5 5.9-2.4 5.7-.4 10.1 6.4 14.4 2.3 1.4 6.2 4.3 8.7 6.4 2.5 2.2 9.2 7.5 14.9 12 38.8 30.3 87.5 80.4 119.9 123.1 15.9 21 35.4 49.4 39.7 57.8 1 1.9 3.1 5.4 4.7 7.7 5.8 8.5 24.6 44.4 33.1 63.3 13.6 30.2 25.7 65.5 31.3 91.5.7 3.3 1.7 7.8 2.3 10 1.2 4.6 4.5 23.5 6.1 34.5 1.8 12.7 2.9 34.7 2.3 46.4-.5 12.6-1.3 14.5-11.7 30.1-12.4 18.6-28.1 35.8-51.8 57.1l-5.7 5.1-1.5-4.6c-.7-2.5-3-10-5-16.6-5.8-19-18.1-51.1-25.7-67.3-1.6-3.4-2.9-6.6-2.9-7 0-2.5-35-69.5-37.1-71.2-.4-.3-2-2.8-3.5-5.7-2.5-4.4-5.8-9.7-20.4-32.3-3.7-5.7-10.4-15.4-17.8-25.5-13.7-18.7-20.6-28-21.2-28.5-.3-.3-2.8-3.4-5.5-7-35.8-47.4-98.9-110.7-155.2-155.7-5.6-4.5-10.8-8.6-11.5-9.2-2.9-2.5-29.2-22.1-39.2-29.1-5.8-4.1-14.6-10.4-19.5-14-12.4-9-37.1-25-51.3-33.1-1.5-.9-3.3-2.1-4-2.6-.7-.6-3.8-2.4-6.8-4-6.3-3.4-10.8-6-20-11.3-3.6-2-7.8-4.4-9.5-5.2-1.6-.9-5.2-2.8-8-4.3-15.7-8.6-40.6-20.6-74.5-35.7-2.5-1.1-6.5-2.9-8.9-4-10.1-4.6-30.3-11.8-32.9-11.8-8.6 0-12 13.5-4.3 17.4 1.4.8 7.8 3.4 14.1 5.9 10 4 16.3 6.7 28.5 12.2 1.7.7 7.3 3.2 12.5 5.5 13.6 6 51.4 24.7 66 32.7 23.8 13.1 47.2 27.3 66.5 40.3 1.3.8 6.1 4 10.7 7 18.2 11.8 28.6 19.2 49.3 35 4.4 3.4 11.4 8.7 15.5 11.7 4.1 3.1 8.2 6.3 9 7.2s3.3 2.9 5.5 4.6c29.4 22 96.5 86.2 124.2 118.7 2.6 3.1 9.1 10.8 14.4 17 20.1 23.7 35.6 44.6 58.9 79.3 4.4 6.6 13.5 20.8 15.7 24.5 7 11.6 16.3 27.9 16.3 28.2s2.7 5.2 5.9 11c20.5 36.8 41.6 87.8 52.6 127.3 1.4 4.9 3.1 10.8 3.9 13 1.3 4 1.3 4.2-1.8 7.6-5.8 6.6-7.4 8.7-14.6 19.5-4 5.9-10.5 16.9-14.4 24.4-8.1 15.4-15 25.7-20 29.7-5.9 4.7-13.8 8.3-18.1 8.3h-4.1l-3.8-11.8c-4.4-13.5-5.8-16.7-13.2-31.7-12.1-24.3-28-46.5-67.8-95-12.9-15.6-19.1-23.1-19.5-23.5-.3-.3-3.5-3.9-7.1-8-6.2-7.2-25.8-29-27-30-.3-.3-8-8.6-17-18.5-9.1-9.9-17.2-18.7-18-19.5s-14.3-14.5-30-30.4c-30.4-30.8-46.1-46.2-64.2-62.7-6.2-5.6-14.2-13-17.8-16.4-10.5-9.9-27.8-24.8-54.5-46.9-13.7-11.4-27-22.4-29.5-24.5-2.5-2-6.3-5-8.5-6.6-2.2-1.7-9.4-7.3-16-12.5s-15.4-11.9-19.5-14.9-8-5.9-8.5-6.5c-.6-.6-1.8-1.6-2.7-2.1-.9-.6-5.6-3.8-10.4-7.2-17.2-12-21.1-14.6-39.9-26.9-10.4-6.7-20.8-13.6-23-15.2-6.2-4.4-33.4-20.4-48.5-28.5-4.1-2.2-8-4.4-8.7-4.9-1.2-1-15.7-8.5-31.3-16.4-9.1-4.5-22-10.7-32.9-15.5-3.6-1.6-7.4-3.4-8.4-3.9-1-.6-4.6-2.1-8-3.4-17.5-6.5-28.7-10.5-33.7-12-3-.9-6.4-2.1-7.5-2.6-2.7-1.2-29.5-7.9-42-10.6-27.9-5.8-66.5-5.7-85 .2-14.2 4.6-27.9 11.4-34 17.1-1.1 1-3.1 2.6-4.5 3.6-1.4.9-6.2 5.4-10.7 9.9s-8.5 7.9-8.8 7.6-1-3.3-1.6-6.7c-2.2-13.9 3.3-34.6 16.6-62.8 7.6-16 17.4-35.2 19.6-38.5 1.1-1.4 1.9-2.9 1.9-3.2 0-.7 11-19.3 15.6-26.3 1.9-2.8 3.4-5.6 3.4-6.1 0-.6.3-1.2.8-1.4.4-.2 2.8-3.5 5.4-7.3 24.7-37.1 55.7-71.7 89.7-100.4 33.9-28.6 73.1-52.5 115.6-70.5 45.5-19.2 87.8-29 149.5-34.6 11.4-1 60.6-.3 72.3 1m543.1 109.5c16.4 4.7 29.2 12.9 42.4 27.1 11.7 12.4 29 37.6 39.7 57.9 5 9.2 16.5 32.3 16.5 32.9 0 .3 1.3 3.3 2.8 6.8 1.6 3.5 3.5 7.9 4.2 9.8s1.7 3.9 2.1 4.5c4.3 6.1 28.7 79.7 35.9 108.7 8.3 33.2 15.8 75.2 20 111.8.6 5.2 1.5 12.6 2 16.5.5 3.8 1.2 11 1.5 16 .4 4.9.8 10.6 1 12.7.3 3.4 1.1 12.7 3.5 46.3.6 7.7 1.5 18.9 2.1 25 .5 6 1.4 17.1 1.9 24.5s1.8 25 2.9 39 3.2 41.9 4.6 62 3 41.9 3.6 48.5c3.8 46.3 4.7 58.4 6.4 83 1.4 20.2 2.6 36 7 92 .9 11 2 25.4 2.5 32s1.4 17.4 2 24c1.5 16.5 4.7 57.8 6.5 83 1.3 18.7 5.7 75.1 10 127.5.8 10.2 1.9 24.6 2.5 32 2.7 36.4 6.1 80.1 6.5 85.5.3 3.3 1.4 18.4 2.5 33.5s2.9 36.9 4 48.5c2.2 23.5 3.9 44.3 7.5 94 2.6 35.7 3.9 53.4 5.5 75 1.4 18.6 1.9 24 2.5 33 .4 4.4.8 9.4 1 11 .2 1.7 1.1 12.5 2 24 .8 11.6 2.2 29.3 3.1 39.5 1.8 23.1 3 37.7 4.9 65 1.5 21.7 4.3 55.2 7 84.2.8 8.6 1.7 22.2 2.1 30.2l.7 14.4-2.7 4.6c-6 10.3-21 23.2-35.4 30.5-8.3 4.2-29.8 12.2-39.2 14.6-29.6 7.4-66.4 6.3-82.3-2.5-6.9-3.7-11.4-10.2-12.1-17.3-.8-7.8-1.6-19.9-2.6-43.2-1.3-26.7-2.6-53-4.5-86.5-1.6-28.4-4.7-93.1-6.5-133-.6-13.5-1.5-33.7-2-45s-1.4-32-2-46-1.2-28.9-1.5-33-1-19.4-1.5-34c-1.2-29.7-2.8-64.2-3.5-74-.2-3.6-.7-12.1-1-19s-1.2-26.5-2-43.5c-2.7-57.7-3.5-73.9-4.5-98-1.3-31.6-1.7-40.6-3.5-75-.8-16-1.9-38.5-2.5-50-.6-11.6-2.1-43.1-3.5-70-2.4-46.7-3.4-69.7-5.5-117-1-23.7-3.5-76.8-5-107.5-.5-11.3-1.4-32-2-46s-1.7-36.5-2.5-50-2.2-40.5-3-60-1.9-45.2-2.5-57-1.7-35.9-2.5-53.5c-.9-17.6-2-39.9-2.5-49.5-.9-16.3-2.6-50.1-5-101-.6-11.8-1.5-30.1-2-40.5-1-18.6-2.3-46.3-3.5-73.9-.3-7.7-.8-14.2-.9-14.5-.2-.3-.6-9.6-1-20.6-1.2-37.7-2-49.5-4.2-66.5-3.7-28.6-12.8-54.6-27-77.4-2.4-3.9-4.4-7.4-4.4-7.8 0-1.4 4.7-.8 13.4 1.7M544 527c20.8 2.2 55.8 10.9 78.5 19.5 3.9 1.4 10.2 3.7 14 5.1 8.7 3.1 19.7 7.5 21 8.5.6.4 3.3 1.6 6 2.7 9.2 3.7 53.2 25 56 27.2 1 .7 6.6 3.9 18.8 10.4 3.7 2 11.1 6.3 16.5 9.5 5.3 3.2 12.4 7.3 15.7 9.1 7.9 4.3 52.7 34 66.9 44.3 6.1 4.4 12.7 9.2 14.7 10.6 11.5 8.3 25.2 18.6 37.3 28.1 4.6 3.6 9.8 7.6 11.7 9 1.8 1.4 8.6 7 15.2 12.5s13.4 11.1 15.2 12.5c5.2 4.1 14.7 12.2 20 17 2.8 2.5 11.3 9.9 19 16.5 51 43.9 134.8 127.9 186 186.5 6.1 6.9 11.5 12.9 12.1 13.5 1.1 1 18 20.8 30.3 35.5 5.8 7 6.2 7.8 5.8 11.4-.7 5.3-6.4 16.5-13.1 25.6-8 11-17.9 18.1-29.1 20.9-2.7.7-6 1.8-7.2 2.3-4.7 2.3-5.5 11.5-1.3 15.3 2.8 2.5 11.9 2.3 19.1-.4 17.6-6.6 33.8-21.9 42.7-40.3 2-4.3 3.9-7.8 4.2-7.8 1.1.1 25 34.3 28.4 40.7 1.2 2.3.9 3.5-2.9 12.2-17.3 39.6-32.9 64.6-49.1 78.7-5.7 4.9-11.2 8.4-13.4 8.4-.6 0-1-3.3-1-8.6 0-4.8-.5-10.3-1.1-12.4-2.1-6.8-10.8-9.3-16.1-4.5l-2.8 2.4v28.1h-2.8c-8.2 0-21.5-5.4-31.6-12.7-10.8-7.9-14.2-6-22.1 12.6-14.4 33.7-31.9 64.1-52.7 91.5-14.3 18.7-19.8 25-36.8 41.8-29.9 29.6-59.9 52-96 71.8-10.4 5.7-34.4 17.7-37 18.5-1.3.4-6.1 2.5-10.9 4.7-11.7 5.4-13.5 6.2-22.1 9.3-4.1 1.6-12.2 4.5-18 6.7-32.8 12.1-70.8 23-97 27.8-6.3 1.1-14.6 2.7-18.5 3.5-36.1 7.2-77.5 10.2-103.3 7.5-35.7-3.8-71.2-15.5-91.2-29.9-6.9-5-19.3-17.8-24.7-25.5-8.4-11.9-12.4-21.7-21.8-53.6-5.1-17.2-8.9-29-12.5-39-1.7-4.7-3.9-11-5-14-2.8-8.6-10.2-27-17.5-44-21.2-49.1-36.3-93.4-48.6-143.3-12-48.2-17.5-87.5-18.6-131.7-1-42.9 3.2-79 14.7-126 5.1-21 8.9-39.1 10-47.5 2-15.5 2.6-17 8.5-21.4 5.8-4.4 14.1-8.5 19-9.5 10.4-1.9 18.4-1.3 14 1.1-2.2 1.3-7.1 12-8.5 18.7-2.6 12.4 2.1 26.6 12 36.4 9.7 9.5 21.8 12.9 36.6 10.2 7.7-1.4 17.2-6.8 22.4-12.7 2.7-3 3-3.2 2.6-1.1-.3 1.3-.8 7.7-1.1 14.3-1.4 26.2-15.3 86.3-25.3 109.5-.6 1.4-4 9.9-7.5 19-8.5 21.7-14.1 34.2-23.6 53-9.6 18.8-11.3 24.4-11.3 36.6 0 13.5 3.2 22.1 12.5 32.8 9.6 11.2 32.2 25.5 44.9 28.5 8.1 1.9 16.9 1.4 25-1.5 13.8-4.9 15.2-4.7 39.3 6.1 22.2 10 30.5 11.3 44 6.8 11-3.6 19.2-12.2 22.7-24.1 2.6-8.4 2.1-24.9-.8-32.6-3.2-8.3-11.5-10.1-16.4-3.4-2.2 3-2.2 3.3-1 9.9 1.5 8 .8 19.4-1.4 23.8-2.7 5.1-7.8 8.2-14.5 8.8-8.4.8-14.4-1.1-36.6-11.8-4.3-2-18.1-4.9-23.5-4.9-3.3 0-9.7 1.1-14.6 2.6-6.7 1.9-10.2 2.5-14.2 2.1-9.6-1-24.5-9.8-36.8-21.7-7.2-7-9.4-12-9.4-21.5 0-7.6 2-13.7 9.7-28.5 5.1-10 12.4-25.3 17.6-37 .9-1.9 2.5-6 3.7-9 1.1-3 2.5-6.4 3-7.5 1.7-3.6 8.1-20.9 11.2-30 11.3-33.6 17.1-57.8 21.5-89.5 2.4-17.4 2.4-56.4 0-70.5-8.6-50.3-35.4-85.9-78.7-104.3-14.1-6-19.6-7.3-33.7-7.9l-13.3-.6v-2.6c0-3 3.3-14 7.9-26.1 3.5-9.1 18.5-44.8 20.6-49 .7-1.4 3.5-7 6.2-12.5 7.3-15 11-20.1 22.4-30.6 23.1-21.1 39.1-27.3 72.4-27.7 5-.1 13.3.3 18.5.8M421.6 696c8.1 2 32.4 13.3 32.4 15 0 .6.5 1 1.1 1 3.4 0 21.9 18.6 28.5 28.6 7.7 11.8 11.3 20.1 15.4 35.9 1.5 6 1.3 6.2-2.7 2.3-5.5-5.1-13.8-11.1-21.5-15.3-23.5-12.8-54.7-12.5-73.9.6l-2.6 1.8-2.7-13.7c-1.4-7.5-3-16.6-3.6-20.2-1.2-8.1-1.5-35-.3-36 2.6-2.5 19.9-2.5 29.9 0m1242.9 158c3 9.1 7.9 24.8 11 35 3.2 10.2 6.4 20.5 7.2 23s4.4 13.9 7.9 25.5c3.5 11.5 7.5 24.6 8.9 29 7.6 24.7 30 103.5 35.4 124 1.7 6.6 4.9 19 7.2 27.5s4.7 18 5.4 21c1.4 6.3 10.2 41 11.5 45.5 1.9 6.5 4.2 15.7 8.1 32.5 2.2 9.6 5.4 22.9 7.1 29.5 1.6 6.6 4.5 18.5 6.3 26.5 1.9 8 5.3 22.4 7.5 32 6.8 28.4 16.5 71.8 19.5 87 .7 3.6 2.1 9.9 3 14s4.3 20.3 7.5 36 6.7 32.6 7.9 37.5c3.3 14.9 14.1 71.4 19.6 102.5 2 11.3 4 22.5 4.5 25s1.6 8.5 2.5 13.5c.9 4.9 2.3 12.4 3.2 16.5.8 4.1 2.3 12.2 3.3 18 3.3 19.6 8.8 52.4 11.4 68.5 1.5 8.8 3.3 19.6 4.1 24s3.2 19.9 5.5 34.5c5.6 37.1 7.9 51.7 9 57.5 1.2 6.5 4.8 29.6 6 38.8.5 4 1.6 12.3 2.5 18.6 4.1 31.1 3.8 38.5-2.4 51.7-6.1 12.9-22.9 25.2-39.7 29-4.3 1-15.9 1.9-30.9 2.4-25.3.9-32.8 1.9-46.5 6.7-10.5 3.7-24.9 12.1-27.3 16-1.7 2.7-2.5 1.1-3.1-6-.4-3.9-1.1-11.3-1.7-16.2-.8-8.4-1.3-13.6-3.9-43.5-.5-6.3-1.7-20.7-2.5-32s-1.7-23.4-2-27-1-12.8-1.5-20.5c-.6-7.7-1.3-16.5-1.5-19.5-.3-3-1.4-18.6-2.5-34.5-1.1-16-2.7-36.4-3.5-45.5s-1.7-19.4-2-23-.7-8.5-1-11c-.2-2.5-.7-7.9-1-12-2.9-42.4-3.9-54.8-5.6-76-1.1-13.5-2.6-33.1-3.4-43.5-.8-10.5-2.1-26.4-3-35.5-1.4-15-2.5-28-5.5-65.5-1.7-22.2-2.9-38.3-6.5-90-1.9-27.5-3.7-51.1-4-52.5s-1.6-17.4-3-35.5c-1.4-18.2-2.9-38.4-3.5-45-.5-6.6-1.7-21-2.5-32s-1.7-22.5-2-25.6c-.3-3-1-11.1-1.5-18-.5-6.8-1.4-17.8-2-24.4-.5-6.6-1.2-15.6-1.5-20s-1-12.7-1.5-18.5c-.6-5.8-1.7-19.7-2.5-31s-1.9-26.4-2.5-33.5c-.6-7.2-1.9-25.8-3-41.5-2.4-34.9-4.6-65.5-6-81.5-2.5-28.9-3-35.7-5.6-71.5-2.3-32.7-2.6-41.1-1.3-37 .6 1.9 3.5 10.9 6.4 20M1486 949.5c.6 14.3 1.3 28.5 1.5 31.5.3 3 .9 15.8 1.5 28.5l2 42c.6 10.4 1.9 38.6 3 62.5 2.9 63.8 3.9 87.2 5 109.5.5 11 1.4 30.6 2 43.5s1.5 31.1 2 40.5c3.4 58.6 5.9 113.7 5.2 114.9-.3.5-2-2.8-3.8-7.2-13.9-34.6-37.5-52.2-75.1-56.1-11.8-1.2-24.3-.6-50.3 2.4-6.9.8-12.8 1.5-13.1 1.5-.8 0-12.7-14.9-20.5-25.7-19.7-27.3-32.2-52.1-40.2-79.8-10.1-34.7-10.9-72.6-2.6-113l1.4-7 5.3-1.9c10.2-3.6 19.5-12 27.9-25.1 8.9-13.8 9.4-14.8 14.3-24 11.4-21.4 24.4-38 44.5-56.9 23.7-22.4 43.4-43.7 53.7-58 8.7-12.2 25.1-42.3 30.2-55.3 1-2.7 2.2-5.7 2.6-6.8 1.1-2.7 2 7.6 3.5 40m-221.6 157.2c1.5 4.9 3.6 11.8 4.7 15.4 1.2 3.7 2.9 8.1 4 9.8 1.6 2.7 6.3 6.4 9.3 7.4.5.2 0 7-1.3 15.8-5.5 39.1-5.1 57.2 2.3 94.9 1.8 9.6 8.7 30.9 13.7 42.5 4.9 11.4 9.5 20.2 18.8 35.7 7.2 12.2 8.7 14.4 20.9 30.6 3.4 4.5 6.2 8.4 6.2 8.6s-3.5 1.2-7.7 2.1c-59.4 12.9-74.6 16.6-123.3 30.4-15.6 4.5-17.4 5-35 11-6.3 2.1-14.9 4.8-19 6.1-30.4 9.1-122.2 40.9-140.5 48.5-1.6.7-5.1 2-7.7 2.9-8.1 2.7-43 16.6-50.7 20.2-4.1 1.9-10.4 4.6-14 6.1-19.3 7.7-57.9 28.8-81.1 44.3-11.4 7.5-33.8 24.9-41 31.7-1.9 1.8-3.8 3.3-4.1 3.3s-2.5-7.3-4.9-16.3c-2.4-8.9-6.1-21.4-8.2-27.7-5.7-16.7-18.3-42.1-28.2-56.5l-8.4-12.3 4.1-1.1c9.7-2.4 60.3-18.3 66-20.7 3.4-1.5 12.1-4.8 19.2-7.4 7.2-2.6 16.2-6.2 20-8 15.7-7.2 17.4-8 17.9-8 1.9 0 32.8-16.3 46.1-24.3 18.3-11.1 43.5-28.4 54.5-37.5 14.2-11.7 44.5-40.6 51.1-48.7 1.3-1.7 4.5-5.5 7-8.5 5.8-7 21.5-27.9 26.3-35.1 2-3 4.2-6.3 4.9-7.4 9.7-14.2 19.7-32.6 30.3-55.3 3.5-7.4 6.5-13.6 6.7-13.9.3-.2 3.6 1.1 7.3 3.1 9.7 4.8 15.8 6.7 24.2 7.3l7.2.6-.2 17.1-.3 17-8.2 1.6c-8.6 1.8-24.4 8.9-29.8 13.5-21 18-29.8 35.2-31.2 61-.9 18.1 3.1 33.1 13 48 11.9 18.1 29.4 29.7 51.9 34.6 7.2 1.5 28.2.7 36.3-1.5 12.4-3.4 25.4-10.7 34.2-19.4 22.9-22.3 30.1-54.5 19.4-86.2-5.3-15.5-21.5-34.7-35.8-42.3-7.1-3.7-23.9-9.7-27.5-9.7-1.7 0-1.8-1-1.6-18.1l.3-18.1 6-2.5c8.3-3.5 18.9-11 26.8-19 8.5-8.7 11.5-12.5 19.5-24.8 6.6-10.1 25.2-45.6 25.2-48.1 0-3.8 2-.5 4.4 7.3m-79.6 143.8c22.5 5.3 37.4 19.6 45.1 43.4 5.8 17.8 0 42.9-13.2 56.8-10.8 11.5-22.1 17.4-37.1 19.3-28.7 3.9-55.7-13.4-65.2-41.6-2.7-8.2-3.3-22.9-1.3-32.6 3.7-17.8 21.1-37.4 38.5-43.2 11.5-3.8 22.9-4.5 33.2-2.1m249.2 128.9c16.4 2.7 25.7 7.3 36.1 17.6 5.2 5.2 7.6 8.7 11.4 16.5 8 16.7 7.8 15.4 2.9 15.5-11.4.4-51.2 3.3-61.9 4.5-13.7 1.6-14.4 1.7-27 3.5-10.2 1.5-61.7 10.6-67 11.9-2.2.6-11.2 2.6-20 4.7-16.6 3.8-44.8 10.8-50 12.4-6.1 1.9-26.3 7.9-35.5 10.5-11.7 3.3-26.4 7.9-31.6 9.9-2.1.8-10.4 3.5-18.4 6.1-13.4 4.3-24.6 8.3-29.5 10.5-1.1.5-9.3 3.6-18.2 6.9s-17.7 6.6-19.5 7.5c-1.8.8-10.3 4.3-18.8 7.7s-19.2 7.9-23.7 10c-4.6 2.2-8.4 3.9-8.7 3.9-.4 0-10.9 4.8-25.6 11.7-15.6 7.3-65.1 32.3-66 33.4-.3.3-4.5 2.7-9.5 5.4-14 7.5-15.9 8.6-17.5 9.9-.8.7-4 2.5-7 4-3 1.6-6.2 3.5-7.1 4.2-.8.8-1.9 1.4-2.3 1.4-1 0-43.1 27.4-44.6 29-.3.3-4.1 3-8.5 5.9-4.4 3-9.1 6.4-10.5 7.6s-4.7 3.7-7.5 5.6c-2.7 1.8-5.6 3.9-6.4 4.7-.7.7-4.7 3.8-8.8 6.8-7.2 5.3-28.5 22.9-36.7 30.4-2.2 1.9-6.9 6.2-10.5 9.4-17.6 16-52.3 52.4-66.4 69.9-4.6 5.7-5.6 6.1-3.8 1.5.5-1.3 1.7-5.2 2.6-8.8 1.8-6.7 9-28.9 10.5-32.5.5-1.1 1.8-4.3 3-7 6.5-15.3 13.2-30 16.2-35.5 1.7-3 4.9-8.9 7.1-13 5-9.2 15.7-25.2 27-40.2 25.1-33.4 54.4-61.2 92.2-87.5 22.9-16 52.6-31.7 93-49.2 6.6-2.9 12.9-5.6 14-6.2 1.1-.5 7.9-3.1 15-5.7 7.2-2.7 18-6.8 24-9 46.3-17.3 71.4-26.2 107-37.8 11-3.6 22.5-7.4 25.5-8.5s6.2-2.2 7-2.4c14.6-4.2 43-12.8 44.5-13.5 1.1-.5 9.4-3 18.5-5.5s19.4-5.4 23-6.5c3.6-1 9.4-2.6 13-3.5s7.9-2 9.5-2.6c1.7-.5 10.4-2.7 19.5-4.9 35.6-8.5 53.5-12.2 76.5-16 36.2-6 53.7-7.2 69.5-4.6"/><path d="M705.7 802c-19.6 3.5-37.9 13.2-52.3 27.4-8.8 8.8-11.8 13.7-11 18 .9 4.5 4.7 7.6 9.6 7.6 3.4 0 4.4-.7 9.6-6.3 7.4-8 19.9-17.8 26.7-21.1 9-4.2 19.4-6.7 31.5-7.3 9.9-.5 11.2-.4 11.2 1 0 .9-.8 2.4-1.7 3.4-1.8 1.8-4 6-6.4 12.3-2.2 5.5-1.9 24.5.5 29.5 4.6 10 6.1 12.4 11.9 17.7 9.9 9.3 19 12.5 33.2 11.5 13-.9 21.4-4.8 30.1-13.9 5.1-5.3 8.7-11.6 10.4-18.5l1.3-5.1 4.6 5.1c12.2 13.6 12.4 13.9 17.1 14.4 3.8.4 4.9.1 7.3-2.1 3.3-3 3.7-8.5.9-13.1-2.6-4.2-21.5-23-28.7-28.6-7.5-5.7-15.1-10.9-16.1-10.9-.4 0-1.5-.7-2.5-1.6-2.9-2.6-22.4-12.1-28.4-13.9-18-5.2-20.9-5.7-37.5-6-9.1-.2-18.6 0-21.3.5m-235.4 421c-4.3 1-6 2.5-7.3 6.5-2.4 7.3 4.2 13 13.7 11.8 6-.7 10.8.7 18.1 5.4 10.8 7 14.3 7.7 36.7 7.5 12.2-.2 22 .2 25 .9 8.1 1.9 23.7 6 28 7.4 15.6 5 45.4 11 59.8 12 11.8.8 16-.3 18.3-4.7 2-3.9 1.1-9.1-2.1-11.6-1.9-1.5-4.8-2.1-13.7-2.6-6.2-.4-13.8-1.1-16.8-1.7-10.4-2-28.5-6.2-30-7-3.1-1.6-31.2-9.1-43.5-11.5-2.2-.5-12.8-.9-23.5-.9-17.9 0-19.8-.2-23.5-2.1-2.2-1.2-6.7-3.5-10-5.3-8.6-4.4-20.7-6.2-29.2-4.1m27.5 76.8c-3.1.4-7.8 5.7-7.8 8.8 0 4.2 3.9 8.4 11.2 12 15.7 7.6 29.7 11.5 48.6 13.4 12 1.2 30.5.3 34.4-1.6 6.3-3.2 7.5-9.4 2.9-14.6-2.9-3.3-3-3.3-10.3-2.8-25.1 1.6-45.8-1.9-65.8-11.2-8.7-4-10-4.4-13.2-4m705.3 2.9c-2.5 2.4-3 3.8-3.6 9.3-1.4 15-11.1 24.2-27.8 26.5-4 .5-5.1 1.2-6.8 3.8-2.3 3.8-2.4 6.8-.4 10.7 3.2 6.2 14.9 6.3 28 .1 8.5-3.9 17-12.6 21.9-22.1 3.2-6.4 3.8-8.7 4.3-16.2.6-8.7.6-8.7-2.5-11.7-4.1-4.1-9-4.2-13.1-.4"/></g></svg>