<svg xmlns="http://www.w3.org/2000/svg" viewBox="0 0 492.3 492.3"><path d="M394.1 208.4c-2.7-3.9-8.5-11.2-9-11.7C286.4 88 261.9 24.7 256.7 7.9a11 11 0 0 0-21.1 0c-5.2 16.8-29.7 80.2-128.8 189.3 0 0-5.8 7.3-8.5 11.2a180.7 180.7 0 0 0 148.3 283.9 180.7 180.7 0 0 0 147.5-283.9m-40.7 223.2a160.8 160.8 0 0 1-239.1-212c2.4-3.4 7.4-9.8 7.4-9.8 77-84.8 110.4-143.7 124.4-174.9 14 31.2 47.3 90.1 124 174.5a160 160 0 0 1 36.8 102.3c.1 45.8-19.4 89.4-53.5 119.9"/><path d="m136.5 323.1-19.6 1.9c5.8 59.4 55 109.2 114.3 115.8l2.2-19.6a111 111 0 0 1-96.9-98.1"/></svg>