<svg xmlns="http://www.w3.org/2000/svg" viewBox="0 0 1024 1024"><path d="M407 224.5c-9.5 1.6-17.8 4.6-24.8 8.7-9.3 5.6-11.1 7.7-41.7 47.8-3.8 5.1-16.2 21.2-27.5 35.9-11.3 14.6-24.5 31.9-29.5 38.4-4.9 6.5-11 14.4-13.5 17.6s-13.9 18.1-25.4 33.2c-11.6 15.1-24.2 31.5-28 36.6-3.9 5-17.2 22.3-29.6 38.4-41.3 53.8-44.1 57.4-49.8 64.7-19 24.4-22.4 29.8-27.2 43.2-10.6 28.8-6.6 61.6 10.5 87.4 5.1 7.7 15.8 19 23.5 24.8 9.2 7 24.7 14.4 36.4 17.3l9.9 2.5H710l2.4-3.8c2-3.1 32.7-54.6 60.9-102.2 17.5-29.4 33.4-56.1 40.2-67.5 4-6.6 14.5-24.4 23.5-39.5s20.9-35.2 26.5-44.5c5.6-9.4 14.2-23.8 19-32 4.9-8.3 15.1-25.3 22.7-37.8 14.1-23.4 15.5-26.9 12.2-30.1-1.4-1.4-22.4-1.6-216-1.6H486.9l3.2-4.3c15.5-21.2 20-29 22-38.6.6-3.2.9-10.2.7-16.6-.4-9.5-1-12.3-4-20.2-5.2-13.6-9.2-19.7-20.8-31.3-12.1-12.1-21.8-18.2-36.5-22.9-15.5-5-29.6-6.2-44.5-3.6m30.1 10c34.2 6 61.5 33.1 65.9 65.4 1.9 14.3-1.1 24.8-11.3 38.9-3.5 4.8-9.9 13.6-14.2 19.7-29.3 41.2-66.2 92.9-73.5 103-4.8 6.6-26.6 37.2-48.5 68s-41 57.6-42.4 59.5c-1.5 1.9-6.9 9.5-12.1 16.9l-9.5 13.4-.6-9.9c-2-32.4-20.3-59.5-50.3-74.6-21.4-10.8-49-11.8-73.4-2.8-2.9 1.1-6.4 2.7-7.7 3.6-3 1.9-3.3.9-.6-2 1-1.2 5.4-6.8 9.8-12.6 4.3-5.8 12.6-16.6 18.4-24s14.3-18.5 19-24.6c11.9-15.6 45.7-59.9 55.4-72.4 4.5-5.8 14.8-19.3 23-30s20.4-26.5 27-35.1 17.4-22.7 24-31.4c6.6-8.6 14.7-19.2 18-23.5s10.3-13.3 15.4-20c12.8-16.6 21.3-22.3 38.6-25.5 9.5-1.8 19.6-1.8 29.6 0M885.7 372h21.1l-19.3 32.2c-10.6 17.8-28.6 48-40 67.3-11.5 19.2-26.8 44.9-34 57s-21.2 35.5-31 52c-15.6 26.3-41.8 70.2-69.4 116.5l-8.7 14.5-250.4.3c-183.8.2-253 0-260-.9-54-6.5-90.4-57.7-77.5-109.3 4.2-17.1 11.4-29.5 23.6-41.1 8.8-8.4 12-10.6 22.5-15.9 13-6.6 24.8-8.9 41.9-8.4 11.3.4 14.2.9 22.1 3.6 18 6.1 32.1 17 42.2 32.5 8.4 12.8 12.2 25.9 12.2 41.5 0 28.1-15.5 52.2-41.1 64.2-37.6 17.4-81.5-.1-93.5-37.3-10.1-31.4 7.6-65.4 38.7-74 23.7-6.7 47.1 1.7 59.9 21.5 8 12.3 9.4 30 3.3 43-6.2 13.2-18.2 22.2-33 24.8-16.2 2.9-33.5-5.4-40.2-19.2-3.2-6.7-3.9-17-1.6-24.2 3.8-12.2 14.8-20 28-20.1 5.9 0 7.7.4 11.7 2.8 6.5 3.8 10.1 10 10.1 17.4 0 9-5.4 14.4-15.3 15.1-6.4.5-8.3 1.8-7.8 5.4.8 6 14.8 5.7 23.1-.6 6.5-4.9 9.6-11.5 9.7-20.2 0-13.9-8-24.2-22.3-28.6-9.3-2.8-16.7-2-26.4 2.7-22.9 11.3-29.5 41.4-13.5 61.5 8.1 10.2 18.5 16.2 31 17.9 25.1 3.4 49.4-11.7 57.8-35.9 2.8-8.1 2.6-27.2-.4-35.3s-10.3-18.7-17-24.7-19.5-12.6-27.1-14c-8-1.5-23.9-1.2-30.6.5-26.3 6.8-46.1 28.8-50.1 56-1.7 11.4-.9 20.6 2.7 31.4 4 12 8.1 18.4 18.4 28.6 10.2 10.2 19.9 15.7 34 19.6 9.4 2.6 26.4 3 36 1 16.1-3.5 31.4-11.9 42.8-23.7 7.8-8.1 10.8-12.2 15.7-21.6 1.9-3.7 11.4-17.7 21-31 9.6-13.4 18.4-25.7 19.6-27.3 1.1-1.7 14-19.7 28.5-40 14.6-20.4 27.1-38 27.9-39.1.8-1.2 9.2-12.9 18.5-25.9 9.4-13 19.9-27.8 23.4-32.9 3.6-5 12.3-17.2 19.5-27.1 14.4-20 28.1-39.3 33.5-47.2l3.6-5.2 21-.3c16.5-.2 201.4-.2 385.2.2"/></svg>