<svg xmlns="http://www.w3.org/2000/svg" viewBox="0 0 512 512"><circle cx="241" cy="85.1" r="40.6"/><path d="M222.7 376.4a29.2 29.2 0 0 1-48.5 1.8L146 482.4a23.5 23.5 0 1 0 45.4 12.2l32.4-120zm71-237.8h-82.2L110.7 7.6a19.6 19.6 0 0 0-31 24c114.6 148.8 107 139.4 109.2 141.3v48.4l79.6-16 62-43c-6.7-11.1-17.3-23.7-36.9-23.7m89 340.2-90-198.6v-16l-38.7 62h7.9l78 172a23.5 23.5 0 0 0 42.7-19.4m52.8-289.2a20 20 0 0 0-11.6-12.2l-26.2 18.2a25 25 0 0 1-14.3 4.5q-2.4 0-4.6-.5l-50.4 35a20 20 0 0 0 18.9 4l75.5-24.3a19.6 19.6 0 0 0 12.7-24.7"/><path d="M429.6 142.8h-.3l-67.4 5.6c-2.6.2-4 3.1-2.5 5.2l4.7 6.8-88.5 61.4L111.4 255a10 10 0 0 0-3.1 18.4l54.5 32.6a49 49 0 0 1 23.5 42.5l-.2 12.3a11.7 11.7 0 0 0 21.6 6.4l77-123.7 92.5-64.1a7.5 7.5 0 0 0 10.5 1.8l44.3-30.7c3.3-2.3 1.6-7.6-2.4-7.6M215.5 327a9.5 9.5 0 0 1-11.9 6.2 9.5 9.5 0 1 1 11.9-6.2m7.9-20.4a9 9 0 0 1-12.2-2.2l-22.8-33a8.8 8.8 0 0 1 14.4-9.9l22.8 33a9 9 0 0 1-2.2 12.1"/></svg>