<svg xmlns="http://www.w3.org/2000/svg" viewBox="0 0 471.7 471.7"><path d="M361 197.1c-21.8-56.7-4.5-111.2 2.9-134.4l1.5-4.6 5.6-18.3-18.2 5.8c-.9.3-12.1 3.9-29.3 10.4-.2-6.8-.2-15.3.5-23.6l1-11.1-11.2.2A206 206 0 0 0 249.6 35C221.4 9.5 176.5 2.1 174.5 1.7L163.2-.1l-.2 11.5a82 82 0 0 1-15.3 47c-15.3-7.5-26.8-12.1-28-12.6l-19.5-7.9 6.2 20.1 1.5 4.6c7.4 23.3 24.7 77.8 2.9 134.4-13.8 35.9-29.2 88-3 126.1a89 89 0 0 0 40.2 31.1c-3.6 9.4-11 25.3-18.8 36.7l-10.6 15.6h18.9c31.4 0 51.5-7.8 62.9-14.4s19.3-15 22.7-24l3 .1v103.3h20V368.2l3-.1c3.5 9 11.3 17.4 22.7 24s31.4 14.4 62.9 14.4h18.9L343 390.9a203 203 0 0 1-18.8-36.7 90 90 0 0 0 40.2-31.1c26.1-38 10.8-90.2-3-126.1zM303.4 42.4c-.2 8.4.1 16 .4 21.4a817 817 0 0 0-84.2 40.3q-6.5-6.2-14.4-11.9c25.9-37.3 76.2-47.2 98.2-49.8M182.1 23.9q6.5 1.6 15.3 4.6a128 128 0 0 1 32.3 16.1 122 122 0 0 0-41 36.4q-11.6-7.2-23-13.3c6.2-9.1 13.8-23.9 16.5-43.8zm-30.7 58.9a274 274 0 0 1 50 32 348 348 0 0 0-61.4 46.7 227 227 0 0 0-8.1-88.3q8.9 4.1 19.5 9.6m4.1 302.9a238 238 0 0 0 11.4-24.9q15.2 4 33.6 6c-6.6 7.4-21 15.9-45 18.9M281.7 375q-6.9-4-10.4-8.2 18.4-2 33.7-6a249 249 0 0 0 11.4 24.9 92 92 0 0 1-34.6-10.6zm65.9-63.1c-16.7 24.3-54.3 36.6-111.7 36.6s-95-12.3-111.7-36.6c-19.9-29-8.1-72.1 3.7-103.5 40.3-68.8 165.2-119.9 212.6-137.2-8.5 29.7-18.5 80 1.9 133.2 12.2 31.7 26 77.3 5.2 107.5"/></svg>