<svg xmlns="http://www.w3.org/2000/svg" viewBox="0 0 512 512"><path d="M501.22 340.58H277.53l39.947-39.948 118.23-118.22a8.51 8.51 0 0 0 0-12.04l-96.33-96.33a8.51 8.51 0 0 0-12.04 0l-118.23 118.23-39.948 39.947V8.529a8.514 8.514 0 0 0-8.514-8.514H24.415a8.514 8.514 0 0 0-8.514 8.514v359.78a94.45 94.45 0 0 0-13.623 48.915c0 52.27 42.524 94.794 94.793 94.794 20.26 0 39.465-6.279 55.748-18.164h348.4a8.514 8.514 0 0 0 8.514-8.514V349.11a8.517 8.517 0 0 0-8.515-8.515zM333.35 92.1l84.289 84.289-81.078 81.077-84.288-84.288zM32.93 17.035h119.2v114.66H32.93zm0 131.69h119.2v100.52l-14.144 14.144H32.926v-114.66zm0 131.69h88.029l-44.256 44.256c-16.383 3.6-31.508 11.544-43.773 22.811zm111.84 198.19c-13.762 10.709-30.256 16.369-47.695 16.369-42.88 0-77.765-34.885-77.765-77.765a77.47 77.47 0 0 1 12.276-41.908c11.526-17.969 30.097-30.536 50.953-34.479h.001a78.4 78.4 0 0 1 14.536-1.378c17.44 0 33.934 5.66 47.695 16.369a78.4 78.4 0 0 1 9.605 8.836l.003.003a77.54 77.54 0 0 1 20.461 52.557c0 1.533-.061 3.173-.192 5.161v.002c-1.447 22.088-12.337 42.584-29.878 56.233m84.562-1.795h-58.589c11.523-14.246 18.766-31.627 20.62-50.059l29.225-29.225 8.745-8.745v88.029zm-20.788-91.324-17.725 17.725a94.45 94.45 0 0 0-23.888-50.064l-.01-.011a95.6 95.6 0 0 0-11.694-10.76c-15.253-11.868-33.26-18.632-52.381-19.768l44.273-44.273 7.508 7.507 69.273 69.272 7.507 7.509zm27.398-42.412-69.273-69.273-7.507-7.507 7.506-7.506.003-.003 54.481-54.481 19.087-19.087 84.288 84.288-19.087 19.087-54.481 54.481-.003.003-7.506 7.506zm125.08 133.74h-114.66v-105.06l3.111-3.111.006-.006 11.029-11.029h100.52v119.2zm131.69 0h-114.66v-119.2h114.66z"/><path d="M97.064 358.74c-32.238 0-58.466 26.228-58.466 58.466s26.228 58.466 58.466 58.466 58.466-26.228 58.466-58.466-26.228-58.466-58.466-58.466m0 99.902c-22.848 0-41.437-18.589-41.437-41.437s18.589-41.437 41.437-41.437 41.437 18.589 41.437 41.437-18.589 41.437-41.437 41.437"/><path d="M97.064 383.72a8.514 8.514 0 0 0 0 17.028c9.076 0 16.461 7.385 16.461 16.461a8.514 8.514 0 0 0 17.028 0c.001-18.465-15.023-33.489-33.489-33.489"/></svg>