<svg xmlns="http://www.w3.org/2000/svg" viewBox="0 0 512 512"><path d="M408.74 143.26a218 218 0 0 0-37.003-29.729l14.438-25.008 16.143 9.32a8 8 0 0 0 10.929-2.928 8 8 0 0 0-2.928-10.928l-45.883-26.49a8 8 0 0 0-8 13.856l15.883 9.17-14.387 24.919c-28.689-15.393-60.65-24.082-93.927-25.286v-.966c18.236-3.716 32-19.878 32-39.195 0-22.056-17.944-40-40-40s-40 17.944-40 40c0 19.316 13.764 35.479 32 39.195v.966c-54.694 1.979-105.83 24.199-144.74 63.104C62.468 184.058 40 238.3 40 296s22.468 111.94 63.265 152.74 95.039 63.265 152.74 63.265 111.94-22.468 152.74-63.265S472.01 353.7 472.01 296s-22.468-111.94-63.265-152.74zM232 40c0-13.233 10.767-24 24-24s24 10.767 24 24c0 10.429-6.689 19.321-16 22.624V40a8 8 0 0 0-16 0v22.624c-9.311-3.303-16-12.195-16-22.624m24 456c-110.28 0-200-89.72-200-200S145.72 96 256 96s200 89.72 200 200-89.72 200-200 200"/><path d="M412.77 199.63a8 8 0 0 0-11.007-2.616 8 8 0 0 0-2.616 11.007c16.258 26.393 24.851 56.816 24.851 87.981 0 92.636-75.364 168-168 168s-168-75.364-168-168 75.364-168 168-168c31.154 0 61.567 8.587 87.953 24.834a8 8 0 0 0 11.006-2.618 8 8 0 0 0-2.618-11.007c-28.908-17.8-62.223-27.209-96.341-27.209-101.46 0-184 82.542-184 184s82.542 184 184 184 184-82.542 184-184c0-34.13-9.416-67.455-27.228-96.372"/><path d="M368 170.77a170 170 0 0 1 13.229 13.229 7.98 7.98 0 0 0 5.964 2.665 8 8 0 0 0 5.958-13.335 186 186 0 0 0-14.481-14.48 8 8 0 0 0-11.296.626A7.997 7.997 0 0 0 368 170.77m-62.06-18.33c-15.648-5.458-32.449-8.436-49.935-8.436a8 8 0 0 0-8 8v144c0 2.122.843 4.156 2.343 5.657l101.82 101.82c1.562 1.562 3.609 2.343 5.657 2.343s4.095-.781 5.657-2.343c28.708-28.709 44.519-66.879 44.519-107.48 0-12.752-1.587-25.139-4.559-36.983a8 8 0 0 0-.242-.985 151 151 0 0 0-13.929-35.062 8 8 0 0 0-.831-1.485 152.8 152.8 0 0 0-20.273-27.956 8 8 0 0 0-.778-.918 8 8 0 0 0-.488-.44c-16.381-17.486-36.835-31.107-59.836-39.336a8 8 0 0 0-1.129-.399zm17.065 25.25-59 59v-25.372l41.846-41.847a135.5 135.5 0 0 1 17.154 8.219m27.448 20.553-86.448 86.447v-25.372l72.705-72.705a137 137 0 0 1 13.743 11.63m21.403 26.596-87.851 87.851-12.686-12.686 89.979-89.978a137 137 0 0 1 10.558 14.813m14.76 33.241-78.611 78.611-12.686-12.687 84.418-84.418a135 135 0 0 1 6.879 18.494m5.389 37.924c0 1.597-.036 3.188-.091 4.776l-59.909 59.91-12.686-12.686 71.313-71.313a136.6 136.6 0 0 1 1.373 19.313m-103.3-132.02-24.701 24.702v-28.454a135.4 135.4 0 0 1 24.701 3.752m68.96 222.36-14.347-14.347 45.205-45.205c-5.071 22.015-15.582 42.408-30.858 59.552"/></svg>