<svg xmlns="http://www.w3.org/2000/svg" viewBox="0 0 325.9 325.9"><path d="M297.4 47.8h-24.5v-7.1c0-9.3-7.5-16.8-16.8-16.8H69.7c-9.3 0-16.8 7.5-16.8 16.8v7.1H28.5A28.4 28.4 0 0 0 0 76.2V116c0 12.6 8.3 23.2 19.7 27v115.7L9.5 289.6c-1.6 5 1 10.3 6 11.9q1.5.5 3 .5c4 0 7.7-2.5 9-6.5l10.7-32.4h.4v-1.3l10.2-30.9a9.4 9.4 0 0 0-10.2-12.3v-74.1h22.9v111.4h202.9V144.5h17.2v69.4a9.5 9.5 0 0 0-14.8 10.4l21.3 64.6a9.4 9.4 0 0 0 12 6c5-1.6 7.6-7 6-11.9l-6.6-19.9h1V144.2a28.3 28.3 0 0 0 25.4-28.2V76.2a28.5 28.5 0 0 0-28.5-28.4M63.7 40.7a6 6 0 0 1 6-6h186.4a6 6 0 0 1 6 6v7.1H63.7zm189.9 103.8v100.6H72.3V123.9c0-8.1 4.1-19.5 8.9-24.8l8.7-9.6h146l8.7 9.6a43 43 0 0 1 8.9 24.8v20.6z"/><path d="M232.7 106.4H93.2c-3 0-5.4 2.4-5.4 5.4s2.4 5.4 5.4 5.4h139.5c3 0 5.4-2.4 5.4-5.4s-2.5-5.4-5.4-5.4"/></svg>