<svg xmlns="http://www.w3.org/2000/svg" viewBox="0 0 512 512"><path d="M282.5 42.9c-1.6 1-3.7 2.7-4.6 3.7S269 64 260.1 83a1047 1047 0 0 1-17 35.3c-.4.4-18 3.4-38.9 6.7-41.4 6.3-42.3 6.6-45.6 13.4-1.9 4-2 10.2-.3 13.3.7 1.3 13.7 15 28.9 30.6l27.6 28.4-4.1 25.7-4.2 25.7-11-.7a104 104 0 0 0-69.3 19.9 128 128 0 0 0-23.1 24.6l-4.1 6-3.7-2.4a17 17 0 0 0-15.8-1.3A727 727 0 0 0 38.9 341q-8.8 8.5-4.2 17.7c2.8 5.6 86.3 108.3 89.8 110.5a18 18 0 0 0 14.7.4c4.9-2.6 42.4-33.6 44.1-36.6 2-3.3 2.4-10.2.8-14.2-.5-1.5-.7-2.9-.2-3.2s4.3-1.4 8.7-2.5a153 153 0 0 1 59.4-3.6l19 3c12.4 2 32.3 2 42.5 0 26.3-5 56.2-20.2 85.5-43.5a439 439 0 0 0 48.4-48c16.5-20.7 28.4-41.6 30.7-54 1.1-6 1-7-.9-11.3-1.7-3.8-3-5.2-6.4-6.7-5.5-2.5-8-2.5-16.4.1-13.7 4.2-42.9 21.3-68.4 40-10.1 7.4-9.6 7.3-9.2 3.1.1-2.1-2.6-21.2-6.1-42.7l-6.5-38.9 27-27.6a644 644 0 0 0 28.9-30.5c2.3-3.6 2.5-10.5.4-14.5-3.3-6.4-4.7-6.8-45.6-13.1-20.9-3.2-38.4-6.1-38.8-6.3A924 924 0 0 1 319 83a427 427 0 0 0-19-37.7 14.5 14.5 0 0 0-17.5-2.4M307 95.2c11.3 24.1 17.3 35.7 19 37 2 1.4 11 3.1 39.5 7.4 20.4 3.1 37.6 5.7 38.3 6 .8.2-10.1 12.2-26.8 29.2a408 408 0 0 0-28.7 31.1c-.3 1.4 2.2 19.7 5.6 40.9 3.5 21.1 6.1 38.5 5.9 38.6-1.4 1.1-13.5-4.7-38.3-18.4q-29.1-16.1-32-16c-1.9 0-10.1 3.9-22.9 11l-19.9 11-6.2-2.5a169 169 0 0 0-18-5.7 796 796 0 0 1 4.3-28.3c2.5-15.7 4.3-29.1 3.9-30.6s-12-14.2-28.3-30.8a348 348 0 0 1-26.8-29.1c.5-.4 17.5-3.3 37.9-6.3 28.5-4.3 37.5-6 39.5-7.5 2.3-1.8 7.2-11.7 31.3-63a37 37 0 0 1 5.5-9.7c.4.3 8.1 16.4 17.2 35.7m155.5 170c-1.4 4.9-7.6 17-12.7 25a331 331 0 0 1-58.1 64.1 261 261 0 0 1-45.2 30.1c-28.2 13.8-48.1 16.6-80.3 10.9a160 160 0 0 0-35.7-2.7c-21.8 0-31.2 1.4-49.6 7.3l-8.8 2.9-31.1-38.4c-17-21.1-31-38.6-31-39 0-1.6 7.4-12.6 12.7-18.6q12-14 27.8-21.4a75 75 0 0 1 39-7.8c21.4.2 30.4 2.1 56.6 12.2 18.5 7.2 37.7 9.5 76.4 9 24.3-.3 27.4-.1 31.2 1.5 2.3 1 4.4 2.5 4.7 3.4 1.9 4.8-11.1 17-25.9 24.3-15.6 7.8-21.7 8.3-60.6 4.9-25.7-2.2-36.8-2-45.9.7-2.7.8-5.4 2.3-6 3.4-1.6 3.1-1.2 7.8 1 10s4.9 2.4 15.5.9c6.3-1 12.3-.8 35.3 1.1 29.5 2.4 42.2 2.3 52.7-.4 8.4-2.2 22.7-9.6 31-16.1 48.9-38.3 82.9-61 101-67.6 6.4-2.4 6.8-2.3 6 .3m-159.1 10 13.1 7.3-9 .3a265 265 0 0 1-37.3-2.5c-2-.5-.8-1.5 8-6.4a128 128 0 0 1 11.2-5.9c.4 0 6.7 3.3 14 7.2m-175.8 98c22.4 27.6 40.7 50.8 40.8 51.5s-8 7.8-17.8 15.8c-17.2 13.9-18.1 14.5-19.7 12.8-3.4-3.5-80.9-99.7-80.9-100.4a526 526 0 0 1 36.2-29.8c.4-.1 19 22.5 41.4 50.1"/></svg>