<svg xmlns="http://www.w3.org/2000/svg" viewBox="0 0 426.883 426.883"><path d="M259.62 175.96c-5.501-6.478-7.643-15.5-6.026-25.437l3.433-20.896c1.368-8.366-2.43-22.465-7.815-28.994l-6.104-7.408c-152.6 63.397-235.66 185.3-235.66 185.3-7.306 10.752-3.014 16.812 9.533 13.476l20.648-5.49c12.552-3.338 17.227 2.983 10.397 14.027l-28.16 45.485c-6.836 11.041-1.972 18.213 10.824 15.906l21.471-3.861c12.805-2.309 22.412 6.412 21.401 19.363l-3.079 38.564c-1.015 12.953 3.862 14.584 10.846 3.633 0 0 93.111-145.92 185.1-238.22-2.522-1.444-4.879-3.18-6.802-5.449z"/><path d="M417.52 82.843c9.247-9.146 6.507-19.281-6.066-22.535l-20.51-5.311c-12.583-3.25-27.656-15.41-33.501-27.016l-9.532-18.92C344.876 3.038 340.583 0 336.199 0c-4.077 0-8.26 2.604-11.612 7.885l-11.369 17.857c-6.988 10.959-23.2 21.534-36.04 23.504l-20.965 3.207c-12.843 1.971-16.58 11.784-8.322 21.812l13.476 16.347c8.258 10.029 13.304 28.723 11.215 41.553l-3.433 20.914c-1.631 9.998 2.971 16.213 10.812 16.213 2.219 0 4.693-.502 7.35-1.547l19.743-7.772c5.148-2.033 11.624-3.02 18.261-3.02 8.92 0 18.09 1.78 24.711 5.193l18.828 9.714c3.097 1.6 6.001 2.354 8.573 2.354 7.012 0 11.564-5.613 10.978-15.106l-1.291-21.151c-.796-12.966 6.108-31.055 15.354-40.201z"/></svg>