<svg xmlns="http://www.w3.org/2000/svg" viewBox="0 0 1920 2240"><path d="M1141 1c-27 1-57 8-77 16a212 212 0 0 0-92 69l-10 11-18 6a368 368 0 0 0-110 47l-23 19-11 8a650 650 0 0 0-104 27 533 533 0 0 0-141 88 516 516 0 0 0-149 244c0 12 1 18 7 28l3 6-5 9-17 39-4 9-3 8-5 13-8 30-3 27c0 18 0 23 5 46q4 25 4 35c0 8-4 32-7 46-14 56-18 81-19 124a581 581 0 0 0 33 207 1358 1358 0 0 0 52 138l15 45c13 45 17 55 29 72q13 18 31 29 46 31 120 33c28 1 69-4 103-12l11-2 3 4c6 6 16 22 22 33 10 20 22 54 27 81l2 7-4 3a397 397 0 0 0-104 190l-6 27c-3 13-2 13-11 27a694 694 0 0 0-58 113l-18 55-4 14a599 599 0 0 0-10 105l-1 37-5 11-6 11-17 34q-8 19 5 22c4 0 4 0 8-3l3-4c0-2 20-44 27-56l8-14a552 552 0 0 1 39-64 493 493 0 0 1 64-84 907 907 0 0 1 84-77 459 459 0 0 1 66-43l13-6c31-15 70-27 99-30l12-2c14-2 62-2 78 0a368 368 0 0 1 168 67 568 568 0 0 1 152 154l14 20 32 52a622 622 0 0 1 38 72l10 16c5 5 13 1 14-6a675 675 0 0 0-75-139 501 501 0 0 0-40-58l-3-4-14-16-10-12a1194 1194 0 0 0-88-82l-48-32a366 366 0 0 0-429 32l-10 7a516 516 0 0 0-90 88l-9 11a391 391 0 0 0-38 51l-31 47a474 474 0 0 1 92-285 544 544 0 0 1 71-88 786 786 0 0 1 186-142l13-7a990 990 0 0 1 122-58l18-8a1452 1452 0 0 1 176-57l28-7a927 927 0 0 1 177-25h20l1 21 2 47 2 45 5 95 2 66 3 55 18 328c6 17 18 25 45 31a200 200 0 0 0 97-12l6-2 7-3 10-5 5-3 12-9q17-13 24-29c2-5 2-6 3-22 0-21 1-23 11-32q6-7 14-11c13-6 19-7 46-8 30-1 42-3 57-11l14-9q32-25 25-70l-14-95-5-31-15-90-11-63-11-62-20-104-7-31-3-17-10-43-3-16-16-69-8-35-18-73-8-34a2191 2191 0 0 0-39-144l-16-54-35-109c-31-92-28-83-33-128q-6-71-12-104l-3-17-2-7-3-14a1010 1010 0 0 0-35-117l-7-19-4-10-4-8-6-15-5-11-1-25a388 388 0 0 0-27-131l-5-10a416 416 0 0 0-106-129l-42-33a328 328 0 0 0-165-58c-23-3-59-5-80-3m58 20q57 6 104 21a374 374 0 0 1 175 134l9 12a269 269 0 0 1 58 161v3l-2-2-11-15q-17-22-32-34a121 121 0 0 0-32-17q-5-3-24-4l-13-1-8-9a528 528 0 0 0-189-135l-9-4a411 411 0 0 0-93-28l-56-8a737 737 0 0 0-84-1 206 206 0 0 1 135-72c16-2 53-2 72-1m-132 93c34 3 68 9 88 15l14 4a465 465 0 0 1 104 43c47 27 79 50 112 84q44 43 58 76l3 7a198 198 0 0 1 13 80l-26-39a601 601 0 0 0-248-194q-14-5-18-5-10 5-6 15a557 557 0 0 1 296 261l6 13 1 20 3 61v4l-2-5a603 603 0 0 0-112-163 796 796 0 0 0-93-83l-13-10a628 628 0 0 0-162-86l-17-6a659 659 0 0 0-159-34l-66 1q-7 0-3-3a263 263 0 0 1 71-36 369 369 0 0 1 156-20m-151 79a717 717 0 0 1 151 33l20 8a838 838 0 0 1 141 75 646 646 0 0 1 215 244l5 12a374 374 0 0 1 22 64l1 16a4667 4667 0 0 1 8 210 175 175 0 0 1-12 39l-1-6c0-11-5-39-9-58a673 673 0 0 0-45-121q-22-44-57-93l-16-22a751 751 0 0 0-150-142c-3-1-9 3-10 6q-3 8 6 15l9 6 15 12a746 746 0 0 1 197 252 502 502 0 0 1 42 182c0 13-1 15-11 30q-18 27-52 58l-6 5-1-5-5-17a646 646 0 0 0-70-151 776 776 0 0 0-64-93c-36-47-99-111-156-156l-11-9a1263 1263 0 0 0-121-83l-20-11-9-5-8-5a1101 1101 0 0 0-117-51c-8 0-12 13-4 17l14 6 29 12 12 6a1341 1341 0 0 1 133 73l10 7a670 670 0 0 1 80 58 1123 1123 0 0 1 138 136 811 811 0 0 1 153 283q3 5-1 8l-15 20-14 24q-12 23-20 30-10 7-18 8h-5l-3-12c-5-13-6-17-14-32-12-24-28-46-67-95l-20-23-34-38-35-38-30-30a1600 1600 0 0 0-136-126l-30-25-24-19a863 863 0 0 0-104-73 787 787 0 0 0-130-69l-8-3a759 759 0 0 0-83-26c-28-5-67-5-85 1a104 104 0 0 0-50 30l-8 8-2-7q-3-21 17-63a618 618 0 0 1 46-83 484 484 0 0 1 206-170 466 466 0 0 1 221-34m543 109q25 7 43 28a310 310 0 0 1 56 90l3 7 6 14a928 928 0 0 1 59 253l2 13 10 135 15 194 18 231 10 127 2 32 7 86 2 33 4 49 13 169 3 33 1 11 5 63 5 65 9 114v15l-2 4c-6 11-21 24-36 31l-39 15c-30 7-66 6-82-3q-11-6-12-17l-3-44-11-219-2-45-2-46-1-33-2-34-3-74-1-19-2-43-5-98-3-75-3-50-3-70-6-117-17-374-3-50-12-250c-2-38-2-50-5-67a192 192 0 0 0-31-85q1-3 13 2M544 527a380 380 0 0 1 120 36 888 888 0 0 1 173 100l15 11a1216 1216 0 0 1 119 95 2259 2259 0 0 1 228 236c6 7 6 8 6 11q-3 11-13 26-12 16-30 21l-7 2c-4 2-5 12-1 15 3 3 12 3 19 0q28-12 43-40l4-8c1 0 25 34 28 41 2 2 1 3-2 12q-26 58-50 79-9 7-13 8l-1-9-1-12c-2-7-11-9-16-4l-3 2v28h-3c-8 0-21-5-31-13-11-8-15-6-22 13a429 429 0 0 1-186 205 620 620 0 0 1-70 32l-18 7a651 651 0 0 1-219 39c-35-4-71-16-91-30-7-5-19-18-25-25-8-12-12-22-21-54l-13-39-5-14-17-44a780 780 0 0 1-68-275c-1-43 4-79 15-126l10-48c2-15 3-17 9-21 5-4 14-8 19-9 10-2 18-2 14 1-3 1-8 12-9 18q-4 21 12 37 15 14 37 10c7-1 17-7 22-13q4-4 3-1l-1 14a467 467 0 0 1-57 182c-9 19-11 24-11 37q-1 18 12 32c10 12 33 26 45 29q13 3 25-2c14-5 15-4 40 6 22 10 30 12 44 7q17-5 22-24c3-8 2-25-1-32-3-9-11-11-16-4-2 3-2 3-1 10 2 8 1 19-1 24q-4 8-15 9c-8 0-14-1-36-12-5-2-19-5-24-5l-15 3-14 2c-9-1-24-10-37-22q-10-9-9-22c0-7 2-13 10-28l17-37 4-9 3-8a549 549 0 0 0 33-119c2-17 2-56 0-71q-14-75-79-104c-14-6-20-7-34-8h-13v-3q0-6 8-26c3-9 18-45 21-49l6-13c7-15 11-20 22-30 23-21 39-27 73-28zM422 696a133 133 0 0 1 33 16c4 0 22 19 29 29 7 11 11 20 15 35q3 9-3 3l-21-16c-24-12-55-12-74 1l-3 2-2-14-4-20c-1-8-2-35 0-36 2-3 20-3 30 0m1243 158 11 35 7 23 17 54a5755 5755 0 0 1 74 280l7 27 27 119 3 14a3717 3717 0 0 1 39 201l9 48 11 68 5 24 5 35 18 115c4 31 3 38-3 52-6 12-23 25-40 29l-30 2c-26 1-33 2-47 7-10 3-25 12-27 16q-3 4-3-6l-2-17-4-43-2-32-4-48-1-19-8-103-1-11-1-12-6-76-3-44-9-101-13-178-4-45-2-32-6-68-1-20-7-83-3-41-12-153c-2-33-2-41-1-37zm-179 95 2 32 1 28 2 42 3 63 5 109 9 199-4-7a83 83 0 0 0-75-56c-11-1-24-1-50 2l-13 2-21-26q-28-39-40-80-15-51-2-112l1-7 5-2q16-5 28-26l15-23c11-22 24-38 44-57q37-36 54-58c8-13 25-43 30-56l3-7c1-2 2 8 3 41m-222 158 5 15 4 10q4 5 9 7l-1 16a235 235 0 0 0 16 138 271 271 0 0 0 40 66l6 8q0 2-8 2c-59 13-74 17-123 31l-35 11-19 6a2900 2900 0 0 0-213 78 571 571 0 0 0-126 79l-5-16-8-28c-6-17-18-42-28-57l-9-12 4-1a1330 1330 0 0 0 106-36l17-8a494 494 0 0 0 152-111l7-8 26-35 5-8a399 399 0 0 0 37-69l8 3q12 7 24 8h7v34l-9 2c-8 2-24 9-29 13a78 78 0 0 0-32 61q-2 28 13 48 19 28 52 35c7 2 28 1 37-1q19-6 34-20a81 81 0 0 0-17-128c-7-4-24-10-27-10-2 0-2-1-2-18l1-18 6-3q13-6 26-19c9-8 12-12 20-25 6-10 25-45 25-48q1-4 4 8m-79 143q33 8 45 44c6 18 0 43-13 57a60 60 0 0 1-102-22c-3-9-4-24-2-33a61 61 0 0 1 72-45m249 129a59 59 0 0 1 48 34c8 17 7 16 2 16l-61 4-27 4-67 12-20 5a1412 1412 0 0 0-373 145l-7 4-9 6a883 883 0 0 0-123 90l-11 9a868 868 0 0 0-70 72l3-9c1-7 9-29 10-32l3-7 23-49a385 385 0 0 1 120-128q32-23 93-49l14-6 15-6 24-9a2357 2357 0 0 1 344-101c36-6 53-7 69-5"/><path d="M706 802q-30 6-53 27-11 13-11 18 2 8 10 8 3 1 10-6c7-8 20-18 26-21q14-7 32-8l11 1-2 4-6 12c-2 6-2 25 0 30 5 10 7 12 12 17q13 14 34 12 18-1 30-14 7-8 10-19l1-5 5 5c12 14 12 14 17 15q5 1 7-2 6-6 1-13c-2-5-21-23-28-29l-19-13-28-14c-18-5-21-5-38-5zm-236 421q-6 1-7 7-2 12 14 11 7-1 18 6c11 7 14 7 37 7l25 1 28 8c15 5 45 11 59 12q16 1 19-5 3-7-3-12-1-2-13-2a179 179 0 0 1-47-9c-3-2-31-9-44-12h-23c-18 0-20-1-24-3l-10-5q-14-6-29-4m28 77q-6 1-8 9 0 6 11 12a135 135 0 0 0 83 11q10-5 3-14c-3-3-3-3-10-3q-37 3-66-11c-9-4-10-5-13-4m705 3q-3 2-3 9-3 23-28 26-5 1-7 4-3 6 0 11 6 9 28 0 14-7 21-22 5-7 5-16c0-9 0-9-3-12q-6-6-13 0"/></svg>