<svg xmlns="http://www.w3.org/2000/svg" viewBox="0 0 214.3 214.3"><path d="M196.9 55.2c-.1-5.8-.2-11.2-.2-16.5 0-4.1-3.4-7.5-7.5-7.5-32.1 0-56.5-9.2-76.9-29-2.9-2.8-7.5-2.8-10.5 0C81.4 22 57 31.2 25 31.2c-4.1 0-7.5 3.4-7.5 7.5 0 5.3-.1 10.8-.2 16.5-1 53.8-2.4 127.6 87.3 158.7.8.3 1.6.4 2.5.4.8 0 1.7-.1 2.5-.4C199.4 182.7 198 109 196.9 55.2m-89.8 143.6c-77-28-75.8-89.2-74.8-143.4.1-3.2.1-6.4.2-9.5 30-1.3 54.1-10.4 74.6-28.3 20.6 17.9 44.6 27 74.6 28.3 0 3.1.1 6.2.2 9.5 1.1 54.2 2.2 115.4-74.8 143.4"/><path d="m133 81.1-36.2 36.2-15.4-15.4c-2.9-2.9-7.7-2.9-10.6 0s-2.9 7.7 0 10.6l20.8 20.8c1.5 1.5 3.4 2.2 5.3 2.2s3.8-.7 5.3-2.2l41.5-41.5c2.9-2.9 2.9-7.7 0-10.6-3.1-3-7.8-3-10.7-.1"/></svg>