<svg xmlns="http://www.w3.org/2000/svg" viewBox="0 0 512 512"><path d="M264.55 102.61c-51.572 0-93.528 41.956-93.528 93.528s41.956 93.528 93.528 93.528 93.528-41.956 93.528-93.528-41.956-93.528-93.528-93.528m0 171.02c-42.731 0-77.495-34.764-77.495-77.495s34.764-77.495 77.495-77.495 77.495 34.764 77.495 77.495-34.764 77.495-77.495 77.495"/><path d="m504.64 388.62-86.979-86.979c-9.793-9.794-25.729-9.794-35.524 0l-.376.376-21.448-21.448c19.884-22.527 31.969-52.09 31.969-84.428 0-70.433-57.3-127.73-127.73-127.73s-127.73 57.3-127.73 127.73 57.3 127.73 127.73 127.73c32.337 0 61.901-12.085 84.428-31.968l21.448 21.448-.376.376c-9.793 9.794-9.793 25.73 0 35.524l86.979 86.979c4.744 4.744 11.052 7.357 17.762 7.357 6.709 0 13.018-2.613 17.762-7.357l12.089-12.089c4.744-4.744 7.357-11.052 7.357-17.762-.001-6.71-2.614-13.018-7.358-17.762zm-240.09-80.78c-61.592 0-111.7-50.108-111.7-111.7s50.107-111.7 111.7-111.7 111.7 50.108 111.7 111.7-50.107 111.7-111.7 111.7M493.3 412.81l-12.089 12.089c-1.716 1.716-3.997 2.662-6.424 2.662s-4.708-.945-6.425-2.662l-86.979-86.979c-3.542-3.542-3.542-9.307 0-12.849l12.089-12.089a9.06 9.06 0 0 1 6.425-2.657 9.06 9.06 0 0 1 6.424 2.656L493.3 399.96c1.716 1.716 2.662 3.998 2.662 6.425s-.945 4.709-2.662 6.425M127.73 119.72H8.01a8.017 8.017 0 0 0 0 16.034h119.72a8.017 8.017 0 0 0 0-16.034m-102.611 34.2H8.017a8.017 8.017 0 0 0 0 16.034h17.102a8.017 8.017 0 0 0 0-16.034m94.061 0H59.322a8.017 8.017 0 0 0 0 16.034h59.858a8.017 8.017 0 0 0 0-16.034m-8.55 34.2H8.02a8.017 8.017 0 0 0 0 16.034h102.61a8.017 8.017 0 0 0 0-16.034m-51.306 34.21H8.017a8.017 8.017 0 0 0 0 16.034h51.307a8.017 8.017 0 0 0 0-16.034m59.856 0H93.526a8.017 8.017 0 0 0 0 16.034h25.653a8.017 8.017 0 0 0 .001-16.034m8.55 34.2H59.321a8.017 8.017 0 0 0 0 16.034h68.409a8.017 8.017 0 0 0 0-16.034m-102.611 0H8.017a8.017 8.017 0 0 0 0 16.034h17.102a8.017 8.017 0 0 0 0-16.034"/><path d="M309.51 162.78a8.02 8.02 0 0 0-9.911 5.506l-13.93 48.755-13.512-40.537a8.016 8.016 0 0 0-15.21 0l-13.512 40.537-13.93-48.755a8.018 8.018 0 0 0-15.417 4.405l17.102 59.858a8.016 8.016 0 0 0 7.708 5.814h8.551a8.02 8.02 0 0 0 7.605-5.481l9.497-28.491 9.497 28.491a8.02 8.02 0 0 0 7.605 5.481h8.551a8.016 8.016 0 0 0 7.708-5.814l17.102-59.858a8.015 8.015 0 0 0-5.504-9.911"/></svg>