<svg xmlns="http://www.w3.org/2000/svg" viewBox="0 0 2119 1889"><path d="M1829 60H60v1769h1769V691c-116 79-261 170-421 262l-1 1c-126 72-245 137-351 190-106 54-199 97-272 126-27 49-83 85-150 100-49 11-104 12-157-1-54-12-107-37-151-78-68-63-114-163-111-307 0-5 2-10 4-14 0-1 1-2 1-3l1-1 1-1 1-1 1-1 1-1 1-1h1v-1c3-2 6-3 10-4 2-1 5-2 8-2 6 0 10 2 15 4 0 1 1 1 2 2l1 1h1v1h1v1h1v1h1v1h1v1h1v1l1 1c79 113 177 99 269 87 80-10 155-20 220 33 54-39 118-83 190-130 100-66 217-137 342-209l2-2c204-117 394-216 536-279zM279 1067c12 81 45 140 88 180 36 33 79 54 123 64s90 10 131 1c39-9 73-26 95-49-9-6-17-13-23-22-10-14-16-32-15-52 0-12 2-24 7-37 2-6 5-11 10-14q6-6 15-12c-45-27-102-20-163-12-88 12-182 25-268-47m915-192c3 23 10 42 20 59 9 15 22 28 37 39 41-23 83-47 126-71l1-1c204-117 383-232 508-323 111-80 179-133 177-139-3-6-83 26-209 83-141 63-329 160-531 277l-3 2c-43 24-85 49-126 74m1 129c-13-12-24-25-33-40-10-16-17-35-22-56-56 34-109 68-159 100-98 64-181 123-242 170-1 5-1 9-1 12-1 7 1 13 4 17 2 4 6 6 11 8 1 1 3 1 5 1 72-28 165-71 271-125 53-27 108-56 166-87m694-354v1209c0 17-13 30-30 30H30c-17 0-30-13-30-30V30C0 13 13 0 30 0h1829c17 0 30 13 30 30v412c124-50 208-65 226-33 5 8 5 19 1 28-13 42-84 110-195 190-10 7-21 15-32 23"/></svg>