<svg xmlns="http://www.w3.org/2000/svg" viewBox="0 0 471.7 471.7"><path d="M361 197.1c-21.8-56.7-4.5-111.2 2.9-134.4.5-1.7 1-3.2 1.5-4.6l5.6-18.3-18.2 5.8c-.9.3-12.1 3.9-29.3 10.4-.2-6.8-.2-15.3.5-23.6l1-11.1-11.2.2c-1 0-23.8.6-51.2 9-4.5 1.4-8.8 2.9-13 4.5-28.2-25.5-73.1-32.9-75.1-33.3L163.2-.1l-.2 11.5c-.5 23.3-9.6 39.3-15.3 47-15.3-7.5-26.8-12.1-28-12.6l-19.5-7.9 6.2 20.1c.4 1.4.9 2.9 1.5 4.6 7.4 23.3 24.7 77.8 2.9 134.4-13.8 35.9-29.2 88-3 126.1 9.1 13.3 22.6 23.7 40.2 31.1-3.6 9.4-11 25.3-18.8 36.7l-10.6 15.6h18.9c31.4 0 51.5-7.8 62.9-14.4s19.3-15 22.7-24c1 0 2 .1 3 .1v103.3h20V368.2c1 0 2 0 3-.1 3.5 9 11.3 17.4 22.7 24 11.3 6.6 31.4 14.4 62.9 14.4h18.9L343 390.9c-7.8-11.5-15.2-27.3-18.8-36.7 17.6-7.4 31.1-17.9 40.2-31.1 26.1-38 10.8-90.2-3-126.1zM303.4 42.4c-.2 8.4.1 16 .4 21.4-15.2 6.2-32.9 14-51.4 23.1-11.6 5.7-22.5 11.4-32.8 17.2-4.3-4.1-9.2-8.1-14.4-11.9 25.9-37.3 76.2-47.2 98.2-49.8M182.1 23.9c4.3 1.1 9.5 2.6 15.3 4.6 12.7 4.4 23.6 9.9 32.3 16.1-17.1 9.6-30.9 21.9-41 36.4-7.6-4.8-15.5-9.3-23-13.3 6.2-9.1 13.8-23.9 16.5-43.8zm-30.7 58.9c21.3 11.1 38.3 22 50 32-24.7 15.2-45.2 30.8-61.4 46.7 4.3-35.3-2.1-66.8-8.1-88.3 5.8 2.7 12.5 6 19.5 9.6m4.1 302.9c2.3-4.3 4.5-8.8 6.6-13.4 1.9-4.3 3.5-8.1 4.8-11.5q15.15 4.05 33.6 6c-6.6 7.4-21 15.9-45 18.9M281.7 375c-4.6-2.6-8-5.5-10.4-8.2 12.3-1.3 23.5-3.3 33.7-6 1.3 3.4 2.9 7.2 4.8 11.5 2.1 4.6 4.3 9.1 6.6 13.4-13.6-1.7-25.5-5.3-34.6-10.6zm65.9-63.1c-16.7 24.3-54.3 36.6-111.7 36.6s-95-12.3-111.7-36.6c-19.9-29-8.1-72.1 3.7-103.5 40.3-68.8 165.2-119.9 212.6-137.2-8.5 29.7-18.5 80 1.9 133.2 12.2 31.7 26 77.3 5.2 107.5"/></svg>