<svg xmlns="http://www.w3.org/2000/svg" viewBox="0 0 512 512"><path d="M264.6 102.6a93.6 93.6 0 0 0 0 187 93.6 93.6 0 0 0 0-187m0 171a77.6 77.6 0 1 1 .1-155.1 77.6 77.6 0 0 1-.1 155.1"/><path d="m504.6 388.6-87-87a25 25 0 0 0-35.5 0l-.3.4-21.5-21.4a127.9 127.9 0 0 0-95.8-212.2 128 128 0 0 0-127.7 127.7A127.9 127.9 0 0 0 349 292l21.4 21.5-.3.3a25 25 0 0 0 0 35.6l87 87a25 25 0 0 0 35.5 0l12-12.2a25 25 0 0 0 0-35.5m-240-80.8a111.8 111.8 0 1 1 .1-223.3 111.8 111.8 0 0 1-.2 223.3m228.8 105-12 12.1a9 9 0 0 1-13 0l-87-87a9 9 0 0 1 0-12.8l12.2-12.1a9 9 0 0 1 6.4-2.7 9 9 0 0 1 6.4 2.7l87 87a9 9 0 0 1 0 12.8m-365.6-293H8a8 8 0 0 0 0 16h119.7a8 8 0 0 0 0-16M25.1 153.8h-17a8 8 0 0 0 0 16h17a8 8 0 0 0 0-16m94 0H59.4a8 8 0 0 0 0 16h59.9a8 8 0 0 0 0-16m-8.6 34.2H8a8 8 0 0 0 0 16h102.6a8 8 0 0 0 0-16m-51.3 34.2H8a8 8 0 0 0 0 16h51.3a8 8 0 0 0 0-16m59.9 0H93.5a8 8 0 0 0 0 16h25.7a8 8 0 0 0 0-16m8.5 34.2H59.3a8 8 0 0 0 0 16h68.4a8 8 0 0 0 0-16m-102.6 0h-17a8 8 0 0 0 0 16h17a8 8 0 0 0 0-16"/><path d="M309.5 162.8a8 8 0 0 0-9.9 5.5l-14 48.7-13.4-40.5a8 8 0 0 0-15.3 0L243.4 217l-13.9-48.7a8 8 0 0 0-15.4 4.4l17 59.8a8 8 0 0 0 7.8 5.9h8.5a8 8 0 0 0 7.7-5.5l9.5-28.5 9.4 28.5a8 8 0 0 0 7.7 5.5h8.5a8 8 0 0 0 7.7-5.9l17.1-59.8a8 8 0 0 0-5.5-10"/></svg>