<svg xmlns="http://www.w3.org/2000/svg" viewBox="0 0 486.96 486.959"><path d="M301.15 75.464h-.602s-83.319-87.707-156.02-21.057c-42.496 38.958-38.355 108.21 5.345 172.34 16.629-13.129 42.448-28.707 71.633-28.707 21.171 0 40.555 7.927 57.605 23.562 24.241 22.224 33.956 54.545 27.349 91.007-1.778 9.83-4.791 19.593-8.683 29.251.938.383 1.836.804 2.773 1.187l.603 2.352c165.12-66.65 228.73-224.35 156.02-291-72.703-66.651-156.02 21.056-156.02 21.056z"/><path d="m144.44 457.55.468-.708c70.323-28.391 116.89-76.49 135.4-122.72 15.262-38.136 11.437-74.989-14.114-98.418-14.765-13.531-30.094-18.532-44.686-18.532-24.097 0-46.12 13.617-60.311 24.967-10.117 8.071-16.285 15.004-16.285 15.004h-.468s-35.343-39.971-76.596-39.981c-14.592 0-29.921 5.001-44.686 18.533-56.524 51.819-7.076 170.03 121.28 221.85z"/></svg>