<svg xmlns="http://www.w3.org/2000/svg" viewBox="0 0 465 465"><path d="M341 140.9c17.2-20.5 79.5-94.8 97.4-116.4 4.9-5.9 4.6-13.2-.7-19.4l-.9-.9c-6.3-5.3-13.5-5.6-19.4-.7-21.6 17.9-95.9 80.2-116.4 97.4l-7.5-7.5 53.3-53.3a7.5 7.5 0 0 0-5.3-12.8 316 316 0 0 0-225.1 93.3A317 317 0 0 0 25 380.3v.2q2 17.5 5.7 34.6A7.6 7.6 0 0 0 38 421l1.6-.2c4-.9 6.6-4.9 5.7-8.9q-2.7-12.2-4.4-24.5c34.4 1.8 57.8 14.7 84.5 29.4 39.1 21.5 87.7 48.3 188.6 48.3 4.1 0 7.5-3.4 7.5-7.5 0-38.3-18.2-63.9-37.5-91-16.3-23-33.2-46.7-39.6-80.3a7.6 7.6 0 0 0-8.8-6 7.6 7.6 0 0 0-6 8.8c7 36.7 25.7 63 42.2 86.1 17.2 24.2 32.2 45.3 34.4 74.8-91.7-1.3-135.1-25.2-173.6-46.4-27.8-15.3-54.1-29.8-93.4-31.3Q38 359.1 38 345.7c0-161 126.1-293.1 284.7-302.8l-45.2 45.2a7.5 7.5 0 0 0 0 10.6l25.6 25.6c2.9 2.9 7.7 2.9 10.6 0s2.9-7.7 0-10.6l-2.1-2.1 114.6-96c-21.4 25.9-100.3 119.9-101.1 120.9-2.5 3-2.3 7.4.4 10.1l92.6 92.6q5.6 5.7 5.7 13.7c.1 8-2 10-5.7 13.7a19.5 19.5 0 0 1-27.4 0q-1.5-1.5-3.6-2l-86.2-19.9a7 7 0 0 0-5.2.7 72.5 72.5 0 0 1-85.8-12.8A73 73 0 0 1 198 145a7.5 7.5 0 0 0-13-7.4A88.1 88.1 0 0 0 300.3 260l81.6 18.8a34.2 34.2 0 0 0 46.9-50.1z"/></svg>