<svg xmlns="http://www.w3.org/2000/svg" viewBox="0 0 465 465"><path d="M341 140.9c17.2-20.5 79.5-94.8 97.4-116.4 4.9-5.9 4.6-13.2-.7-19.4l-.9-.9c-6.3-5.3-13.5-5.6-19.4-.7-21.6 17.9-95.9 80.2-116.4 97.4l-7.5-7.5 53.3-53.3c2.1-2.1 2.8-5.4 1.6-8.2s-3.9-4.6-6.9-4.6c-85 0-165 33.1-225.1 93.3S23.1 260.7 23.1 345.7c0 11.6.6 23.1 1.9 34.6v.2c1.3 11.7 3.2 23.2 5.7 34.6.8 3.5 3.9 5.9 7.3 5.9.5 0 1.1-.1 1.6-.2 4-.9 6.6-4.9 5.7-8.9-1.8-8.1-3.3-16.3-4.4-24.5 34.4 1.8 57.8 14.7 84.5 29.4 39.1 21.5 87.7 48.3 188.6 48.3 4.1 0 7.5-3.4 7.5-7.5 0-38.3-18.2-63.9-37.5-91-16.3-23-33.2-46.7-39.6-80.3-.8-4.1-4.7-6.7-8.8-6-4.1.8-6.7 4.7-6 8.8 7 36.7 25.7 63 42.2 86.1 17.2 24.2 32.2 45.3 34.4 74.8-91.7-1.3-135.1-25.2-173.6-46.4-27.8-15.3-54.1-29.8-93.4-31.3-.8-8.8-1.2-17.7-1.2-26.6 0-161 126.1-293.1 284.7-302.8l-45.2 45.2c-2.9 2.9-2.9 7.7 0 10.6l25.6 25.6c2.9 2.9 7.7 2.9 10.6 0s2.9-7.7 0-10.6l-2.1-2.1c21.6-18.1 92.6-77.7 114.6-96-21.4 25.9-100.3 119.9-101.1 120.9-2.5 3-2.3 7.4.4 10.1l92.6 92.6c3.7 3.7 5.7 8.5 5.7 13.7s-2 10-5.7 13.7c-7.5 7.5-19.8 7.5-27.4 0-1-1-2.2-1.7-3.6-2l-86.2-19.9c-1.8-.4-3.6-.2-5.2.7-28.5 15.2-63 10-85.8-12.8-23.1-23.1-28-59.2-11.9-87.6 2-3.6.8-8.2-2.8-10.2s-8.2-.8-10.2 2.8c-19.5 34.3-13.6 77.7 14.3 105.6 13.6 13.6 30.8 22.2 49.8 24.9 17.4 2.5 35.4-.4 51.2-8.1l81.6 18.8c6.5 5.7 14.5 8.5 22.6 8.5 8.8 0 17.6-3.3 24.3-10 6.5-6.5 10.1-15.1 10.1-24.3s-3.6-17.8-10.1-24.3z"/></svg>