<svg xmlns="http://www.w3.org/2000/svg" viewBox="0 0 512 512"><path d="M2.9 55.9 0 58.8v394.4l2.9 2.9 2.9 2.9h500.4l2.9-2.9 2.9-2.9V58.8l-2.9-2.9-2.9-2.9H5.8zM494 256v185H18V71h476z"/><path d="M130 151.6a48 48 0 0 0-23.1 13.3 47 47 0 0 0-13.4 44.9 49 49 0 0 0 47.6 38.2 48.6 48.6 0 0 0 48.9-48.5c0-4.5-.7-10.6-1.6-13.6a49.6 49.6 0 0 0-58.4-34.3m22.3 18.4a31.4 31.4 0 0 1 19.6 35 27 27 0 0 1-8.3 15.8 30.4 30.4 0 0 1-37.8 5.5 31.1 31.1 0 0 1 26.5-56.3m197.5 33.7c-.9.2-21.3 22-45.3 48.4-24.1 26.3-44.1 47.9-44.4 47.9s-10.2-9.6-22.1-21.4a191 191 0 0 0-24.1-22.1 8 8 0 0 0-5.5.8A6511 6511 0 0 0 54.8 392.8c-1 1.5-1.8 3.7-1.8 5 0 3.4 5.2 8.2 8.9 8.2 3.6 0-1.3 4.2 86.6-73.3l63-55.6 46.5 46.5a810 810 0 0 0 48.5 46.5q11.3.6 10.6-10.5a205 205 0 0 0-22.3-24.3L272.6 313l3.5-3.7 40.4-44.1a954 954 0 0 1 37.5-40c.5.2 23 20.5 50 45.3a1196 1196 0 0 0 52.2 46.3c2.7 1.2 3.7 1.2 6.3-.1 4.2-2 6.2-6.6 4.6-10.5-1-2.5-95.2-90.1-107.4-100-3.7-3-5.9-3.6-9.9-2.5"/></svg>