<svg xmlns="http://www.w3.org/2000/svg" viewBox="0 0 226 226"><path d="M217 9l-97 0 11 12c2 2 2 4 0 6-1 2-4 2-6 0l-8-8 0 37 8-8c2-1 5-1 6 0 2 2 2 5 0 7l-11 12 35 0c2 0 4 2 4 4l0 35 12-12c2-1 5-1 6 0 2 2 2 5 0 7l-7 7 37 0-8-7c-2-2-2-5 0-7 2-1 4-1 6 0l12 12 0-97zm-123 46c-1-2-1-5 0-7 2-1 5-1 7 0l7 8 0-37-7 8c-2 2-5 2-7 0-1-2-1-4 0-6l12-12-97 0 0 96 10-11c2-1 5-1 6 0 2 2 2 5 0 7l-7 7 37 0-8-7c-2-2-2-5 0-7 2-1 4-1 6 0l14 14 0-37c0-2 2-4 4-4l35 0-12-12zm-41 76c-2 2-4 2-6 0-2-1-2-4 0-6l8-8-37 0 7 8c2 2 2 5 0 6-1 2-4 2-6 0l-10-10 0 96 97 0-12-12c-1-2-1-4 0-6 2-2 5-2 7 0l7 8 0-37-7 7c-2 2-5 2-7 0-1-1-1-4 0-6l12-12-35 0c-2 0-4-2-4-4l0-37-14 13zm78 40c2 2 2 5 0 6-1 2-4 2-6 0l-8-7 0 37 8-8c2-2 5-2 6 0 2 2 2 4 0 6l-11 12 97 0 0-97-12 11c-2 2-4 2-6 0-2-1-2-4 0-6l8-8-37 0 7 8c2 2 2 5 0 6-1 2-4 2-6 0l-12-11 0 35c0 2-2 4-4 4l-35 0 11 12zm19-96l-75 0 0 75 75 0 0-75zm-146-75l217 0c3 0 5 2 5 4l0 217c0 3-2 5-5 5l-217 0c-2 0-4-2-4-5l0-217c0-2 2-4 4-4z"/></svg>
