<svg xmlns="http://www.w3.org/2000/svg" viewBox="0 0 464.6 464.6"><path d="M0 408.9h136.2v-54.6a51.4 51.4 0 1 1-35.7-93.3 160 160 0 0 0-22.6-57.1c-2.6-4.3 4.2-8.3 6.8-4 11.4 18.8 20.4 39 23.7 60.6 10.3.2 19.9 3.4 27.9 8.8v-90.6A119 119 0 0 0 99 150.3c-4.6-2.1-.6-8.9 4-6.8a118 118 0 0 1 33.4 24V55.7H0zm240.8-245.6q10.7 0 20 4c11.9-14.5 23.6-28 36.3-39V55.7H167.5v148.2l1.3 1.5 3.9 4.6 4 4.7a46 46 0 0 1 12.9-3.1l4.1-.2a45.5 45.5 0 0 1 45.3 41.9q-3-.3-6-.3-11.3.1-21.3 4a59 59 0 0 0-36.1 41.6 40 40 0 0 1-8.1-4.6v114.9h129.6v-109a47 47 0 0 1-7.3-3.1 59 59 0 0 0-23.3-33.3l-.4-4.2-.1-2.5a45.5 45.5 0 0 1 31.1-43.1v-76.2a405 405 0 0 0-29.3 33.4 51 51 0 0 1 23.1 32.5 57 57 0 0 0-36.7 53.4v.1l-3.3-1.2a57 57 0 0 0-57.2-56.1l-2 .1a51 51 0 0 1 49.1-36.4m38.6 140.9q.6 3.7.7 7.5a47.1 47.1 0 0 1-94.1 1.7l-.1-1.7.2-4.2q.3-3 .9-5.8a47 47 0 0 1 57.2-35.8q2.9.8 5.7 1.8a43 43 0 0 1 14.1 8.6 46 46 0 0 1 15.4 27.9m49-196.3a111 111 0 0 1 53-9.1c5 .3 5.1 8.1 0 7.8a114 114 0 0 0-53 8.2v99.8a45.6 45.6 0 0 1 0 84.4v12.5a57.4 57.4 0 0 0 40.1-58 50 50 0 0 1 24.3 12.3c24.4-31.1 23.7-71.3 36.8-109.1 1.7-4.8 9.2-2.7 7.6 2.1-13.7 39.4-13.1 80.7-38.8 112.8a51.4 51.4 0 0 1-70 74v63.5h136.2V55.7H328.4z"/><path d="m167.5 219.7 2.1-1.4-2.1-2.3z"/></svg>