<svg xmlns="http://www.w3.org/2000/svg" viewBox="0 0 612 612"><path d="M592.9 306c0-79.2-32.1-150.9-84-202.9-52-51.9-123.7-84-202.9-84s-150.9 32.1-202.8 84c-52 52-84.1 123.7-84.1 202.9s32.1 151 84 202.9 123.6 84 202.8 84 150.9-32.1 202.9-84 84.1-123.7 84.1-202.9M522.4 89.6C577.8 145 612 221.5 612 306s-34.2 161-89.6 216.4S390.5 612 306 612s-161-34.2-216.4-89.6C34.3 467 0 390.5 0 306S34.2 145 89.6 89.6C145 34.3 221.5 0 306 0s161 34.2 216.4 89.6"/><path d="M296.5 439.9a9.6 9.6 0 0 1 0 19.2H220a9.6 9.6 0 0 1 0-19.2zm38.2-95.6a9.6 9.6 0 0 1 0-19.2c18.5 0 35.2-7.5 47.3-19.6l.5-.5a66.7 66.7 0 0 0-.5-94.1l-.5-.5a67 67 0 0 0-46.8-19.1H220a9.6 9.6 0 0 1 0-19.2h114.8c23.4 0 44.7 9.4 60.2 24.7l.6.6a86 86 0 0 1 .6 121.1l-.6.6a86 86 0 0 1-60.9 25.2"/><path d="M219.9 344.3a9.6 9.6 0 0 1 0-19.2h114.8a9.6 9.6 0 0 1 0 19.2z"/><path d="M267.7 449.5a9.6 9.6 0 0 1-19.2 0V181.7a9.6 9.6 0 0 1 19.2 0z"/><path d="M219.9 382.5a9.6 9.6 0 0 1 0-19.2h133.9a9.6 9.6 0 0 1 0 19.2z"/></svg>