<svg xmlns="http://www.w3.org/2000/svg" viewBox="0 0 1024 1024"><path d="M676.7 216.1c-2.2.5-8.9 3.5-15 6.8-6.2 3.2-22.9 11.8-37.2 19.1-64.7 32.9-89.1 46.1-90.8 49-1.6 2.6-1.7 17.3-1.7 192.3v189.5l-24.9 16.7c-13.8 9.2-26.1 17.8-27.5 19.2-2.6 2.5-2.6 2.8-2.6 17.4 0 18.4-.2 18.1 13.1 19.8 5.2.7 22.9 3 39.4 5.1s42.2 5.5 57 7.4c18.4 2.4 28.2 3.2 30.6 2.7 4-.9 32.6-19 91.1-57.7 30.7-20.3 40.1-27 41.5-29.6 1.7-3.2 1.8-12.6 2.1-224 .1-143.9-.1-221.5-.8-223.2-.5-1.5-2.1-3.1-3.5-3.6-3-1.1-20-3.3-43.5-5.5-9.1-.8-18.1-1.7-20-1.9-1.9-.3-5.2 0-7.3.5m30.8 7.9c11 1.2 22.8 2.4 26.3 2.7 3.4.3 6.2.9 6.2 1.3s-5.1 3.5-11.2 7c-6.2 3.5-17.8 10-25.8 14.5s-18.1 10.1-22.5 12.5c-10.7 5.7-35 19.1-45.5 25-4.7 2.6-10.7 5.9-13.5 7.2l-5 2.5-28.5-2.8c-15.7-1.5-30.7-2.8-33.5-2.9-7.1-.1-8.5-1.2-4.3-3.7 7.2-4.3 28.3-15.3 96.2-49.8 30.6-15.6 33.1-16.7 37-16.1 2.2.3 13.1 1.5 24.1 2.6m38.5 24.1c0 7.6-.2 13.9-.5 13.9-.4 0-6-3.4-12.6-7.6l-12.1-7.7 7.4-4.2c13.6-7.8 16.3-9.2 17.1-8.8.4.2.7 6.7.7 14.4m-14.9 11.5 14.9 9.6v12.4c0 6.8-.2 12.4-.5 12.4s-9.4-5.6-20.2-12.3c-10.9-6.8-22.4-13.9-25.5-15.8-3.2-1.9-5.7-3.6-5.7-3.9 0-.8 19.2-11.8 20.8-11.9.8-.1 8.1 4.2 16.2 9.5m-13.8 23.9 28.7 18v54.7l-3.2-2c-1.8-1.1-6.9-4.1-11.3-6.8-4.4-2.6-13.4-8.1-20-12.2-6.6-4.2-17.4-10.8-24-14.7-6.6-4-20.2-12.2-30.2-18.3l-18.3-11 4.8-2.5c2.6-1.4 13.5-7.3 24.2-13.1s19.7-10.5 20.1-10.3c.3.1 13.4 8.3 29.2 18.2m-78.6 13.9c2.7 1.8 14.5 9.2 26.3 16.3 23.8 14.4 26.2 15.9 53.5 32.8 10.5 6.5 20.9 13 23.3 14.4l4.2 2.6v26.3c0 24.5-.1 26.4-1.7 25.8-.9-.4-13.9-8.1-28.8-17.3-14.8-9.1-42.3-25.9-61-37.3l-34-20.7v-38.8l6.5-3.6c3.6-2 6.6-3.7 6.7-3.8.2-.1 2.4 1.4 5 3.3m-59.7 1.7c19 1.7 34.6 3.2 34.8 3.3.5.5.2 452-.4 452.5-.3.3-6.4-.2-13.7-1.2-7.3-.9-23.8-3-36.7-4.7s-34.7-4.4-48.5-6c-13.7-1.7-26.5-3.2-28.2-3.5l-3.3-.6v-23.8l11.8.5c6.4.3 17.6.9 24.7 1.4 9.4.6 13.7.5 15.5-.4l2.5-1.1.2-209c.2-115 .5-209.6.8-210.2.2-.8 1.5-1.1 3.2-.8 1.5.3 18.3 1.9 37.3 3.6m64.5 62.1c38.7 23.5 61.5 37.4 81.8 50l20.7 12.9v26c0 14.2-.3 25.9-.6 25.9-.4 0-6.4-3.5-13.3-7.8s-18-11.2-24.6-15.2c-6.6-4.1-16.5-10.1-22-13.5S666.3 427.8 655 421c-30.2-18.2-31.1-18.8-32.9-20.4-1.4-1.3-1.6-4.6-1.4-27.3.1-14.2.2-26 .2-26.2.1-.2.9.3 1.9 1.1.9.8 10.3 6.6 20.7 13m-11.8 52.4c5.9 3.7 14 8.6 17.8 10.9 26.6 15.8 77.9 47.4 91.3 56.2l5.2 3.4v25.5c0 13.9-.3 25.4-.8 25.4-.4 0-6.6-3.5-13.7-7.8-7.2-4.3-27.2-16.4-44.5-26.8-40.2-24.2-58.6-35.4-63.1-38.4l-3.6-2.4-.2-26.3c-.1-14.5 0-26.3.3-26.3.2 0 5.3 3 11.3 6.6m-.1 60c6 3.7 14.1 8.6 17.9 10.9 63 38 94.2 56.9 95.3 57.7.9.8 1.2 7.3 1.2 26.4 0 14-.2 25.4-.4 25.4-.3 0-2.6-1.3-5.3-2.9-2.6-1.6-22.8-13.6-44.8-26.6-65-38.6-69.9-41.5-72.4-43.4-2.3-1.8-2.3-1.8-2.6-27.9-.2-14.4-.2-26.2 0-26.2.1 0 5.1 3 11.1 6.6m20.7 72c17.2 10.2 45.3 27 62.4 37.2l31.3 18.7v24.7c0 16.7-.3 24.8-1.1 24.8-.9 0-26.1-14.6-67.4-39-7.1-4.2-18.6-10.9-25.5-15-6.9-4-16.8-9.8-22-12.9l-9.5-5.6-.2-25.8c-.1-14.1.1-25.7.3-25.7.3 0 14.6 8.4 31.7 18.6M634 593.2c5.2 3.1 19.6 11.5 32 18.8s26.1 15.4 30.5 18 17.2 10.1 28.5 16.7l20.5 12.1-.3 5.9c-.2 3.4-1 6.5-1.9 7.5-2.8 3.1-27.5 18.9-28.8 18.5-2.6-1.1-67.9-38.6-84.9-48.8l-8.9-5.4-.3-25c-.1-13.8 0-25.4.3-25.8.3-.5 1.2-.2 2.1.6 1 .8 6 3.9 11.2 6.9m-8.2 53.2c3.5 2.2 13.9 8.2 52.7 30.6 8.8 5.1 19.5 11.3 23.8 13.8l7.8 4.5-7.3 4.6c-4 2.6-12.6 8.2-19 12.4-6.5 4.3-12.3 8-13.1 8.2-1.1.5-23.2-10.8-42.4-21.7-6.4-3.7-7.2-4.5-7.7-7.7-.9-5.7-.3-47.1.6-47.1.5 0 2.5 1.1 4.6 2.4m-94 49.8c-.2 9.5-.7 15.2-1.3 15.1-.5 0-10.1-.4-21.2-.8-11.2-.4-20.3-1.1-20.3-1.4.1-.7 41.2-28.1 42.3-28.1.4 0 .6 6.9.5 15.2m100.3 11.1c6.3 3.5 16.2 8.9 22.1 12l10.7 5.6-2.7 1.7c-10.7 7.1-41.4 26.4-41.8 26.4-.3 0-.4-11.7-.2-26 .1-14.3.3-26 .4-26s5.3 2.9 11.5 6.3"/><path d="M393 322.9c-1.4.5-4.4 1.9-6.5 3.3-2.2 1.4-11 6.4-19.5 11.3-8.5 4.8-22.9 13-32 18.3-9.1 5.2-18.4 10.6-20.8 12-2.3 1.3-5.1 3.5-6.2 4.9-2 2.5-2 4.2-2 171.8 0 159.9.1 169.3 1.8 170.7 1.1 1 6.9 2.1 16.7 3.2 8.3 1 22 2.6 30.5 3.6 43.3 5.2 61.6 7.1 64.2 6.6 2.5-.5 25-16.2 73.8-51.5 9.5-6.8 16-12.3 16.7-13.9s1.2-7.7 1.3-15.3c0-10.9-.3-13-1.8-15-1.9-2.3-8.7-3.2-75.9-10.5l-6.3-.7V474.9c0-142.2-.1-147-1.9-148.8-1.5-1.5-4-2-12.7-2.5-6-.4-12.2-.9-13.9-1.1-1.6-.2-4.1 0-5.5.4m20.9 6.7c.6.5 1.2.1-16.4 10.6-14.3 8.5-30.2 18.1-50.9 30.8l-6.8 4.2-10.9-.8c-6-.3-10.9-.9-10.9-1.3 0-.7-1.7.3 41.8-24.7l35.4-20.4 9.1.7c5.1.3 9.4.7 9.6.9m7.1 148.2v144.8l-22.2 16.6c-12.3 9.1-29.5 22-38.3 28.7-8.8 6.6-16.3 12.1-16.7 12.1-.5 0-.8-67.5-.8-150V380.1l8.7-5.3c13.3-8.2 68.8-41.7 69.1-41.7.1-.1.2 65.1.2 144.7m-87.7-97.2 3.7.6V535c0 132.6.2 153.9 1.4 154.9 1.4 1.1 33.3 5.2 65.1 8.4l13 1.2.3 11.9.3 11.8-3.3-.5c-1.8-.4-17.5-2.2-34.8-4.2s-38.9-4.5-48-5.5c-9.1-1.1-17.1-2-17.7-2-1 0-1.3-33.9-1.3-166.1V378.8l8.8.7c4.8.3 10.4.8 12.5 1.1M445.5 630c10.5 1.1 25.3 2.7 33 3.5 7.7.9 15.7 1.8 17.8 2.1l3.7.6-5.2 3.9c-5.9 4.4-21.2 15.4-54.1 38.7l-21.9 15.5-35-4.1c-31.9-3.8-37-4.6-35.7-5.5.2-.2 8.5-6.4 18.4-13.9 48.1-36.1 57.1-42.8 58.5-42.8.8 0 10.1.9 20.5 2m59.5 20.9v9.9l-15.7 11.5c-28.1 20.3-65.2 46.7-65.7 46.7-.4 0-.6-4.6-.6-10.3v-10.2l13.6-9.5c7.5-5.2 25.6-18.1 40.2-28.7 14.7-10.5 27-19.2 27.5-19.2.4-.1.7 4.4.7 9.8"/></svg>