<svg xmlns="http://www.w3.org/2000/svg" viewBox="0 0 1024 1024"><path d="M165.9 242.1c-6.1 1-12.7 4.9-18.3 11-7.2 7.7-9.1 14-10.6 34.4-1.7 22.8-2.5 91.8-1.1 98.9 1.5 8 4.6 13.9 10.1 19 7 6.6 13.8 8.7 29.7 9.4l13.3.5-.1 130.4-.1 130.5-7.1 8c-4 4.4-11.1 12.5-15.9 18L157 712v14.3c0 9.8.4 14.7 1.2 15.5.9.9 8.6 1.2 28.5 1.2 27.4 0 27.4 0 29.6-2.3 1.2-1.3 5.9-6.6 10.4-11.8 4.4-5.2 12-13.8 16.7-19.3l8.6-9.8v-13.4c0-15.8-.8-17.4-8.5-17.4H239v-55h50v7.2c0 9-2.4 34.1-4.5 46.4-1.6 9.9-6.1 23.6-10.6 32.6-3.4 6.8-3.6 9.8-.8 12.4 2.1 1.9 7.1 1.9 216.8 1.9 118 0 215.8-.3 217.3-.7 2.2-.7 3.3-2.5 7.1-11.5 2.5-6 5.6-14.2 7-18.3 4.4-13 8.6-42.9 8.7-61.3V614h54v55h-4.1c-7.8 0-7.9.2-7.9 16.9v14.8l8.8 10c4.8 5.4 13.1 15 18.5 21.1l9.9 11.2h27.3c20.6 0 27.5-.3 28.3-1.3.6-.6 1.2-7.5 1.4-15.3l.3-14.1-6-6.9c-3.3-3.8-10.4-11.8-15.7-17.7l-9.8-10.8V415.3l13.3-.6c17.9-.7 23.6-2.7 31.1-10.7 9.2-10 9.1-9.6 9-58-.2-48.9-1.4-73.4-4.2-80.7-4-10.7-11.6-18.4-21.4-21.9-3.8-1.4-41.8-1.6-348.9-1.7-189.5-.1-346.2.1-348 .4m76.3 9.5 7.6.7-1.9 5.4c-4.3 12.5-5.2 23.5-5.6 70.9-.4 41.1-.3 45.2 1.2 46.7 1.4 1.5 4.5 1.7 23.6 1.7H289v28h-61.3c-69.2 0-68.4.1-75.5-7-7-7-7.2-8.6-7.2-49.4 0-21.8.6-44.4 1.5-57.1 1.7-23.6 3.2-28.6 10.3-34.5 6.6-5.5 9.5-5.9 45.3-5.9 17.9-.1 36 .2 40.1.5m617 1c6.4 2.1 12.1 7.4 14.7 13.5 1.9 4.4 2.5 8.5 3.7 28.8.7 13 1.4 38.5 1.4 56.7 0 37.6-.3 39.8-7.3 46.5-7.1 7-6.2 6.9-77.9 6.9H730v-28h13.2c10.8 0 13.5-.3 15-1.7 1.7-1.5 1.8-4.8 1.8-62.4v-60.8l10.8-.4c5.9-.1 27.2-.4 47.3-.5 30.8-.2 37.3 0 41.1 1.4M750 271.5V291H253v-6.1c0-8.9 1.9-19.6 4.7-26.7l2.5-6.2H750zm0 42V326H252v-25h498zM713 337c1.9 2.9 5.2 12.5 6.6 19 2.1 9.9 2 264.4-.1 284.3-2.7 25.9-6.3 41.4-13.2 57.4l-3.5 8.3H492.9c-188.3 0-209.9-.2-209.9-1.5 0-.9.8-3.2 1.9-5.3 5-10.1 8.8-25.5 11.8-48.7 1.6-11.8 1.7-25.4 1.4-148.1-.3-153.2-.4-151.1 7.2-163l2.4-3.9h202.2c178.6 0 202.3.2 203.1 1.5m-418.5 3.8c-3 6-5.5 16.1-5.5 22.5v4.7l-18.7-.2-18.8-.3-.3-15.8-.2-15.7h45.9zm437.5.4c-2.2 2.9-4 5.6-4 6 0 .5-.4.8-.8.8s-1.3-1.9-1.9-4.3c-.7-2.3-1.5-5-1.8-6-.6-1.5 0-1.7 5.9-1.7h6.6zm18 10.8v16h-20v-3.8c0-2.8 1.2-5.6 4.5-10.6 5.1-7.9 13.2-17.6 14.6-17.6.5 0 .9 6.9.9 16M229 545v130h-31V415h31zm59.8-53.3-.3 76.8-24.7.3-24.8.2V415h50zm495.2.3v77l-26.7-.2-26.8-.3-.3-76.8-.2-76.7h54zm41 53v130h-31V415h31zm-536.2 46.2.3 12.8H239v-26.1l24.8.3 24.7.3zM784 591v13h-54v-12.3c0-6.8.3-12.7.7-13 .3-.4 12.5-.7 27-.7H784zm51.8 101.3c3.7 3.9 8.9 9.5 11.6 12.4l4.9 5.3h-37.1l-11.1-12.2C798 691.1 793 685.3 793 685s8.1-.4 18.1-.2l18.1.3zm-607.5-4.9c-1 1.4-5.6 7-10.3 12.5l-8.5 10h-18.8l-18.8.1 2.1-2.8c1.1-1.5 6-7.1 10.8-12.4l8.7-9.6 18.3-.1 18.4-.1zm14.7 4c0 4.1-.5 5.8-1.8 6.8-1 .7-3.8 3.8-6.3 7-6.6 8.1-17.3 19.8-18.1 19.8-.5 0-.8-1.9-.8-4.3 0-3.8.8-5.1 7.8-13.4 4.2-5 10-11.8 12.7-15.2 2.8-3.3 5.3-6 5.8-6 .4-.1.7 2.3.7 5.3m542.5-.5c1.7 2.1 7.2 8.5 12.3 14.1 9 10.2 9.2 10.5 9.2 15.4 0 6 1.6 7.2-14.9-11.3-10.9-12.2-11.1-12.4-11.1-17.2 0-2.7.3-4.9.8-4.9.4.1 2.1 1.8 3.7 3.9M207 727v7h-40v-14h40zm650 0v7l-20.2-.2-20.3-.3-.3-6.8-.3-6.7H857z"/><path d="M782.7 271.8c-2.3 2.5-2.1 5.9.2 7.2 2.8 1.5 25.4 1.3 26.9-.2 1.9-1.9 1.4-5.5-1-7.2-1.7-1.2-4.9-1.6-13.4-1.6-9.5 0-11.3.3-12.7 1.8m56.9-.8c-10 .5-10.9.7-11.7 2.6-.5 1.4-.2 2.9.7 4.3 1.4 1.9 2.4 2.1 13 2.1 11.2 0 11.5-.1 12.6-2.4 2.6-5.8-.6-7.2-14.6-6.6m-56.9 24.8c-2.1 2.3-2.2 4.6-.1 6.6 1.2 1.3 3.9 1.6 13 1.6 6.4 0 12.4-.5 13.5-1 2.1-1.2 2.5-4.1.9-7.1-1-1.7-2.2-1.9-13.4-1.9-10.6 0-12.5.2-13.9 1.8"/></svg>