<svg xmlns="http://www.w3.org/2000/svg" viewBox="0 0 1024 1024"><path d="M497.5 224c-123 5.8-228.6 97.2-252.4 218.5-4.3 21.6-5.5 37.2-4.8 60.8.6 21.1 2.1 33.4 6.3 52.7 16.5 74.6 67.7 141.5 136.4 178.2 78.2 41.8 171.4 43.2 250 3.9 46.6-23.4 82.8-56.1 110.3-99.9 22.1-35.2 35.3-74.2 39.8-118.1 1.4-13.9.6-47-1.5-62.1C764.4 334.4 662.1 236.3 539 225.1c-18.3-1.6-25.5-1.8-41.5-1.1m44.5 10.6c59.3 7.2 113.5 33.7 155.5 75.8 41.6 41.8 67.1 93.2 75.1 151.6 2.6 18.9 2.3 53.1-.6 71.5-5.5 35.1-16.2 65-33.7 94.5-21.5 35.9-47.6 63.2-82.4 86-31.7 20.7-63.5 33.1-103.4 40.1-15.4 2.7-48.9 3.7-66 2-88.2-8.8-166.8-61.8-207.9-140.1-13.9-26.5-23.7-57.9-27.1-86.3-6.4-54.8 1.6-102.8 24.7-149.5 41.4-83.4 123.5-139.5 214.8-146.5 11.2-.9 40.5-.4 51 .9"/><path d="M492.4 249c-48.2 4-95.7 22.8-133.3 52.8-12.7 10.1-32 29.3-41.6 41.6-26.3 33.3-43.2 72.4-50.2 116.1-2.6 15.8-2.5 57.5.1 73 18 108.9 102.4 191.7 211.1 207.1 16.6 2.3 47.8 2.3 64.9 0 34.5-4.7 68-16.4 96-33.4 47.8-29.1 83-70.7 103.6-122.6 4.5-11.4 10.5-33.3 13.1-48.2 2.1-11.3 2.4-16.1 2.4-38.9 0-27.1-.5-32.4-5.1-53.5-7.6-34.5-26-73.3-47.8-100.4-32.4-40.3-75.1-69.3-123.9-84-11.8-3.6-27.2-6.9-39.7-8.5-11.2-1.5-38.1-2.1-49.6-1.1m45.4 10.1c52.3 5.7 103.3 30.4 142.2 69 18.7 18.6 33 38.7 45.4 63.9 16.8 34 24 65.4 23.9 103.5-.1 38.8-7.2 70.2-23.8 104-13.9 28.3-36.4 56.9-60.5 77-30 24.9-67.8 43.2-105 50.8-40.5 8.3-84.9 5.8-122.8-6.9-57.1-19.2-106-60.2-134.8-113-28.4-52.2-35.9-115.5-20.3-172.9 25.2-93.1 104.8-162.7 200.1-175 12.8-1.6 42.6-1.9 55.6-.4"/><path d="M429.7 331.8c-1.6 1.7-1.7 7.8-1.7 78V486h-19.3c-17.5 0-19.6.2-21 1.8-1.5 1.6-1.7 4.7-1.7 22.5 0 19.4.1 20.7 1.9 21.7 1.2.6 9.8 1 21 1H428v17h-19.8c-14.1 0-20.1.3-21 1.2-1.7 1.7-1.7 41.9 0 43.6.9.9 6.9 1.2 21 1.2H428v28.9c0 28.8 0 29 2.2 30.5 1.9 1.3 5.9 1.6 23.4 1.6 18.7 0 21.4-.2 23.3-1.8 2-1.6 2.1-2.6 2.4-30.2l.2-28.5 47-.2c46.5-.3 47-.3 48.8-2.4 1.5-1.9 1.7-4.5 1.7-20.9s-.2-19-1.7-20.9c-1.8-2.1-2.3-2.1-48.8-2.4l-47-.2-.3-8.3-.3-8.2 40.8-.1c22.4 0 41.5-.2 42.3-.3.8-.2 4.4-.6 8-1 8.3-.9 25.6-6.7 33.7-11.2 7.7-4.3 19.2-13.4 25.3-20 19.1-20.6 29.3-51.6 26-79.5-4.3-37.2-26.5-67.8-59.4-82.1-19-8.3-17.3-8.1-95.2-8.5-66.4-.4-69.1-.3-70.7 1.5m140.8 9.2c34.7 6.3 61.7 30.5 72.2 64.7 2.4 8.1 2.7 10.2 2.7 25.8 0 15.7-.2 17.7-2.7 25.8-10.3 33.3-36.1 57-70 64.2-5.4 1.2-16.5 1.5-53.2 1.5-40.8 0-46.5.2-47.9 1.6-1.3 1.3-1.6 4.3-1.6 16.8 0 10.5.4 15.6 1.2 16.4.9.9 13.2 1.2 49 1.2H568v28h-47.8c-35.8 0-48.1.3-49 1.2s-1.2 8.9-1.2 30V647h-33v-28.8c0-21.1-.3-29.1-1.2-30s-6.9-1.2-21-1.2H395v-28h19.8c14.1 0 20.1-.3 21-1.2.8-.8 1.2-6 1.2-17 0-14.5-.1-15.8-1.9-16.8-1.2-.6-9.8-1-21-1H395v-27h19.2c16.4 0 19.4-.2 21-1.7 1.7-1.5 1.8-5.3 1.8-77.8 0-41.9.2-76.4.4-76.6 1-1 127.4.1 133.1 1.1"/><path d="M471.6 368.5c-1.4 1.5-1.6 7.5-1.6 63s.2 61.5 1.6 63c1.5 1.5 5.9 1.6 45.3 1.3 37.3-.4 44.5-.7 49.6-2.1 30.3-8.6 49-34.8 47.2-66.1-1-17.3-6.5-29.5-18.6-41.6-7.9-7.8-14.9-12.2-26.1-16.2-6.4-2.2-7.4-2.3-51.1-2.6-40.3-.3-44.8-.2-46.3 1.3m92.8 9.9c20.7 5.8 36.5 23.5 39.7 44.5 4.2 27.8-12.8 54.3-39.4 61.2-6.3 1.7-11.3 1.9-46.4 1.9H479v-54.3c0-29.9.3-54.7.8-55.1.4-.5 18.3-.6 39.7-.3 32.2.4 40 .7 44.9 2.1"/></svg>