<svg xmlns="http://www.w3.org/2000/svg" viewBox="0 0 214.3 214.3"><path d="m196.9 55.2-.2-16.5c0-4.1-3.4-7.5-7.5-7.5-32.1 0-56.5-9.2-76.9-29a7.6 7.6 0 0 0-10.5 0C81.4 22 57 31.2 25 31.2a7.6 7.6 0 0 0-7.5 7.5l-.2 16.5c-1 53.8-2.4 127.6 87.3 158.7q1.2.4 2.5.4t2.5-.4C199.4 182.7 198 109 196.9 55.2m-89.8 143.6c-77-28-75.8-89.2-74.8-143.4l.2-9.5c30-1.3 54.1-10.4 74.6-28.3a116 116 0 0 0 74.6 28.3l.2 9.5c1.1 54.2 2.2 115.4-74.8 143.4"/><path d="m133 81.1-36.2 36.2-15.4-15.4c-2.9-2.9-7.7-2.9-10.6 0s-2.9 7.7 0 10.6l20.8 20.8q2.3 2.2 5.3 2.2c3 0 3.8-.7 5.3-2.2l41.5-41.5A7.6 7.6 0 0 0 133 81.1"/></svg>