<svg xmlns="http://www.w3.org/2000/svg" viewBox="0 0 404.7 404.7"><path d="M136 5.1A9 9 0 0 1 148 1l3 1.4a9 9 0 0 1-7.7 16.3l-3-1.5a9 9 0 0 1-4.3-12M246 88l-72 34.3a9 9 0 0 0 3.9 17.1 9 9 0 0 0 3.8-.9l72.2-34.4a9 9 0 0 0 4.2-12 9 9 0 0 0-12-4.2m-41.2-40L246 67.6a9 9 0 0 0 4 .9 9 9 0 0 0 3.8-17.2l-41.3-19.6a9 9 0 0 0-7.7 16.2m-80 38.8h80c5 0 9-4 9-9a9 9 0 0 0-9-9h-80c-5 0-9 4-9 9a9 9 0 0 0 9 9m49-53.5 2.7 1.2a9 9 0 0 0 4 1 9 9 0 0 0 3.8-17.2l-2.7-1.3a9 9 0 0 0-7.7 16.3M87.6 86.8h3.3a9 9 0 0 0 9-9 9 9 0 0 0-9-9h-3.3a9 9 0 0 0-9 9 9 9 0 0 0 9 9m55.7 50-3 1.5a9 9 0 0 0-4.3 12 9 9 0 0 0 8.1 5.1 9 9 0 0 0 3.9-.8l3-1.5a9 9 0 0 0 4.3-12 9 9 0 0 0-12-4.2M342.5 253a9 9 0 0 0-9 9v5.2a9 9 0 1 0 18 0V262a9 9 0 0 0-9-9m50.6-92.8v235.4a9 9 0 0 1-9 9H242.8a9 9 0 0 1-9-9V160.3c0-4.3 3-8 7.2-8.8a67 67 0 0 1 35.5-38l4.2-40.5a9 9 0 0 1 9-8h47.5a9 9 0 0 1 9 8l4.2 40.4a67 67 0 0 1 35.5 38.1 9 9 0 0 1 7.2 8.8m-97.9-53.2a89 89 0 0 1 18.2-1.9q9.4 0 18.3 1.9L329 83h-31.3zm-34.6 44.2h105.6c-8.9-16.6-29.6-28-52.8-28s-43.8 11.4-52.8 28m114.5 18h-23.6v61.4a9 9 0 1 1-18 0V199a9 9 0 0 1-16.1-5.5v-24.3h-65.6v217.4h123.3zm-208.4 82.3v45.6H188a9 9 0 1 1 0 18h-56.5v45.6H188a9 9 0 1 1 0 18H20.6a9 9 0 1 1 0-18h93v-45.6h-93a9 9 0 1 1 0-18h21.5v-45.6H20.6a9 9 0 1 1 0-18h53.7v-45.7H20.6a9 9 0 1 1 0-18h82.2a9 9 0 1 1 0 18H92.3v45.7h95.8a9 9 0 1 1 0 18zm-18 0H60v45.6h88.6z"/></svg>