<svg xmlns="http://www.w3.org/2000/svg" viewBox="0 0 119 145"><path d="M6 32l0 41c0 16 5 31 15 43 10 12 23 20 39 24 15-4 28-12 38-24 10-12 15-27 15-43l0-41c-10-2-20-5-29-9-9-5-18-10-24-16-7 6-16 11-25 16-9 4-19 7-29 9zm18 14l0 27c0 10 4 20 10 28 6 8 15 14 26 16 10-2 19-8 25-16 6-8 10-18 10-28l0-27c-7-1-13-4-19-6-6-3-12-7-16-11-5 4-11 8-16 11-6 2-13 5-20 6zm-6 27l0-29c0-2 1-3 3-3 7-1 14-4 20-7 6-3 12-6 17-11 1-1 2-1 3 0 5 5 11 8 17 11 6 3 13 6 20 7 2 0 3 1 3 3l0 29c0 12-4 23-12 32-7 9-17 15-29 18 0 0-1 0-1 0-12-3-22-9-29-18-8-9-12-20-12-32zm-18 0l0-43c0-1 1-3 2-3 11-2 22-5 31-9 9-5 18-11 25-17 1-1 2-1 3 0 7 6 16 12 25 16 9 5 20 8 30 10 2 0 3 1 3 3l0 43c0 17-6 33-17 46-10 13-25 23-42 26 0 0-1 0-1 0-17-3-32-13-42-26-11-13-17-29-17-46z"/></svg>
