<svg xmlns="http://www.w3.org/2000/svg" viewBox="0 0 404.666 404.666"><path d="M136 5.128A9 9 0 0 1 147.997.877l3.007 1.434a9 9 0 0 1-7.746 16.248l-3.007-1.434A9 9 0 0 1 136 5.128m110.04 82.739-72.152 34.407a9.002 9.002 0 0 0 3.88 17.126 9 9 0 0 0 3.868-.878l72.152-34.407a9 9 0 0 0 4.25-11.998c-2.142-4.488-7.515-6.388-11.998-4.25m-41.247-39.962 41.247 19.669a9 9 0 0 0 3.868.878 9.003 9.003 0 0 0 3.88-17.126l-41.247-19.669a9 9 0 0 0-7.748 16.248m-79.958 38.843h.012l79.936-.101c4.97-.006 8.994-4.041 8.988-9.012a9 9 0 0 0-9-8.988h-.012l-79.936.101c-4.97.006-8.994 4.041-8.988 9.012a9 9 0 0 0 9 8.988m49.053-53.582 2.652 1.265a9 9 0 0 0 3.867.878 9 9 0 0 0 3.879-17.126l-2.652-1.265a9 9 0 0 0-7.746 16.248M87.564 86.793h.011l3.333-.004a9 9 0 0 0 8.989-9.011 9 9 0 0 0-9-8.989h-.011l-3.333.004a9 9 0 0 0-8.989 9.011 9 9 0 0 0 9 8.989m55.692 50.089-3.008 1.435a9 9 0 0 0-4.249 11.997 9 9 0 0 0 8.129 5.128 8.95 8.95 0 0 0 3.868-.879l3.008-1.435a9 9 0 0 0 4.249-11.997c-2.14-4.487-7.513-6.39-11.997-4.249m199.29 116.21a9 9 0 0 0-9 9v5.203c0 4.971 4.029 9 9 9s9-4.029 9-9v-5.203a9 9 0 0 0-9-9m50.511-92.788v235.36a9 9 0 0 1-9 9h-141.22a9 9 0 0 1-9-9v-235.36c0-4.328 3.055-7.942 7.126-8.805 5.591-16.503 18.561-30.016 35.494-38.091l4.246-40.361a9 9 0 0 1 8.95-8.059h47.586a9 9 0 0 1 8.95 8.059l4.247 40.363c16.934 8.074 29.902 21.586 35.494 38.089 4.072.863 7.127 4.477 7.127 8.805m-97.837-53.201a88.7 88.7 0 0 1 18.226-1.875c6.271 0 12.377.647 18.229 1.875l-2.537-24.114h-31.382zm-34.576 44.201h105.6c-8.934-16.574-29.666-28.076-52.804-28.076s-43.868 11.503-52.801 28.076zm114.41 18h-23.511v61.39c0 4.971-4.029 9-9 9s-9-4.029-9-9v-31.639a9 9 0 0 1-16.156-5.459v-24.292h-65.552v217.36h123.22zm-208.4 82.265v45.63h21.466c4.971 0 9 4.029 9 9s-4.029 9-9 9h-30.279q-.186.003-.373 0h-25.841v45.631h56.493c4.971 0 9 4.029 9 9s-4.029 9-9 9H20.6c-4.971 0-9-4.029-9-9s4.029-9 9-9h93.031v-45.631h-62.38q-.187.003-.373 0H20.6c-4.971 0-9-4.029-9-9s4.029-9 9-9h21.465v-45.63H20.6c-4.971 0-9-4.029-9-9s4.029-9 9-9h53.736v-45.63H20.6c-4.971 0-9-4.029-9-9s4.029-9 9-9h82.23c4.971 0 9 4.029 9 9s-4.029 9-9 9H92.336v45.63h95.789c4.971 0 9 4.029 9 9s-4.029 9-9 9h-21.466zm-18 0H60.06v45.63h88.594z"/></svg>