<svg xmlns="http://www.w3.org/2000/svg" viewBox="0 0 612 612"><path d="M592.9 306c0-79.2-32.1-150.9-84-202.9-52-51.9-123.7-84-202.9-84s-150.9 32.1-202.8 84c-52 52-84.1 123.7-84.1 202.9s32.1 151 84 202.9 123.6 84 202.8 84 150.9-32.1 202.9-84 84.1-123.7 84.1-202.9M522.4 89.6C577.8 145 612 221.5 612 306s-34.2 161-89.6 216.4S390.5 612 306 612s-161-34.2-216.4-89.6C34.3 467 0 390.5 0 306S34.2 145 89.6 89.6C145 34.3 221.5 0 306 0s161 34.2 216.4 89.6"/><path d="M296.5 439.9c5.3 0 9.6 4.3 9.6 9.6s-4.3 9.6-9.6 9.6H220c-5.3 0-9.6-4.3-9.6-9.6s4.3-9.6 9.6-9.6zm38.2-95.6c-5.3 0-9.6-4.3-9.6-9.6s4.3-9.6 9.6-9.6c18.5 0 35.2-7.5 47.3-19.6l.5-.5c11.8-12 19.1-28.6 19.1-46.8 0-18.5-7.5-35.2-19.6-47.3l-.5-.5c-12.1-11.8-28.6-19.1-46.8-19.1H220c-5.3 0-9.6-4.3-9.6-9.6s4.3-9.6 9.6-9.6h114.8c23.4 0 44.7 9.4 60.2 24.7l.6.6c15.6 15.6 25.2 37.1 25.2 60.9 0 23.4-9.4 44.7-24.6 60.2l-.6.6c-15.6 15.5-37.1 25.2-60.9 25.2"/><path d="M219.9 344.3c-5.3 0-9.6-4.3-9.6-9.6s4.3-9.6 9.6-9.6h114.8c5.3 0 9.6 4.3 9.6 9.6s-4.3 9.6-9.6 9.6z"/><path d="M267.7 449.5c0 5.3-4.3 9.6-9.6 9.6s-9.6-4.3-9.6-9.6V181.7c0-5.3 4.3-9.6 9.6-9.6s9.6 4.3 9.6 9.6z"/><path d="M219.9 382.5c-5.3 0-9.6-4.3-9.6-9.6s4.3-9.6 9.6-9.6h133.9c5.3 0 9.6 4.3 9.6 9.6s-4.3 9.6-9.6 9.6z"/></svg>