<svg xmlns="http://www.w3.org/2000/svg" viewBox="0 0 764.749 764.749"><path d="M223.49 70.336a8.419 8.419 0 0 0-14.237-4.078c-.564.581-.922.792-.93.846-2.677-.446-9.152-8.112-13.037-12.708-9.341-11.05-20.963-24.802-36.9-24.802-1.191 0-2.399.08-3.346.21-20.378 2.033-29.18 13.411-32.977 22.592-11.374 27.509 7.539 70.686 12.102 79.172l-.072.042c26.326 48.834 106.3 93.876 109.69 95.77a8.41 8.41 0 0 0 9.125-.594 8.43 8.43 0 0 0 3.199-8.571l-32.618-147.88zm-74.575 53.284a8 8 0 0 0-.434-.716c-4.23-7.417-19.78-46.742-10.124-65.672 3.199-6.268 9.202-9.757 18.631-10.705q.709-.094 1.397-.093c8.12 0 16.577 10.006 24.041 18.838 8.36 9.892 16.413 19.225 26.823 18.656l26.183 118.71c-24.503-15.6-69.355-47.18-86.517-79.016zM611.42 32.245c-17.596-2.366-30.451 12.688-40.479 24.566-3.928 4.647-10.494 12.431-12.894 12.771 0-.004-.383-.147-1.103-.879-2.168-2.198-5.372-3.048-8.331-2.189a8.4 8.4 0 0 0-5.894 6.276l-32.603 147.76a8.42 8.42 0 0 0 3.199 8.566 8.41 8.41 0 0 0 9.126.598c3.389-1.89 83.322-46.915 109.61-95.749l-.08-.046c4.706-8.642 23.539-51.107 12.254-78.898-3.768-9.286-12.57-20.778-32.805-22.781zm6.277 92.97a9 9 0 0 0-.472.774c-17.111 31.794-61.93 63.374-86.425 78.979l26.166-118.6q.437.025.88.025c10.157 0 17.831-9.093 25.96-18.72 7.45-8.827 15.899-18.833 23.998-18.833.459 0 .922.034 1.671.126 9.169.909 15.18 4.407 18.375 10.692 9.673 19.028-5.906 58.168-10.153 65.555z"/><path d="m652.81 12.41-.396-.215C642.783 4.656 630.719.834 616.537.834c-18.244 0-35.878 6.386-45.567 10.616a8.4 8.4 0 0 0-3.107-2.122C551.872 3.052 513.026 0 449.113 0c-99.21 0-227.4 7.627-248.72 8.941C191.709 3.119 179.779.172 164.87.172c-8.899 0-16.72 1.069-20.479 1.583-.745.101-1.313.185-1.68.223a8.3 8.3 0 0 0-1.814.273C104.56 11.904 83.332 30.3 77.792 56.925c-8.023 38.584 20.429 79.361 28.721 89.132 16.88 34.72 91.628 83.053 151.69 117.65q.841.487 1.486.854c9.539 14.952 33.554 42.6 55.498 67.542 4.887 5.552 8.751 9.938 9.711 11.138 39.085 52.45-.875 101.34-1.069 101.56a9 9 0 0 0-.989.914c-3.41 3.688-5.026 7.661-4.799 11.815.287 5.225 3.372 8.887 6.192 11.53-25.16 41.228-52.678 46.005-53.814 46.182a8.425 8.425 0 0 0-7.055 6.449 103 103 0 0 0-1.57 8.701c-9.143.009-17.326.013-24.226.017-9.556 0-17.73 3.216-23.64 9.299-5.881 6.054-8.971 14.649-8.693 24.175.194 7.447.013 173.18 0 174.33-.135 7.695 2.017 13.887 6.39 18.399 5.068 5.229 12.729 7.838 23.337 7.981 4.508.101 35.738.155 92.828.155 68.847 0 157.59-.079 199.44-.134 9.581 0 17.769-3.221 23.679-9.312 5.868-6.05 8.94-14.637 8.65-24.192-.177-5.506-.059-165 .004-174.28.177-11.812-4.849-25.98-29.773-26.401-2.223-.042-11.201-.076-26.726-.093-.67-4.167-2.202-8.643-6.142-11.349a9 9 0 0 0-.695-.434c-34.669-19.153-49.023-39.999-54.163-49.613a15.7 15.7 0 0 0 3.19-5.034c2.56-6.517.24-13.378-1.343-16.098a8.3 8.3 0 0 0-.951-1.317c-30.351-34.488-29.753-73.047 1.738-111.49q.272-.328.51-.619c12.418-5.982 30.174-27.235 58.293-69.566.8-1.212 1.469-2.214 1.979-2.972 13.134-9.707 57.619-36.374 81.824-50.884 13.613-8.158 17.558-10.544 19.098-11.576 15.849-8.549 38.294-25.758 56.143-59.375l.404-.774c16.88-22.782 23.977-57.354 24.044-57.708 5.717-29.537-6.423-54.078-34.185-69.114zM542.73 556.65c-.008 1.448-.219 168 .005 174.99.151 5.018-1.2 9.151-3.907 11.942-2.664 2.745-6.672 4.197-11.601 4.197-41.868.059-130.6.135-199.43.135-70.946 0-89.435-.084-92.52-.151-5.733-.08-9.838-1.099-11.555-2.871-1.145-1.183-1.701-3.33-1.646-6.433.013-1.199.194-167.53-.004-175.04-.147-5.035 1.216-9.182 3.94-11.984 2.665-2.741 6.664-4.193 11.572-4.193 8.427-.004 18.77-.013 30.443-.021a8.3 8.3 0 0 0 1.751.197h225.6c.678 0 1.334-.101 1.982-.257 18.922.021 29.715.055 32.14.102 13.374.228 13.306 4.643 13.239 9.387zM670.47 78.3c-.06.308-6.925 32.072-21.275 51.2a8 8 0 0 0-.345.492c-.202.312-.606 1.027-1.179 2.109-16.025 30.182-35.844 45.294-49.643 52.657-.37.198-.724.425-1.057.669-1.405.943-9.627 5.868-18.319 11.08-26.953 16.156-72.066 43.198-84.484 52.77a8.4 8.4 0 0 0-1.764 1.844c-.548.783-1.554 2.294-2.926 4.365-36.024 54.248-48.435 62.785-52.101 63.938a8.4 8.4 0 0 0-4.589 3.532 65 65 0 0 1-1.111 1.364c-36.559 44.637-37.346 91.543-2.281 132.22.089.32.151.661.173.931a5 5 0 0 1-.543.198c-4.361 1.317-6.879 5.867-5.688 10.263 2.526 9.303 18.113 37.927 59.564 62.384-11.534-.008-25.093-.008-40.781-.008-51.722 0-115.98.038-163.16.071 12.174-3.864 39.83-16.863 63.265-58.739a8.42 8.42 0 0 0-.678-9.252c-1.284-1.667-2.804-2.98-4.273-4.256-.458-.4-1.078-.935-1.612-1.439 10.082-10.612 45.441-66.211 2.572-123.73-1.385-1.734-4.972-5.813-10.406-11.988-15.037-17.091-46.33-52.652-54.85-66.939a8.5 8.5 0 0 0-2.833-2.871c-.472-.286-1.684-.989-3.532-2.05-81.542-46.965-134.49-87.456-145.27-111.08a8.5 8.5 0 0 0-2.088-2.816c-4.508-4.719-33.192-45.155-24.327-77.56 5.005-18.298 21.712-31.407 49.659-38.963a59 59 0 0 0 2.08-.257c3.65-.497 10.444-1.427 18.202-1.427 12.435 0 22.012 2.441 27.699 7.059 1.646 1.33 3.704 2.012 5.847 1.865 1.415-.084 143.24-9.092 250.7-9.092 69.077 0 97.841 3.679 109.6 7.147.652 1.313 1.2 2.375 1.2 2.375a8.4 8.4 0 0 0 5.005 4.18 8.44 8.44 0 0 0 6.495-.652c.224-.122 22.79-12.216 45.13-12.216 10.436 0 19.095 2.681 25.725 7.96.758.623 1.485 1.019 2.534 1.587 21.053 11.401 29.931 29.068 25.667 51.084z"/><path d="M309.24 244.64c-2.989-3.557-8.297-4.024-11.858-1.036-3.561 2.993-4.028 8.301-1.036 11.862l48.586 57.868c.282.315 28.342 31.887 29.424 60.031.177 4.534 3.906 8.095 8.406 8.095.109 0 .219 0 .329-.008a8.417 8.417 0 0 0 8.091-8.735c-1.313-34.147-32.397-69.157-33.538-70.42zm-23.22 320.13h-21.582c-3.81-.564-9.286.186-13.963 3.995-7.067 5.754-10.317 16.644-9.661 32.366 1.288 30.928.004 98.691-.004 99.373-.088 4.647 3.608 8.491 8.255 8.579h.168a8.42 8.42 0 0 0 8.415-8.259c.055-2.799 1.305-68.96-.004-100.4-.585-14.018 2.656-17.844 3.309-18.471q.481-.454.943-.51c.75.278.8.151 1.793.151h22.344c4.647 0 8.419-3.771 8.419-8.419s-3.785-8.409-8.432-8.409z"/></svg>