<svg xmlns="http://www.w3.org/2000/svg" viewBox="0 0 512 512"><path d="M408.7 143.3a218 218 0 0 0-37-29.8l14.5-25 16.1 9.3a8 8 0 0 0 11-2.9 8 8 0 0 0-3-11l-45.9-26.4a8 8 0 0 0-8 13.9l16 9.1-14.5 25A215 215 0 0 0 264 80.1v-1a40 40 0 1 0-16 0v1a215 215 0 0 0-144.7 63 215.7 215.7 0 0 0 0 305.6c40.8 40.7 95 63.3 152.7 63.3s112-22.5 152.7-63.3S472 353.7 472 296s-22.5-112-63.3-152.7M232 40a24 24 0 1 1 32 22.6V40a8 8 0 0 0-16 0v22.6A24 24 0 0 1 232 40m24 456c-110.3 0-200-89.7-200-200S145.7 96 256 96s200 89.7 200 200-89.7 200-200 200"/><path d="M412.8 199.6a8 8 0 0 0-11-2.6 8 8 0 0 0-2.7 11A168.2 168.2 0 0 1 256 464c-92.6 0-168-75.4-168-168a168.2 168.2 0 0 1 256-143.2 8 8 0 0 0 11-2.6 8 8 0 0 0-2.7-11A184.2 184.2 0 0 0 72 296c0 101.5 82.5 184 184 184a184.2 184.2 0 0 0 156.8-280.4"/><path d="M368 170.8a170 170 0 0 1 13.2 13.2 8 8 0 0 0 6 2.7 8 8 0 0 0 6-13.4 186 186 0 0 0-14.5-14.5 8 8 0 0 0-11.3.7 8 8 0 0 0 .6 11.3m-62-18.4a151 151 0 0 0-50-8.4 8 8 0 0 0-8 8v144a8 8 0 0 0 2.3 5.7l101.9 101.8a8 8 0 0 0 11.3 0 151 151 0 0 0 40-144.5l-.3-1a151 151 0 0 0-14-35l-.8-1.5a153 153 0 0 0-20.2-28l-.8-.9-.5-.4a152 152 0 0 0-59.8-39.4zm17 25.3-59 59v-25.4l41.9-41.8a136 136 0 0 1 17.1 8.2m27.5 20.5L264 284.7v-25.4l72.7-72.7a137 137 0 0 1 13.8 11.6m21.4 26.6L284 312.7 271.3 300l90-90a137 137 0 0 1 10.6 14.8m14.7 33.3L308 336.7 295.3 324l84.4-84.4a135 135 0 0 1 7 18.5M392 296v4.8l-60 59.9-12.7-12.7 71.3-71.3A137 137 0 0 1 392 296M288.7 164 264 188.7v-28.5a135 135 0 0 1 24.7 3.8m69 222.3L343.3 372l45.2-45.2c-5 22-15.6 42.4-30.8 59.5"/></svg>