<svg xmlns="http://www.w3.org/2000/svg" viewBox="0 0 1024 1024"><path d="M217.6 254.9c-1.6 1.1-3.5 3-4.2 4.3-1.8 3.1-2 480.8-.3 484 .6 1.1 2.9 2.8 5.2 3.9 4.1 1.8 11.8 1.9 293.5 1.9 316.8 0 294.4.4 297.6-5.9 1.4-2.7 1.6-27 1.6-241.6 0-263.7.5-242.4-6.3-246.5-3.2-2-7.3-2-293.7-2-285.5 0-290.6 0-293.4 1.9m584 7.2c1.2 1 1.4 32.8 1.6 207 .2 113.3 0 205.8-.5 205.6-.4-.1-44.7-43.9-98.3-97.2-53.7-53.4-98.6-97.5-99.8-98.2-2.9-1.7-10.1-1.6-13.5.1-1.5.8-11.7 10.1-22.7 20.5L548.5 519l-52-51.9c-28.6-28.5-53-52.4-54.2-53-2.8-1.4-8.8-1.4-11.6 0-1.2.5-49.3 48.4-106.9 106.2L219 625.5V444.9c0-186.6-.1-182.9 3.7-184 .7-.2 130.9-.3 289.4-.2 215.8.2 288.5.5 289.5 1.4M526.5 508c47.8 47.8 87.5 87 88.2 87 1.5 0 4.3-2.8 4.3-4.3 0-.6-14.6-15.8-32.4-33.7l-32.4-32.5 19.2-18.6c10.5-10.2 20.1-19.1 21.3-19.8 1.3-.6 3.4-.9 4.8-.5 1.6.4 40.5 38.4 101.6 99.2 54.4 54.2 99.7 99 100.5 99.7 1.3.9 1.5 5 1.5 27.5 0 20.7-.3 26.7-1.4 27.7-1.1 1.2-49.7 1.4-290.7 1.3-211.6 0-289.7-.3-290.7-1.1-1.1-.9-1.3-10.6-1.3-52.3l.1-51.1 107.2-107.8C421.2 433.5 433.9 421 436.6 421c2.6 0 13.2 10.3 89.9 87"/><path d="M639.3 322.5c-25 5.4-41.5 31.3-36.2 56.7 5.3 25.3 31.6 42.7 56.5 37.5 18.4-3.9 33.4-17.4 37.9-34.1 1.3-4.7 1.6-8.9 1.3-15.8-.3-8.3-.8-10.3-4.1-17.1-7-14.9-20.4-25.3-35.7-27.7-8.3-1.3-12-1.2-19.7.5m22.2 8c19.3 5.1 32.3 24.6 29.5 44.2-3.8 27.3-32.8 42.8-57.7 30.9-26.5-12.7-31.4-47.3-9.4-66.7 5.5-4.9 8.4-6.5 15.3-8.3 7.1-1.9 15.1-1.9 22.3-.1"/></svg>