<svg xmlns="http://www.w3.org/2000/svg" viewBox="0 0 37.5 37.5"><path d="M9.104 0 6.532 4.455h5.144zm12.861 0-2.572 4.455h5.145zm2.573 5.198h-5.145l2.572 4.455zm-12.862 0H6.532l2.572 4.455zm6.431 0h-5.145l2.573 4.455zm-3.215 4.826-2.573-4.455-2.572 4.455zm6.429 0L18.75 5.569l-2.572 4.455zm-5.143.744 2.572 4.455 2.571-4.455zm-3.859 4.455 2.573-4.455H9.747zm3.216-4.084-2.573 4.455h5.145zm0 9.653 2.572-4.455h-5.145zm-.643.371-2.573-4.455-2.572 4.455zm3.858-4.455-2.572 4.455h5.143zm2.571 5.198h-5.143l2.572 4.455zm-9.002 4.455 2.573-4.455H9.747zm-3.215-4.084-2.572 4.455h5.144zm6.431 0-2.573 4.455h5.145zm3.858 4.455h5.145l-2.573-4.455zm2.572 5.2 2.573-4.455h-5.145zm-9.003-4.455 2.573 4.455 2.572-4.455zm-6.43 0 2.572 4.455 2.572-4.455zm3.215 4.825h5.145l-2.573-4.454zm6.431 0h5.143l-2.571-4.454zM18.75 37.5l2.571-4.455h-5.143zm-6.431 0 2.573-4.455H9.747zm16.077-26.361-2.572 4.455h5.144zm0 9.653 2.572-4.455h-5.144zm-3.215 5.569 2.572-4.455h-5.145z"/></svg>