<svg xmlns="http://www.w3.org/2000/svg" viewBox="0 0 1889 1889"><path d="M1388 0h471c17 0 30 13 30 30v1829c0 17-13 30-30 30H30c-17 0-30-13-30-30V597c0-7 2-13 6-19l221-282c1-1 1-2 2-3L448 14v-1h1v-1l1-1v-1h1V9h1V8h1V7h1l1-1h1V5h1V4h2V3h2V2h3V1h3l1-1h477c16 0 30 13 30 30v480l166-213c1-2 2-3 3-4l218-279 1-1v-1l1-1 1-1h1V9l1-1 1-1h1V6h1V5h1l1-1h1l1-1h2V2h2l1-1h3V0zm-195 327-218 774v147l335-1070zM975 881l121-429-121 155zM279 327 60 1101v156L400 172zM60 881l121-429L60 607zm383-646L61 1452c0 2 0 3-1 4v171L443 425zm60 177c2 6 3 13 1 20l-1 2v373c2 5 2 12 0 18v377c1 4 1 9 0 13v614h412V60H503zm-60 210L61 1819c0 2 0 3-1 4v6h50L443 815zm0 386-269 821h52l217-623zm0 379-154 442h53l101-233zm0 359-36 83h36zm975-947 411 225V699l-411-225zm411 293-411-225v325l411 225zm-471-866L975 1448v170l383-1202zm0 387L975 1815v14h47l336-1022zm0 386-273 830h52l220-630 1-1zm0 380-157 450h53l103-239 1-1zm0 360-39 90h39zM1496 60l333 182V60zm333 250L1418 85v321l411 224zm0 1175-411-225v324l411 225zm-87 344-324-177v177z"/></svg>