<svg xmlns="http://www.w3.org/2000/svg" viewBox="0 0 460.94 460.94"><path d="m460.79 405.15-50.215-221a6 6 0 0 0-5.851-4.67H360.97l48.841-99.472c1.759-3.583 2.018-7.637.729-11.415s-3.973-6.828-7.556-8.587L382.59 49.993c-7.398-3.633-16.37-.569-20.001 6.828l-60.227 122.66H67.742a6 6 0 0 0-5.851 4.67l-21.138 93.03c-8.74-1.196-16.592-5.761-22.01-12.951-6.358-8.438-8.335-19.102-5.423-29.258l25.009-87.224c4.077-14.222 17.258-24.155 32.053-24.155h156.94c19.337 0 36.564-12.282 42.868-30.563l2.458-7.128a6 6 0 1 0-11.344-3.912l-2.458 7.128c-4.635 13.442-17.303 22.474-31.523 22.474H70.383c-20.12 0-38.044 13.507-43.588 32.847L1.786 231.665c-3.96 13.811-1.272 28.313 7.375 39.787 7.16 9.501 17.445 15.634 28.927 17.466l-26.41 116.23a6 6 0 0 0 5.851 7.33h437.41a6 6 0 0 0 5.851-7.33zM96.95 317.48H43.902l14.769-65h49.4zm30.14-105h159.07l-30.339 61.79c-3.097 6.307-3.552 13.442-1.282 20.091a26.14 26.14 0 0 0 7.759 11.469l-4.88 9.939a6 6 0 0 0 10.771 5.289l4.764-9.703c2.118.543 4.282.826 6.456.826a26.4 26.4 0 0 0 8.521-1.424c6.649-2.27 12.017-6.993 15.113-13.3l41.724-84.977h33.792l28.899 158h-307.4l27.034-158zM373.36 62.11a2.95 2.95 0 0 1 3.941-1.345l20.394 10.013c.953.468 1.342 1.261 1.489 1.692s.324 1.296-.144 2.249l-106.77 217.45a14.2 14.2 0 0 1-8.219 7.232 14.2 14.2 0 0 1-10.925-.697c-3.43-1.684-5.999-4.603-7.233-8.219s-.987-7.496.697-10.925zM72.53 191.48h223.94l-4.419 9h-170.02a6 6 0 0 0-5.914 4.988l-5.991 35.012H61.4l11.133-49zm-47.488 209 16.132-71h53.721l-7.869 45.988a6 6 0 0 0 5.914 7.012h321.71a6 6 0 0 0 5.901-7.08l-31.094-170a6 6 0 0 0-5.902-4.92h-32.9l4.419-9h44.856l47.489 209H25.039z"/></svg>