<svg xmlns="http://www.w3.org/2000/svg" viewBox="0 0 1889 1889"><path d="M517 1829h102v-6c0-16 14-30 30-30 17 0 30 14 30 30v6h358v-6c0-16 13-30 30-30 16 0 30 14 30 30v6h357v-6c0-16 13-30 30-30 16 0 30 14 30 30v6h315v-109h-4c-16 0-30-13-30-30 0-16 14-30 30-30h4v-357h-4c-16 0-30-13-30-30 0-16 14-30 30-30h4V886h-4c-16 0-30-14-30-30 0-17 14-30 30-30h4V517h-107c-1 15-14 27-29 27-16 0-29-12-30-27h-358c-1 15-14 27-30 27-15 0-28-12-30-27H888c-2 15-14 27-30 27s-28-12-30-27H517v100c16 1 29 14 29 30 0 17-13 30-29 30v358c16 0 29 13 29 29 0 17-13 30-29 30v358c16 0 29 13 29 30 0 16-13 29-29 30zm1312-109v-60h-4c-16 0-30 14-30 30 0 17 14 30 30 30zM1722 517h-59c1 15 14 27 30 27 15 0 28-12 29-27m-105 995c-17 0-30-14-30-30 0-17 13-30 30-30h151c17 0 30 13 30 30 0 16-13 30-30 30zm105 254c0 17-13 30-30 30-16 0-30-13-30-30v-151c0-17 14-30 30-30 17 0 30 13 30 30zm-314-46c-16 0-30-13-30-30 0-16 14-30 30-30h152c16 0 30 14 30 30 0 17-14 30-30 30zm255-523c0-16 13-30 30-30 16 0 30 14 30 30v152c0 16-14 30-30 30-17 0-30-14-30-30zm-255 106c-16 0-30-13-30-30 0-16 14-30 30-30h152c16 0 30 14 30 30 0 17-14 30-30 30zm106 254c0 17-14 30-30 30-17 0-30-13-30-30v-151c0-16 13-30 30-30 16 0 30 14 30 30zm-314-45c-17 0-30-14-30-30 0-17 13-30 30-30h151c16 0 30 13 30 30 0 16-14 30-30 30zm105 254c0 17-13 30-30 30-16 0-30-13-30-30v-151c0-17 14-30 30-30 17 0 30 13 30 30zm-314-46c-17 0-30-13-30-30 0-16 13-30 30-30h151c17 0 30 14 30 30 0 17-13 30-30 30zm254-523c0-16 14-30 30-30 17 0 30 14 30 30v152c0 16-13 30-30 30-16 0-30-14-30-30zm-254 106c-17 0-30-13-30-30 0-16 13-30 30-30h151c17 0 30 14 30 30 0 17-13 30-30 30zm106 254c0 17-14 30-30 30-17 0-30-13-30-30v-151c0-16 13-30 30-30 16 0 30 14 30 30zm-315-45c-16 0-30-14-30-30 0-17 14-30 30-30h152c16 0 30 13 30 30 0 16-14 30-30 30zm106 254c0 17-13 30-30 30s-30-13-30-30v-151c0-17 13-30 30-30s30 13 30 30zm-314-46c-17 0-30-13-30-30 0-16 13-30 30-30h151c17 0 30 14 30 30 0 17-13 30-30 30zm254-523c0-16 13-30 30-30s30 14 30 30v152c0 16-13 30-30 30s-30-14-30-30zm-254 106c-17 0-30-13-30-30 0-16 13-30 30-30h151c17 0 30 14 30 30 0 17-13 30-30 30zm105 254c0 17-13 30-30 30-16 0-30-13-30-30v-151c0-16 14-30 30-30 17 0 30 14 30 30zm938-463c-17 0-30-13-30-30 0-16 13-30 30-30h151c17 0 30 14 30 30 0 17-13 30-30 30zm0-417c-17 0-30-13-30-30 0-16 13-30 30-30h151c17 0 30 14 30 30 0 17-13 30-30 30zm106 255c0 16-14 30-30 30-17 0-30-14-30-30V780c0-16 13-30 30-30 16 0 30 14 30 30zm-315-46c-16 0-30-14-30-30 0-17 14-30 30-30h152c16 0 30 13 30 30 0 16-14 30-30 30zm106 254c0 17-14 30-30 30-17 0-30-13-30-30V989c0-17 13-30 30-30 16 0 30 13 30 30zm-314-46c-17 0-30-13-30-30 0-16 13-30 30-30h151c16 0 30 14 30 30 0 17-14 30-30 30zm314-371c0 16-14 30-30 30-17 0-30-14-30-30V572c0-17 13-30 30-30 16 0 30 13 30 30zm-314-46c-17 0-30-13-30-30 0-16 13-30 30-30h151c16 0 30 14 30 30 0 17-14 30-30 30zm105 255c0 16-13 30-30 30-16 0-30-14-30-30V780c0-16 14-30 30-30 17 0 30 14 30 30zm-314-46c-17 0-30-14-30-30 0-17 13-30 30-30h151c17 0 30 13 30 30 0 16-13 30-30 30zm106 254c0 17-14 30-30 30-17 0-30-13-30-30V989c0-17 13-30 30-30 16 0 30 13 30 30zm-315-46c-16 0-30-13-30-30 0-16 14-30 30-30h152c16 0 30 14 30 30 0 17-14 30-30 30zm315-371c0 16-14 30-30 30-17 0-30-14-30-30V572c0-17 13-30 30-30 16 0 30 13 30 30zm-315-46c-16 0-30-13-30-30 0-16 14-30 30-30h152c16 0 30 14 30 30 0 17-14 30-30 30zm106 255c0 16-13 30-30 30s-30-14-30-30V780c0-16 13-30 30-30s30 14 30 30zm-314-46c-17 0-30-14-30-30 0-17 13-30 30-30h151c17 0 30 13 30 30 0 16-13 30-30 30zm105 254c0 17-13 30-30 30-16 0-30-13-30-30V989c0-17 14-30 30-30 17 0 30 13 30 30zm0-417c0 16-13 30-30 30-16 0-30-14-30-30V572c0-17 14-30 30-30 17 0 30 13 30 30zM60 1372h397v-63c-1-3-2-7-2-10 0-4 1-7 2-11v-57H336c-17 0-30-14-30-30 0-17 13-30 30-30h121v-58c-1-3-2-7-2-10 0-4 1-7 2-11v-57H336c-17 0-30-14-30-30 0-17 13-30 30-30h121v-58c-1-3-2-7-2-10 0-4 1-7 2-11v-57H336c-17 0-30-14-30-30 0-17 13-30 30-30h121v-58c-1-3-2-7-2-10 0-4 1-7 2-11v-57H336c-17 0-30-14-30-30 0-17 13-30 30-30h121v-58c-1-3-2-7-2-10 0-4 1-7 2-11v-17c0-16 14-30 30-30h885v-10h-137c-17 0-30-14-30-30 0-17 13-30 30-30h137v-41c-10-5-18-15-18-27s8-23 18-28v-40h-137c-17 0-30-14-30-30 0-17 13-30 30-30h137v-41c-10-5-18-15-18-27s8-23 18-28V60H60v34c13 3 22 15 22 29 0 13-9 25-22 29v39h142c16 0 30 13 30 30 0 16-14 30-30 30H60v39c13 3 22 15 22 29 0 13-9 25-22 29v39h142c16 0 30 13 30 30 0 16-14 30-30 30H60v39c13 3 22 15 22 29 0 13-9 25-22 28v40h142c16 0 30 13 30 30 0 16-14 30-30 30H60v39c13 3 22 15 22 29 0 13-9 25-22 28v40h142c16 0 30 13 30 30 0 16-14 30-30 30H60v39c13 3 22 15 22 29 0 13-9 25-22 28v40h142c16 0 30 13 30 30 0 16-14 30-30 30H60v39c13 3 22 15 22 29 0 13-9 25-22 28v40h142c16 0 30 13 30 30 0 16-14 30-30 30H60v39c13 3 22 15 22 29 0 13-9 25-22 28zm397 60H30c-17 0-30-14-30-30V30C0 13 13 0 30 0h1372c16 0 30 13 30 30v427h427c17 0 30 14 30 30v1372c0 17-13 30-30 30H487c-16 0-30-13-30-30zm628-1279c-17 0-30-14-30-30 0-17 13-30 30-30h165c17 0 30 13 30 30 0 16-13 30-30 30zm-300 0c-16 0-30-14-30-30 0-17 14-30 30-30h166c16 0 30 13 30 30 0 16-14 30-30 30zm-300 0c-16 0-30-14-30-30 0-17 14-30 30-30h166c17 0 30 13 30 30 0 16-13 30-30 30zm-299 0c-17 0-30-14-30-30 0-17 13-30 30-30h165c17 0 30 13 30 30 0 16-13 30-30 30zm899 196c-17 0-30-14-30-30 0-17 13-30 30-30h165c17 0 30 13 30 30 0 16-13 30-30 30zm-300 0c-16 0-30-14-30-30 0-17 14-30 30-30h166c16 0 30 13 30 30 0 16-14 30-30 30zm-300 0c-16 0-30-14-30-30 0-17 14-30 30-30h166c17 0 30 13 30 30 0 16-13 30-30 30zm-299 0c-17 0-30-14-30-30 0-17 13-30 30-30h165c17 0 30 13 30 30 0 16-13 30-30 30zm749-98c-17 0-30-14-30-30 0-17 13-30 30-30h165c17 0 30 13 30 30 0 16-13 30-30 30zm-300 0c-16 0-30-14-30-30 0-17 14-30 30-30h166c16 0 30 13 30 30 0 16-14 30-30 30zm-299 0c-17 0-30-14-30-30 0-17 13-30 30-30h165c17 0 30 13 30 30 0 16-13 30-30 30zM186 545c-17 0-30-14-30-30 0-17 13-30 30-30h165c17 0 30 13 30 30 0 16-13 30-30 30zm749-98c-17 0-30-14-30-30 0-17 13-30 30-30h165c17 0 30 13 30 30 0 16-13 30-30 30zm-300 0c-16 0-30-14-30-30 0-17 14-30 30-30h166c16 0 30 13 30 30 0 16-14 30-30 30zm-299 0c-17 0-30-14-30-30 0-17 13-30 30-30h165c17 0 30 13 30 30 0 16-13 30-30 30zM186 741c-17 0-30-14-30-30 0-17 13-30 30-30h165c17 0 30 13 30 30 0 16-13 30-30 30zm0 196c-17 0-30-14-30-30 0-17 13-30 30-30h165c17 0 30 13 30 30 0 16-13 30-30 30zm0 196c-17 0-30-14-30-30 0-17 13-30 30-30h165c17 0 30 13 30 30 0 16-13 30-30 30zm0 196c-17 0-30-14-30-30 0-17 13-30 30-30h165c17 0 30 13 30 30 0 16-13 30-30 30z"/></svg>