<svg xmlns="http://www.w3.org/2000/svg" viewBox="0 0 464.6 464.6"><path d="M0 408.9h136.2v-54.6c-8.2 5.6-18.1 8.9-28.8 8.9-28.4 0-51.4-23-51.4-51.4 0-26 19.4-47.5 44.5-50.8-3.2-20.4-11.9-39.3-22.6-57.1-2.6-4.3 4.2-8.3 6.8-4 11.4 18.8 20.4 39 23.7 60.6 10.3.2 19.9 3.4 27.9 8.8v-90.6c-10.5-11.3-22.2-21.4-37.3-28.4-4.6-2.1-.6-8.9 4-6.8 13.1 6.1 23.8 14.5 33.4 24V55.7H0zm240.8-245.6c7.1 0 13.8 1.4 20 4 11.9-14.5 23.6-28 36.3-39V55.7H167.5v148.2c.4.5.8 1 1.3 1.5 1.3 1.6 2.6 3.1 3.9 4.6 1.3 1.6 2.7 3.1 4 4.7 4-1.6 8.4-2.7 12.9-3.1 1.4-.1 2.7-.2 4.1-.2 23.9 0 43.4 18.5 45.3 41.9q-3-.3-6-.3c-7.5 0-14.7 1.5-21.3 4-18 7-31.7 22.5-36.1 41.6-2.9-1.2-5.6-2.8-8.1-4.6v114.9h129.6v-109c-2.5-.8-5-1.9-7.3-3.1-3.6-13.7-12-25.5-23.3-33.3-.2-1.4-.3-2.8-.4-4.2 0-.8-.1-1.6-.1-2.5 0-18.2 10.7-33.8 26.1-41.1 1.6-.8 3.3-1.5 5-2v-76.2c-10.5 10.4-20 21.9-29.3 33.4 11.6 7.2 20.1 18.8 23.1 32.5-21.4 8.3-36.7 29.1-36.7 53.4v.1l-3.3-1.2c-.6-31.1-26-56.1-57.2-56.1-.7 0-1.4.1-2 .1 6.4-21.1 25.9-36.4 49.1-36.4m38.6 140.9c.4 2.5.7 5 .7 7.5 0 26-21.1 47.1-47.1 47.1-25.4 0-46.1-20.2-47-45.4 0-.6-.1-1.1-.1-1.7 0-1.4.1-2.8.2-4.2.2-2 .5-3.9.9-5.8 4.4-20.3 21.8-35.6 43-36.9 1-.1 2-.2 3-.2 1.8 0 3.7.1 5.5.3 1.7.2 3.3.5 4.9.8.3.1.6.2.8.2q2.85.75 5.7 1.8c2.1.8 4.2 1.8 6.1 2.9 2.9 1.6 5.5 3.5 8 5.7 5.6 4.9 10.1 11.2 12.8 18.3 1.2 3.1 2 6.3 2.6 9.6m49-196.3c15.2-6.8 32.4-10.3 53-9.1 5 .3 5.1 8.1 0 7.8-18.5-1.1-36.6 1-53 8.2v99.8c15.4 6.2 26.7 20.7 28.3 38 .1 1.4.2 2.8.2 4.2 0 19.1-11.8 35.4-28.5 42.2v12.5c23.3-7.3 40.3-29 40.3-54.7 0-1.1-.1-2.2-.2-3.3 9.3 1.8 17.6 6.2 24.3 12.3 24.4-31.1 23.7-71.3 36.8-109.1 1.7-4.8 9.2-2.7 7.6 2.1-13.7 39.4-13.1 80.7-38.8 112.8 7.2 8.8 11.5 20.1 11.5 32.4 0 28.4-23 51.4-51.4 51.4-11.3 0-21.6-3.7-30.1-9.8v63.5h136.2V55.7H328.4z"/><path d="M167.5 219.7c.7-.5 1.4-.9 2.1-1.4-.7-.8-1.4-1.5-2.1-2.3z"/></svg>