<svg xmlns="http://www.w3.org/2000/svg" viewBox="0 0 1024 1024"><path d="M186 191c-2 2-2 3.6-2 304.3 0 271.9.2 302.5 1.6 304.5l1.5 2.2h324.3c257.8 0 324.6-.3 325.9-1.2 1.6-1.2 1.7-21.1 1.7-305.3s-.1-304.1-1.7-305.2c-1.3-1-70-1.3-325.5-1.3-322.2 0-323.8 0-325.8 2m92 7.3c0 .2-19 19.4-42.2 42.6l-42.3 42.2-.3-41.3c-.1-22.7 0-41.9.3-42.5.3-1 9.8-1.3 42.5-1.3 23.1 0 42 .2 42 .3m474.7 20.2 20.8 20.4-261.5.1H250.5l20.5-20.5 20.5-20.5h440.4zm77.3 22v42.6l-42.5-42.3c-23.4-23.3-42.5-42.4-42.5-42.6 0-.1 19.1-.2 42.5-.2H830zm-50.9 13.2c0 6.3 0 456.2-.1 476V742H244V248h535zM830 495v199.5l-20.2 20.2c-11.2 11.2-20.6 20.3-21 20.3s-.8-108.3-.8-240.7V253.5l21 21 21 21zm-595 .5v240.6l-21-21.3-20.9-21.3L193 495V296.5l20.7-20.7c11.4-11.5 20.9-20.8 21-20.8.2 0 .3 108.2.3 240.5m1.4 254.4 43 43-26.5.1c-14.5 0-33.9-.3-43.1-.6l-16.8-.7v-42.4c0-23.2.1-42.3.3-42.3.1 0 19.5 19.3 43.1 42.9m593.6.7v42.5l-41.7-.2c-23-.1-42.1-.3-42.4-.5-.5-.2 83.1-84.4 83.9-84.4.1 0 .2 19.2.2 42.6M752.5 772l-20.9 20.9-219.6.1H292.5l-21-21-21-21h523z"/><path d="M211.2 225.2c.2 7.5.6 9.3 1.9 9.6 2.4.4 17.2-14 16.7-16.4-.3-1.7-1.4-1.9-9.6-2.2l-9.3-.3zm582.5-8.6c-1.9 1.9 0 4.8 7.4 11.5 10.3 9.3 11.4 9 11.4-3.2v-8.4l-9-.3c-5-.1-9.4 0-9.8.4m-582 540.1c-.4.3-.7 4.6-.7 9.5v8.9l9.8-.3c13-.4 13.2-1.6 2.3-11.6-7.5-6.8-9.8-8.1-11.4-6.5m589 6.7c-10.6 10-10.4 11.1 2.3 11.1h9.5l.3-7.8c.3-7.7-.6-10.7-3.2-10.7-.6 0-4.6 3.4-8.9 7.4"/></svg>