<svg xmlns="http://www.w3.org/2000/svg" viewBox="0 0 511.999 511.999"><circle cx="240.97" cy="85.086" r="40.579"/><path d="M222.69 376.42c-7.11 11.42-20.724 16.31-33.205 12.618-6.308-1.866-11.622-5.75-15.328-10.812l-28.108 104.15c-3.381 12.527 4.034 25.424 16.562 28.805 12.526 3.38 25.424-4.035 28.805-16.563l32.376-119.96-1.102 1.77zm70.95-237.82h-82.163L110.677 7.63C104.08-.937 91.787-2.538 83.219 4.057c-8.569 6.595-10.168 18.889-3.572 27.458 114.61 148.9 107.11 139.46 109.27 141.36v48.468l79.621-16.047 61.942-42.955c-6.696-11.181-17.328-23.741-36.836-23.741zm89 340.2-90.025-198.56v-16.081l-38.664 62.083h7.926l77.965 171.96c5.361 11.823 19.285 17.053 31.101 11.698 11.818-5.359 17.055-19.283 11.697-31.101zm52.84-289.16c-1.875-5.843-6.241-10.189-11.546-12.256l-26.247 18.202a25.03 25.03 0 0 1-14.323 4.483c-1.545 0-3.074-.143-4.57-.42l-50.418 34.964a19.56 19.56 0 0 0 18.877 3.916l75.568-24.26c10.298-3.307 15.964-14.332 12.659-24.629"/><path d="M429.6 142.84a4 4 0 0 0-.34.014l-67.366 5.526c-2.57.211-3.945 3.131-2.478 5.246l4.721 6.807-88.559 61.413-164.14 33.081a9.998 9.998 0 0 0-3.161 18.378l54.481 32.63a48.48 48.48 0 0 1 23.558 42.461l-.222 12.318a11.71 11.71 0 0 0 21.649 6.402l77.048-123.71 92.436-64.102a7.537 7.537 0 0 0 10.427 1.808l44.304-30.723c3.332-2.308 1.679-7.545-2.359-7.545zM215.46 326.96a9.49 9.49 0 0 1-11.853 6.288c-5.009-1.537-7.824-6.843-6.288-11.851 1.535-5.004 6.837-7.824 11.853-6.288 5.009 1.535 7.824 6.841 6.288 11.851m7.923-20.364a8.76 8.76 0 0 1-12.19-2.206l-22.814-32.897a8.76 8.76 0 0 1 14.396-9.985l22.814 32.898a8.76 8.76 0 0 1-2.206 12.19"/></svg>