<svg xmlns="http://www.w3.org/2000/svg" viewBox="0 0 492.3 492.3"><path d="M394.1 208.4c-2.7-3.9-8.5-11.2-9-11.7C286.4 88 261.9 24.7 256.7 7.9 255.3 3.2 251 0 246.1 0c-4.8 0-9.1 3.2-10.5 7.9-5.2 16.8-29.7 80.2-128.8 189.3 0 0-5.8 7.3-8.5 11.2-24.7 35.2-35.9 78.4-31.6 121.7C75 414.2 141.9 482 225.8 491.2c7 .8 13.9 1.1 20.8 1.1 44.5 0 86.6-16 120.1-46 38.2-34.2 60.1-83.2 60.1-134.5-.1-37.3-11.4-73-32.7-103.4m-40.7 223.2c-34.5 30.9-79.1 45.1-125.6 40-74.7-8.2-134.3-68.6-141.7-143.5-3.8-38.6 6.2-77.1 28.2-108.5 2.4-3.4 7.4-9.8 7.4-9.8 77-84.8 110.4-143.7 124.4-174.9 14 31.2 47.3 90.1 124 174.5 0 0 5.3 6.7 7.8 10.2 19 27.1 29 59 29 92.1.1 45.8-19.4 89.4-53.5 119.9"/><path d="m136.5 323.1-19.6 1.9c5.8 59.4 55 109.2 114.3 115.8l2.2-19.6c-50.3-5.5-91.9-47.7-96.9-98.1"/></svg>