<svg xmlns="http://www.w3.org/2000/svg" viewBox="0 0 458.9 458.9"><path d="m451.2 95.4.3-.8L238.6 7.9l-36.1 13.7c3.8 4.1 7.3 8.4 10.7 12.9l25.2-9.6 51.2 20.9c15.6-2.5 29.6-1.7 41.6 2.6 14 5.1 24.7 14.3 32.3 27.5l67.5 27.5-55.4 21.8c-.4 6.5-2 13.3-5.6 19.3l65.8-26v244.7l-198.4 78.3V196.8l92.3-36.4c-8.3-1.1-17.2-3.5-26.4-6.6l-73.8 29.1-71-28 35-15.9c-2.9-1.2-5.6-3.1-7.6-5.7-3.1-3.8-4.7-8.6-4.4-13.4-1.9-2.2-7.4-4.7-13.9-7l-56 23.6-81.7-32.2 56.4-21.4c-4.4-3.6-8-7.9-10.4-13L8 95.5l-.7-.3v.6h-.1V374l214.3 84.6v.3h15.9v-.3l214.3-84.5V95.2zM96.5 392.2l-73.4-29V118.6l73.4 29zm125 49.3-83.2-33.6.3-243.8 83 32.7v244.7zM143.4 97.4c19.3 5.2 48.5 13.2 47.5 22.8-.7 6.5 4.1 12.4 10.6 13.1 3.4.4 6.6-.8 9-2.9.7.6 1.4 1.2 2.2 1.6 5.8 3 13 .8 16.1-5 .1-.2.3-.4.5-.6 2.9 1.7 6.5 2.2 9.9.9 1.5-.5 2.8-1.4 4-2.4 12.2 2.2 29.4 8.9 41.5 13.6 17.6 6.8 34.6 13.3 49 14.8 10.3 1.1 19.3-.5 26.1-6.4 14.4-12.6 8.7-36.8 6.8-44.7-5.6-23.6-17.9-39-36.6-45.7-30.4-11-70.2 4.9-98.8 20.6-14.9-29.4-40-67.5-72.8-75.5-19.3-4.7-38 1.3-55.8 17.8C85.9 35 79.2 48.8 82.4 61.6c5.1 20.7 32.3 28 61 35.8m178.5-18.5c10.8 3.9 17.8 13.4 21.5 28.9 4.2 17.6.8 21.2.7 21.3-5.5 4.8-35-6.6-50.8-12.7-17.2-6.6-35.5-13.7-51.2-15.3l-.9-2.1c26-14.4 59.2-27.8 80.7-20.1M118.8 36.8c11.7-10.9 22.7-14.8 33.9-12.1 23.1 5.6 44.2 37.6 57.9 64.8-3.3 2.1-6.2 4.1-8.6 5.7-12.8-10-33.3-15.6-52.4-20.8-15.9-4.3-42.4-11.5-44.1-18.5 0-.2-1.1-5.6 13.3-19.1"/></svg>