<svg xmlns="http://www.w3.org/2000/svg" viewBox="0 0 458.9 458.9"><path d="m451.2 95.4.3-.8L238.6 7.9l-36.1 13.7q5.7 6.2 10.7 12.9l25.2-9.6 51.2 20.9a84 84 0 0 1 41.6 2.6 60 60 0 0 1 32.3 27.5l67.5 27.5-55.4 21.8c-.4 6.5-2 13.3-5.6 19.3l65.8-26v244.7l-198.4 78.3V196.8l92.3-36.4q-12.5-1.8-26.4-6.6l-73.8 29.1-71-28 35-15.9a19 19 0 0 1-12-19.1 40 40 0 0 0-13.9-7l-56 23.6-81.7-32.2 56.4-21.4q-6.7-5.4-10.4-13L8 95.5l-.7-.3v.6h-.1V374l214.3 84.6v.3h15.9v-.3l214.3-84.5V95.2zM96.5 392.2l-73.4-29V118.6l73.4 29zm125 49.3-83.2-33.6.3-243.8 83 32.7v244.7zM143.4 97.4c19.3 5.2 48.5 13.2 47.5 22.8a12 12 0 0 0 10.6 13.1q5.3.4 9-2.9 1 1 2.2 1.6c5.8 3 13 .8 16.1-5l.5-.6c2.9 1.7 6.5 2.2 9.9.9q2.2-.8 4-2.4c12.2 2.2 29.4 8.9 41.5 13.6 17.6 6.8 34.6 13.3 49 14.8 10.3 1.1 19.3-.5 26.1-6.4 14.4-12.6 8.7-36.8 6.8-44.7q-8.5-35.5-36.6-45.7c-30.4-11-70.2 4.9-98.8 20.6-14.9-29.4-40-67.5-72.8-75.5q-29-7-55.8 17.8-25 23.2-20.2 42.2c5.1 20.7 32.3 28 61 35.8m178.5-18.5q16 5.8 21.5 28.9c4.2 17.6.8 21.2.7 21.3-5.5 4.8-35-6.6-50.8-12.7-17.2-6.6-35.5-13.7-51.2-15.3l-.9-2.1c26-14.4 59.2-27.8 80.7-20.1M118.8 36.8c11.7-10.9 22.7-14.8 33.9-12.1 23.1 5.6 44.2 37.6 57.9 64.8l-8.6 5.7c-12.8-10-33.3-15.6-52.4-20.8-15.9-4.3-42.4-11.5-44.1-18.5 0-.2-1.1-5.6 13.3-19.1"/></svg>