<svg xmlns="http://www.w3.org/2000/svg" viewBox="0 0 512 512"><path d="m506.82 268.18-145.98-87.595 18.219-11.584c3.072-1.963 4.928-5.355 4.928-9.003s-1.856-7.04-4.928-9.003L261.729 76.33a10.69 10.69 0 0 0-11.456 0l-117.33 74.667c-3.073 1.962-4.929 5.354-4.929 9.002s1.856 7.04 4.928 9.003l18.219 11.605L5.201 268.18c-3.2 1.92-5.184 5.376-5.184 9.109a10.64 10.64 0 0 0 5.12 9.152l245.33 149.33a10.6 10.6 0 0 0 5.547 1.557 10.6 10.6 0 0 0 5.547-1.557l245.33-149.33a10.71 10.71 0 0 0 5.12-9.152 10.69 10.69 0 0 0-5.184-9.11zM256 97.98l97.472 62.016L256 222.012l-97.472-62.016zm-84.736 95.424 78.997 50.261c1.749 1.109 3.755 1.664 5.739 1.664s3.989-.555 5.717-1.664l78.997-50.283 14.059 8.448L256 264.7l-98.795-62.869zm-139.97 83.947 105.47-63.253 99.371 63.232-100.18 63.744zm224.7 136.81-99.733-60.715 99.733-63.466 99.733 63.467zm120.04-73.066-100.18-63.765 99.371-63.232 105.47 63.275z"/></svg>