<svg xmlns="http://www.w3.org/2000/svg" viewBox="0 0 226 226"><path d="M117 217l100 0 0-182-45 0 0 174c0 2-2 4-5 4l-50 0 0 4zm-18-188l-13 24 13 24c0 2 0 4-2 5-1 1-2 1-3 0l-24-12-25 12c-1 1-4 0-4-1-1-1-1-3 0-4l12-24-12-24c-1-2-1-4 1-5 1 0 2 0 3 0l25 12 24-12c2-1 4 0 5 2 0 1 0 2 0 3zm-20 23l8-17-16 8c-1 1-2 1-3 0l-16-8 8 17c0 1 0 2 0 3l-8 16 16-8c1-1 2-1 3 0l16 8-8-16c0-1 0-2 0-3zm-14 83l-9 18 9 18c1 2 0 4-2 5-1 0-2 0-3 0l-18-9-18 9c-2 1-4 0-5-2-1-1-1-2 0-3l9-18-9-18c-1-2 0-4 1-5 1-1 3 0 4 0l18 9 18-9c2-1 4 0 5 2 0 1 0 2 0 3zm-17 16l6-10-11 5c-1 1-2 1-3 0l-10-5 5 10c0 1 0 3 0 4l-5 10 10-5c1-1 2-1 3 0l11 5-6-10c0-1 0-3 0-4zm-39 40l99 0 0-182-99 0 0 182zm104 9l-50 0 0 4 100 0 0-182-46 0 0 174c0 2-2 4-4 4zm-59 0l-50 0c-2 0-4-2-4-4l0-192c0-2 2-4 4-4l109 0c2 0 4 2 4 4l0 9 50 0c3 0 5 2 5 4l0 9 49 0c3 0 5 2 5 4l0 191c0 3-2 5-5 5l-108 0c-2 0-4-2-4-5l0-8-50 0c-3 0-5-2-5-4l0-9zm148-121c-2 2-5 2-7 0-1-2-1-4 0-6l10-10c2-2 5-2 7 0 1 2 1 4 0 6l-10 10zm-20 0c-2 2-5 2-7 0-1-2-1-4 0-6l10-10c2-2 5-2 7 0 1 2 1 4 0 6l-10 10zm20-22c-2 2-5 2-7 0-1-1-1-4 0-6l10-10c2-2 5-2 7 0 1 2 1 5 0 6l-10 10zm-20 0c-2 2-5 2-7 0-1-1-1-4 0-6l10-10c2-2 5-2 7 0 1 2 1 5 0 6l-10 10zm20 87c-2 2-5 2-7 0-1-1-1-4 0-6l10-10c2-2 5-2 7 0 1 2 1 5 0 6l-10 10zm-20 0c-2 2-5 2-7 0-1-1-1-4 0-6l10-10c2-2 5-2 7 0 1 2 1 5 0 6l-10 10zm20 22c-2 2-5 2-7 0-1-2-1-4 0-6l10-10c2-2 5-2 7 0 1 2 1 5 0 6l-10 10zm-20 0c-2 2-5 2-7 0-1-2-1-4 0-6l10-10c2-2 5-2 7 0 1 2 1 5 0 6l-10 10zm20 22c-2 2-5 2-7 0-1-2-1-5 0-6l10-10c2-2 5-2 7 0 1 1 1 4 0 6l-10 10zm-20 0c-2 2-5 2-7 0-1-2-1-5 0-6l10-10c2-2 5-2 7 0 1 1 1 4 0 6l-10 10zm20-65c-2 1-5 1-7 0-1-2-1-5 0-7l10-10c2-1 5-1 7 0 1 2 1 5 0 7l-10 10zm-20 0c-2 1-5 1-7 0-1-2-1-5 0-7l10-10c2-1 5-1 7 0 1 2 1 5 0 7l-10 10zm20-22c-2 2-5 2-7 0-1-2-1-5 0-6l10-10c2-2 5-2 7 0 1 1 1 4 0 6l-10 10zm-20 0c-2 2-5 2-7 0-1-2-1-5 0-6l10-10c2-2 5-2 7 0 1 1 1 4 0 6l-10 10zm20 109c-2 1-5 1-7 0-1-2-1-5 0-7l10-10c2-1 5-1 7 0 1 2 1 5 0 7l-10 10zm-20 0c-2 1-5 1-7 0-1-2-1-5 0-7l10-10c2-1 5-1 7 0 1 2 1 5 0 7l-10 10z"/></svg>
