<svg xmlns="http://www.w3.org/2000/svg" viewBox="0 0 426.9 426.9"><path d="M259.6 176a31 31 0 0 1-6-25.5l3.4-20.9a44 44 0 0 0-7.8-29l-6-7.4C90.4 156.6 7.3 278.5 7.3 278.5c-7.3 10.8-3 16.8 9.6 13.5l20.6-5.5c12.6-3.3 17.3 3 10.4 14L20 346c-6.9 11-2 18.2 10.8 16l21.5-4c12.8-2.2 22.4 6.5 21.4 19.4L70.5 416c-1 13 3.8 14.6 10.8 3.6 0 0 93.1-145.9 185.1-238.2a25 25 0 0 1-6.8-5.4"/><path d="M417.5 82.8c9.3-9.1 6.5-19.2-6-22.5L390.9 55a60 60 0 0 1-33.5-27L348 9c-3-6-7.3-9-11.7-9-4 0-8.3 2.6-11.6 7.9l-11.4 17.8c-7 11-23.2 21.6-36 23.5l-21 3.3c-12.8 2-16.6 11.7-8.3 21.8l13.5 16.3a60 60 0 0 1 11.2 41.6L269 153c-1.6 10 3 16.2 10.9 16.2q3.3 0 7.3-1.6l19.8-7.7c5.1-2 11.6-3 18.2-3 9 0 18.1 1.7 24.7 5.1l19.1 10a19 19 0 0 0 8.5 2.3c7 0 11.6-5.6 11-15l-1.3-21.2a59 59 0 0 1 15.4-40.2z"/></svg>