<svg xmlns="http://www.w3.org/2000/svg" viewBox="0 0 64 64"><path d="m40 52.1-1.4-1a1 1 0 0 0-1.2 0L35 52.9l-2.4-1.6a1 1 0 0 0-1.2 0L29 52.8l-2.4-1.6a1 1 0 0 0-1.2 0l-1.4 1V30h-2v24q0 .4.3.7l9 9a1 1 0 0 0 1.4 0l9-9 .3-.7V35h-2zm-14 1.1 2.4 1.6a1 1 0 0 0 1.2 0l2.4-1.6 2.4 1.6a1 1 0 0 0 1.2 0l2.4-1.6 1.4 1-3.8 3.8h-7.2l-3.8-3.8zm6 8.4L30.4 60h3.2zM19 21.3a1 1 0 0 0-.7-.7l-3-.4-1.2-2.6c-.3-.7-1.5-.7-1.8 0L11 20.2l-2.9.4a1 1 0 0 0-.6 1.7l2.1 2-.5 3q0 .5.4 1a1 1 0 0 0 1.1 0l2.6-1.4 2.6 1.4a1 1 0 0 0 1.4-1l-.5-3 2.1-2q.4-.5.3-1m-4.1 2a1 1 0 0 0-.3.9l.2 1.4-1.2-.7a1 1 0 0 0-1 0l-1.2.7.2-1.4a1 1 0 0 0-.3-1l-1-1 1.4-.1a1 1 0 0 0 .8-.6l.6-1.2.6 1.2a1 1 0 0 0 .8.6l1.4.2zm3-14.7-.6 3.6a1 1 0 0 0 1.5 1.1l3.2-1.7 3.3 1.7a1 1 0 0 0 1.4-1l-.6-3.7 2.6-2.5a1 1 0 0 0-.5-1.7l-3.6-.6L23 .6c-.3-.7-1.4-.7-1.8 0l-1.6 3.2-3.6.6a1 1 0 0 0-.6 1.7zm2.4-2.9a1 1 0 0 0 .8-.5l1-2 .9 2a1 1 0 0 0 .8.5l2 .4-1.5 1.5a1 1 0 0 0-.2.9l.3 2-1.9-1a1 1 0 0 0-1 0l-1.8 1 .3-2a1 1 0 0 0-.3-1l-1.5-1.4zm25.3 9.4 4.1-4a1 1 0 0 0-.5-1.8l-5.7-.8L41 3.3c-.3-.6-1.4-.6-1.8 0l-2.5 5.2-5.7.8a1 1 0 0 0-.6 1.7l4.2 4-1 5.7a1 1 0 0 0 1.4 1l5.1-2.6 5.1 2.7a1 1 0 0 0 1.5-1zM44 14a1 1 0 0 0-.2.9l.7 4.2-3.8-2a1 1 0 0 0-1 0l-3.7 2 .7-4.2a1 1 0 0 0-.3-.9l-3-3 4.2-.6a1 1 0 0 0 .8-.5L40 6l2 3.9.7.5 4.2.6zm13.2 12.2-2.5-.3-1.1-2.3c-.4-.7-1.5-.7-1.8 0l-1.2 2.3-2.5.3a1 1 0 0 0-.6 1.7l1.9 1.8-.5 2.5a1 1 0 0 0 1 1.2l.5-.1 2.3-1.2 2.2 1.2a1 1 0 0 0 1.5-1l-.5-2.6 1.9-1.8a1 1 0 0 0-.6-1.7m-3 2.5-.3.8.2 1-1-.4a1 1 0 0 0-.9 0l-1 .5.2-1a1 1 0 0 0-.2-1l-.8-.7 1-.1a1 1 0 0 0 .8-.6l.5-1 .4 1q.3.5.8.6l1 .1z"/><path d="M29 37h2c0-7.2-5.4-13-12-13v2c5.5 0 10 5 10 11m6 5h2c0-7 3.2-13 7-13v-2c-5 0-9 6.6-9 15m-8-17h2c0-2.2 1.3-4 3-4v-2c-2.8 0-5 2.7-5 6m-7-9c1.7 0 3 1.8 3 4h2c0-3.3-2.2-6-5-6zm21 8v-2c-5 0-9 4.5-9 10h2c0-4.4 3.1-8 7-8m-6 20h2v2h-2zm-3-10h2v2h-2zm-3 5h2v2h-2zm0 4h2v2h-2zm0 4h2v2h-2zM12 30h2v2h-2zM0 16h2v2H0zm8-4h2v2H8zm41 5h2v2h-2zm11-7h2v2h-2zM4 5h2v2H4zm7-1h2v2h-2zm37-1h2v2h-2zm6 8h2v2h-2zM4 24H2v2H0v2h2v2h2v-2h2v-2H4zm57-8h-2v2h-2v2h2v2h2v-2h2v-2h-2zm0-16a3 3 0 1 0 0 6 3 3 0 0 0 0-6m0 4a1 1 0 1 1 0-2 1 1 0 0 1 0 2"/></svg>