<svg xmlns="http://www.w3.org/2000/svg" viewBox="0 0 1024 1024"><path d="M409.6 267.6c-.8 2-.8 452.7 0 454.8.6 1.4 10.4 1.6 101.8 1.6 55.6 0 101.7-.4 102.4-.8 1-.7 1.2-47.1 1-228.8l-.3-227.9-102.1-.3c-92.5-.2-102.2-.1-102.8 1.4m199.9 34.9v31l-5.5.6c-5.4.6-6.3.3-11.5-3.5-2.1-1.6-6.5.4-11.5 5-2.7 2.6-7.5 5.8-10.7 7.4-17.4 8.2-37.8 25.8-51.7 44.7l-5.9 8-4.1-2.7c-5.9-4-11.7-5.4-23.6-5.4-11.6-.1-17.3 1.3-27 6.6-11.8 6.5-20.7 16.6-24.8 28.1-1.4 4-2 4.7-3.7 4.3-1.1-.3-5-.9-8.7-1.2l-6.7-.7.1-76.1c0-41.8.2-76.4.5-76.9.2-.4 44.2-.6 97.6-.5l97.2.3zM592 336.9c0 1-3 2.4-3.7 1.7-.3-.3-.2-.9.2-1.5.8-1.3 3.5-1.5 3.5-.2m18 78.7c0 41.5-.3 75.4-.7 75.4-.5-.1-1.8-2.3-3.1-5-8.5-18-29.8-30.3-50.3-28.8l-5.9.4V443c0-21.1 3.2-40.4 9.7-57.5 6.8-18.2 18.7-38.2 23.6-39.7 1.2-.3 4.2-.6 6.7-.7 4-.1 8.4-2 10-4.2.6-.8 8-1.7 9.3-1.1.4.2.7 34.3.7 75.8m-41.2-62.9c-2.6 2.9-11.4 21.2-14.6 30.5-3 8.5-6.4 21.5-7.7 29.3-2.2 14-3 15-5.9 8-2.4-6-9.8-14.8-14.9-17.9-2.3-1.4-4.8-2.9-5.6-3.5-1.1-.7.2-3 6.2-10.7 10.1-13.2 21.1-23.6 33.2-31.6 9.8-6.4 12.4-7.6 9.3-4.1M500 395.5c10.8 3.8 11.3 4.3 8 8.5l-1.9 2.5-3-2.3c-5.5-4-8.7-2.2-4.9 2.8 3.3 4.5 10.1 8.2 15.6 8.3 5.9.2 6.3-1.8 1-4.5l-3.7-2 2-2.8 2.1-2.8 3.7 2.1c2 1.1 4.9 3.2 6.5 4.6 4.6 4.2 12.8 17.4 13.1 21.3 0 .3.3 1 .8 1.4 1.2 1.3.8 11.7-.8 16.9-2.8 9.1-3.7 10.5-7.9 11.6-13.5 3.6-27.2 16.9-32.3 31-2.2 6.2-3 7.6-4.3 7-.8-.5-3.2-1.1-5.2-1.5-4.3-.8-4.3-.8-2.6-7.2.8-2.9 2.5-5.9 4.5-7.8 3.7-3.5 4-4.8 1.7-10.2-5-11.9-19.1-28.2-29.6-34.1-6.8-3.9-16.8-8-21.4-8.9-1.9-.3-3.4-1.2-3.4-1.9s1.6-4.4 3.5-8.3c5.5-10.9 15.8-19.3 29.5-23.9 5.3-1.8 8.2-2.1 15.5-1.8 5 .2 11 1.1 13.5 2m-63 39c22.3 5.9 37.5 17.5 47.9 36.7 1.6 3.2 2.6 6 2.2 6.3-.5.2-7.3.4-15.2.2-15.7-.2-18.1.3-15.3 3.4 1.5 1.7 3.2 1.9 13.6 1.9 13.2 0 12.6-.5 9.9 8l-1.8 5.5-6.4 1.2c-12.9 2.3-21.4 6.7-30.7 15.7l-6.3 6.1-9.8.3-9.8.4-.6-7.9c-.3-4.3-.6-24.4-.7-44.7l-.1-36.9 6.8.6c3.7.4 11.1 1.8 16.3 3.2m107.4 20.6c0 1.8-.6 3.5-1.2 3.7-1.4.4-1.4-.3-.6-4.7.8-3.9 1.9-3.3 1.8 1m20 7.8c.3.4 2.4 1.1 4.7 1.5 5.1.8 15.1 5.8 20.7 10.4 10.2 8.4 18.2 25.8 18.2 40 0 7.4-4 20.8-8.2 27.4-4.4 6.9-14.8 16.2-22 19.6-9.7 4.6-21.6 6.4-30.4 4.6-2.8-.5-2.9-.7-2.5-6.2.5-8.1-1.6-18.5-5.5-27-4.3-9.3-15.3-20.6-23.7-24.3-3.1-1.3-5.7-2.9-5.7-3.4 0-1.9 5.1-12 12.2-24.2 6.1-10.4 7.7-12.4 11.2-14.1 3.4-1.7 10.1-4.2 11.1-4.2.2 0 .5 1.8.7 4 .3 3.7.2 4-2.2 4-6.8.1-9.4 3.1-4.2 5.1 6.5 2.6 21.2-1.1 21.2-5.3 0-2-.9-2.1-7.2-.2-1.5.4-1.8-.1-1.8-3.5 0-3.6.3-4 2.8-4.4 5.1-.8 10.1-.7 10.6.2m-47.8 15.9c-1.9 2.6-5.6 9.1-8.2 14.5-4.8 10.1-7.1 12.3-6.1 6.2.9-5.4 5.6-14 11-20.1 6-6.7 7.9-7.1 3.3-.6m-20.7 27.1c3.1 1.4 5.7 2.5 5.9 2.6.1.1-.4 1.8-1.1 3.8l-1.2 3.7-3.7-2.6c-3.6-2.6-6.8-2.7-6.8-.3 0 1.6 6.6 7.5 10.4 9.3 4 1.8 13.8 2.5 14.3 1 .6-1.8-2.5-4.4-5.2-4.4-3.1 0-3.8-1.3-2.4-4.4 1.5-3.3 2.2-3.2 8.6.4 7.8 4.5 14.5 11.9 19.2 21.3 3.4 6.8 4.2 9.5 4.7 16.2.8 9.9-.6 17.3-4.7 26.1-3.8 8.2-9.3 15-15.7 19.8-15.6 11.3-33.6 15.1-48.8 10-16.6-5.4-27.5-14.6-34.3-28.6-6.5-13.4-7.6-23.8-4-36.8 6.8-24.6 26.7-40.2 50.8-39.8 6.4.2 9.6.8 14 2.7m-64.9 20c0 .5-1.1 3.3-2.4 6.2-6.6 15.2-7.1 29-1.6 44.1 4.8 13.3 11.6 22.2 22.8 30s30.2 12.2 42.2 9.9c15.9-3.1 25.4-7.9 35.6-17.7 6.4-6 10-11.5 12.9-19.5l2.2-6.2 11.9-.2c6.5 0 12.5-.3 13.2-.5.8-.3 2.1 1.8 3.7 6.2 2.3 6.6 9.1 17.2 13.7 21.4 4.7 4.3 13.1 9.4 18.9 11.5l5.9 2.2V718H413.9l.3-96 .3-95.9 7-.4c3.9-.1 7.6-.4 8.3-.5.6-.1 1.2.2 1.2.7m179 45.4c0 18.9-.3 34.6-.6 35-.3.3-3.8-1.1-7.7-3.1-9.2-4.7-18.1-13.6-22.3-22.3-4.9-10-4.9-10.2 2.4-14.1 6.7-3.5 19-13.5 19.1-15.5.1-.6.5-1.3.9-1.5 1.3-.4 6.2-9.6 6.2-11.3 0-.8.5-1.5 1-1.5.6 0 1 12.1 1 34.3M230.8 301.1c-1.7.9-1.8 10.9-1.8 186.9 0 176.2.1 186 1.8 186.9 2.1 1.1 157.1.9 159-.2 1.7-1.2 1.8-371.7 0-373.5-1.6-1.6-156.4-1.7-159-.1M385 363.9v57.8l-7.2-1.3c-9.1-1.6-19.9-5.3-28-9.6-8.6-4.5-21.3-17-22.2-21.9-.9-5.2-3-6.7-5.7-4.3-2.1 1.8-2.1 2.5-1.6 16.9.9 25.1 4.8 43.9 16.2 78.9 2.5 7.6 4.5 14 4.5 14.1 0 .2-2.4.9-5.4 1.5-20.5 4.2-38 22.5-42.2 44-3.6 18.7 2.7 39.7 16 53.4 7.5 7.7 12.6 11 23 14.8 15.2 5.5 31.8 4.5 45.9-3 2.9-1.5 5.5-2.8 6-3 .4-.2.7 15 .7 33.7V670H235V306h150zm-53.4 41.3c10.5 10.1 28.6 18.5 45.4 21.1l7.5 1.2.3 40.8.2 40.8-2.2-.6c-4.4-1.3-13.2-7-19.1-12.5-8.9-8.2-22.5-26.1-24.2-32-.4-1.4-1.1-3-1.5-3.5-.7-1-3.5-9.5-5.9-18-2-7.2-5.3-26.6-4.7-28 .3-.8.1-1.7-.4-2-1.1-.7-1.4-11.5-.4-11.5.3 0 2.6 1.9 5 4.2m20.2 87c.7 1 .9 1.8.3 1.8-.5 0-1.6.3-2.4.6-1.1.4-2.1-.8-3.5-3.9-3.8-8.6-3.7-9.5.4-4.8 2.2 2.5 4.5 5.3 5.2 6.3m12.4 11.9c7.2 5.8 12.8 9.2 17.8 10.8l3.5 1.1-.3 39.2-.3 39.3-5.4 3.3c-7.8 4.7-15.9 7.3-25 7.9-31.7 2.2-59.9-28.4-55.8-60.6 2.5-19.5 15.3-35.1 34.3-41.9 10.3-3.7 10.5-3.7 12.4 1.1 2.2 5.8 2.2 5.8-2.4 5.1-3.2-.5-4.1-.3-4.6 1-1 2.6.7 3.6 7.9 4.6 8.4 1.2 16-1 16.5-4.9.4-2.5-.4-2.6-7.4-.5-1.9.5-2.4-.1-3.8-4.2-2.2-6.4-2.2-6.4 2.3-6.4 3.3 0 5.1.9 10.3 5.1m269.7-202.4c-1.2 1.3-1.4 31-1.2 186.6.2 118.4.6 185.4 1.3 186.2 1.1 1.3 156.6 1.6 158.8.2.9-.7 1.2-39 1.2-186.1 0-178.2-.1-185.4-1.8-186.9-1.7-1.6-8.6-1.7-79.4-1.7-70.9 0-77.7.1-78.9 1.7M788 488v182H638v-55.7l4.1-.7c9-1.4 23.3-7.8 28-12.5.8-.9 2.8-2.7 4.5-4.1 7-6 14.2-18.1 16.9-28.5 1.9-7.4 1.8-23-.2-30-2.2-7.6-9.1-19.3-14.2-24.3-3.6-3.4-10.7-8.8-15.9-11.8-.2-.1 1.7-2.9 4.2-6.2s4.6-6.2 4.6-6.5 1.5-2.7 3.3-5.4c4-5.9 14.4-27 18.7-37.9 5-12.5 10.9-32.8 12.3-41.9 1.3-8.7 3.5-15.7 7-22 2.1-3.9 4.1-8.5 4.4-10.2 1.1-6.5-3.8-8.1-11.7-3.9-6 3.2-7.2 6.6-5.1 14.6 1.5 6 1.5 6.2-1.5 23.7-1.3 7.4-6.7 26.3-9.9 34.6-4.6 11.7-12.7 28.5-17.1 35.4-1.9 2.9-3.4 5.5-3.4 5.7 0 .7-11 16.5-11.9 17-.4.3-3.3-.8-6.6-2.5-3.2-1.6-6.8-2.9-8.1-2.9H638V306h150zm-79-114.3c-.1.5-1.2 2.8-2.5 5.3-1.6 3.1-2.4 3.9-2.5 2.5 0-1.1-.3-2.9-.6-4.1-.4-1.5.1-2.3 1.8-3.1 2.8-1.4 3.8-1.5 3.8-.6m-60.7 128.7c3.1 1.4 3.6 1.9 2.8 3.4-2.6 4.5-2.7 4.5-6 2.7-2.3-1.2-3.6-1.3-4.5-.6-1.8 1.5-2.6.3-2.6-4.2 0-3.9 0-4 3.3-3.4 1.7.3 4.9 1.3 7 2.1m21.2 13.9c8.7 7.9 12 12.6 15.2 21.3 4.4 12.4 2.3 30.5-5.1 43.1-7.2 12.2-20.3 22.1-34.1 25.7-3.2.8-6.2 1.3-6.5 1-.8-.9-1.2-61.4-.5-80l.7-17 3.1 2.9c3.8 3.6 8.6 5.7 13.8 6.2 3 .3 3.8 0 4.2-1.6.6-2.2.3-2.4-4-3.4-3.9-.8-3.9-.8-1.2-4.6 1.9-2.7 2.2-2.8 4.7-1.5 1.5.8 5.9 4.4 9.7 7.9"/></svg>